<?xml version="1.0" encoding="UTF-8" standalone="no"?>
<svg
   xmlns:dc="http://purl.org/dc/elements/1.1/"
   xmlns:cc="http://creativecommons.org/ns#"
   xmlns:rdf="http://www.w3.org/1999/02/22-rdf-syntax-ns#"
   xmlns:svg="http://www.w3.org/2000/svg"
   xmlns="http://www.w3.org/2000/svg"
   version="1.1"
   id="svg8430"
   viewBox="0 0 354.63624 60.440639">
  <defs
     id="defs8432">
    <clipPath
       clipPathUnits="userSpaceOnUse"
       id="clipPath8992">
      <path
         d="m 0,119.055 354.331,0 L 354.331,0 0,0 0,119.055 Z"
         id="path8994" />
    </clipPath>
  </defs>
  <metadata
     id="metadata8435">
    <rdf:RDF>
      <cc:Work
         rdf:about="">
        <dc:format>image/svg+xml</dc:format>
        <dc:type
           rdf:resource="http://purl.org/dc/dcmitype/StillImage" />
        <dc:title></dc:title>
      </cc:Work>
    </rdf:RDF>
  </metadata>
  <g
     transform="translate(-261.96759,-199.28474)"
     id="layer1">
    <g
       id="g8986"
       transform="matrix(1.25,0,0,-1.25,217.85384,304.07538)">
      <g
         id="g8988">
        <g
           id="g8990"
           clip-path="url(#clipPath8992)">
          <path
             d="m 318.085,69.875 c -1.47,2.655 -4.625,4.669 -8.062,4.669 -3.018,0 -5.672,-1.236 -5.672,-4.438 0,-2.702 3.342,-4.535 6.822,-6.775 3.796,-2.381 7.733,-5.31 7.733,-10.394 0,-6.634 -6.451,-10.712 -13.915,-10.712 -3.068,0 -6.27,0.597 -9.887,1.97 l 0.594,8.836 c 1.74,-3.527 4.992,-6.318 9.798,-6.318 3.706,0 6.45,1.783 6.45,4.898 0,2.656 -2.244,4.305 -4.988,5.95 -5.767,3.479 -9.426,6.274 -9.426,11.306 0,7.553 6.314,10.071 12.859,10.071 3.799,0 6.181,-0.684 8.609,-0.684 l -0.915,-8.379 z m -31.996,-7.921 c -0.825,-1.372 -1.877,-3.244 -2.523,-4.621 -0.546,-2.609 -0.82,-6.089 -0.82,-9.932 0,-1.603 0.274,-3.754 1.004,-4.488 l -9.562,0 c 1.689,1.603 2.376,11.443 2.287,14.557 -1.283,4.441 -3.023,8.699 -5.677,13.872 -1.693,3.249 -3.663,6.313 -4.899,6.912 2.151,0.18 4.899,0.316 6.228,0.316 2.377,0 3.019,-0.316 4.484,-3.522 2.287,-5.173 3.981,-9.063 4.99,-11.948 2.427,3.8 4.12,6.408 6.317,9.977 0.548,0.872 1.005,1.971 1.005,3.027 0,0.821 -0.137,1.735 -0.504,2.15 l 9.477,0 c -1.831,-0.415 -10.072,-13.367 -11.807,-16.3 m -33.279,8.011 -5.677,-12.311 9.246,0 -3.569,12.311 m 11.123,-27.373 c -3.023,0 -3.253,0.094 -5.677,8.422 l -0.868,3.068 c -1.466,-0.684 -4.074,-1.008 -8.242,-1.008 l -4.21,0 -0.731,-1.553 c -1.056,-2.337 -2.472,-5.082 -2.472,-7.005 0,-0.457 0.043,-0.962 0.228,-1.603 l -24.995,0 c 1.424,1.603 1.881,6.775 2.565,16.16 l 0.137,2.24 c 0.367,5.361 0.645,9.477 0.598,12.363 -0.047,2.377 -0.278,3.889 -0.918,4.578 l 9.66,0 c -1.372,-1.056 -1.877,-6.729 -2.518,-16.115 l -0.183,-2.241 c -0.232,-3.479 -0.689,-7.051 -0.689,-10.531 0,-1.598 0.642,-1.966 2.291,-1.966 5.857,0 7.323,0.133 9.978,1.919 1.645,3.023 3.526,6.823 5.356,10.762 l 2.471,5.262 c 2.334,4.946 4.621,9.977 4.621,10.939 0,0.689 -0.18,1.329 -0.453,1.971 l 7.689,0 c 0,0 3.109,-11.537 3.797,-14.009 l 1.513,-5.583 c 2.607,-9.389 4.254,-13.963 6.455,-15.749 -1.834,-0.227 -4.441,-0.321 -5.403,-0.321 m -62.3,-0.367 c -9.11,0 -14.372,7.506 -14.372,15.933 0,11.717 6.361,20.78 18.493,20.78 3.8,0 5.586,-0.684 8.651,-0.684 l -0.915,-9.02 c -1.739,3.16 -4.578,5.31 -8.378,5.31 -7.549,0 -10.618,-8.148 -10.618,-15.15 0,-7.599 4.257,-11.762 9.934,-11.762 3.065,0 5.766,0.821 10.298,3.979 -1.83,-5.86 -6.087,-9.386 -13.093,-9.386 m -31.582,31.724 c -0.868,0 -1.924,0 -2.744,-0.09 -0.279,-1.512 -0.505,-4.121 -0.826,-8.331 l -0.183,-2.475 c 0.457,-0.09 1.052,-0.137 1.602,-0.137 4.395,0 7.417,2.655 7.417,6.682 0,2.749 -1.923,4.351 -5.266,4.351 m 12.772,-32.55 c -2.611,0 -3.253,0.415 -4.12,1.608 l -9.888,13.732 c -0.778,1.052 -1.372,1.923 -2.607,1.923 l -0.231,0 -0.184,-2.656 c -0.23,-3.616 -0.367,-6.502 -0.367,-8.652 0.047,-2.381 0.32,-3.847 0.962,-4.441 l -9.564,0 c 1.372,1.239 1.873,5.356 2.655,16.16 l 0.137,2.24 c 0.363,5.314 0.637,9.434 0.594,12.316 -0.047,2.517 -0.32,4.073 -1.009,4.625 l 13.047,0 c 4.258,0 10.114,-0.735 10.114,-7.648 0,-5.676 -3.8,-8.789 -8.511,-10.251 0.458,-0.414 1.278,-1.465 1.787,-2.107 l 7.185,-9.521 c 4.485,-5.905 4.853,-6.178 6.451,-7.002 -2.013,-0.232 -4.714,-0.326 -6.451,-0.326 m -44.585,28.566 -5.723,-12.311 9.297,0 -3.574,12.311 m 11.123,-27.373 c -3.022,0 -3.249,0.094 -5.676,8.422 l -0.869,3.068 c -1.465,-0.684 -4.074,-1.008 -8.241,-1.008 l -4.211,0 -0.731,-1.553 c -0.731,-1.649 -2.518,-5.039 -2.471,-7.005 0,-0.457 0.043,-0.915 0.227,-1.603 l -8.468,0 c 2.428,2.428 5.493,8.058 9.75,17.169 l 2.472,5.262 c 2.244,4.762 4.625,10.161 4.625,10.939 0,0.689 -0.185,1.329 -0.458,1.971 l 7.69,0 c 0,0 2.014,-7.648 3.796,-14.009 l 1.514,-5.583 c 2.607,-9.389 4.257,-13.963 6.454,-15.749 -1.97,-0.227 -4.441,-0.321 -5.403,-0.321 m -43.577,31.404 c -0.684,0 -1.602,0 -2.471,-0.094 -0.367,-2.47 -0.594,-4.851 -0.777,-7.46 0,0 -0.138,-2.244 -0.138,-2.149 l 0.915,0 c 4.485,0 8.605,1.556 8.605,5.672 0,2.382 -1.97,4.031 -6.134,4.031 m -1.141,-14.008 -2.518,0 -0.368,-5.217 c -0.183,-2.292 -0.273,-4.211 -0.32,-6.502 0,-0.321 1.004,-1.009 3.386,-1.009 4.945,0 8.194,2.471 8.194,6.549 0,4.529 -3.706,6.179 -8.374,6.179 m 0.547,-17.075 -12.358,0 c 1.556,1.376 1.966,6.733 2.654,16.16 l 0.137,2.198 c 0.368,5.356 0.642,9.476 0.594,12.358 -0.043,2.475 -0.32,4.073 -1.008,4.625 l 13.824,0 c 3.3,0 9.888,-0.184 9.888,-7.049 0,-4.578 -4.258,-7.417 -8.144,-8.426 5.493,-0.55 9.61,-3.206 9.61,-8.881 0,-6.129 -5.767,-10.985 -15.197,-10.985"
             style="fill:#00adef;fill-opacity:1;fill-rule:nonzero;stroke:none"
             id="path8996" />
          <path
             d="m 80.463,64.249 c 0,-6.122 -1.846,-11.484 -4.934,-15.934 -0.096,-0.136 -0.233,-0.144 -0.364,-0.015 -1.431,1.443 -2.774,3.202 -3.64,4.938 -0.207,-0.14 -0.395,-0.446 -0.395,-0.856 0,-1.388 1.111,-4.203 2.239,-6.028 0.51,-0.826 -0.26,-1.424 -1.027,-0.962 -2.392,1.833 -5.071,5.281 -6.583,8.82 -0.266,-0.177 -0.458,-0.579 -0.458,-1.028 0,-1.373 1.658,-5.822 5.294,-10.087 0.095,-0.118 0.086,-0.235 -0.012,-0.322 -3.597,-3.177 -7.972,-5.649 -12.706,-7.295 -4.737,1.646 -9.109,4.118 -12.707,7.295 -0.097,0.087 -0.109,0.204 -0.011,0.322 3.636,4.265 5.289,8.714 5.289,10.087 0,0.449 -0.187,0.851 -0.453,1.028 -1.513,-3.539 -4.191,-6.987 -6.586,-8.82 -0.78,-0.505 -1.536,0.136 -1.026,0.962 1.128,1.825 2.24,4.64 2.24,6.028 0,0.41 -0.189,0.716 -0.398,0.856 -0.865,-1.736 -2.207,-3.495 -3.641,-4.938 -0.128,-0.129 -0.265,-0.121 -0.359,0.015 -3.093,4.45 -4.934,9.812 -4.934,15.934 0,10.721 4.523,13.974 8.435,13.974 2.584,0.004 4.312,-1.419 4.312,-3.191 0,-0.95 -0.573,-1.912 -1.472,-2.131 0.61,-0.973 1.885,-1.348 3.349,-1.297 2.688,0.089 4.38,1.68 4.502,5.352 0.08,2.373 -1.787,3.135 -3.354,3.131 -1.013,0 -1.43,-0.188 -1.65,-0.527 -0.849,1.223 0.512,3.62 4.03,3.62 l 0.825,0 c 0.251,0.312 0.667,0.626 1.269,0.645 0.831,0.024 2.293,0.008 3.301,-0.317 2.256,-0.735 2.659,-2.487 2.78,-6.154 0.125,-3.67 1.531,-5.661 4.219,-5.75 1.464,-0.051 2.741,0.324 3.351,1.297 -0.904,0.219 -1.475,1.181 -1.475,2.131 0,1.772 1.728,3.195 4.313,3.191 3.913,0 8.437,-3.253 8.437,-13.974"
             style="fill:#00adef;fill-opacity:1;fill-rule:nonzero;stroke:none"
             id="path8998" />
        </g>
      </g>
    </g>
  </g>
</svg>
