<?xml version="1.0" encoding="UTF-8" standalone="no"?>
<svg
   xmlns:dc="http://purl.org/dc/elements/1.1/"
   xmlns:cc="http://creativecommons.org/ns#"
   xmlns:rdf="http://www.w3.org/1999/02/22-rdf-syntax-ns#"
   xmlns:svg="http://www.w3.org/2000/svg"
   xmlns="http://www.w3.org/2000/svg"
   viewBox="0 0 426.19125 76.785194"
   height="76.785194"
   width="426.19125"
   xml:space="preserve"
   version="1.1"
   id="svg2"><metadata
     id="metadata8"><rdf:RDF><cc:Work
         rdf:about=""><dc:format>image/svg+xml</dc:format><dc:type
           rdf:resource="http://purl.org/dc/dcmitype/StillImage" /><dc:title></dc:title></cc:Work></rdf:RDF></metadata><defs
     id="defs6"><clipPath
       id="clipPath18"
       clipPathUnits="userSpaceOnUse"><path
         id="path20"
         d="m 3201.74,586.66 c 8.71,5.625 18.81,9.363 27.17,10.293 6.11,0.672 26.27,0.41 49.25,0.41 0.1,0 0.18,-0.05 0.24,-0.125 l -0.59,1.012 c -0.06,0.09 -0.13,0.137 -2.01,0.137 l -43.51,0 c -6.12,0 -29.58,0 -56.84,-33.114 0.37,-0.429 0.72,-0.851 1.07,-1.269 7,8.184 15.78,16.562 25.22,22.656 z" /></clipPath><radialGradient
       id="radialGradient22"
       spreadMethod="pad"
       gradientTransform="matrix(336.033,0,0,-336.033,3315.85,264.541)"
       gradientUnits="userSpaceOnUse"
       r="1"
       cy="0"
       cx="0"
       fy="0"
       fx="0"><stop
         id="stop24"
         offset="0"
         style="stop-opacity:1;stop-color:#fdde34" /><stop
         id="stop26"
         offset="0.48"
         style="stop-opacity:1;stop-color:#fab80a" /><stop
         id="stop28"
         offset="0.89"
         style="stop-opacity:1;stop-color:#ed950e" /><stop
         id="stop30"
         offset="1"
         style="stop-opacity:1;stop-color:#e07a10" /></radialGradient><clipPath
       id="clipPath38"
       clipPathUnits="userSpaceOnUse"><path
         id="path40"
         d="m 3244.71,598.387 -170.57,0 c -0.08,0 -0.18,-0.047 -0.21,-0.125 l -85.43,-147.949 -26.78,-46.387 -3.11,-5.379 -0.41,-0.688 c -0.02,-0.054 -0.02,-0.164 0.02,-0.254 l 82.25,-142.417 c -0.33,0.984 -0.88,2.078 -0.88,2.078 -1.74,3.222 -3.03,5.722 -3.71,7.297 -3.38,7.703 -5.33,18.367 -4.81,28.718 1.37,27.285 15.86,54.207 23.15,66.836 17.11,29.641 50.19,86.946 50.19,86.946 0,0 33.09,57.3 50.2,86.941 7.3,12.629 23.36,38.644 46.31,53.465 8.71,5.636 18.92,9.269 27.26,10.199 2.78,0.301 8.42,0.477 15.92,0.582 0.59,0.012 0.61,0.012 0.61,0.137 z" /></clipPath><radialGradient
       id="radialGradient42"
       spreadMethod="pad"
       gradientTransform="matrix(335.347,0,0,-335.347,3226.06,598.643)"
       gradientUnits="userSpaceOnUse"
       r="1"
       cy="0"
       cx="0"
       fy="0"
       fx="0"><stop
         id="stop44"
         offset="0"
         style="stop-opacity:1;stop-color:#fdde34" /><stop
         id="stop46"
         offset="0.48"
         style="stop-opacity:1;stop-color:#fab80a" /><stop
         id="stop48"
         offset="0.89"
         style="stop-opacity:1;stop-color:#ed950e" /><stop
         id="stop50"
         offset="1"
         style="stop-opacity:1;stop-color:#e07a10" /></radialGradient><clipPath
       id="clipPath58"
       clipPathUnits="userSpaceOnUse"><path
         id="path60"
         d="m 3376.64,368.699 c -3.83,-6.441 -6.82,-11.258 -8.46,-13.504 -4.98,-6.765 -13.24,-13.789 -22.46,-18.515 -24.33,-12.461 -54.88,-13.36 -69.47,-13.36 -34.22,0 -100.39,0 -100.39,0 0,0 -66.17,0 -100.39,0 -14.57,0 -45.14,0.899 -69.45,13.36 -9.24,4.726 -17.5,11.75 -22.48,18.515 -1.65,2.246 -4.61,7.051 -8.44,13.489 -0.3,0.496 -0.47,0.535 -0.47,0.535 l 8.5,-14.715 76.83,-133.086 c 0.04,-0.063 0.14,-0.117 0.22,-0.117 l 115.68,0 115.7,0 c 0.08,0 0.16,0.054 0.22,0.137 l 85.33,147.792 c 0,0 -0.16,-0.031 -0.47,-0.531 z" /></clipPath><radialGradient
       id="radialGradient62"
       spreadMethod="pad"
       gradientTransform="matrix(334.436,0,0,-334.436,2983.97,353.125)"
       gradientUnits="userSpaceOnUse"
       r="1"
       cy="0"
       cx="0"
       fy="0"
       fx="0"><stop
         id="stop64"
         offset="0"
         style="stop-opacity:1;stop-color:#fdde34" /><stop
         id="stop66"
         offset="0.48"
         style="stop-opacity:1;stop-color:#fab80a" /><stop
         id="stop68"
         offset="0.89"
         style="stop-opacity:1;stop-color:#ed950e" /><stop
         id="stop70"
         offset="1"
         style="stop-opacity:1;stop-color:#e07a10" /></radialGradient><clipPath
       id="clipPath78"
       clipPathUnits="userSpaceOnUse"><path
         id="path80"
         d="M 3393.5,397.871 3277.81,598.25 c -0.06,0.09 -0.13,0.137 -0.23,0.137 -11.53,0 -32.91,0 -32.91,0 0,0 0.02,-0.125 -0.57,-0.137 -7.5,-0.105 -13.14,-0.281 -15.92,-0.582 -8.34,-0.93 -18.55,-4.563 -27.26,-10.199 -9.61,-6.199 -18.01,-14.364 -25.06,-22.684 9.8,-11.562 17.01,-23.437 21.25,-30.781 17.11,-29.641 50.19,-86.941 50.19,-86.941 0,0 33.09,-57.305 50.2,-86.946 7.29,-12.629 21.8,-39.551 23.16,-66.836 0.51,-10.351 -1.44,-21.015 -4.8,-28.718 -1.13,-2.543 -3.81,-7.532 -7.46,-14.067 -0.29,-0.496 -0.27,-0.738 -0.27,-0.738 l 85.37,147.871 c 0.04,0.066 0.04,0.176 0,0.242 z" /></clipPath><radialGradient
       id="radialGradient82"
       spreadMethod="pad"
       gradientTransform="matrix(335.962,0,0,-335.962,3315.84,266.035)"
       gradientUnits="userSpaceOnUse"
       r="1"
       cy="0"
       cx="0"
       fy="0"
       fx="0"><stop
         id="stop84"
         offset="0"
         style="stop-opacity:1;stop-color:#fdde34" /><stop
         id="stop86"
         offset="0.48"
         style="stop-opacity:1;stop-color:#fab80a" /><stop
         id="stop88"
         offset="0.89"
         style="stop-opacity:1;stop-color:#ed950e" /><stop
         id="stop90"
         offset="1"
         style="stop-opacity:1;stop-color:#e07a10" /></radialGradient><clipPath
       id="clipPath98"
       clipPathUnits="userSpaceOnUse"><path
         id="path100"
         d="M 0,600 0,0 l 3393.53,0 0,600 L 0,600 Z" /></clipPath></defs><g
     transform="matrix(1.25,0,0,-1.25,1,75.798375)"
     id="g10"><g
       transform="scale(0.1,0.1)"
       id="g12"><g
         id="g14"><g
           clip-path="url(#clipPath18)"
           id="g16"><path
             id="path32"
             style="fill:url(#radialGradient22);fill-opacity:1;fill-rule:nonzero;stroke:none"
             d="m 3201.74,586.66 c 8.71,5.625 18.81,9.363 27.17,10.293 6.11,0.672 26.27,0.41 49.25,0.41 0.1,0 0.18,-0.05 0.24,-0.125 l -0.59,1.012 c -0.06,0.09 -0.13,0.137 -2.01,0.137 l -43.51,0 c -6.12,0 -29.58,0 -56.84,-33.114 0.37,-0.429 0.72,-0.851 1.07,-1.269 7,8.184 15.78,16.562 25.22,22.656" /></g></g><g
         id="g34"><g
           clip-path="url(#clipPath38)"
           id="g36"><path
             id="path52"
             style="fill:url(#radialGradient42);fill-opacity:1;fill-rule:nonzero;stroke:none"
             d="m 3244.71,598.387 -170.57,0 c -0.08,0 -0.18,-0.047 -0.21,-0.125 l -85.43,-147.949 -26.78,-46.387 -3.11,-5.379 -0.41,-0.688 c -0.02,-0.054 -0.02,-0.164 0.02,-0.254 l 82.25,-142.417 c -0.33,0.984 -0.88,2.078 -0.88,2.078 -1.74,3.222 -3.03,5.722 -3.71,7.297 -3.38,7.703 -5.33,18.367 -4.81,28.718 1.37,27.285 15.86,54.207 23.15,66.836 17.11,29.641 50.19,86.946 50.19,86.946 0,0 33.09,57.3 50.2,86.941 7.3,12.629 23.36,38.644 46.31,53.465 8.71,5.636 18.92,9.269 27.26,10.199 2.78,0.301 8.42,0.477 15.92,0.582 0.59,0.012 0.61,0.012 0.61,0.137" /></g></g><g
         id="g54"><g
           clip-path="url(#clipPath58)"
           id="g56"><path
             id="path72"
             style="fill:url(#radialGradient62);fill-opacity:1;fill-rule:nonzero;stroke:none"
             d="m 3376.64,368.699 c -3.83,-6.441 -6.82,-11.258 -8.46,-13.504 -4.98,-6.765 -13.24,-13.789 -22.46,-18.515 -24.33,-12.461 -54.88,-13.36 -69.47,-13.36 -34.22,0 -100.39,0 -100.39,0 0,0 -66.17,0 -100.39,0 -14.57,0 -45.14,0.899 -69.45,13.36 -9.24,4.726 -17.5,11.75 -22.48,18.515 -1.65,2.246 -4.61,7.051 -8.44,13.489 -0.3,0.496 -0.47,0.535 -0.47,0.535 l 8.5,-14.715 76.83,-133.086 c 0.04,-0.063 0.14,-0.117 0.22,-0.117 l 231.38,0 c 0.08,0 0.16,0.054 0.22,0.137 l 85.33,147.792 c 0,0 -0.16,-0.031 -0.47,-0.531" /></g></g><g
         id="g74"><g
           clip-path="url(#clipPath78)"
           id="g76"><path
             id="path92"
             style="fill:url(#radialGradient82);fill-opacity:1;fill-rule:nonzero;stroke:none"
             d="M 3393.5,397.871 3277.81,598.25 c -0.06,0.09 -0.13,0.137 -0.23,0.137 -11.53,0 -32.91,0 -32.91,0 0,0 0.02,-0.125 -0.57,-0.137 -7.5,-0.105 -13.14,-0.281 -15.92,-0.582 -8.34,-0.93 -18.55,-4.563 -27.26,-10.199 -9.61,-6.199 -18.01,-14.364 -25.06,-22.684 9.8,-11.562 17.01,-23.437 21.25,-30.781 17.11,-29.641 50.19,-86.941 50.19,-86.941 0,0 33.09,-57.305 50.2,-86.946 7.29,-12.629 21.8,-39.551 23.16,-66.836 0.51,-10.351 -1.44,-21.015 -4.8,-28.718 -1.13,-2.543 -3.81,-7.532 -7.46,-14.067 -0.29,-0.496 -0.27,-0.738 -0.27,-0.738 l 85.37,147.871 c 0.04,0.066 0.04,0.176 0,0.242" /></g></g><g
         id="g94"><g
           clip-path="url(#clipPath98)"
           id="g96"><path
             id="path102"
             style="fill:#231f20;fill-opacity:1;fill-rule:nonzero;stroke:none"
             d="m 97.9063,287.598 c 30.8987,0 54.7267,11.172 72.9607,32.015 l -26.801,27.551 c -11.171,-11.914 -25.316,-18.238 -43.554,-18.238 -32.0159,0 -53.6057,26.054 -53.6057,61.797 0,34.625 21.9609,61.425 52.8593,61.425 16.0114,0 29.7814,-5.957 40.9534,-16.753 l 27.918,29.039 c -16.379,17.867 -40.574,29.035 -68.125,29.035 C 44.668,493.469 0,447.309 0,389.605 0,329.297 43.9219,287.598 97.9063,287.598 l 0,0" /><path
             id="path104"
             style="fill:#231f20;fill-opacity:1;fill-rule:nonzero;stroke:none"
             d="m 290.551,287.598 c 59.191,0 103.863,46.539 103.863,103.871 0,58.07 -42.059,102 -102.367,102 -59.192,0 -103.863,-46.535 -103.863,-103.864 0,-58.078 42.058,-102.007 102.367,-102.007 l 0,0 z m 0.75,40.582 c -34.625,0 -56.961,26.8 -56.961,62.543 0,33.871 21.969,62.172 56.961,62.172 34.25,0 56.957,-26.809 56.957,-62.543 0,-33.875 -21.598,-62.172 -56.957,-62.172 l 0,0" /><path
             id="path106"
             style="fill:#231f20;fill-opacity:1;fill-rule:nonzero;stroke:none"
             d="m 561.887,291.324 33.203,109.18 c 5.961,18.984 10.73,40.476 11.582,46.039 l 0.082,-0.004 c -0.195,-5.559 0.18,-27.148 2.035,-48.75 l 8.938,-106.465 43.933,0 -19.363,198.793 -57.695,0 -29.856,-98.75 c -3.242,-10.722 -6.941,-23.402 -8.93,-32.285 -1.054,-4.102 -1.421,-4.844 -1.421,-9.687 0,4.843 -0.379,5.585 -1.434,9.683 -2.281,8.844 -5.805,21.68 -9.301,32.656 l -30.219,98.383 -58.824,0 -19.351,-198.793 41.32,0 8.937,107.215 c 1.86,20.852 2.231,42.441 2.032,48 l 0.078,0.004 c 0.867,-5.563 6.004,-27.055 11.957,-46.785 l 33.207,-108.434 39.09,0 0,0" /><path
             id="path108"
             style="fill:#231f20;fill-opacity:1;fill-rule:nonzero;stroke:none"
             d="m 841.5,291.324 33.207,109.18 c 5.957,18.984 10.727,40.476 11.578,46.039 l 0.082,-0.004 c -0.195,-5.559 0.18,-27.148 2.039,-48.75 l 8.934,-106.465 43.933,0 -19.359,198.793 -57.699,0 -29.856,-98.75 c -3.242,-10.722 -6.941,-23.402 -8.929,-32.285 -1.055,-4.102 -1.422,-4.844 -1.422,-9.687 0,4.843 -0.375,5.585 -1.43,9.683 -2.285,8.844 -5.805,21.68 -9.297,32.656 l -30.222,98.383 -58.825,0 -19.355,-198.793 41.32,0 8.938,107.215 c 1.867,20.852 2.23,42.441 2.031,48 l 0.078,0.004 c 0.867,-5.563 6.012,-27.055 11.965,-46.785 l 33.199,-108.434 39.09,0 0,0" /><path
             id="path110"
             style="fill:#231f20;fill-opacity:1;fill-rule:nonzero;stroke:none"
             d="m 991.121,291.324 129.179,0 0,37.973 -86.74,0 0,43.555 73.72,0 0,37.226 -73.72,0 0,42.07 85.63,0 0,37.969 -128.069,0 0,-198.793" /><path
             id="path112"
             style="fill:#231f20;fill-opacity:1;fill-rule:nonzero;stroke:none"
             d="m 1324.57,291.324 -48.77,80.043 c 25.68,9.672 40.2,29.41 40.2,55.094 0,40.203 -22.71,63.656 -82.65,63.656 l -59.56,0 0,-198.793 42.44,0 0,72.223 15.26,0 42.45,-72.223 50.63,0 0,0 z m -52.5,135.137 c 0,-18.617 -12.66,-27.18 -37.23,-27.18 l -18.61,0 0,54.356 18.61,0 c 23.46,0 37.23,-7.821 37.23,-27.176" /><path
             id="path114"
             style="fill:#231f20;fill-opacity:1;fill-rule:nonzero;stroke:none"
             d="m 1352.34,291.324 138.48,0 0,37.973 -83.38,0 81.52,128.062 0,32.758 -134.76,0 0,-37.969 81.15,0 -83.01,-128.066 0,-32.758" /><path
             id="path116"
             style="fill:#231f20;fill-opacity:1;fill-rule:nonzero;stroke:none"
             d="m 1699.77,362.891 c -12.92,13.015 -48.78,5.863 -72.44,29.703 -9.97,10.047 -14.76,23.445 -14.76,39.086 0,34.625 29.15,62.164 76.05,62.164 17.7,0 35.79,-4.453 50.54,-11.903 l -15.04,-35.793 c -10.33,5.586 -24.82,9.774 -37.73,9.774 -19.55,0 -28.83,-10.832 -28.83,-22.02 0,-5.937 2.17,-10.851 5.51,-14.207 12.9,-13.015 49.16,-5.89 72.77,-29.73 9.98,-10.024 14.8,-23.813 14.8,-39.457 0,-34.981 -29.19,-62.91 -76.44,-62.91 -22.14,0 -44.67,7.058 -61.63,17.515 l 15.79,36.895 c 12.56,-8.555 29.97,-16.106 48.08,-16.106 19.55,0 28.84,10.84 28.84,22.368 0,5.984 -2.2,11.246 -5.51,14.621" /><path
             id="path118"
             style="fill:#231f20;fill-opacity:1;fill-rule:nonzero;stroke:none"
             d="m 1823.44,291.324 0,78.184 -67.93,120.621 48.32,0 29.51,-55.465 c 7.01,-13.402 13.36,-25.324 13.36,-25.324 0,0 6.31,11.922 13.69,25.687 l 29.53,55.102 44.61,0 -67.56,-120.621 0,-78.184 -43.53,0" /><path
             id="path120"
             style="fill:#231f20;fill-opacity:1;fill-rule:nonzero;stroke:none"
             d="m 2027.36,362.891 c -12.91,13.015 -48.79,5.863 -72.44,29.703 -9.96,10.047 -14.76,23.445 -14.76,39.086 0,34.625 29.16,62.164 76.05,62.164 17.72,0 35.8,-4.453 50.55,-11.903 l -15.04,-35.793 c -10.33,5.586 -24.83,9.774 -37.74,9.774 -19.55,0 -28.82,-10.832 -28.82,-22.02 0,-5.937 2.16,-10.851 5.5,-14.207 12.89,-13.015 49.16,-5.89 72.78,-29.73 9.98,-10.024 14.8,-23.813 14.8,-39.457 0,-34.981 -29.2,-62.91 -76.44,-62.91 -22.15,0 -44.67,7.058 -61.64,17.515 l 15.8,36.895 c 12.56,-8.555 29.96,-16.106 48.06,-16.106 19.57,0 28.87,10.84 28.87,22.368 0,5.984 -2.21,11.246 -5.53,14.621" /><path
             id="path122"
             style="fill:#231f20;fill-opacity:1;fill-rule:nonzero;stroke:none"
             d="m 2146.93,451.41 -55.41,0 0,38.719 153.58,0 0,-38.719 -55.39,0 0,-160.086 -42.78,0 0,160.086" /><path
             id="path124"
             style="fill:#231f20;fill-opacity:1;fill-rule:nonzero;stroke:none"
             d="m 2276.45,291.324 129.18,0 0,37.973 -86.74,0 0,43.555 73.71,0 0,37.222 -73.71,0 0,42.071 85.62,0 0,37.972 -128.06,0 0,-198.793" /><path
             id="path126"
             style="fill:#231f20;fill-opacity:1;fill-rule:nonzero;stroke:none"
             d="m 2578.85,291.324 33.2,109.18 c 5.96,18.984 10.72,40.476 11.58,46.039 l 0.08,-0.004 c -0.19,-5.559 0.18,-27.148 2.03,-48.75 l 8.95,-106.465 43.92,0 -19.35,198.793 -57.7,0 -29.86,-98.75 c -3.24,-10.722 -6.93,-23.402 -8.93,-32.285 -1.05,-4.102 -1.42,-4.844 -1.42,-9.687 0,4.843 -0.37,5.585 -1.43,9.683 -2.28,8.844 -5.8,21.68 -9.29,32.656 l -30.24,98.383 -58.81,0 -19.35,-198.793 41.31,0 8.94,107.215 c 1.86,20.852 2.23,42.441 2.03,48 l 0.08,0.004 c 0.86,-5.563 6.02,-27.055 11.95,-46.785 l 33.21,-108.434 39.1,0 0,0" /><path
             id="path128"
             style="fill:#231f20;fill-opacity:1;fill-rule:nonzero;stroke:none"
             d="m 2793.69,362.891 c -12.93,13.015 -48.79,5.863 -72.44,29.703 -9.96,10.047 -14.77,23.445 -14.77,39.086 0,34.625 29.16,62.164 76.06,62.164 17.71,0 35.8,-4.453 50.55,-11.903 l -15.04,-35.793 c -10.34,5.586 -24.83,9.774 -37.74,9.774 -19.57,0 -28.83,-10.832 -28.83,-22.02 0,-5.937 2.17,-10.851 5.51,-14.207 12.89,-13.015 49.16,-5.89 72.78,-29.73 9.98,-10.024 14.8,-23.813 14.8,-39.457 0,-34.981 -29.2,-62.91 -76.44,-62.91 -22.15,0 -44.67,7.058 -61.65,17.515 l 15.81,36.895 c 12.53,-8.555 29.96,-16.106 48.06,-16.106 19.57,0 28.85,10.84 28.85,22.368 0,5.984 -2.19,11.246 -5.51,14.621" /><path
             id="path130"
             style="fill:#231f20;fill-opacity:1;fill-rule:nonzero;stroke:none"
             d="m 1143.81,51.9258 c -14.39,-10.9805 -25.36,-15.6563 -44.97,-15.6563 -40.84,0 -59.73,31.6602 -59.73,66.3865 0,34.004 23.21,64.578 59.73,64.578 17.99,0 32.02,-5.933 41.56,-16.004 l -9.18,-17.453 c -7.19,7.739 -14.03,16.196 -32.02,16.196 -21.05,0 -35.62,-20.696 -35.62,-47.317 0,-25.9099 15.47,-49.1091 35.8,-49.1091 14.93,0 24.82,5.0273 35.44,16.3633 l 8.99,-17.9844" /><path
             id="path132"
             style="fill:#231f20;fill-opacity:1;fill-rule:nonzero;stroke:none"
             d="m 1201.16,117.949 c -13.68,0 -19.43,-14.929 -19.43,-32.9295 0,-22.4804 5.57,-34.539 19.43,-34.539 14.75,0 19.43,14.9297 19.43,34.539 0,19.9685 -5.22,32.9295 -19.43,32.9295 z m 0,-81.3162 c -29.51,0 -42.82,17.625 -42.82,48.3867 0,23.9335 12.59,46.7775 42.82,46.7775 29.68,0 42.81,-19.609 42.81,-46.7775 0,-25.8984 -12.41,-48.3867 -42.81,-48.3867" /><path
             id="path134"
             style="fill:#231f20;fill-opacity:1;fill-rule:nonzero;stroke:none"
             d="m 1376.69,38.7891 0,58.289 c 0,10.0699 -3.59,19.9729 -15.29,19.9729 -10.07,0 -17.09,-12.422 -17.09,-20.1565 l 0,-58.1054 -22.13,0 0,58.289 c 0,11.5159 -5.21,19.9729 -14.75,19.9729 -11.33,0 -17.63,-13.86 -17.63,-20.1565 l 0,-58.1054 -22.3,0 0,89.0549 19.79,0 1.07,-12.778 c 4.86,7.739 12.6,16.731 27.53,16.731 13.67,0 21.77,-6.66 26.08,-16.731 4.14,7.012 13.49,16.731 26.27,16.731 19.43,0 30.76,-11.692 30.76,-30.402 l 0,-62.6059 -22.31,0" /><path
             id="path136"
             style="fill:#231f20;fill-opacity:1;fill-rule:nonzero;stroke:none"
             d="m 1537.46,38.7891 0,58.289 c 0,10.0699 -3.6,19.9729 -15.29,19.9729 -10.08,0 -17.09,-12.422 -17.09,-20.1565 l 0,-58.1054 -22.13,0 0,58.289 c 0,11.5159 -5.22,19.9729 -14.75,19.9729 -11.33,0 -17.63,-13.86 -17.63,-20.1565 l 0,-58.1054 -22.31,0 0,89.0549 19.79,0 1.08,-12.778 c 4.85,7.739 12.59,16.731 27.53,16.731 13.67,0 21.76,-6.66 26.08,-16.731 4.14,7.012 13.49,16.731 26.26,16.731 19.43,0 30.77,-11.692 30.77,-30.402 l 0,-62.6059 -22.31,0" /><path
             id="path138"
             style="fill:#231f20;fill-opacity:1;fill-rule:nonzero;stroke:none"
             d="m 1642.99,93.6602 c 0,13.6758 -5.75,24.6408 -18.35,24.6408 -12.23,0 -18.35,-11.153 -18.35,-24.6408 l 36.7,0 z m -36.7,-13.4922 c 0.9,-21.9453 11.87,-29.3282 22.13,-29.3282 12.23,0 20.51,3.9649 28.43,10.9766 l 5.93,-14.9297 c -6.3,-5.039 -17.99,-10.2539 -34.72,-10.2539 -35.26,0 -44.79,23.9258 -44.79,48.3867 0,21.9535 12.05,46.7775 41.55,46.7775 29.33,0 40.3,-22.844 40.3,-43.7111 l 0,-7.9179 -58.83,0" /><path
             id="path140"
             style="fill:#231f20;fill-opacity:1;fill-rule:nonzero;stroke:none"
             d="m 1745.68,110.203 c -2.16,1.445 -6.83,5.227 -13.49,5.227 -14.4,0 -21.59,-10.977 -21.59,-21.055 l 0,-55.5859 -22.31,0 0,89.0549 19.79,0 1.08,-12.778 c 4.67,7.012 10.98,16.731 25.9,16.731 7.02,0 14.04,-3.594 16.74,-5.574 l -6.12,-16.02" /><path
             id="path142"
             style="fill:#231f20;fill-opacity:1;fill-rule:nonzero;stroke:none"
             d="m 1761.3,38.7891 0,10.0781 50.01,62.9568 -47.68,0 0,16.02 78.26,0 0,-10.078 -49.47,-62.9613 50.55,0 0,-16.0156 -81.67,0" /><path
             id="path144"
             style="fill:#231f20;fill-opacity:1;fill-rule:nonzero;stroke:none"
             d="m 1906.61,117.051 c -10.79,0 -18.35,-14.942 -18.35,-21.4143 l 0,-25.7265 c 0,-7.1954 5.94,-18.8868 18.35,-18.8868 16.19,0 20.69,15.293 20.69,33.9961 0,16.9145 -4.68,32.0315 -20.69,32.0315 z m 3.78,-80.4182 c -11.51,0 -19.25,7.918 -23.03,14.0313 l -1.79,-11.875 -18.89,0 0,125.9299 22.3,0 0,-49.289 c 5.22,10.066 14.03,16.367 24.83,16.367 17.81,0 36.87,-13.848 36.87,-46.7775 0,-32.5586 -18.34,-48.3867 -40.29,-48.3867" /><path
             id="path146"
             style="fill:#231f20;fill-opacity:1;fill-rule:nonzero;stroke:none"
             d="m 2020.09,80.7031 -6.65,-0.5351 c -13.67,-1.2617 -23.75,-6.3008 -23.75,-17.9883 0,-5.0391 2.87,-12.0508 13.12,-12.0508 12.06,0 17.28,9.168 17.28,14.9297 l 0,15.6445 z m 2.7,-41.914 -1.44,11.3398 c -6.48,-8.0976 -14.93,-13.4961 -25.19,-13.4961 -17.45,0 -28.78,8.0938 -28.78,25.3594 0,23.5742 27.16,29.1523 46.06,30.5859 l 6.65,0.5352 0,6.4883 c 0,11.5114 -5.4,18.3474 -14.76,18.3474 -10.79,0 -19.42,-5.222 -25.72,-10.801 l -6.48,14.219 c 4.32,3.77 17.99,10.43 33.82,10.43 24.48,0 34.91,-11.516 34.91,-33.1056 l 0,-44.6094 c 0,-2.1562 0,-8.0976 1.26,-15.2929 l -20.33,0" /><path
             id="path148"
             style="fill:#231f20;fill-opacity:1;fill-rule:nonzero;stroke:none"
             d="m 2128.16,38.7891 0,58.289 c 0,11.5159 -5.57,19.9729 -16.36,19.9729 -12.24,0 -19.08,-13.321 -19.08,-20.1565 l 0,-58.1054 -22.3,0 0,89.0549 19.79,0 1.08,-12.778 c 4.68,7.012 13.5,16.731 27.7,16.731 19.43,0 31.48,-11.692 31.48,-30.402 l 0,-62.6059 -22.31,0" /><path
             id="path150"
             style="fill:#231f20;fill-opacity:1;fill-rule:nonzero;stroke:none"
             d="m 2238.22,38.7891 -36.16,47.1406 0,-47.1406 -22.3,0 0,125.9299 22.3,0 0,-78.6135 32.2,41.7385 25.54,0 -33.45,-40.8401 38.32,-48.2148 -26.45,0" /><path
             id="path152"
             style="fill:#231f20;fill-opacity:1;fill-rule:nonzero;stroke:none"
             d="m 2439.65,48.1445 c -10.79,-6.6601 -25.19,-11.875 -46.78,-11.875 -38.13,0 -60.99,26.2696 -60.99,66.5625 0,43.535 31.66,64.402 60.99,64.402 20.87,0 33.82,-6.296 42.28,-14.031 l -9.53,-17.629 c -6.66,7.739 -16.37,14.758 -32.75,14.758 -21.04,0 -36.7,-18.894 -36.7,-47.5 0,-29.5039 15.66,-49.6484 37.79,-49.6484 12.94,0 20.14,3.2344 23.2,6.1133 l 0,32.0195 -28.07,0 0,17.2776 50.56,0 0,-60.4495" /><path
             id="path154"
             style="fill:#231f20;fill-opacity:1;fill-rule:nonzero;stroke:none"
             d="m 2524.69,110.203 c -2.16,1.445 -6.84,5.227 -13.49,5.227 -14.39,0 -21.59,-10.977 -21.59,-21.055 l 0,-55.5859 -22.31,0 0,89.0549 19.79,0 1.08,-12.778 c 4.68,7.012 10.97,16.731 25.9,16.731 7.02,0 14.04,-3.594 16.74,-5.574 l -6.12,-16.02" /><path
             id="path156"
             style="fill:#231f20;fill-opacity:1;fill-rule:nonzero;stroke:none"
             d="m 2578.63,117.949 c -13.67,0 -19.43,-14.929 -19.43,-32.9295 0,-22.4804 5.58,-34.539 19.43,-34.539 14.75,0 19.43,14.9297 19.43,34.539 0,19.9685 -5.22,32.9295 -19.43,32.9295 z m 0,-81.3162 c -29.5,0 -42.82,17.625 -42.82,48.3867 0,23.9335 12.6,46.7775 42.82,46.7775 29.68,0 42.82,-19.609 42.82,-46.7775 0,-25.8984 -12.42,-48.3867 -42.82,-48.3867" /><path
             id="path158"
             style="fill:#231f20;fill-opacity:1;fill-rule:nonzero;stroke:none"
             d="m 2703.26,38.7891 -1.08,12.7734 c -3.78,-5.7617 -12.95,-14.9297 -27.17,-14.9297 -19.42,0 -30.76,11.875 -30.76,28.6016 l 0,62.6096 22.31,0 0,-58.2932 c 0,-10.2539 4.86,-18.1641 15.65,-18.1641 12.23,0 18.53,11.8672 18.53,18.3477 l 0,58.1096 22.31,0 0,-89.0549 -19.79,0" /><path
             id="path160"
             style="fill:#231f20;fill-opacity:1;fill-rule:nonzero;stroke:none"
             d="m 2792.27,117.051 c -10.81,0 -18.35,-14.942 -18.35,-21.4143 l 0,-25.7265 c 0,-7.1954 5.92,-18.8868 18.35,-18.8868 16.19,0 20.68,15.6485 20.68,34.3594 0,16.7262 -5.4,31.6682 -20.68,31.6682 z m 3.77,-80.4182 c -10.97,0 -16.37,5.2149 -21.41,11.875 l 0,-48.402331 -22.31,0 0,127.738531 19.79,0 1.08,-12.778 c 4.68,7.012 13.68,16.731 26.62,16.731 17.82,0 36.53,-14.57 36.53,-46.7775 0,-32.3828 -17.81,-48.3867 -40.3,-48.3867" /></g></g></g></g></svg>