<?xml version="1.0" encoding="UTF-8" standalone="no"?>
<svg
   xmlns:dc="http://purl.org/dc/elements/1.1/"
   xmlns:cc="http://creativecommons.org/ns#"
   xmlns:rdf="http://www.w3.org/1999/02/22-rdf-syntax-ns#"
   xmlns:svg="http://www.w3.org/2000/svg"
   xmlns="http://www.w3.org/2000/svg"
   viewBox="0 0 240.55862 94.392623"
   height="94.392624"
   width="240.55862"
   xml:space="preserve"
   version="1.1"
   id="svg2"><metadata
     id="metadata8"><rdf:RDF><cc:Work
         rdf:about=""><dc:format>image/svg+xml</dc:format><dc:type
           rdf:resource="http://purl.org/dc/dcmitype/StillImage" /><dc:title></dc:title></cc:Work></rdf:RDF></metadata><defs
     id="defs6"><clipPath
       id="clipPath16"
       clipPathUnits="userSpaceOnUse"><path
         id="path18"
         d="m 0,419.527 595.275,0 L 595.275,0 0,0 0,419.527 Z" /></clipPath></defs><g
     transform="matrix(1.25,0,0,-1.25,-251.76738,294.50925)"
     id="g10"><g
       id="g12"><g
         clip-path="url(#clipPath16)"
         id="g14"><g
           transform="translate(376.7549,203.1221)"
           id="g20"><path
             id="path22"
             style="fill:#1c4f9c;fill-opacity:1;fill-rule:nonzero;stroke:none"
             d="m 0,0 c -5.234,0 -8.502,4.213 -8.502,9.229 0,5.014 3.34,9.302 8.357,9.302 2.397,0 5.018,-1.165 6.323,-2.91 l 6.904,7.995 c -2.836,2.907 -8.283,4.869 -13.445,4.869 -11.262,0 -20.205,-7.485 -20.205,-19.256 0,-11.995 8.871,-19.262 20.279,-19.262 5.307,0 10.391,1.744 13.371,4.656 L 6.469,2.686 C 5.018,0.941 2.396,0 0,0" /></g><path
           id="path24"
           style="fill:#1c4f9c;fill-opacity:1;fill-rule:nonzero;stroke:none"
           d="m 338.728,194.255 11.924,0 0,36.19 -11.924,0 0,-36.19 z" /><g
           transform="translate(226.0054,221.6504)"
           id="g26"><path
             id="path28"
             style="fill:#1c4f9c;fill-opacity:1;fill-rule:nonzero;stroke:none"
             d="m 0,0 c 2.4,0 5.012,-1.162 6.324,-2.903 l 6.901,7.991 c -2.834,2.907 -8.286,4.869 -13.442,4.869 -11.267,0 -20.205,-7.485 -20.205,-19.26 0,-11.987 8.863,-19.255 20.277,-19.255 5.303,0 10.391,1.745 13.37,4.647 l -6.612,8.072 c -1.455,-1.744 -4.07,-2.693 -6.468,-2.693 -5.231,0 -8.502,4.217 -8.502,9.229 C -8.357,-4.286 -5.014,0 0,0" /></g><g
           transform="translate(318.8252,231.4619)"
           id="g30"><path
             id="path32"
             style="fill:#1c4f9c;fill-opacity:1;fill-rule:nonzero;stroke:none"
             d="m 0,0 c -5.014,0 -9.154,-2.834 -10.826,-6.029 l -0.143,0 0,5.012 -11.558,0 0,-20.684 c 2.658,-2.824 4.326,-6.631 4.326,-10.895 0,-1.613 -0.244,-3.158 -0.682,-4.611 l 8.346,0 0,19.62 c 0,4.145 2.18,7.778 6.396,7.778 4.289,0 5.375,-3.633 5.375,-7.629 l 0,-19.769 12.002,0 0,22.381 C 13.236,-7.557 9.746,0 0,0" /></g><g
           transform="translate(268.876,198.7061)"
           id="g34"><path
             id="path36"
             style="fill:#1c4f9c;fill-opacity:1;fill-rule:nonzero;stroke:none"
             d="m 0,0 c 0,1.658 0.262,3.264 0.744,4.777 l -13.158,0 17.518,18.022 0,8.94 -30.887,0 0,-9.157 16.352,0 -17.004,-17.732 0,-9.303 27.091,0 C 0.238,-3.049 0,-1.559 0,0" /></g><g
           transform="translate(284.8486,188.9463)"
           id="g38"><path
             id="path40"
             style="fill:#dd1634;fill-opacity:1;fill-rule:nonzero;stroke:none"
             d="m 0,0 c -5.406,0 -10.02,4.248 -10.02,9.822 0,5.465 4.52,10.022 10.02,10.022 5.301,0 9.822,-4.356 9.822,-9.924 C 9.822,4.35 5.301,0 0,0" /></g><g
           transform="translate(212.1689,174.7773)"
           id="g42"><path
             id="path44"
             style="fill:#1c4f9c;fill-opacity:1;fill-rule:nonzero;stroke:none"
             d="m 0,0 c -0.523,0.75 -1.379,1.239 -2.548,1.239 -1.223,0 -2.637,-0.733 -2.637,-2.321 0,-1.571 1.31,-1.973 2.689,-2.427 1.746,-0.576 3.666,-1.135 3.666,-3.613 0,-2.48 -2.077,-3.562 -4.032,-3.562 -1.501,0 -3.003,0.612 -3.893,1.833 l 1.082,0.803 c 0.541,-0.872 1.536,-1.554 2.828,-1.554 1.275,0 2.741,0.804 2.741,2.392 0,1.729 -1.45,2.165 -3.02,2.653 -1.641,0.507 -3.316,1.223 -3.316,3.457 0,2.391 2.128,3.404 3.944,3.404 1.658,0 2.897,-0.699 3.491,-1.501 L 0,0 Z" /></g><g
           transform="translate(217.3848,171.2158)"
           id="g46"><path
             id="path48"
             style="fill:#1c4f9c;fill-opacity:1;fill-rule:nonzero;stroke:none"
             d="m 0,0 2.13,0 c 1.955,0 3.019,0.786 3.019,2.252 0,1.519 -1.117,2.217 -3.019,2.217 L 0,4.469 0,0 Z m -1.257,5.552 3.491,0 c 2.514,0 4.172,-1.083 4.172,-3.3 0,-2.217 -1.693,-3.316 -4.207,-3.316 l -2.199,0 0,-5.744 -1.257,0 0,12.36 z" /></g><g
           transform="translate(227.6104,171.2686)"
           id="g50"><path
             id="path52"
             style="fill:#1c4f9c;fill-opacity:1;fill-rule:nonzero;stroke:none"
             d="m 0,0 2.183,0 c 2.006,0 3.159,0.733 3.159,2.199 0,1.624 -1.239,2.217 -3.108,2.217 L 0,4.416 0,0 Z m 0,-6.86 -1.257,0 0,12.359 3.631,0 c 2.444,0 4.225,-0.891 4.225,-3.3 0,-1.833 -1.362,-2.985 -3.16,-3.177 l 3.614,-5.882 -1.536,0 -3.422,5.778 -2.095,0 0,-5.778 z" /></g><g
           transform="translate(241.8867,177.7441)"
           id="g54"><path
             id="path56"
             style="fill:#1c4f9c;fill-opacity:1;fill-rule:nonzero;stroke:none"
             d="m 0,0 -1.03,0 1.745,2.514 1.589,0 L 0,0 Z m -3.247,-8.938 5.446,0 -2.723,6.565 -2.723,-6.565 z m -1.816,-4.398 -1.378,0 5.341,12.359 1.222,0 5.307,-12.359 -1.397,0 -1.362,3.247 -6.389,0 -1.344,-3.247 z" /></g><g
           transform="translate(252.4951,166.0313)"
           id="g58"><path
             id="path60"
             style="fill:#1c4f9c;fill-opacity:1;fill-rule:nonzero;stroke:none"
             d="m 0,0 0.035,0 4.015,10.736 1.344,0 -4.731,-12.359 -1.326,0 -4.713,12.359 1.361,0 L 0,0 Z" /></g><g
           transform="translate(269.8779,166.3984)"
           id="g62"><path
             id="path64"
             style="fill:#1c4f9c;fill-opacity:1;fill-rule:nonzero;stroke:none"
             d="m 0,0 c -0.82,-1.239 -2.409,-2.305 -4.626,-2.305 -3.735,0 -6.441,2.742 -6.441,6.494 0,3.753 2.757,6.494 6.441,6.494 1.815,0 3.543,-0.75 4.398,-1.955 L -1.274,7.96 c -0.524,0.803 -1.764,1.623 -3.334,1.623 -3.195,0 -5.133,-2.514 -5.133,-5.394 0,-2.88 1.955,-5.394 5.133,-5.394 1.414,0 2.775,0.559 3.63,1.833 L 0,0 Z" /></g><g
           transform="translate(273.3984,165.5254)"
           id="g66"><path
             id="path68"
             style="fill:#1c4f9c;fill-opacity:1;fill-rule:nonzero;stroke:none"
             d="m 0,0 6.616,0 0,-1.117 -7.873,0 0,12.359 7.663,0 0,-1.117 -6.406,0 0,-4.26 5.987,0 0,-1.099 L 0,4.766 0,0 Z" /></g><g
           transform="translate(288.3008,165.5254)"
           id="g70"><path
             id="path72"
             style="fill:#1c4f9c;fill-opacity:1;fill-rule:nonzero;stroke:none"
             d="m 0,0 2.496,0 c 3.719,0 5.517,2.514 5.517,5.063 0,2.548 -1.798,5.062 -5.517,5.062 L 0,10.125 0,0 Z m -1.257,11.242 4.103,0 c 3.09,0 6.493,-2.06 6.493,-6.179 0,-4.121 -3.403,-6.18 -6.493,-6.18 l -4.103,0 0,12.359 z" /></g><g
           transform="translate(306.1367,175.9814)"
           id="g74"><path
             id="path76"
             style="fill:#1c4f9c;fill-opacity:1;fill-rule:nonzero;stroke:none"
             d="m 0,0 c -3.177,0 -5.115,-2.514 -5.115,-5.394 0,-2.88 1.938,-5.377 5.115,-5.377 3.177,0 5.114,2.497 5.114,5.377 C 5.114,-2.514 3.177,0 0,0 m 0,-11.888 c -3.684,0 -6.441,2.742 -6.441,6.494 0,3.753 2.757,6.494 6.441,6.494 3.684,0 6.441,-2.741 6.441,-6.494 0,-3.752 -2.757,-6.494 -6.441,-6.494" /></g><g
           transform="translate(321.4043,166.5381)"
           id="g78"><path
             id="path80"
             style="fill:#1c4f9c;fill-opacity:1;fill-rule:nonzero;stroke:none"
             d="m 0,0 0.018,0 4.137,10.229 1.92,0 0,-12.359 -1.257,0 0,10.735 -0.035,0 -4.469,-10.735 -0.663,0 -4.468,10.735 -0.036,0 0,-10.735 -1.256,0 0,12.359 1.92,0 L 0,0 Z" /></g><g
           transform="translate(334.875,177.7441)"
           id="g82"><path
             id="path84"
             style="fill:#1c4f9c;fill-opacity:1;fill-rule:nonzero;stroke:none"
             d="m 0,0 -1.029,0 1.745,2.514 1.589,0 L 0,0 Z m -2.758,-12.219 6.616,0 0,-1.117 -7.873,0 0,12.359 7.663,0 0,-1.117 -6.406,0 0,-4.26 5.987,0 0,-1.099 -5.987,0 0,-4.766 z" /></g><g
           transform="translate(350.0586,166.2412)"
           id="g86"><path
             id="path88"
             style="fill:#1c4f9c;fill-opacity:1;fill-rule:nonzero;stroke:none"
             d="m 0,0 0.034,0 0,10.526 1.257,0 0,-12.359 -1.57,0 -7.193,10.631 -0.035,0 0,-10.631 -1.257,0 0,12.359 1.572,0 L 0,0 Z" /></g><g
           transform="translate(358.9736,164.4082)"
           id="g90"><path
             id="path92"
             style="fill:#1c4f9c;fill-opacity:1;fill-rule:nonzero;stroke:none"
             d="m 0,0 -1.257,0 0,5.324 -4.626,7.035 1.571,0 3.718,-5.988 3.753,5.988 1.467,0 L 0,5.324 0,0 Z" /></g><g
           transform="translate(379.7939,166.3984)"
           id="g94"><path
             id="path96"
             style="fill:#1c4f9c;fill-opacity:1;fill-rule:nonzero;stroke:none"
             d="m 0,0 c -0.82,-1.239 -2.409,-2.305 -4.626,-2.305 -3.735,0 -6.441,2.742 -6.441,6.494 0,3.753 2.757,6.494 6.441,6.494 1.815,0 3.543,-0.75 4.398,-1.955 L -1.274,7.96 c -0.524,0.803 -1.764,1.623 -3.334,1.623 -3.195,0 -5.133,-2.514 -5.133,-5.394 0,-2.88 1.955,-5.394 5.133,-5.394 1.414,0 2.775,0.559 3.63,1.833 L 0,0 Z" /></g><g
           transform="translate(389.7568,175.7197)"
           id="g98"><path
             id="path100"
             style="fill:#1c4f9c;fill-opacity:1;fill-rule:nonzero;stroke:none"
             d="m 0,0 -7.209,-10.194 7.313,0 0,-1.118 -8.902,0 0,1.047 7.227,10.196 -7.034,0 0,1.117 L 0,1.048 0,0 Z" /></g></g></g></g></svg>