<?xml version="1.0" encoding="UTF-8" standalone="no"?>
<!-- Created with Inkscape (http://www.inkscape.org/) -->

<svg
   xmlns:dc="http://purl.org/dc/elements/1.1/"
   xmlns:cc="http://creativecommons.org/ns#"
   xmlns:rdf="http://www.w3.org/1999/02/22-rdf-syntax-ns#"
   xmlns:svg="http://www.w3.org/2000/svg"
   xmlns="http://www.w3.org/2000/svg"
   xmlns:sodipodi="http://sodipodi.sourceforge.net/DTD/sodipodi-0.dtd"
   xmlns:inkscape="http://www.inkscape.org/namespaces/inkscape"
   width="340.78336mm"
   height="88.194443mm"
   viewBox="0 0 340.78336 88.194443"
   version="1.1"
   id="svg1091"
   inkscape:version="0.92.2 (5c3e80d, 2017-08-06)"
   sodipodi:docname="logo_fiedler.svg">
  <defs
     id="defs1085" />
  <sodipodi:namedview
     id="base"
     pagecolor="#ffffff"
     bordercolor="#666666"
     borderopacity="1.0"
     inkscape:pageopacity="0.0"
     inkscape:pageshadow="2"
     inkscape:zoom="0.35"
     inkscape:cx="1209.6925"
     inkscape:cy="-230.54377"
     inkscape:document-units="mm"
     inkscape:current-layer="layer1"
     showgrid="false"
     fit-margin-top="0"
     fit-margin-left="0"
     fit-margin-right="0"
     fit-margin-bottom="0"
     inkscape:window-width="1920"
     inkscape:window-height="1138"
     inkscape:window-x="-8"
     inkscape:window-y="-8"
     inkscape:window-maximized="1" />
  <metadata
     id="metadata1088">
    <rdf:RDF>
      <cc:Work
         rdf:about="">
        <dc:format>image/svg+xml</dc:format>
        <dc:type
           rdf:resource="http://purl.org/dc/dcmitype/StillImage" />
        <dc:title></dc:title>
      </cc:Work>
    </rdf:RDF>
  </metadata>
  <g
     inkscape:label="Vrstva 1"
     inkscape:groupmode="layer"
     id="layer1"
     transform="translate(380.54067,0.35915005)">
    <path
       inkscape:connector-curvature="0"
       style="fill:#025dc0;stroke-width:0.35277778"
       d="M -380.54067,-0.35915005 H -39.757322 V 87.835295 H -380.54067 Z"
       id="path4" />
    <path
       d="m -363.02173,15.371212 c 12.90814,-0.02822 25.81628,-0.02117 38.72442,-0.0035 0.0212,3.072693 0.007,6.145387 0.0106,9.218083 -7.11553,0.02822 -14.23106,0.0035 -21.34658,0.01058 -0.78317,0.0035 -1.55928,0.105833 -2.33539,0.194026 0.007,1.66864 0.007,3.33375 0,5.00239 6.39233,0 12.78114,0.0141 19.17347,-0.0071 0.37747,3.06564 0.11994,6.163029 0.19403,9.246306 -1.0795,0.08819 -2.16253,0.194027 -3.24556,0.186973 -5.3728,-0.0071 -10.74561,-0.0071 -16.11842,-0.0035 0.003,4.646084 0.003,9.295697 0,13.94178 -15.06008,-0.02822 0,0 -15.06008,-0.02822 0,-12.58711 -0.003,-25.170696 0.004,-37.757807 z"
       id="path6"
       inkscape:connector-curvature="0"
       style="fill:#fcfdfe;stroke-width:0.35277778"
       sodipodi:nodetypes="ccccccccccccc" />
    <path
       d="m -319.63006,17.614879 c 0,-0.762 0.11642,-1.513417 0.24695,-2.261307 4.95652,0.0141 9.90952,-0.01058 14.86605,0.01058 0.0353,12.583584 -0.003,25.16364 0.0177,37.747226 -5.0466,0.272055 -10.53739,0.145881 -15.1518,0.0035 0.0529,-11.832167 0.0106,-23.667863 0.0212,-35.500029 z"
       id="path8"
       inkscape:connector-curvature="0"
       style="fill:#fcfdfe;stroke-width:0.35277778"
       sodipodi:nodetypes="cccccc" />
    <path
       d="m -296.04686,53.157241 c -0.004,-12.601223 -0.0141,-25.202446 0.007,-37.803669 13.65249,0.0141 27.30499,-0.01058 40.95749,0.01058 0.0106,3.076224 -0.004,6.148917 0.007,9.22514 -7.72231,0.01765 -15.44461,0.0071 -23.16692,0.0035 -0.97719,-0.0035 -1.9438,0.134057 -2.91394,0.23989 0.007,1.435806 0.007,2.87161 0.007,4.307417 7.04498,0.0635 14.09347,-0.01058 21.13845,0.04233 -0.007,3.12914 0.007,6.261806 -0.0106,9.394473 -7.04497,0.02117 -14.08641,-0.01765 -21.13139,0.02117 0.004,1.640416 0,3.28436 0.0106,4.924777 9.12989,0.0635 18.2633,-0.01058 27.39672,0.03881 0.0106,3.196167 0.004,6.392333 0,9.5885 -14.39544,0.240919 -28.2857,-7.94e-4 -42.30158,0.0071 z"
       id="path10"
       inkscape:connector-curvature="0"
       style="fill:#fcfdfe;stroke-width:0.35277778"
       sodipodi:nodetypes="cccccccccccccc" />
    <path
       inkscape:connector-curvature="0"
       style="fill:#fcfdfe;stroke-width:0.35277778"
       d="m -249.00042,15.364155 c 7.42245,-0.04233 14.84842,-0.0071 22.27087,-0.01765 5.59153,-0.07056 11.34533,0.26811 16.58408,2.402416 3.09033,1.305277 6.02897,3.266721 7.84931,6.148917 2.72344,4.04636 3.2773,9.203973 2.59291,13.934723 -0.55738,4.572 -3.17852,8.93586 -7.16491,11.303 -3.77473,2.511777 -8.34673,3.450167 -12.7882,3.901723 -9.78253,0.225777 -19.56858,0.10936 -29.35111,0.08467 -0.004,-12.583586 -0.0177,-25.170696 0.007,-37.757809 z"
       id="path12" />
    <path
       d="m -193.01811,53.425352 c -0.0988,-12.692944 -0.0388,-25.38589 -0.0318,-38.075307 4.96359,0.02117 9.92717,-0.0071 14.89075,0.0141 0.0177,8.403167 0.007,16.809863 0.004,25.21303 -0.007,0.769056 0.10936,1.531056 0.22578,2.289527 7.80697,-0.0071 15.61747,0.01058 23.42444,-0.0071 0.0282,3.453693 0.0459,6.910916 -0.0106,10.368139 -38.50217,0.197554 0,0 -38.50217,0.197554 z"
       id="path14"
       inkscape:connector-curvature="0"
       style="fill:#fcfdfe;stroke-width:0.35277778"
       sodipodi:nodetypes="cccccccc" />
    <path
       d="m -149.65466,15.364155 c 13.6525,-0.01058 27.305,-0.02117 40.96102,0.0071 0.0212,3.072693 -0.007,6.14539 0.0177,9.218083 -6.7804,0.02469 -13.55725,0.0035 -20.3341,0.01058 -1.89796,0.01765 -3.80296,-0.112889 -5.68327,0.197557 -0.0741,1.449917 -0.0882,2.90336 0.0353,4.34975 7.00969,0.04586 14.0194,-0.0071 21.02557,0.02469 -0.007,3.136196 0.007,6.268862 -0.0106,9.405056 -7.03792,0.02469 -14.07584,-0.02469 -21.11024,0.02469 0.0177,1.640416 0.007,3.280833 0.0177,4.92125 9.12636,0.05645 18.25271,0.0035 27.38261,0.02468 0.0106,3.203221 0,6.406444 0,9.609667 -42.30864,-0.07056 0,0 -42.30864,-0.07056 0.007,-12.573 -0.0106,-25.146 0.007,-37.722529 z"
       id="path16"
       inkscape:connector-curvature="0"
       style="fill:#fcfdfe;stroke-width:0.35277778"
       sodipodi:nodetypes="cccccccccccccc" />
    <path
       d="m -102.43889,15.360629 c 10.075338,-0.0071 20.150668,-0.0071 30.229548,0 2.68817,-0.05644 5.37633,0.232833 8.0292,0.670276 2.73405,0.469197 5.5104,1.770947 6.97442,4.233334 1.44288,2.314223 1.66865,5.210529 1.17123,7.84225 -0.63148,3.122086 -3.02683,5.647973 -5.88785,6.914446 1.31585,0.973667 2.99508,1.710973 3.66535,3.312583 1.36877,3.132667 0.70908,6.62164 1.3194,9.895417 0.16933,1.749779 0.78668,3.421946 1.7286,4.900083 -16.83808,0.0035 0,0 -16.83808,0.0035 -0.33515,-1.340556 -0.73732,-2.68464 -0.68792,-4.08164 0.014,-1.912056 0.007,-3.937 -0.93133,-5.658556 -0.73377,-1.15711 -2.15194,-1.612194 -3.45723,-1.629833 -3.37254,-0.07408 -6.74862,-0.0035 -10.12119,-0.03175 0.0106,3.802943 0,7.602363 0.003,11.405306 l -15.165918,0.165807 c -0.0776,-12.647086 -0.0212,-25.29417 -0.0317,-37.941253 z"
       id="path18"
       inkscape:connector-curvature="0"
       style="fill:#fcfdfe;stroke-width:0.35277778"
       sodipodi:nodetypes="ccccccccccccccccc" />
    <path
       inkscape:connector-curvature="0"
       style="fill:#025dc0;stroke-width:0.35277778"
       d="m -233.9615,24.818602 c 3.34434,-0.03528 6.69572,-0.07056 10.04006,0.03528 2.53294,0.271639 5.31636,1.058333 6.84036,3.263193 1.53106,2.17664 1.57339,4.967113 1.40406,7.521223 -0.22225,2.628196 -1.54164,5.418667 -4.13809,6.41703 -4.49086,1.785054 -9.43328,0.93486 -14.1358,1.10772 -0.007,-6.113637 0.0141,-12.230804 -0.0106,-18.344443 z"
       id="path20" />
    <path
       inkscape:connector-curvature="0"
       style="fill:#025dc0;stroke-width:0.35277778"
       d="m -87.160072,24.959712 c 4.2404,0.0071 8.54075,-0.345723 12.73175,0.469193 2.02493,0.437447 2.73756,3.277307 1.42168,4.769557 -0.80078,1.040696 -2.15193,1.4605 -3.41841,1.432279 -3.60537,0.0635 -7.20725,0.01765 -10.80911,0.02469 0.0317,-2.229556 -0.10935,-4.469696 0.0741,-6.695723 z"
       id="path22" />
    <path
       inkscape:connector-curvature="0"
       style="fill:#fcfdfe;stroke-width:0.35277778"
       d="m -233.3265,63.617102 c 1.27353,-1.104194 3.09739,-0.465667 4.62492,-0.599721 -1.71097,1.658054 -3.74297,2.93511 -5.45395,4.58964 1.88031,2.34597 3.92642,4.55436 5.72912,6.963833 -1.23473,0.0388 -2.46592,0.0388 -3.69712,0.04939 -1.4358,-1.76036 -2.78694,-3.594803 -4.17688,-5.39397 -0.8502,0.606777 -1.76037,1.167693 -2.44123,1.975554 -0.23989,1.11125 -0.0811,2.271889 -0.13758,3.404306 -0.95603,0 -1.91558,0 -2.87161,0 -0.0247,-3.869973 -0.06,-7.739943 0.0212,-11.60639 0.94898,-0.0035 1.89795,0 2.84692,0.0071 0.0494,1.66511 -0.067,3.344333 0.17639,5.00239 1.88383,-1.35114 3.55953,-2.959807 5.37986,-4.392086 z"
       id="path24" />
    <path
       inkscape:connector-curvature="0"
       style="fill:#fcfdfe;stroke-width:0.35277778"
       d="m -172.94858,63.063241 c 2.58586,-0.423333 5.48923,-0.22225 7.59884,1.495777 2.61761,2.11314 2.57175,6.642807 -0.127,8.678336 -2.03906,1.608667 -4.78367,1.629834 -7.24606,1.368777 -2.159,-0.377473 -4.44853,-1.689806 -5.01297,-3.95464 -0.33514,-1.675693 -0.36336,-3.598333 0.68086,-5.04825 0.91017,-1.41111 2.55411,-2.091973 4.10633,-2.54 z"
       id="path26" />
    <path
       inkscape:connector-curvature="0"
       style="fill:#fcfdfe;stroke-width:0.35277778"
       d="m -363.00409,63.479518 c 0.10936,-0.112887 0.32456,-0.338666 0.43039,-0.451554 3.55953,-0.08114 7.11906,-0.0141 10.67858,-0.02117 0.0141,0.673804 0.0177,1.351137 0.0177,2.024943 -2.69169,0.01765 -5.37986,0.0035 -8.06803,0.01058 0.007,0.843139 0.0106,1.68275 0.0212,2.522363 2.4765,-0.0071 4.95653,0.0071 7.43303,-0.0071 0.0177,0.606777 0.0282,1.213557 0.0388,1.82386 -2.48708,0 -4.97063,0.03881 -7.45772,-0.02822 -0.0212,1.065387 -0.0282,2.134304 -0.0282,3.20675 2.82928,0.08819 5.69031,-0.22578 8.49489,0.296333 -0.14111,0.582084 -0.26458,1.171221 -0.37747,1.763887 -3.74297,-0.03175 -7.48947,0.0035 -11.23597,-0.02469 0.0564,-3.704167 -0.06,-7.41539 0.0529,-11.11603 z"
       id="path28" />
    <path
       d="m -348.96001,63.253741 c 1.01248,0 2.02495,0.0035 3.04095,0.02469 0.10583,3.093863 0.0177,6.191253 0.0494,9.28864 l 7.47184,0.05079 c -0.0106,0.596193 -0.0212,1.381492 -0.0317,1.981213 -3.50662,0.01058 -7.01323,0.01765 -10.52337,-0.0035 -0.0388,-3.77825 -0.0247,-7.560027 -0.007,-11.341807 z"
       id="path30"
       inkscape:connector-curvature="0"
       style="fill:#fcfdfe;stroke-width:0.35277778"
       sodipodi:nodetypes="ccccccc" />
    <path
       d="m -336.21414,63.006798 c 3.64772,-0.02469 7.29897,0.0035 10.95022,-0.01765 0.0282,0.673807 0.54681,1.576917 -0.22931,2.007307 -2.55058,0.12347 -5.10469,0.0071 -7.65527,0.04233 0,0.84314 0,1.686277 0.004,2.529417 2.48002,-0.01058 4.95652,0 7.43303,-0.01058 0.0141,0.606777 0.0282,1.213557 0.0459,1.820334 -2.48356,0.0071 -4.96712,0.04586 -7.45067,-0.02822 -0.0317,1.068917 -0.0388,2.141363 -0.0423,3.21028 l 8.25853,0.04269 c 0.007,0.624417 0.007,1.389589 0,2.014006 -3.76767,-0.02822 -7.53886,0.0071 -11.30653,-0.01765 -0.0388,-3.862917 -0.0247,-7.72936 -0.007,-11.592277 z"
       id="path32"
       inkscape:connector-curvature="0"
       style="fill:#fcfdfe;stroke-width:0.35277778"
       sodipodi:nodetypes="ccccccccccccc" />
    <path
       inkscape:connector-curvature="0"
       style="fill:#fcfdfe;stroke-width:0.35277778"
       d="m -322.15595,62.996214 c 0.9525,0 1.90853,0 2.86456,0.0035 0.0388,1.679224 0.007,3.358447 0.06,5.041197 2.24366,-1.389947 3.97933,-3.439586 6.18772,-4.864807 1.22414,-0.402166 2.58586,-0.102306 3.85939,-0.14464 -1.61572,1.739194 -3.69359,2.949224 -5.37986,4.610807 1.905,2.314223 4.00402,4.47675 5.715,6.942667 -1.22061,0.02468 -2.44123,0.02117 -3.66184,0.02822 -1.43227,-1.767417 -2.78694,-3.58775 -4.17336,-5.390447 -0.87841,0.66675 -1.98261,1.19239 -2.50119,2.218974 -0.16228,1.04775 -0.0705,2.116666 -0.10936,3.175 -0.95956,-0.0071 -1.91559,-0.0141 -2.87161,-0.02117 -0.0388,-3.866444 -0.0564,-7.73289 0.0106,-11.599333 z"
       id="path34" />
    <path
       inkscape:connector-curvature="0"
       style="fill:#fcfdfe;stroke-width:0.35277778"
       d="m -308.05895,62.999741 c 3.8982,-0.0071 7.79286,-0.0035 11.69106,0 0.0177,0.677334 0.0247,1.358194 0.0282,2.042584 -1.43933,-0.0035 -2.87867,-0.0035 -4.318,0.01058 0.007,3.182057 0.007,6.364113 0,9.549696 -1.0407,0 -2.08139,0 -3.12208,-0.01058 -0.004,-3.182057 -0.004,-6.360583 -0.004,-9.539113 -1.43228,-0.0141 -2.86809,-0.0141 -4.30389,-0.0141 -0.004,-0.680863 0.007,-1.361723 0.0282,-2.039057 z"
       id="path36" />
    <path
       inkscape:connector-curvature="0"
       style="fill:#fcfdfe;stroke-width:0.35277778"
       d="m -294.28297,63.154964 c 3.19616,-0.243416 6.47347,-0.363362 9.64494,0.218721 1.70039,0.257529 3.175,2.166056 2.43064,3.855863 -0.51858,1.49225 -2.17664,1.940277 -3.54542,2.275416 2.04611,1.220611 3.50309,3.139724 4.81895,5.076474 -1.1042,0.0141 -2.21192,0.09172 -3.30906,-0.0141 -1.48166,-1.15711 -2.42711,-2.864553 -3.88761,-4.053416 -0.79375,-0.779637 -1.99319,-0.663221 -3.00919,-0.821971 -0.0353,1.643944 0.0953,3.312584 -0.27517,4.931834 -0.92428,-0.186974 -2.23661,0.42686 -2.85045,-0.49389 -0.0635,-3.654777 -0.004,-7.31661 -0.0177,-10.974917 z"
       id="path38" />
    <path
       inkscape:connector-curvature="0"
       style="fill:#fcfdfe;stroke-width:0.35277778"
       d="m -275.8962,63.433658 c 1.59456,-0.705556 3.39373,-0.564444 5.09059,-0.46214 2.72344,0.331613 5.64092,2.455334 5.51392,5.44689 0.21872,1.855613 -0.48331,3.817056 -2.04964,4.900083 -2.07786,1.576917 -4.82248,1.52753 -7.28839,1.280584 -1.93675,-0.370417 -3.83823,-1.524 -4.67078,-3.369027 -0.58208,-1.47814 -0.57856,-3.167944 -0.0494,-4.656667 0.5715,-1.534583 1.98261,-2.554113 3.45369,-3.139723 z"
       id="path40" />
    <path
       inkscape:connector-curvature="0"
       style="fill:#fcfdfe;stroke-width:0.35277778"
       d="m -262.82931,63.006798 c 0.97014,-0.0071 1.94028,-0.01058 2.91042,0 2.07081,2.487083 3.95817,5.12586 6.14892,7.514166 0.1023,-2.501193 0.007,-5.005916 0.0741,-7.510639 0.92075,-0.01058 1.8415,-0.0141 2.76225,-0.0141 0.0494,3.869974 0.0247,7.743474 0.0141,11.613444 -0.96309,-0.01765 -1.93675,0.07408 -2.88925,-0.08819 -2.29659,-2.218973 -3.9617,-5.005916 -6.17009,-7.31661 -0.0705,2.465917 -0.004,4.938887 -0.0529,7.408334 -0.93134,-0.01058 -1.8662,-0.01058 -2.79753,-0.0141 -0.0317,-3.862916 -0.0282,-7.72936 0,-11.592277 z"
       id="path42" />
    <path
       inkscape:connector-curvature="0"
       style="fill:#fcfdfe;stroke-width:0.35277778"
       d="m -247.66692,63.049131 c 0.92781,-0.0882 1.86267,-0.05292 2.794,-0.05645 0.0741,3.869973 0.0494,7.743473 0.0141,11.616973 -0.95956,-0.0035 -1.91912,-0.0071 -2.87867,-0.0071 0.0247,-3.852334 -0.12347,-7.711723 0.0706,-11.553473 z"
       id="path44" />
    <path
       inkscape:connector-curvature="0"
       style="fill:#fcfdfe;stroke-width:0.35277778"
       d="m -228.14419,74.592021 c 1.83091,-3.929946 3.76414,-7.82814 5.90197,-11.599336 0.99131,0.0035 1.97908,0.0035 2.97039,0.0035 2.05317,3.82764 4.11339,7.658806 5.98664,11.581693 -1.02658,0.02469 -2.04964,0.03175 -3.0727,0.04233 -0.48683,-0.836084 -0.9278,-1.69686 -1.397,-2.54 -2.01436,-0.338667 -4.08516,-0.328084 -6.096,0.03175 -0.37394,0.8255 -0.77258,1.640416 -1.12183,2.4765 -1.05833,0.0141 -2.11667,0.01765 -3.17147,0.0035 z"
       id="path46" />
    <path
       inkscape:connector-curvature="0"
       style="fill:#fcfdfe;stroke-width:0.35277778"
       d="m -155.29205,63.123214 c 3.46781,-0.268112 6.96031,-0.08114 10.4387,-0.116416 1.09714,-0.03175 1.2065,2.137833 -0.0247,2.01436 -2.43064,0.06703 -4.86128,-0.01058 -7.28839,0.02469 0,0.839613 0.004,1.679223 0.0106,2.518836 2.48709,-0.01058 4.97417,0.0071 7.46125,-0.0071 0.0106,0.60325 0.0247,1.2065 0.0353,1.813277 -2.50119,0.09878 -5.02003,-0.169333 -7.50358,0.236363 -0.004,0.980721 -0.007,1.964971 -0.007,2.949221 2.74462,0.09172 5.51392,-0.1905 8.24089,0.215196 -0.0212,0.613833 -0.0388,1.227666 -0.06,1.845027 -3.60891,-0.04586 -7.21783,0.04586 -10.82675,-0.03881 -0.11289,-0.112887 -0.34219,-0.335137 -0.45861,-0.448027 -0.067,-3.668889 -0.004,-7.337777 -0.0177,-11.006666 z"
       id="path48" />
    <path
       inkscape:connector-curvature="0"
       style="fill:#fcfdfe;stroke-width:0.35277778"
       d="m -141.15271,62.999741 c 0.94191,-0.0035 1.88736,0 2.8328,-0.0035 0.22578,1.679221 0.22225,3.369027 0.2787,5.058834 1.778,-1.453444 3.4925,-2.98803 5.29166,-4.41325 1.24178,-1.132417 3.048,-0.500946 4.55438,-0.610307 -1.62632,1.73214 -3.71829,2.928057 -5.39046,4.610807 1.92264,2.307166 3.96875,4.515556 5.73971,6.942666 -1.23122,0.02117 -2.45888,0.02469 -3.68654,0.03175 -1.44287,-1.763889 -2.75873,-3.623026 -4.19806,-5.383389 -0.78669,0.567973 -1.55928,1.146529 -2.32833,1.732139 -0.0177,1.220611 -0.11289,2.441224 -0.24695,3.654777 -0.9525,-0.0141 -1.905,-0.01765 -2.85044,-0.01765 -0.0317,-3.866447 -0.0423,-7.736417 0.004,-11.602863 z"
       id="path50" />
    <path
       inkscape:connector-curvature="0"
       style="fill:#fcfdfe;stroke-width:0.35277778"
       d="m -121.52416,63.020908 c 2.28952,-0.292806 4.7625,-0.22225 6.77334,1.044223 3.28083,1.869723 3.4431,7.306027 0.2681,9.359194 -1.73919,1.291166 -3.98637,1.386416 -6.06777,1.262946 -1.7286,-0.0141 -3.43252,-0.73025 -4.66725,-1.93675 -2.3354,-2.30364 -1.93675,-6.731 0.83608,-8.519586 0.8749,-0.557387 1.83799,-0.99836 2.8575,-1.210027 z"
       id="path52" />
    <path
       inkscape:connector-curvature="0"
       style="fill:#fcfdfe;stroke-width:0.35277778"
       d="m -109.76607,63.264325 c 1.03716,-0.0071 2.07433,-0.0071 3.11502,0.0071 0.0106,3.09386 0.003,6.187723 0.007,9.281583 2.49767,0.07056 5.02002,-0.169333 7.496518,0.275167 -0.0212,0.592667 -0.0353,1.185333 -0.0459,1.781527 -3.369018,-0.03528 -6.741588,0.05645 -10.110608,-0.03528 -0.10583,-0.119943 -0.3175,-0.36336 -0.42687,-0.486833 -0.10229,-3.60186 -0.0106,-7.214307 -0.0353,-10.823223 z"
       id="path54" />
    <path
       inkscape:connector-curvature="0"
       style="fill:#fcfdfe;stroke-width:0.35277778"
       d="m -93.820512,63.493631 c 2.86102,-1.075973 6.43819,-0.867833 8.89352,1.090083 2.07082,1.686277 2.38832,4.8895 1.15007,7.157861 -1.3194,2.144889 -3.98992,3.107973 -6.42057,2.970389 -2.51883,0.15875 -5.41867,-0.709083 -6.72042,-3.033889 -0.83256,-1.255887 -0.60676,-2.839861 -0.51858,-4.261554 0.28575,-1.915586 1.88735,-3.266723 3.61598,-3.92289 z"
       id="path56" />
    <path
       inkscape:connector-curvature="0"
       style="fill:#fcfdfe;stroke-width:0.35277778"
       d="m -78.598162,64.132158 c 2.24719,-1.42875 5.09765,-1.47461 7.62707,-0.93839 1.63335,0.33514 2.81868,1.562807 3.67945,2.917473 -0.94895,0.201084 -1.95085,0.58914 -2.91041,0.331613 -0.87136,-0.578556 -1.64746,-1.386419 -2.72344,-1.555752 -1.9685,-0.342194 -4.33917,0.585612 -5.00943,2.596446 -0.24342,1.213556 -0.20463,2.610556 0.5997,3.626556 0.87842,1.266471 2.51531,1.837971 4.01815,1.668637 1.04423,-0.134053 2.0461,-0.50447 3.0339,-0.864303 0.0106,-0.52564 0.0282,-1.044224 0.0458,-1.566334 -1.16769,-0.0035 -2.3354,-0.0035 -3.49957,-0.01765 0.003,-0.659694 0.0106,-1.322917 0.0318,-1.982611 2.16959,-0.01058 4.34272,-0.0035 6.51582,-0.0141 0,1.42875 0.11993,2.864556 -0.0388,4.28625 -0.127,0.81139 -1.05833,0.945446 -1.67216,1.252363 -2.13429,0.93486 -4.5085,0.9525 -6.78744,0.723193 -2.02142,-0.36336 -4.1134,-1.453443 -4.97417,-3.418416 -1.22414,-2.409473 -0.254,-5.66914 2.06375,-7.044973 z"
       id="path58" />
    <path
       d="m -64.328302,62.996214 c 0.95604,0 1.91206,0.0035 2.87514,0.0035 0.0564,3.869974 0.0246,7.739947 0.0177,11.60639 h -2.89983 c 0.007,-11.609916 0,0 0.007,-11.609916 z"
       id="path60"
       inkscape:connector-curvature="0"
       style="fill:#fcfdfe;stroke-width:0.35277778"
       sodipodi:nodetypes="ccccc" />
    <path
       inkscape:connector-curvature="0"
       style="fill:#fcfdfe;stroke-width:0.35277778"
       d="m -206.466,63.214935 c 2.65995,0.02469 5.31989,-0.0635 7.97631,0.0635 1.76742,0.03175 3.61597,1.50989 3.41489,3.397253 0.13405,1.29822 -0.9137,2.296583 -1.91911,2.921 -2.06728,0.843137 -4.34622,0.723193 -6.52992,0.72672 0.004,1.435806 0.004,2.871613 -0.0247,4.30389 -0.96308,0 -1.92616,-0.02822 -2.88572,-0.08114 -0.0917,-3.77472 -0.0177,-7.55297 -0.0318,-11.331223 z"
       id="path64" />
    <path
       inkscape:connector-curvature="0"
       style="fill:#fcfdfe;stroke-width:0.35277778"
       d="m -192.43602,63.221991 c 2.921,0.01058 5.84552,-0.0635 8.76653,0.05644 0.96661,0.01765 1.97908,0.328083 2.63172,1.0795 1.08303,1.083029 1.01247,3.100919 -0.20814,4.056946 -0.81845,0.61736 -1.84856,0.8255 -2.8187,1.075973 2.06728,1.255887 3.54895,3.199694 4.98123,5.101167 -1.12536,0.0035 -2.25425,0.08819 -3.37256,-0.03528 -1.45344,-1.121833 -2.44828,-2.716387 -3.76061,-3.98286 -0.88195,-0.821973 -2.16606,-0.733777 -3.28083,-0.867833 -0.0212,1.552223 -0.0212,3.107973 -0.0106,4.660193 -0.98072,0 -1.95791,0 -2.93511,-0.0071 -0.004,-3.711223 -0.0141,-7.425973 0.007,-11.137196 z"
       id="path66" />
    <path
       inkscape:connector-curvature="0"
       style="fill:#025dc0;stroke-width:0.35277778"
       d="m -291.15736,65.045852 c 1.778,0.137583 3.71475,-0.363361 5.38691,0.356306 1.25589,0.567973 0.48684,2.201333 -0.6103,2.43064 -1.58397,0.148166 -3.17853,0.03881 -4.76603,0.0635 -0.0106,-0.9525 -0.0106,-1.901473 -0.0106,-2.850446 z"
       id="path68" />
    <path
       inkscape:connector-curvature="0"
       style="fill:#025dc0;stroke-width:0.35277778"
       d="m -274.18522,65.151685 c 1.59103,-0.278694 3.53483,-0.42686 4.78014,0.81139 1.23472,1.090083 1.04422,2.95275 0.80433,4.416779 -1.06186,2.818694 -5.37633,3.224387 -7.19314,0.941917 -1.651,-1.915583 -0.85019,-5.36928 1.60867,-6.170086 z"
       id="path70" />
    <path
       inkscape:connector-curvature="0"
       style="fill:#025dc0;stroke-width:0.35277778"
       d="m -203.51325,65.052908 c 1.68981,0.127 3.77825,-0.47625 5.13292,0.846667 0.17992,0.624416 0.20814,1.516946 -0.46214,1.859139 -1.36172,0.927807 -3.12914,0.409224 -4.67078,0.518584 -0.0106,-1.075973 -0.0106,-2.151944 0,-3.22439 z"
       id="path72" />
    <path
       inkscape:connector-curvature="0"
       style="fill:#025dc0;stroke-width:0.35277778"
       d="m -189.51855,65.056435 c 2.01083,0.02469 4.08869,-0.257527 6.02544,0.4445 -0.007,0.836086 0.18698,1.968503 -0.87841,2.211919 -1.66864,0.402167 -3.43253,0.102304 -5.13645,0.176387 -0.004,-0.945443 -0.007,-1.88736 -0.0106,-2.832806 z"
       id="path74" />
    <path
       inkscape:connector-curvature="0"
       style="fill:#025dc0;stroke-width:0.35277778"
       d="m -172.26419,65.112881 c 1.4217,-0.197556 3.1362,-0.384529 4.31095,0.631471 2.17664,1.629836 1.69686,5.669139 -0.87842,6.653389 -1.23472,0.582084 -2.70228,0.522113 -3.92995,-0.04233 -2.93158,-1.259417 -2.74108,-6.515804 0.49742,-7.242527 z"
       id="path76" />
    <path
       inkscape:connector-curvature="0"
       style="fill:#025dc0;stroke-width:0.35277778"
       d="m -121.0973,65.126991 c 1.50638,-0.194027 3.35846,-0.455083 4.55438,0.709084 1.7286,1.524 1.58395,4.607279 -0.11997,6.096 -1.43578,0.941916 -3.3796,1.2065 -4.92125,0.345723 -2.8857,-1.30175 -2.60702,-6.279444 0.48684,-7.150807 z"
       id="path78" />
    <path
       inkscape:connector-curvature="0"
       style="fill:#025dc0;stroke-width:0.35277778"
       d="m -92.137762,65.176381 c 1.65452,-0.342196 3.71827,-0.448029 4.98121,0.899583 0.9525,0.871361 0.75496,2.278944 0.74789,3.44664 0.0706,2.596444 -3.2526,3.891137 -5.39398,3.012721 -3.3655,-0.719667 -3.53128,-6.290027 -0.33512,-7.358944 z"
       id="path80" />
    <path
       inkscape:connector-curvature="0"
       style="fill:#025dc0;stroke-width:0.35277778"
       d="m -222.82078,69.995325 c 0.63853,-1.372304 1.25942,-2.751667 1.95087,-4.099277 0.76905,1.326443 1.4358,2.709333 2.0708,4.106333 -1.34055,0.0141 -2.68111,0.01765 -4.02167,-0.0071 z"
       id="path82" />
    <path
       inkscape:connector-curvature="0"
       style="fill:#fcfdfe;stroke-width:0.35277778"
       d="m -58.640902,62.987346 c 0.95602,0 1.91206,0.0035 2.87515,0.0035 0.0564,3.869973 0.0246,7.739946 0.0177,11.606389 h -2.89984 c 0.0135,-11.61075 0,0 0.007,-11.609916 z"
       id="path60-9"
       sodipodi:nodetypes="ccccc" />
  </g>
</svg>
