<?xml version="1.0" encoding="UTF-8" standalone="no"?>
<svg
   xmlns:dc="http://purl.org/dc/elements/1.1/"
   xmlns:cc="http://creativecommons.org/ns#"
   xmlns:rdf="http://www.w3.org/1999/02/22-rdf-syntax-ns#"
   xmlns:svg="http://www.w3.org/2000/svg"
   xmlns="http://www.w3.org/2000/svg"
   xml:space="preserve"
   id="svg2"
   viewBox="0 0 528.98047 185.1496"
   version="1.0"><metadata
     id="metadata84"><rdf:RDF><cc:Work
         rdf:about=""><dc:format>image/svg+xml</dc:format><dc:type
           rdf:resource="http://purl.org/dc/dcmitype/StillImage" /><dc:title></dc:title></cc:Work></rdf:RDF></metadata><defs
     id="defs5"><clipPath
       id="clipPath17"><path
         id="path19"
         d="m 0,0 1247.244,0 0,793.701 L 0,793.701 0,0 Z" /></clipPath><clipPath
       id="clipPath25"><path
         id="path27"
         d="m 144.855,675.552 273.974,0 0,-274.023 -273.974,0 0,274.023 z" /></clipPath><clipPath
       id="clipPath41"><path
         id="path43"
         d="m 158.686,661.734 246.31,0 0,-246.384 -246.31,0 0,246.384 z" /></clipPath><clipPath
       id="clipPath57"><path
         id="path59"
         d="m 47.6141,381.631 176.4089,0 0,-176.44 -176.4089,0 0,176.44 z" /></clipPath><clipPath
       id="clipPath73"><path
         id="path75"
         d="m 56.4835,372.77 158.6685,0 0,-158.716 -158.6685,0 0,158.716 z" /></clipPath><clipPath
       id="clipPath89"><path
         id="path91"
         d="m 219.11,468.558 447.343,0 0,-447.4222 -447.343,0 0,447.4222 z" /></clipPath><clipPath
       id="clipPath105"><path
         id="path107"
         d="m 241.758,445.932 402.045,0 0,-402.1658 -402.045,0 0,402.1658 z" /></clipPath><clipPath
       id="clipPath121"><path
         id="path123"
         d="m 42.937,760.685 172.228,0 0,-57.386 -172.228,0 0,57.386 z" /></clipPath><clipPath
       id="clipPath125"><path
         id="path127"
         d="m 43.937,704.299 170.228,0 0,55.386 -170.228,0 0,-55.386 z" /></clipPath><clipPath
       id="clipPath239"><path
         id="path241"
         d="m 0,0 1247.244,0 0,793.701 L 0,793.701 0,0 Z" /></clipPath><clipPath
       id="clipPath247"><path
         id="path249"
         d="m 1015.82,99.172 180.74,0 0,-60.1559 -180.74,0 0,60.1559 z" /></clipPath><clipPath
       id="clipPath251"><path
         id="path253"
         d="m 1016.82,40.016 178.74,0 0,58.156 -178.74,0 0,-58.156 z" /></clipPath><clipPath
       id="clipPath345"><path
         id="path347"
         d="m 475.221,853 831.179,0 0,-831.3228 -831.179,0 0,831.3228 z" /></clipPath><clipPath
       id="clipPath361"><path
         id="path363"
         d="m 517.388,810.874 746.832,0 0,-747.0617 -746.832,0 0,747.0617 z" /></clipPath><clipPath
       id="clipPath395"><path
         id="path397"
         d="m 0,0 1247.244,0 0,793.701 L 0,793.701 0,0 Z" /></clipPath></defs><g
     id="g11"
     transform="matrix(3.0275146,0,0,-3.0275146,-3095.2858,299.79937)"><g
       id="g235"><g
         id="g237"
         clip-path="url(#clipPath239)"><g
           id="g243"
           transform="translate(0.7986055,-0.7986055)"><g
             id="g245" /><g
             id="g255"><g
               id="g257"
               clip-path="url(#clipPath247)"><g
                 id="g259"><g
                   id="g261"
                   clip-path="url(#clipPath251)"><g
                     id="g263"
                     transform="translate(1072.3552,44.9801)"><path
                       style="fill:#ef7c00;fill-opacity:1;fill-rule:nonzero;stroke:none"
                       id="path265"
                       d="m 0,0 c 0.039,-0.956 0.916,-1.259 1.846,-1.259 0.701,0 1.657,0.149 1.657,0.972 0,0.828 -1.114,0.969 -2.244,1.209 -1.114,0.238 -2.242,0.59 -2.242,1.839 0,1.31 1.37,1.854 2.561,1.854 1.512,0 2.718,-0.454 2.811,-2.043 l -1.127,0 C 3.186,3.401 2.413,3.668 1.669,3.668 0.995,3.668 0.21,3.495 0.21,2.836 0.21,2.068 1.408,1.941 2.455,1.703 3.584,1.463 4.698,1.11 4.698,-0.156 4.698,-1.7 3.17,-2.209 1.777,-2.209 0.24,-2.209 -1.063,-1.613 -1.129,0 L 0,0" /></g><g
                     id="g267"
                     transform="translate(1083.1942,46.8073)"><path
                       style="fill:#ef7c00;fill-opacity:1;fill-rule:nonzero;stroke:none"
                       id="path269"
                       d="M 0,0 C -0.051,1.021 -0.861,1.841 -1.976,1.841 -3.156,1.841 -3.862,0.998 -3.939,0 L 0,0 Z m 1.087,-1.816 c -0.302,-1.434 -1.392,-2.22 -2.929,-2.22 -2.19,0 -3.227,1.44 -3.293,3.431 0,1.955 1.355,3.393 3.226,3.393 2.426,0 3.172,-2.157 3.104,-3.733 l -5.134,0 c -0.043,-1.137 0.635,-2.141 2.135,-2.141 0.931,0 1.579,0.428 1.781,1.27 l 1.11,0" /></g><g
                     id="g271"
                     transform="translate(1090.3461,47.3487)"><path
                       style="fill:#ef7c00;fill-opacity:1;fill-rule:nonzero;stroke:none"
                       id="path273"
                       d="m 0,0 c -0.17,0.822 -0.77,1.299 -1.697,1.299 -1.635,0 -2.136,-1.222 -2.136,-2.544 0,-1.199 0.57,-2.382 2,-2.382 1.091,0 1.74,0.603 1.886,1.589 l 1.157,0 c -0.253,-1.589 -1.303,-2.54 -3.025,-2.54 -2.098,0 -3.213,1.389 -3.213,3.333 0,1.953 1.061,3.492 3.239,3.492 1.548,0 2.796,-0.692 2.956,-2.247 L 0,0" /></g><g
                     id="g275"
                     transform="translate(1098.6243,42.9281)"><path
                       style="fill:#ef7c00;fill-opacity:1;fill-rule:nonzero;stroke:none"
                       id="path277"
                       d="m 0,0 -1.063,0 0,1.033 -0.023,0 c -0.482,-0.808 -1.247,-1.19 -2.229,-1.19 -1.803,0 -2.364,0.985 -2.364,2.389 l 0,4.283 1.13,0 0,-4.41 c 0,-0.797 0.53,-1.312 1.391,-1.312 1.367,0 2.029,0.866 2.029,2.041 l 0,3.681 L 0,6.515 0,0" /></g><g
                     id="g279"
                     transform="translate(1100.4136,49.4426)"><path
                       style="fill:#ef7c00;fill-opacity:1;fill-rule:nonzero;stroke:none"
                       id="path281"
                       d="m 0,0 1.067,0 0,-1.374 0.02,0 c 0.544,1.048 1.302,1.562 2.524,1.527 l 0,-1.134 c -1.818,0 -2.481,-0.986 -2.481,-2.634 l 0,-2.9 -1.13,0 L 0,0" /></g><path
                     style="fill:#ef7c00;fill-opacity:1;fill-rule:nonzero;stroke:none"
                     id="path283"
                     d="m 1106.203,50.616 -1.13,0 0,1.312 1.13,0 0,-1.312 z" /><path
                     style="fill:#ef7c00;fill-opacity:1;fill-rule:nonzero;stroke:none"
                     id="path285"
                     d="m 1105.072,49.443 1.13,0 0,-6.515 -1.13,0 0,6.515 z" /><g
                     id="g287"
                     transform="translate(1109.6486,49.4426)"><path
                       style="fill:#ef7c00;fill-opacity:1;fill-rule:nonzero;stroke:none"
                       id="path289"
                       d="m 0,0 1.364,0 0,-0.949 -1.364,0 0,-4.041 c 0,-0.492 0.146,-0.582 0.853,-0.582 l 0.511,0 0,-0.943 -0.858,0 c -1.169,0 -1.632,0.225 -1.632,1.422 l 0,4.144 -1.165,0 0,0.949 1.165,0 0,1.954 L 0,1.954 0,0" /></g><g
                     id="g291"
                     transform="translate(1115.087,42.0524)"><path
                       style="fill:#ef7c00;fill-opacity:1;fill-rule:nonzero;stroke:none"
                       id="path293"
                       d="m 0,0 c -0.514,-1.271 -0.98,-1.733 -1.987,-1.733 -0.265,0 -0.532,0.026 -0.781,0.111 l 0,0.98 c 0.21,-0.061 0.435,-0.147 0.663,-0.147 0.46,0 0.714,0.212 0.926,0.593 l 0.463,1.111 -2.719,6.475 1.275,0 2.003,-5.33 0.027,0 1.925,5.33 1.192,0 L 0,0" /></g><g
                     id="g295"
                     transform="translate(1124.291,49.4426)"><path
                       style="fill:#ef7c00;fill-opacity:1;fill-rule:nonzero;stroke:none"
                       id="path297"
                       d="m 0,0 1.367,0 0,-0.949 -1.367,0 0,-4.041 c 0,-0.492 0.145,-0.582 0.853,-0.582 l 0.514,0 0,-0.943 -0.861,0 c -1.171,0 -1.636,0.225 -1.636,1.422 l 0,4.144 -1.166,0 0,0.949 1.166,0 0,1.954 1.13,0 L 0,0" /></g><g
                     id="g299"
                     transform="translate(1129.9961,43.7213)"><path
                       style="fill:#ef7c00;fill-opacity:1;fill-rule:nonzero;stroke:none"
                       id="path301"
                       d="M 0,0 C 1.18,0 2.138,0.88 2.138,2.455 2.138,4.046 1.18,4.927 0,4.927 -1.178,4.927 -2.136,4.046 -2.136,2.455 -2.136,0.88 -1.178,0 0,0 m 0,5.874 c 2.178,0 3.331,-1.501 3.331,-3.419 0,-1.9 -1.153,-3.405 -3.331,-3.405 -2.174,0 -3.328,1.505 -3.328,3.405 0,1.918 1.154,3.419 3.328,3.419" /></g><g
                     id="g303"
                     transform="translate(1141.5754,48.6481)"><path
                       style="fill:#ef7c00;fill-opacity:1;fill-rule:nonzero;stroke:none"
                       id="path305"
                       d="m 0,0 c -1.512,0 -2.099,-1.236 -2.099,-2.458 0,-1.286 0.613,-2.469 2.167,-2.469 1.537,0 2.056,1.245 2.056,2.52 C 2.124,-1.183 1.459,0 0,0 m -3.185,3.28 1.13,0 0,-3.368 0.025,0 c 0.369,0.716 1.246,1.035 2.191,1.035 2.107,0 3.155,-1.591 3.155,-3.429 0,-1.841 -1.034,-3.395 -3.128,-3.395 -0.707,0 -1.716,0.256 -2.218,1.023 l -0.025,0 0,-0.866 -1.13,0 0,9" /></g><g
                     id="g307"
                     transform="translate(1151.115,46.8073)"><path
                       style="fill:#ef7c00;fill-opacity:1;fill-rule:nonzero;stroke:none"
                       id="path309"
                       d="M 0,0 C -0.054,1.021 -0.864,1.841 -1.978,1.841 -3.156,1.841 -3.859,0.998 -3.939,0 L 0,0 Z m 1.087,-1.816 c -0.305,-1.434 -1.396,-2.22 -2.936,-2.22 -2.185,0 -3.221,1.44 -3.289,3.431 0,1.955 1.357,3.393 3.224,3.393 2.428,0 3.174,-2.157 3.109,-3.733 l -5.134,0 c -0.042,-1.137 0.634,-2.141 2.135,-2.141 0.926,0 1.578,0.428 1.777,1.27 l 1.114,0" /></g><g
                     id="g311"
                     transform="translate(1157.7241,48.4938)"><path
                       style="fill:#ef7c00;fill-opacity:1;fill-rule:nonzero;stroke:none"
                       id="path313"
                       d="m 0,0 -1.155,0 0,0.949 1.155,0 0,0.969 c 0,1.058 0.663,1.613 1.895,1.613 0.212,0 0.518,-0.036 0.731,-0.097 l 0,-0.935 C 2.423,2.559 2.189,2.585 1.986,2.585 1.444,2.585 1.129,2.425 1.129,1.857 l 0,-0.908 1.324,0 0,-0.949 -1.324,0 0,-5.566 L 0,-5.566 0,0" /></g><g
                     id="g315"
                     transform="translate(1161.2784,49.4426)"><path
                       style="fill:#ef7c00;fill-opacity:1;fill-rule:nonzero;stroke:none"
                       id="path317"
                       d="m 0,0 1.059,0 0,-1.374 0.028,0 c 0.546,1.048 1.299,1.562 2.518,1.527 l 0,-1.134 c -1.814,0 -2.478,-0.986 -2.478,-2.634 l 0,-2.9 L 0,-6.515 0,0" /></g><g
                     id="g319"
                     transform="translate(1170.3905,46.8073)"><path
                       style="fill:#ef7c00;fill-opacity:1;fill-rule:nonzero;stroke:none"
                       id="path321"
                       d="M 0,0 C -0.053,1.021 -0.861,1.841 -1.975,1.841 -3.153,1.841 -3.859,0.998 -3.939,0 L 0,0 Z m 1.089,-1.816 c -0.302,-1.434 -1.393,-2.22 -2.935,-2.22 -2.185,0 -3.223,1.44 -3.286,3.431 0,1.955 1.354,3.393 3.222,3.393 2.431,0 3.175,-2.157 3.108,-3.733 l -5.137,0 c -0.04,-1.137 0.636,-2.141 2.136,-2.141 0.927,0 1.581,0.428 1.778,1.27 l 1.114,0" /></g><g
                     id="g323"
                     transform="translate(1177.6504,46.8073)"><path
                       style="fill:#ef7c00;fill-opacity:1;fill-rule:nonzero;stroke:none"
                       id="path325"
                       d="M 0,0 C -0.055,1.021 -0.865,1.841 -1.975,1.841 -3.161,1.841 -3.864,0.998 -3.939,0 L 0,0 Z m 1.085,-1.816 c -0.301,-1.434 -1.389,-2.22 -2.933,-2.22 -2.187,0 -3.221,1.44 -3.289,3.431 0,1.955 1.352,3.393 3.228,3.393 2.426,0 3.172,-2.157 3.104,-3.733 l -5.134,0 c -0.043,-1.137 0.636,-2.141 2.136,-2.141 0.926,0 1.577,0.428 1.778,1.27 l 1.11,0" /></g><g
                     id="g327"
                     transform="translate(1154.8236,57.8819)"><path
                       style="fill:#000000;fill-opacity:1;fill-rule:nonzero;stroke:none"
                       id="path329"
                       d="m 0,0 0,4.258 -4.035,0 c -1.93,-0.03 -2.08,1.535 -2.08,3.649 l 0,13.695 5.506,0 0,4.215 -5.506,0 0,9.724 -5.655,0 0,-29.071 c 0.021,-4.336 1.188,-6.462 6.942,-6.465 L -4.828,0 0,0" /></g><g
                     id="g331"
                     transform="translate(1194.6593,80.514)"><path
                       style="fill:#ef7c00;fill-opacity:1;fill-rule:nonzero;stroke:none"
                       id="path333"
                       d="M 0,0 C -4.852,4.346 -6.833,5.123 -8.823,5.248 -10.812,5.123 -12.797,4.346 -17.651,0 c 4.341,4.858 5.123,6.849 5.241,8.833 -0.118,1.986 -0.9,3.975 -5.241,8.825 4.854,-4.331 6.839,-5.12 8.828,-5.238 1.99,0.118 3.971,0.907 8.823,5.238 C -4.337,12.808 -5.12,10.819 -5.245,8.833 -5.12,6.849 -4.337,4.858 0,0" /></g><path
                     style="fill:#000000;fill-opacity:1;fill-rule:nonzero;stroke:none"
                     id="path335"
                     d="m 1174.639,63.594 -14.559,0 0,14.556 14.559,0 0,-14.556 z m -7.292,20.803 c -8.229,0 -12.943,-5.655 -12.943,-13.5 0,-7.887 4.714,-13.535 12.943,-13.535 8.244,0 12.956,5.648 12.956,13.535 0,7.845 -4.712,13.5 -12.956,13.5" /><g
                     id="g337"
                     transform="translate(1125.585,66.6824)"><path
                       style="fill:#000000;fill-opacity:1;fill-rule:nonzero;stroke:none"
                       id="path339"
                       d="m 0,0 c 0,-3.573 -3.862,-4.862 -6.347,-4.862 -1.984,0 -5.207,0.745 -5.207,3.274 0,2.979 2.186,3.873 4.614,4.268 2.48,0.444 5.211,0.399 6.94,1.535 L 0,0 Z m -54.023,-0.593 -5.061,0 c -0.992,-2.826 -2.975,-4.269 -6.245,-4.269 -4.722,0 -6.9,3.567 -6.9,7.592 l 18.206,0 0,-3.323 z M -65.48,13.245 c 3.811,0 6.25,-3.222 6.445,-6.797 l -13.194,0 c 0.147,3.822 2.827,6.797 6.749,6.797 M -89.945,-4.169 c -4.715,0 -6.745,4.269 -6.745,8.479 0,4.271 1.738,8.935 6.745,8.935 4.916,0 6.895,-4.068 6.895,-8.482 0,-4.365 -1.883,-8.932 -6.895,-8.932 m 98.66,30.909 0,-31.564 -3.095,0 0,15.852 c -0.473,4.835 -5.463,6.687 -10.23,6.687 -5.651,0 -11.257,-1.936 -11.652,-8.538 l 5.652,0 c 0.249,2.78 2.484,4.068 5.653,4.068 2.284,0 5.308,-0.544 5.308,-3.469 0,-3.328 -3.62,-2.877 -7.684,-3.627 -3.982,-0.451 -8.193,-1.26 -9.476,-5.231 l 0,8.164 c 0,6.249 -3.177,8.633 -8.586,8.633 -3.723,0 -6.155,-1.637 -8.036,-4.269 -1.143,2.926 -4.071,4.269 -7.196,4.269 -4.069,0 -6.203,-1.738 -7.883,-4.269 l -0.154,0 0,3.57 -5.359,0 0,-7.746 c -1.621,4.823 -5.763,8.445 -11.457,8.445 -6.204,0 -10.505,-4.122 -11.911,-9.565 l 0,8.866 -5.659,0 0,-3.516 -0.094,0 c -1.439,2.872 -4.365,4.215 -7.593,4.215 -7.291,0 -11.61,-5.956 -11.61,-12.853 0,-7.342 3.375,-13.5 11.506,-13.5 3.179,0 6.105,1.692 7.697,4.521 l 0.094,0 0,-3.926 c 0,-4.214 -2.033,-6.545 -6.595,-6.545 -2.879,0 -5.452,0.549 -6.154,3.773 l -5.652,0 c 0.492,-6.001 6.3,-7.992 11.46,-7.992 8.086,0 12.6,3.817 12.6,11.512 l 0,7.185 c 1.375,-5.559 5.572,-9.21 12.062,-9.21 5.222,0 9.72,2.718 11.306,7.631 l 0,-6.949 5.656,0 0,15.238 c 0,4.265 2.683,6.645 5.607,6.645 3.423,0 4.515,-1.886 4.515,-5.405 l 0,-16.478 5.655,0 0,15.04 c 0,4.315 1.641,6.843 5.456,6.843 4.418,0 4.667,-2.827 4.667,-6.889 l 0,-14.994 5.658,0 0,4.309 c 1.142,-3.345 4.611,-4.991 8.378,-4.991 2.841,0 6.194,0.84 8.442,2.75 l 0,-0.019 0.011,0.019 c 0,-1.126 0.875,-2.033 1.981,-2.086 l 12.36,0 0,35.396 -5.648,0" /></g></g></g></g></g></g></g></g></g></svg>
