<?xml version="1.0" encoding="utf-8"?>
<!-- Generator: Adobe Illustrator 15.0.0, SVG Export Plug-In . SVG Version: 6.00 Build 0)  -->
<!DOCTYPE svg PUBLIC "-//W3C//DTD SVG 1.1//EN" "http://www.w3.org/Graphics/SVG/1.1/DTD/svg11.dtd">
<svg version="1.1" id="Vrstva_1" xmlns="http://www.w3.org/2000/svg" xmlns:xlink="http://www.w3.org/1999/xlink" x="0px" y="0px"
	 width="119.055px" height="53.858px" viewBox="0 0 119.055 53.858" enable-background="new 0 0 119.055 53.858"
	 xml:space="preserve">
<g>
	<path fill="#E11931" d="M40.414,50.624l-3.979-6.08h-0.032h-3.949v6.08h-5.217V29.64h9.166c5.215,0,8.701,2.84,8.701,7.375
		c0,2.748-1.326,4.967-3.547,6.264l4.936,7.346H40.414z M32.454,39.854h3.857c2.006,0,3.579-1.111,3.579-2.84
		c0-1.697-1.573-2.777-3.579-2.777h-3.857V39.854z"/>
	<path fill="#E11931" d="M54.262,34.177v3.826h9.32v4.443h-9.32v3.641h10.646v4.537H49.047V29.64h15.861v4.537H54.262z"/>
	<path fill="#E11931" d="M88.162,40.071c0,6.232-4.721,10.553-11.324,10.553h-8.426V29.64h8.426
		C83.441,29.64,88.162,33.929,88.162,40.071z M82.885,40.071c0-3.242-2.623-5.74-6.047-5.74h-3.211v11.602h3.211
		C80.262,45.933,82.885,43.403,82.885,40.071z"/>
	<path fill="#E11931" d="M96.246,29.64v20.984h-5.215V29.64H96.246z"/>
	<path fill="#E11931" d="M116.221,34.3h-6.02v16.324h-5.184V34.3H99v-4.66h17.221V34.3z"/>
	<path fill="#E11931" d="M18.738,43.071c-0.804,1.934-2.483,3.078-4.827,3.078c-3.425,0-5.801-2.529-5.801-6.018
		s2.376-6.018,5.801-6.018c2.344,0,4.023,1.146,4.827,3.078h5.524c-1.084-4.793-5.025-7.955-10.319-7.955
		c-6.327,0-11.108,4.568-11.108,10.895s4.781,10.893,11.108,10.893c5.296,0,9.235-3.16,10.319-7.953H18.738z"/>
	<path fill="#E11931" d="M23.023,3.759v20.982h-5.186v-7.869H9.291v7.869H4.076V3.759h5.215v8.424h8.547V3.759H23.023z"/>
	<path fill="#E11931" d="M82.982,24.741h-5.217V14.22l-4.66,7.188v0.031h-2.9v-0.031l-4.689-7.251l0.029,10.584H60.33V3.759h3.889
		l7.438,11.201l7.438-11.201h3.889V24.741z"/>
	<path fill="#E11931" d="M92.521,8.295v3.826h9.32v4.443h-9.32v3.641h10.646v4.536H87.309V3.759h15.859v4.536H92.521z"/>
	<g>
		<path fill="#E11931" d="M41.677,2.836c-8.298,0-15.026,6.407-15.026,14.314c0,2.788,0.837,5.391,2.285,7.591h7.247
			c-2.2-1.665-3.629-4.298-3.629-7.271c0-5.038,4.084-9.121,9.122-9.121s9.122,4.083,9.122,9.121c0,2.973-1.428,5.605-3.629,7.271
			h7.248c1.448-2.2,2.284-4.803,2.284-7.591C56.702,9.243,49.977,2.836,41.677,2.836z"/>
		<path fill="#E11931" d="M36.749,19.495c0.706,2.098,2.645,3.604,4.927,3.604c2.284,0,4.224-1.506,4.929-3.604H36.749z"/>
	</g>
</g>
</svg>
