<?xml version="1.0" encoding="UTF-8" standalone="no"?>
<svg
   xmlns:dc="http://purl.org/dc/elements/1.1/"
   xmlns:cc="http://creativecommons.org/ns#"
   xmlns:rdf="http://www.w3.org/1999/02/22-rdf-syntax-ns#"
   xmlns:svg="http://www.w3.org/2000/svg"
   xmlns="http://www.w3.org/2000/svg"
   viewBox="0 0 435.23542 237.28884"
   height="237.28883"
   width="435.23541"
   xml:space="preserve"
   id="svg2"
   version="1.1"><metadata
     id="metadata8"><rdf:RDF><cc:Work
         rdf:about=""><dc:format>image/svg+xml</dc:format><dc:type
           rdf:resource="http://purl.org/dc/dcmitype/StillImage" /><dc:title></dc:title></cc:Work></rdf:RDF></metadata><defs
     id="defs6"><clipPath
       id="clipPath18"
       clipPathUnits="userSpaceOnUse"><path
         id="path16"
         d="M 0,792 H 612 V 0 H 0 Z" /></clipPath></defs><g
     transform="matrix(1.3333333,0,0,-1.3333333,-302.87693,595.66665)"
     id="g10"><g
       transform="matrix(2.004563,0,0,2.004563,-231.96133,-445.02141)"
       id="g12"><g
         clip-path="url(#clipPath18)"
         id="g14"><g
           transform="translate(230.9077,414.6714)"
           id="g20"><path
             id="path22"
             style="fill:#231f20;fill-opacity:1;fill-rule:nonzero;stroke:none"
             d="M 0,0 C 18.898,0 37.801,-0.043 56.764,-0.043 V -28.364 H 0 m 12.107,28.343 v -2.642 h 32.344 v 2.642" /></g><g
           transform="translate(352.9814,400.439)"
           id="g24"><path
             id="path26"
             style="fill:#231f20;fill-opacity:1;fill-rule:nonzero;stroke:none"
             d="m 0,0 v 0.371 c 0.23,0.032 0.456,0.056 0.68,0.096 1.298,0.232 2.08,1.105 2.166,2.418 0.015,0.243 0.015,0.488 0.015,0.731 10e-4,7.05 0.002,14.1 -0.001,21.149 0,0.325 0.007,0.655 -0.046,0.973 -0.208,1.268 -0.942,1.979 -2.222,2.183 -0.186,0.029 -0.373,0.05 -0.556,0.075 -0.179,0.412 0.099,0.38 0.353,0.38 4.461,-0.001 8.921,0.009 13.381,-0.002 3.7,-0.011 7.402,0.007 11.101,-0.089 2.405,-0.062 4.773,-0.464 6.971,-1.536 0.91,-0.444 1.726,-1.02 2.361,-1.823 1.753,-2.22 1.344,-5.504 -0.916,-7.351 -1.334,-1.091 -2.903,-1.661 -4.555,-2.037 -0.809,-0.185 -1.63,-0.315 -2.452,-0.517 0.56,-0.047 1.119,-0.082 1.677,-0.142 2.075,-0.226 4.088,-0.673 5.917,-1.734 1.472,-0.855 2.584,-2.014 2.981,-3.728 C 37.459,6.826 36.436,4.323 34.136,2.741 32.485,1.606 30.612,1.039 28.677,0.649 26.316,0.173 23.924,0.009 21.522,0.004 14.472,-0.008 7.423,0 0.373,0 Z m 10.65,13.036 v -0.433 c 0,-2.305 0.012,-4.609 -0.007,-6.914 -0.006,-0.671 0.261,-1.177 0.753,-1.589 0.555,-0.465 1.202,-0.763 1.926,-0.767 2.913,-0.015 5.826,-0.045 8.739,0.021 1.367,0.03 2.712,0.34 3.959,0.96 1.457,0.726 2.337,1.858 2.446,3.519 0.112,1.737 -0.598,3.047 -2.094,3.926 -1.434,0.843 -3.028,1.141 -4.649,1.337 -2.526,0.305 -5.06,0.24 -7.593,0.134 -1.149,-0.047 -2.297,-0.127 -3.48,-0.194 m 0.015,3.517 c 0.153,-0.012 0.26,-0.025 0.366,-0.029 2.966,-0.128 5.932,-0.16 8.894,0.072 1.43,0.112 2.859,0.267 4.229,0.732 0.984,0.334 1.872,0.805 2.358,1.792 0.923,1.881 0.212,4.083 -1.631,5.062 -1.121,0.595 -2.345,0.822 -3.588,0.947 -2.868,0.291 -5.737,0.144 -8.605,-0.022 -0.672,-0.039 -1.342,-0.126 -2.023,-0.191 z" /></g><g
           transform="translate(335.375,428.4609)"
           id="g28"><path
             id="path30"
             style="fill:#231f20;fill-opacity:1;fill-rule:nonzero;stroke:none"
             d="M 0,0 C 0.007,0.11 0.014,0.212 0.021,0.333 H 12.49 C 12.5,0.217 12.508,0.115 12.516,0.026 12.478,-0.008 12.46,-0.037 12.438,-0.041 10.074,-0.424 8.042,-1.598 6.001,-2.749 l -14.684,-8.28 c -0.138,-0.078 -0.274,-0.163 -0.446,-0.266 1.241,-0.952 2.444,-1.875 3.649,-2.797 5.196,-3.979 10.391,-7.958 15.592,-11.931 0.94,-0.717 1.916,-1.374 3.119,-1.592 0.093,-0.017 0.157,-0.196 0.292,-0.375 -0.247,-0.016 -0.364,-0.031 -0.481,-0.031 -3.958,-10e-4 -7.916,-0.004 -11.875,0.008 -0.195,0.001 -0.425,0.085 -0.578,0.206 -5.741,4.56 -11.476,9.128 -17.211,13.694 -0.155,0.122 -0.313,0.241 -0.545,0.421 v -0.526 c 0,-3.416 -10e-4,-6.831 0.003,-10.248 0.001,-0.338 0.005,-0.682 0.065,-1.012 0.235,-1.265 1.075,-1.993 2.418,-2.128 0.119,-0.013 0.24,-0.019 0.38,-0.029 v -0.387 h -0.376 c -4.256,0 -8.512,0 -12.769,-0.001 -0.236,0 -0.501,-0.043 -0.369,0.378 0.14,0.014 0.298,0.026 0.455,0.047 1.499,0.197 2.328,1.105 2.41,2.639 0.009,0.162 0.007,0.324 0.007,0.488 0,7.089 0.001,14.179 -0.003,21.268 0,0.324 -0.021,0.651 -0.071,0.97 -0.178,1.166 -0.938,1.923 -2.099,2.115 -0.227,0.038 -0.454,0.064 -0.696,0.097 -0.075,0.232 -0.068,0.378 0.25,0.378 4.391,-0.007 8.783,-0.008 13.174,-0.011 0.013,0 0.026,-0.008 0.077,-0.024 0.011,-0.094 0.024,-0.204 0.038,-0.317 -0.063,-0.024 -0.097,-0.045 -0.135,-0.049 -0.268,-0.039 -0.542,-0.052 -0.803,-0.115 -1.1,-0.27 -1.795,-1.074 -1.915,-2.205 -0.031,-0.297 -0.038,-0.596 -0.039,-0.894 -0.003,-2.724 -0.002,-5.449 -0.002,-8.173 v -0.508 c 0.438,0.246 0.812,0.454 1.184,0.667 5.379,3.082 10.761,6.164 16.139,9.252 0.268,0.153 0.535,0.327 0.757,0.54 C 1.408,-1.007 1.3,-0.47 0.67,-0.198 0.474,-0.114 0.257,-0.074 0,0" /></g><path
           id="path32"
           style="fill:#d22027;fill-opacity:1;fill-rule:nonzero;stroke:none"
           d="m 230.957,414.636 h 56.666 V 443 h -56.666 z" /><g
           transform="translate(230.9077,414.6714)"
           id="g34"><path
             id="path36"
             style="fill:#231f20;fill-opacity:1;fill-rule:nonzero;stroke:none"
             d="M 0,0 C 18.898,0 37.801,-0.043 56.764,-0.043 V -28.364 H 0 Z m 12.107,-0.021 v -2.642 h 32.344 v 2.642" /></g><g
           transform="translate(352.9814,400.439)"
           id="g38"><path
             id="path40"
             style="fill:#231f20;fill-opacity:1;fill-rule:nonzero;stroke:none"
             d="m 0,0 v 0.371 c 0.23,0.032 0.456,0.056 0.68,0.096 1.298,0.232 2.08,1.105 2.166,2.418 0.015,0.243 0.015,0.488 0.015,0.731 10e-4,7.05 0.002,14.1 -0.001,21.149 0,0.325 0.007,0.655 -0.046,0.973 -0.208,1.268 -0.942,1.979 -2.222,2.183 -0.186,0.029 -0.373,0.05 -0.556,0.075 -0.179,0.412 0.099,0.38 0.353,0.38 4.461,-0.001 8.921,0.009 13.381,-0.002 3.7,-0.011 7.402,0.007 11.101,-0.089 2.405,-0.062 4.773,-0.464 6.971,-1.536 0.91,-0.444 1.726,-1.02 2.361,-1.823 1.753,-2.22 1.344,-5.504 -0.916,-7.351 -1.334,-1.091 -2.903,-1.661 -4.555,-2.037 -0.809,-0.185 -1.63,-0.315 -2.452,-0.517 0.56,-0.047 1.119,-0.082 1.677,-0.142 2.075,-0.226 4.088,-0.673 5.917,-1.734 1.472,-0.855 2.584,-2.014 2.981,-3.728 C 37.459,6.826 36.436,4.323 34.136,2.741 32.485,1.606 30.612,1.039 28.677,0.649 26.316,0.173 23.924,0.009 21.522,0.004 14.472,-0.008 7.423,0 0.373,0 Z m 10.65,13.036 v -0.433 c 0,-2.305 0.012,-4.609 -0.007,-6.914 -0.006,-0.671 0.261,-1.177 0.753,-1.589 0.555,-0.465 1.202,-0.763 1.926,-0.767 2.913,-0.015 5.826,-0.045 8.739,0.021 1.367,0.03 2.712,0.34 3.959,0.96 1.457,0.726 2.337,1.858 2.446,3.519 0.112,1.737 -0.598,3.047 -2.094,3.926 -1.434,0.843 -3.028,1.141 -4.649,1.337 -2.526,0.305 -5.06,0.24 -7.593,0.134 -1.149,-0.047 -2.297,-0.127 -3.48,-0.194 m 0.015,3.517 c 0.153,-0.012 0.26,-0.025 0.366,-0.029 2.966,-0.128 5.932,-0.16 8.894,0.072 1.43,0.112 2.859,0.267 4.229,0.732 0.984,0.334 1.872,0.805 2.358,1.792 0.923,1.881 0.212,4.083 -1.631,5.062 -1.121,0.595 -2.345,0.822 -3.588,0.947 -2.868,0.291 -5.737,0.144 -8.605,-0.022 -0.672,-0.039 -1.342,-0.126 -2.023,-0.191 z" /></g><g
           transform="translate(335.375,428.4609)"
           id="g42"><path
             id="path44"
             style="fill:#231f20;fill-opacity:1;fill-rule:nonzero;stroke:none"
             d="M 0,0 C 0.007,0.11 0.014,0.212 0.021,0.333 H 12.49 C 12.5,0.217 12.508,0.115 12.516,0.026 12.478,-0.008 12.46,-0.037 12.438,-0.041 10.074,-0.424 8.042,-1.598 6.001,-2.749 l -14.684,-8.28 c -0.138,-0.078 -0.274,-0.163 -0.446,-0.266 1.241,-0.952 2.444,-1.875 3.649,-2.797 5.196,-3.979 10.391,-7.958 15.592,-11.931 0.94,-0.717 1.916,-1.374 3.119,-1.592 0.093,-0.017 0.157,-0.196 0.292,-0.375 -0.247,-0.016 -0.364,-0.031 -0.481,-0.031 -3.958,-10e-4 -7.916,-0.004 -11.875,0.008 -0.195,0.001 -0.425,0.085 -0.578,0.206 -5.741,4.56 -11.476,9.128 -17.211,13.694 -0.155,0.122 -0.313,0.241 -0.545,0.421 v -0.526 c 0,-3.416 -10e-4,-6.831 0.003,-10.248 0.001,-0.338 0.005,-0.682 0.065,-1.012 0.235,-1.265 1.075,-1.993 2.418,-2.128 0.119,-0.013 0.24,-0.019 0.38,-0.029 v -0.387 h -0.376 c -4.256,0 -8.512,0 -12.769,-0.001 -0.236,0 -0.501,-0.043 -0.369,0.378 0.14,0.014 0.298,0.026 0.455,0.047 1.499,0.197 2.328,1.105 2.41,2.639 0.009,0.162 0.007,0.324 0.007,0.488 0,7.089 0.001,14.179 -0.003,21.268 0,0.324 -0.021,0.651 -0.071,0.97 -0.178,1.166 -0.938,1.923 -2.099,2.115 -0.227,0.038 -0.454,0.064 -0.696,0.097 -0.075,0.232 -0.068,0.378 0.25,0.378 4.391,-0.007 8.783,-0.008 13.174,-0.011 0.013,0 0.026,-0.008 0.077,-0.024 0.011,-0.094 0.024,-0.204 0.038,-0.317 -0.063,-0.024 -0.097,-0.045 -0.135,-0.049 -0.268,-0.039 -0.542,-0.052 -0.803,-0.115 -1.1,-0.27 -1.795,-1.074 -1.915,-2.205 -0.031,-0.297 -0.038,-0.596 -0.039,-0.894 -0.003,-2.724 -0.002,-5.449 -0.002,-8.173 v -0.508 c 0.438,0.246 0.812,0.454 1.184,0.667 5.379,3.082 10.761,6.164 16.139,9.252 0.268,0.153 0.535,0.327 0.757,0.54 C 1.408,-1.007 1.3,-0.47 0.67,-0.198 0.474,-0.114 0.257,-0.074 0,0" /></g><path
           id="path46"
           style="fill:#ed1639;fill-opacity:1;fill-rule:nonzero;stroke:none"
           d="m 230.957,414.636 h 56.666 V 443 h -56.666 z" /><path
           id="path48"
           style="fill:#ffffff;fill-opacity:1;fill-rule:nonzero;stroke:none"
           d="m 275.382,412.028 h -32.559 v 2.608 h 32.559 z" /><g
           transform="translate(233.3667,360.9297)"
           id="g50"><path
             id="path52"
             style="fill:#231f20;fill-opacity:1;fill-rule:nonzero;stroke:none"
             d="m 0,0 c 0.877,0 1.505,0.452 1.505,1.205 v 0.017 c 0,0.717 -0.552,1.152 -1.497,1.152 H -1.798 V 0 Z M -2.459,2.985 H 0.059 C 0.777,2.985 1.354,2.768 1.723,2.399 2.007,2.116 2.174,1.705 2.174,1.247 V 1.23 c 0,-0.971 -0.669,-1.54 -1.589,-1.708 l 1.797,-2.39 h -0.81 l -1.697,2.274 h -1.673 v -2.274 h -0.661 z" /></g><g
           transform="translate(236.9536,363.915)"
           id="g54"><path
             id="path56"
             style="fill:#231f20;fill-opacity:1;fill-rule:nonzero;stroke:none"
             d="M 0,0 H 4.232 V -0.603 H 0.661 V -2.601 H 3.855 V -3.203 H 0.661 V -5.251 H 4.273 V -5.854 H 0 Z" /></g><g
           transform="translate(245.6001,365.5957)"
           id="g58"><path
             id="path60"
             style="fill:#231f20;fill-opacity:1;fill-rule:nonzero;stroke:none"
             d="m 0,0 0.661,-0.301 -0.963,-0.778 h -0.535 z m 0.752,-5.394 -1.329,2.987 -1.339,-2.987 z m -1.631,3.755 h 0.619 l 2.668,-5.895 h -0.71 l -0.686,1.547 h -3.186 l -0.695,-1.547 h -0.677 z" /></g><g
           transform="translate(249.1621,363.915)"
           id="g62"><path
             id="path64"
             style="fill:#231f20;fill-opacity:1;fill-rule:nonzero;stroke:none"
             d="M 0,0 H 0.661 V -5.243 H 3.956 V -5.854 H 0 Z" /></g><g
           transform="translate(254.3389,363.915)"
           id="g66"><path
             id="path68"
             style="fill:#231f20;fill-opacity:1;fill-rule:nonzero;stroke:none"
             d="M 0,0 H 0.619 L 4.307,-4.691 V 0 H 4.951 V -5.854 H 4.424 l -3.78,4.8 v -4.8 H 0 Z" /></g><g
           transform="translate(263.9888,365.5957)"
           id="g70"><path
             id="path72"
             style="fill:#231f20;fill-opacity:1;fill-rule:nonzero;stroke:none"
             d="m 0,0 0.661,-0.301 -0.963,-0.778 h -0.535 z m 0.752,-5.394 -1.329,2.987 -1.339,-2.987 z m -1.631,3.755 h 0.619 l 2.668,-5.895 h -0.71 l -0.686,1.547 h -3.186 l -0.695,-1.547 h -0.677 z" /></g><g
           transform="translate(272.6787,358.6553)"
           id="g74"><path
             id="path76"
             style="fill:#231f20;fill-opacity:1;fill-rule:nonzero;stroke:none"
             d="m 0,0 c 0.886,0 1.437,0.393 1.437,1.045 v 0.017 c 0,0.634 -0.535,1.003 -1.555,1.003 H -1.966 V 0 Z m -0.235,2.65 c 0.795,0 1.346,0.36 1.346,1.046 v 0.017 c 0,0.577 -0.46,0.953 -1.296,0.953 H -1.966 V 2.65 Z m -2.384,2.61 h 2.493 C 0.543,5.26 1.07,5.066 1.404,4.741 1.646,4.491 1.78,4.181 1.78,3.805 V 3.788 C 1.78,3.026 1.312,2.634 0.852,2.435 1.547,2.225 2.107,1.822 2.107,1.021 V 1.003 C 2.107,0 1.262,-0.594 -0.017,-0.594 h -2.602 z" /></g><g
           transform="translate(279.8931,360.2021)"
           id="g78"><path
             id="path80"
             style="fill:#231f20;fill-opacity:1;fill-rule:nonzero;stroke:none"
             d="M 0,0 -1.329,2.986 -2.667,0 Z m -1.631,3.755 h 0.619 L 1.656,-2.141 H 0.946 L 0.26,-0.594 h -3.186 l -0.695,-1.547 h -0.677 z" /></g><g
           transform="translate(282.7026,363.915)"
           id="g82"><path
             id="path84"
             style="fill:#231f20;fill-opacity:1;fill-rule:nonzero;stroke:none"
             d="M 0,0 H 0.619 L 4.307,-4.691 V 0 H 4.951 V -5.854 H 4.424 l -3.779,4.8 v -4.8 H 0 Z" /></g><g
           transform="translate(289.3096,363.915)"
           id="g86"><path
             id="path88"
             style="fill:#231f20;fill-opacity:1;fill-rule:nonzero;stroke:none"
             d="M 0,0 H 0.661 V -3.496 L 4.022,0 H 4.875 L 2.367,-2.559 4.984,-5.854 H 4.157 L 1.907,-3.019 0.661,-4.281 V -5.854 H 0 Z" /></g><g
           transform="translate(299.1187,360.2021)"
           id="g90"><path
             id="path92"
             style="fill:#231f20;fill-opacity:1;fill-rule:nonzero;stroke:none"
             d="M 0,0 -1.329,2.986 -2.667,0 Z m -1.631,3.755 h 0.619 L 1.656,-2.141 H 0.946 L 0.26,-0.594 h -3.186 l -0.695,-1.547 h -0.677 z" /></g><g
           transform="translate(306.5449,360.7285)"
           id="g94"><path
             id="path96"
             style="fill:#231f20;fill-opacity:1;fill-rule:nonzero;stroke:none"
             d="m 0,0 c 0.97,0 1.605,0.519 1.605,1.289 v 0.017 c 0,0.835 -0.626,1.269 -1.573,1.269 H -1.447 V 0 Z m -2.108,3.187 h 2.191 c 1.321,0 2.19,-0.703 2.19,-1.856 V 1.313 c 0,-1.262 -1.053,-1.915 -2.298,-1.915 h -1.422 v -2.065 h -0.661 z" /></g><g
           transform="translate(312.4824,360.9297)"
           id="g98"><path
             id="path100"
             style="fill:#231f20;fill-opacity:1;fill-rule:nonzero;stroke:none"
             d="m 0,0 c 0.877,0 1.505,0.452 1.505,1.205 v 0.017 c 0,0.717 -0.552,1.152 -1.497,1.152 H -1.799 V 0 Z M -2.459,2.985 H 0.059 C 0.776,2.985 1.354,2.768 1.723,2.399 2.007,2.116 2.174,1.705 2.174,1.247 V 1.23 c 0,-0.971 -0.669,-1.54 -1.589,-1.708 l 1.797,-2.39 h -0.81 l -1.698,2.274 h -1.673 v -2.274 h -0.66 z" /></g><g
           transform="translate(321.0937,360.9717)"
           id="g102"><path
             id="path104"
             style="fill:#231f20;fill-opacity:1;fill-rule:nonzero;stroke:none"
             d="m 0,0 v 0.018 c 0,1.328 -0.97,2.415 -2.309,2.415 -1.337,0 -2.29,-1.071 -2.29,-2.399 V 0.018 c 0,-1.331 0.97,-2.418 2.308,-2.418 C -0.953,-2.4 0,-1.33 0,0 m -5.284,0 v 0.018 c 0,1.612 1.213,3.026 2.993,3.026 1.781,0 2.978,-1.398 2.978,-3.01 V 0.018 c 0,-1.617 -1.213,-3.029 -2.996,-3.029 -1.78,0 -2.975,1.396 -2.975,3.011" /></g><g
           transform="translate(328.1445,360.9297)"
           id="g106"><path
             id="path108"
             style="fill:#231f20;fill-opacity:1;fill-rule:nonzero;stroke:none"
             d="m 0,0 c 0.878,0 1.505,0.452 1.505,1.205 v 0.017 c 0,0.717 -0.552,1.152 -1.496,1.152 H -1.798 V 0 Z M -2.459,2.985 H 0.059 C 0.777,2.985 1.354,2.768 1.723,2.399 2.007,2.116 2.175,1.705 2.175,1.247 V 1.23 c 0,-0.971 -0.67,-1.54 -1.589,-1.708 l 1.797,-2.39 H 1.572 l -1.698,2.274 h -1.672 v -2.274 h -0.661 z" /></g><g
           transform="translate(331.7305,363.915)"
           id="g110"><path
             id="path112"
             style="fill:#231f20;fill-opacity:1;fill-rule:nonzero;stroke:none"
             d="M 0,0 H 4.232 V -0.603 H 0.66 V -2.601 H 3.854 V -3.203 H 0.66 V -5.251 H 4.272 V -5.854 H 0 Z" /></g><g
           transform="translate(340.3779,365.5957)"
           id="g114"><path
             id="path116"
             style="fill:#231f20;fill-opacity:1;fill-rule:nonzero;stroke:none"
             d="m 0,0 0.661,-0.301 -0.963,-0.778 h -0.535 z m 0.752,-5.394 -1.329,2.987 -1.338,-2.987 z m -1.631,3.755 h 0.619 l 2.668,-5.895 h -0.71 l -0.686,1.547 h -3.186 l -0.694,-1.547 h -0.678 z" /></g><g
           transform="translate(343.9395,363.915)"
           id="g118"><path
             id="path120"
             style="fill:#231f20;fill-opacity:1;fill-rule:nonzero;stroke:none"
             d="M 0,0 H 0.661 V -5.243 H 3.956 V -5.854 H 0 Z" /></g><g
           transform="translate(349.1152,363.915)"
           id="g122"><path
             id="path124"
             style="fill:#231f20;fill-opacity:1;fill-rule:nonzero;stroke:none"
             d="M 0,0 H 0.619 L 4.307,-4.691 V 0 H 4.951 V -5.854 H 4.424 l -3.779,4.8 v -4.8 H 0 Z" /></g><g
           transform="translate(358.4561,365.4863)"
           id="g126"><path
             id="path128"
             style="fill:#231f20;fill-opacity:1;fill-rule:nonzero;stroke:none"
             d="M 0,0 0.661,-0.3 -0.3,-1.078 h -0.535 z m -0.902,-5.109 -2.433,3.538 h 0.802 l 1.973,-2.926 1.992,2.926 H 2.2 l -2.433,-3.531 v -2.323 h -0.669 z" /></g><g
           transform="translate(366.6514,364.4336)"
           id="g130"><path
             id="path132"
             style="fill:#231f20;fill-opacity:1;fill-rule:nonzero;stroke:none"
             d="m 0,0 h -0.602 l -0.919,0.986 h 0.602 L -0.293,0.484 0.334,0.986 H 0.92 Z m -2.701,-5.929 3.789,4.817 h -3.663 v 0.593 H 1.99 V -0.962 L -1.807,-5.778 H 1.99 v -0.594 h -4.691 z" /></g><path
           id="path134"
           style="fill:#231f20;fill-opacity:1;fill-rule:nonzero;stroke:none"
           d="m 370.072,363.915 h 0.661 v -5.854 h -0.661 z" /><g
           transform="translate(371.9443,363.915)"
           id="g136"><path
             id="path138"
             style="fill:#231f20;fill-opacity:1;fill-rule:nonzero;stroke:none"
             d="M 0,0 H 0.736 L 2.818,-5.042 4.909,0 H 5.62 L 3.104,-5.896 H 2.519 Z" /></g><g
           transform="translate(383.7432,360.9717)"
           id="g140"><path
             id="path142"
             style="fill:#231f20;fill-opacity:1;fill-rule:nonzero;stroke:none"
             d="m 0,0 v 0.018 c 0,1.328 -0.97,2.415 -2.308,2.415 -1.338,0 -2.291,-1.071 -2.291,-2.399 V 0.018 c 0,-1.331 0.97,-2.418 2.308,-2.418 C -0.952,-2.4 0,-1.33 0,0 m -5.284,0 v 0.018 c 0,1.612 1.213,3.026 2.993,3.026 1.781,0 2.978,-1.398 2.978,-3.01 V 0.018 c 0,-1.617 -1.213,-3.029 -2.995,-3.029 -1.78,0 -2.976,1.396 -2.976,3.011" /></g><g
           transform="translate(387.374,363.3037)"
           id="g144"><path
             id="path146"
             style="fill:#231f20;fill-opacity:1;fill-rule:nonzero;stroke:none"
             d="m 0,0 h -1.966 v 0.611 h 4.6 V 0 H 0.668 V -5.242 H 0 Z" /></g></g></g></g></svg>