<?xml version="1.0" encoding="UTF-8" standalone="no"?>
<svg
   xmlns:dc="http://purl.org/dc/elements/1.1/"
   xmlns:cc="http://creativecommons.org/ns#"
   xmlns:rdf="http://www.w3.org/1999/02/22-rdf-syntax-ns#"
   xmlns:svg="http://www.w3.org/2000/svg"
   xmlns="http://www.w3.org/2000/svg"
   version="1.1"
   id="svg4400"
   viewBox="0 0 640.20203 114.114">
  <defs
     id="defs4402">
    <linearGradient
       gradientTransform="translate(53.470429,506.01949)"
       y2="3.9663"
       x2="579.34082"
       y1="97.625"
       x1="579.34082"
       gradientUnits="userSpaceOnUse"
       id="SVGID_2_">
      <stop
         id="stop246"
         style="stop-color:#0091C8"
         offset="0" />
      <stop
         id="stop248"
         style="stop-color:#64CADD"
         offset="1" />
    </linearGradient>
    <linearGradient
       gradientTransform="translate(53.470429,506.01949)"
       y2="0.00048828131"
       x2="254.2085"
       y1="104.1133"
       x1="254.2085"
       gradientUnits="userSpaceOnUse"
       id="SVGID_1_">
      <stop
         id="stop239"
         style="stop-color:#152E3A"
         offset="0" />
      <stop
         id="stop241"
         style="stop-color:#505B61"
         offset="1" />
    </linearGradient>
  </defs>
  <metadata
     id="metadata4405">
    <rdf:RDF>
      <cc:Work
         rdf:about="">
        <dc:format>image/svg+xml</dc:format>
        <dc:type
           rdf:resource="http://purl.org/dc/dcmitype/StillImage" />
        <dc:title></dc:title>
      </cc:Work>
    </rdf:RDF>
  </metadata>
  <g
     transform="translate(-48.470429,-501.01949)"
     id="layer1">
    <path
       id="path243"
       d="m 126.11243,513.91049 c -4.553,-3.073 -9.655,-5.099 -15.295,-6.061 -5.647,-0.966 -11.291001,-1.441 -16.934001,-1.441 -9.621,0 -17.643,0.736 -24.055,2.209 -6.418,1.479 -11.867,2.987 -16.358,4.525 l 0,94.482 c 3.334,0.646 6.349,1.063 9.044,1.257 2.695,0.188 5.129,0.285 7.314,0.285 2.049,0 4.425,-0.098 7.12,-0.285 2.695,-0.194 5.707,-0.611 9.044,-1.257 l 0,-71.968 c 0.386,-0.257 1.375,-0.507 2.983,-0.771 1.604,-0.257 3.108,-0.382 4.522,-0.382 5.262,0 9.169001,1.473 11.739001,4.425 2.563,2.952 3.852,7.821 3.852,14.628 l 0,54.068 c 3.331,0.646 6.349,1.063 9.041,1.257 2.695,0.188 5.13,0.285 7.311,0.285 2.056,0 4.424,-0.098 7.123,-0.285 2.695,-0.194 5.706,-0.611 9.047,-1.257 l 0,-57.534 c 0,-9.495 -1.444,-17.129 -4.334,-22.899 -2.887,-5.776 -6.607,-10.2 -11.164,-13.281 z m 104.303,1.927 c -3.786,-3.334 -8.37,-5.807 -13.761,-7.412 -5.389,-1.6 -11.418,-2.406 -18.09,-2.406 -4.88,0 -10.36,0.518 -16.452,1.542 -6.095,1.028 -12.218,2.57 -18.379,4.619 0,2.57 0.097,4.842 0.288,6.835 0.194,1.986 0.511,3.91 0.962,5.772 0.451,1.861 1.091,3.688 1.924,5.48 0.834,1.797 1.827,3.783 2.987,5.965 4.358,-1.535 8.592,-2.66 12.697,-3.369 4.105,-0.701 7.696,-1.056 10.78,-1.056 2.306,0 4.55,0.167 6.737,0.479 2.175,0.319 4.161,0.902 5.96,1.729 1.796,0.84 3.271,2.021 4.425,3.563 1.16,1.542 1.799,3.466 1.931,5.771 l -11.745,0 c -4.877,0 -9.878,0.479 -15.011,1.445 -5.133,0.966 -9.812,2.667 -14.045,5.099 -4.237,2.438 -7.696,5.709 -10.392,9.814 -2.696,4.105 -4.043,9.301 -4.043,15.587 0,6.418 1.126,11.836 3.369,16.261 2.244,4.432 5.355,7.988 9.336,10.684 3.973,2.688 8.752,4.646 14.329,5.869 5.585,1.216 11.712,1.827 18.387,1.827 7.696,0 15.004,-0.709 21.936,-2.119 6.933,-1.41 12.822,-2.82 17.706,-4.23 l 0,-56.385 c 0,-7.183 -1.035,-13.378 -3.077,-18.565 -2.057,-5.196 -4.98,-9.461 -8.759,-12.799 z m -17.991,69.08 c -1.034,0.258 -2.636,0.515 -4.813,0.771 -2.188,0.257 -3.852,0.389 -5.001,0.389 -1.671,0 -3.501,-0.132 -5.487,-0.389 -1.993,-0.257 -3.849,-0.771 -5.585,-1.535 -1.729,-0.771 -3.171,-1.896 -4.327,-3.376 -1.153,-1.473 -1.729,-3.486 -1.729,-6.057 0,-3.459 1.535,-6.161 4.615,-8.085 3.077,-1.925 6.866,-2.89 11.354,-2.89 l 10.975,0 0,21.172 z m 123.065,-71.007 c -4.561,-3.073 -9.662,-5.099 -15.303,-6.061 -5.644,-0.966 -11.287,-1.441 -16.927,-1.441 -9.631,0 -17.647,0.736 -24.062,2.209 -6.422,1.479 -11.871,2.987 -16.354,4.525 l 0,94.482 c 3.33,0.646 6.345,1.063 9.04,1.257 2.695,0.188 5.13,0.285 7.314,0.285 2.056,0 4.421,-0.098 7.123,-0.285 2.695,-0.194 5.706,-0.611 9.04,-1.257 l 0,-71.968 c 0.39,-0.257 1.383,-0.507 2.987,-0.771 1.604,-0.257 3.104,-0.382 4.521,-0.382 5.259,0 9.169,1.473 11.732,4.425 2.577,2.952 3.854,7.821 3.854,14.628 l 0,54.068 c 3.331,0.646 6.349,1.063 9.044,1.257 2.695,0.188 5.13,0.285 7.314,0.285 2.046,0 4.421,-0.098 7.123,-0.285 2.688,-0.194 5.696,-0.611 9.041,-1.257 l 0,-57.534 c 0,-9.495 -1.445,-17.129 -4.328,-22.899 -2.887,-5.776 -6.61,-10.2 -11.159,-13.281 z m 98.134,38.876 c -2.497,0.257 -5.353,0.708 -8.558,1.34 l 0,28.292 -3.467,0 c -7.186,0 -12.638,-2.021 -16.357,-6.058 -3.717,-4.049 -5.578,-10.363 -5.578,-18.955 0,-3.084 0.417,-6.064 1.251,-8.954 0.833,-2.883 2.146,-5.418 3.938,-7.599 1.803,-2.182 4.172,-3.918 7.127,-5.196 2.945,-1.277 6.543,-1.924 10.78,-1.924 2.688,0 5.894,0.417 9.62,1.258 3.71,0.826 7.76,2.139 12.118,3.938 1.153,-2.82 2.153,-5.355 2.986,-7.606 0.83,-2.238 1.532,-4.356 2.115,-6.347 0.58,-1.987 1.06,-3.945 1.441,-5.866 0.382,-1.928 0.643,-3.977 0.771,-6.158 -6.415,-2.566 -12.315,-4.361 -17.706,-5.39 -5.389,-1.024 -10.323,-1.542 -14.811,-1.542 -8.6,0 -16.174,1.348 -22.71,4.043 -6.544,2.694 -12.034,6.352 -16.452,10.968 -4.432,4.619 -7.766,10.077 -10.01,16.356 -2.243,6.293 -3.368,12.961 -3.368,20.019 0,7.307 0.931,14.177 2.796,20.588 1.854,6.418 4.838,11.996 8.946,16.747 4.102,4.737 9.391,8.495 15.868,11.252 6.48,2.758 14.337,4.141 23.578,4.141 8.856,0 16.612,-0.841 23.287,-2.508 6.665,-1.66 11.864,-3.202 15.584,-4.612 l 0,-48.888 c -6.154,-1.152 -11.482,-1.729 -15.973,-1.729 -2.306,0 -4.712,0.125 -7.216,0.39 z m 119.987,-45.801 c -2.827,-0.254 -5.452,-0.383 -7.887,-0.383 -2.566,0 -5.23,0.129 -7.988,0.383 -2.765,0.257 -5.55,0.705 -8.377,1.34 l 0,72.939 c -0.511,0.132 -1.344,0.257 -2.497,0.389 -1.153,0.125 -2.823,0.188 -5.001,0.188 -5.269,0 -9.176,-1.409 -11.743,-4.236 -2.566,-2.813 -3.848,-8.079 -3.848,-15.775 l 0,-53.505 c -2.688,-0.635 -5.453,-1.083 -8.27,-1.34 -2.827,-0.254 -5.46,-0.383 -7.895,-0.383 -2.566,0 -5.223,0.129 -7.987,0.383 -2.758,0.257 -5.547,0.705 -8.37,1.34 l 0,56.199 c 0,10.01 1.354,17.99 4.039,23.957 2.695,5.967 6.317,10.517 10.874,13.656 4.55,3.146 9.839,5.237 15.875,6.258 6.033,1.028 12.315,1.543 18.859,1.543 3.466,0 6.994,-0.195 10.582,-0.577 3.598,-0.382 7.096,-0.931 10.492,-1.639 3.396,-0.702 6.605,-1.445 9.62,-2.209 3.019,-0.771 5.612,-1.542 7.797,-2.313 l 0,-94.875 c -2.694,-0.635 -5.459,-1.083 -8.275,-1.34 z"
       style="fill:url(#SVGID_1_)" />
    <path
       id="path250"
       d="m 682.60343,535.78949 c -0.74,-7.069 -1.848,-14.502 -3.289,-22.261 -8.384,-0.993 -16.435,-1.841 -24.075,-2.528 -7.669,-0.674 -15.143,-1.015 -22.433,-1.015 -7.279,0 -14.754,0.341 -22.419,1.015 -7.65,0.688 -15.691,1.535 -24.068,2.528 -1.465,7.759 -2.556,15.191 -3.281,22.261 -0.727,7.099 -1.088,14.017 -1.088,20.775 0,6.758 0.361,13.656 1.088,20.741 0.726,7.092 1.816,14.523 3.281,22.269 8.377,1.348 16.418,2.369 24.068,3.057 7.665,0.674 15.14,1.014 22.419,1.014 7.29,0 14.764,-0.34 22.433,-1.014 7.641,-0.688 15.691,-1.709 24.075,-3.057 1.441,-7.745 2.549,-15.177 3.289,-22.269 0.705,-7.085 1.069,-13.982 1.069,-20.741 0,-6.759 -0.364,-13.677 -1.069,-20.775 z m -54.989,10.474 c -0.076,0.431 -0.438,0.736 -0.872,0.736 l -8.516,0 0,30.652 c 0,0.431 -0.323,0.799 -0.747,0.876 -2.031,0.34 -3.719,0.521 -5.104,0.521 -1.459,0 -3.179,-0.181 -5.161,-0.521 -0.435,-0.077 -0.747,-0.445 -0.747,-0.876 l 0.007,-30.652 -8.509,0 c -0.424,0 -0.785,-0.292 -0.872,-0.702 -0.354,-1.667 -0.534,-3.216 -0.534,-4.633 0,-1.327 0.181,-2.827 0.534,-4.521 0.08,-0.41 0.448,-0.709 0.872,-0.709 l 28.777,0 c 0.424,0 0.796,0.313 0.872,0.729 0.156,0.854 0.261,1.646 0.344,2.375 0.08,0.736 0.118,1.445 0.118,2.126 -10e-4,1.306 -0.157,2.841 -0.462,4.599 z m 28.461,31.723 c -0.101,0.319 -0.386,0.556 -0.716,0.604 -0.993,0.146 -1.92,0.264 -2.774,0.333 -0.813,0.083 -1.588,0.118 -2.331,0.118 l -0.205,0 c -0.784,0 -1.583,-0.027 -2.393,-0.118 -0.813,-0.069 -1.754,-0.188 -2.854,-0.333 -0.344,-0.049 -0.625,-0.285 -0.729,-0.604 l -12.903,-40.274 c -0.08,-0.25 -0.049,-0.521 0.087,-0.736 0.132,-0.223 0.351,-0.375 0.611,-0.417 0.681,-0.118 1.545,-0.223 2.604,-0.313 1.073,-0.104 2.118,-0.152 3.129,-0.152 0.823,0 1.72,0.048 2.675,0.152 0.948,0.09 1.795,0.194 2.524,0.313 0.348,0.056 0.629,0.306 0.723,0.632 l 6.703,24.2 6.853,-24.2 c 0.087,-0.326 0.36,-0.569 0.697,-0.632 0.893,-0.159 1.789,-0.277 2.699,-0.354 0.91,-0.069 1.865,-0.11 2.861,-0.11 0.678,0 1.501,0.048 2.456,0.152 0.94,0.09 1.788,0.194 2.528,0.313 0.25,0.042 0.476,0.188 0.611,0.41 0.139,0.222 0.17,0.493 0.094,0.743 l -12.95,40.273 z"
       style="fill:url(#SVGID_2_)" />
  </g>
</svg>
