<?xml version="1.0" encoding="UTF-8" standalone="no"?>
<!-- Created with Inkscape (http://www.inkscape.org/) -->

<svg
   xmlns:dc="http://purl.org/dc/elements/1.1/"
   xmlns:cc="http://creativecommons.org/ns#"
   xmlns:rdf="http://www.w3.org/1999/02/22-rdf-syntax-ns#"
   xmlns:svg="http://www.w3.org/2000/svg"
   xmlns="http://www.w3.org/2000/svg"
   xmlns:sodipodi="http://sodipodi.sourceforge.net/DTD/sodipodi-0.dtd"
   xmlns:inkscape="http://www.inkscape.org/namespaces/inkscape"
   id="svg2"
   version="1.1"
   inkscape:version="0.91 r13725"
   xml:space="preserve"
   width="154.34743"
   height="86.251564"
   viewBox="0 0 154.34742 86.251566"
   sodipodi:docname="nn.svg"><metadata
     id="metadata8"><rdf:RDF><cc:Work
         rdf:about=""><dc:format>image/svg+xml</dc:format><dc:type
           rdf:resource="http://purl.org/dc/dcmitype/StillImage" /><dc:title></dc:title></cc:Work></rdf:RDF></metadata><defs
     id="defs6"><clipPath
       clipPathUnits="userSpaceOnUse"
       id="clipPath18"><path
         d="m 0,0 1303.94,0 0,907 L 0,907 0,0 Z"
         id="path20"
         inkscape:connector-curvature="0" /></clipPath></defs><sodipodi:namedview
     pagecolor="#ffffff"
     bordercolor="#666666"
     borderopacity="1"
     objecttolerance="10"
     gridtolerance="10"
     guidetolerance="10"
     inkscape:pageopacity="0"
     inkscape:pageshadow="2"
     inkscape:window-width="1366"
     inkscape:window-height="705"
     id="namedview4"
     showgrid="false"
     fit-margin-top="1"
     fit-margin-left="1"
     fit-margin-right="1"
     fit-margin-bottom="1"
     inkscape:zoom="2.943485"
     inkscape:cx="48.5646"
     inkscape:cy="29.252529"
     inkscape:window-x="-8"
     inkscape:window-y="-8"
     inkscape:window-maximized="1"
     inkscape:current-layer="g10" /><g
     id="g10"
     inkscape:groupmode="layer"
     inkscape:label="ink_ext_XXXXXX"
     transform="matrix(1.25,0,0,-1.25,-4.5403183,101.37381)"><g
       id="g12"
       transform="matrix(0.14324021,0,0,0.14324021,-26.832213,-18.370542)"><g
         id="g14"><g
           id="g16"
           clip-path="url(#clipPath18)"><path
             d="m 688.816,453.566 c 0,-129.945 -105.336,-235.273 -235.277,-235.273 -129.934,0 -235.273,105.328 -235.273,235.273 0,129.942 105.339,235.274 235.273,235.274 129.941,0 235.277,-105.332 235.277,-235.274"
             style="fill:#ffffff;fill-opacity:1;fill-rule:nonzero;stroke:none"
             id="path22"
             inkscape:connector-curvature="0" /><path
             d="m 875.332,525.039 0,-87.324 L 819.727,515 c -4.036,5.723 -11.883,10.039 -18.489,10.039 l -34.82,0 -2.133,-11.504 7.094,-1.582 c 3.57,-0.82 5.351,-4.57 5.309,-13.379 l 0,-108.183 30.421,0 0,88.125 57.371,-79.766 c 3.086,-4.355 10.344,-8.359 16.692,-8.359 l 24.582,0 0,134.648 -30.422,0"
             style="fill:#231f20;fill-opacity:1;fill-rule:nonzero;stroke:none"
             id="path24"
             inkscape:connector-curvature="0" /><path
             d="m 1038.72,525.039 0,-87.324 L 983.105,515 c -4.035,5.723 -11.882,10.039 -18.488,10.039 l -34.82,0 -2.129,-11.504 7.09,-1.582 c 3.57,-0.82 5.347,-4.57 5.308,-13.379 l 0,-108.183 30.422,0 0,88.125 57.372,-79.766 c 3.08,-4.355 10.35,-8.359 16.7,-8.359 l 24.57,0 0,134.648 -30.41,0"
             style="fill:#231f20;fill-opacity:1;fill-rule:nonzero;stroke:none"
             id="path26"
             inkscape:connector-curvature="0" /><path
             d="m 235.742,420.02 c 0,84.519 58.102,112.121 119.246,112.121 l 193.149,0 -29.582,-147.414 -74.602,112.617 c -2.066,3.261 -6.973,5.918 -10.855,5.918 l -60.918,0 c -3.887,0 -7.715,-3.125 -8.496,-6.914 L 331.277,336.914 c -0.742,-3.809 1.797,-6.934 5.676,-6.934 l 44.719,0 c 3.887,0 7.715,3.125 8.496,6.915 l 22.637,111.687 74.531,-112.488 c 2.078,-3.281 7,-5.938 10.879,-5.938 l 60.973,0 c 3.859,0 7.675,3.106 8.5,6.922 l 35.039,171.301 c 0.757,3.809 -0.344,9.59 -2.446,12.871 l -37.234,58.047 c -2.078,3.262 -7,5.957 -10.891,5.957 l -271.703,0 c -10.086,0 -8.91,4.18 -0.723,13.945 41.594,49.602 104.024,81.114 173.817,81.114 125.242,0 226.769,-101.536 226.769,-226.766 0,-125.246 -101.527,-226.777 -226.769,-226.777 -130.231,0 -217.805,107.324 -217.805,193.25"
             style="fill:#f68b11;fill-opacity:1;fill-rule:nonzero;stroke:none"
             id="path28"
             inkscape:connector-curvature="0" /></g></g></g></g></svg>