<svg id="Layer_1" data-name="Layer 1" xmlns="http://www.w3.org/2000/svg" viewBox="0 0 459.99 122.56">
  <defs>
    <style>.cls-1{fill:#bd3632;}.cls-2{fill:#616365;}</style>
  </defs>
  <title>Artboard 1</title>
  <path class="cls-1"
        d="M215.65,1.4V70h7.73V40.1h37.15V33.05H223.38V8.56h41.56V1.4ZM280.84,70h7.74V1.4h-7.74Zm76-68.6v55l-43.21-55h-7.24V70H314V13.74L358.26,70h6.17V1.4ZM383.17,70h7.74V1.4h-7.74ZM406.09,1.4V8.56h23V70H437V8.56h23V1.4Z"/>
  <path class="cls-1"
        d="M51.35,23.25c0-13.62-10.2-21.87-25.68-21.87H0V70H7.74V45.8H24.4c14.61,0,27-7.65,27-22.54m-7.84.29c0,9.11-7.45,15.18-18.82,15.18h-17V8.55H25.09c11.07,0,18.42,5.09,18.42,15M122.19,70,101.12,42c10.78-2,18.62-8.62,18.62-20.08C119.75,9.54,110,1.39,95,1.39H65.45V70H73.2V43.34H92.79L112.69,70ZM111.9,22.17c0,8.93-7.35,14.21-17.64,14.21H73.2V8.55H94.36c11.07,0,17.54,5.09,17.54,13.61M202,35.6c0-19-14-35.38-34.89-35.38S132,16.79,132,35.8s14,35.36,34.89,35.36S202,54.61,202,35.6m-8,.2C194,51.48,182.79,64,167.12,64s-27-12.73-27-28.41S151.25,7.38,166.93,7.38s27,12.73,27,28.42"/>
  <path class="cls-2" d="M30.09,103.2h2l8.61,19H38.41l-2.21-5H25.91l-2.24,5H21.48Zm5.26,12.12-4.29-9.64-4.32,9.64Z"/>
  <path class="cls-2" d="M43,103.34h2.13v8.4H56.07v-8.4H58.2v18.9H56.07v-8.5H45.16v8.5H43Z"/>
  <path class="cls-2" d="M62.14,103.34H75.8v1.94H64.28v6.45H74.59v1.94H64.28v6.61H75.94v1.94H62.14Z"/>
  <path class="cls-2" d="M85.82,103.2h2l8.61,19H94.13l-2.21-5H81.64l-2.24,5H77.21Zm5.26,12.12-4.29-9.64-4.32,9.64Z"/>
  <path class="cls-2"
        d="M98.76,103.34h6.56c5.94,0,10,4.08,10,9.39v.05c0,5.32-4.1,9.45-10,9.45H98.76Zm6.56,16.92c4.78,0,7.83-3.24,7.83-7.42v-.05c0-4.18-3.05-7.48-7.83-7.48h-4.43v15Z"/>
  <path class="cls-2" d="M130.15,105.31h-6.34v-2h14.85v2h-6.34v16.92h-2.16Z"/>
  <path class="cls-2" d="M141.25,103.34h2.13v8.4h10.91v-8.4h2.13v18.9h-2.13v-8.5H143.39v8.5h-2.13Z"/>
  <path class="cls-2"
        d="M160.37,103.34h8.13a7.45,7.45,0,0,1,5.37,1.89,5.22,5.22,0,0,1,1.46,3.73V109c0,3.13-2.16,5-5.13,5.51l5.8,7.72h-2.62l-5.48-7.34h-5.4v7.34h-2.13ZM168.3,113c2.83,0,4.86-1.46,4.86-3.89V109c0-2.32-1.78-3.72-4.83-3.72H162.5V113Z"/>
  <path class="cls-2"
        d="M177.65,112.84v-.05a9.64,9.64,0,1,1,19.27-.05v.05a9.64,9.64,0,1,1-19.27.05Zm17.06,0v-.05a7.51,7.51,0,0,0-7.45-7.8,7.42,7.42,0,0,0-7.4,7.75v.05a7.51,7.51,0,0,0,7.45,7.8A7.42,7.42,0,0,0,194.71,112.84Z"/>
  <path class="cls-2"
        d="M199.73,114.32v-11h2.13v10.85c0,4.08,2.16,6.37,5.78,6.37s5.7-2.11,5.7-6.24v-11h2.13v10.82c0,5.51-3.16,8.37-7.88,8.37S199.73,119.67,199.73,114.32Z"/>
  <path class="cls-2"
        d="M218.28,112.84v-.05a9.48,9.48,0,0,1,9.47-9.77,10,10,0,0,1,7,2.51l-1.38,1.62a8,8,0,0,0-5.75-2.16c-4.18,0-7.18,3.54-7.18,7.75v.05c0,4.51,2.89,7.85,7.48,7.85a8.9,8.9,0,0,0,5.45-1.89v-4.7h-5.75v-1.92h7.8v7.53a11.45,11.45,0,0,1-7.58,2.89C222,122.56,218.28,118.24,218.28,112.84Z"/>
  <path class="cls-2" d="M238.88,103.34H241v8.4h10.91v-8.4h2.13v18.9h-2.13v-8.5H241v8.5h-2.13Z"/>
  <path class="cls-2"
        d="M264.69,103.34h2.13v11.28l10.85-11.28h2.75l-8.1,8.26,8.45,10.64h-2.67l-7.26-9.15-4,4.08v5.08h-2.13Z"/>
  <path class="cls-2" d="M282.7,103.34h2l11.9,15.14V103.34h2.08v18.9H297l-12.2-15.49v15.49H282.7Z"/>
  <path class="cls-2"
        d="M301.79,112.84v-.05a9.64,9.64,0,1,1,19.27-.05v.05a9.64,9.64,0,1,1-19.27.05Zm17.06,0v-.05a7.51,7.51,0,0,0-7.45-7.8,7.42,7.42,0,0,0-7.4,7.75v.05a7.51,7.51,0,0,0,7.45,7.8A7.42,7.42,0,0,0,318.85,112.84Z"/>
  <path class="cls-2"
        d="M321.75,103.34h2.32l5.4,15.74,5.18-15.79h1.75l5.18,15.79,5.4-15.74h2.24l-6.75,19h-1.81L335.49,107l-5.21,15.33h-1.78Z"/>
  <path class="cls-2" d="M351.69,103.34h2.13v16.92h10.63v2H351.69Z"/>
  <path class="cls-2" d="M367,103.34h13.66v1.94H369.13v6.45h10.31v1.94H369.13v6.61h11.66v1.94H367Z"/>
  <path class="cls-2"
        d="M383.68,103.34h6.56c5.94,0,10,4.08,10,9.39v.05c0,5.32-4.1,9.45-10,9.45h-6.56Zm6.56,16.92c4.78,0,7.83-3.24,7.83-7.42v-.05c0-4.18-3.05-7.48-7.83-7.48h-4.43v15Z"/>
  <path class="cls-2"
        d="M402.56,112.84v-.05A9.48,9.48,0,0,1,412,103a10,10,0,0,1,7,2.51l-1.38,1.62a8,8,0,0,0-5.75-2.16c-4.18,0-7.18,3.54-7.18,7.75v.05c0,4.51,2.89,7.85,7.48,7.85a8.9,8.9,0,0,0,5.45-1.89v-4.7h-5.75v-1.92h7.8v7.53a11.45,11.45,0,0,1-7.58,2.89C406.23,122.56,402.56,118.24,402.56,112.84Z"/>
  <path class="cls-2" d="M423.16,103.34h13.66v1.94H425.29v6.45H435.6v1.94H425.29v6.61H437v1.94H423.16Z"/>
</svg>
