<?xml version="1.0" encoding="UTF-8" standalone="no"?>
<svg
   xmlns:dc="http://purl.org/dc/elements/1.1/"
   xmlns:cc="http://creativecommons.org/ns#"
   xmlns:rdf="http://www.w3.org/1999/02/22-rdf-syntax-ns#"
   xmlns:svg="http://www.w3.org/2000/svg"
   xmlns="http://www.w3.org/2000/svg"
   xmlns:sodipodi="http://sodipodi.sourceforge.net/DTD/sodipodi-0.dtd"
   xmlns:inkscape="http://www.inkscape.org/namespaces/inkscape"
   viewBox="0 0 584.98865 98.68125"
   height="98.681252"
   width="584.98865"
   xml:space="preserve"
   version="1.1"
   id="svg2"
   inkscape:version="0.91 r13725"
   sodipodi:docname="profinit.svg"><sodipodi:namedview
     pagecolor="#ffffff"
     bordercolor="#666666"
     borderopacity="1"
     objecttolerance="10"
     gridtolerance="10"
     guidetolerance="10"
     inkscape:pageopacity="0"
     inkscape:pageshadow="2"
     inkscape:window-width="1293"
     inkscape:window-height="769"
     id="namedview14"
     showgrid="false"
     fit-margin-top="5"
     fit-margin-left="5"
     fit-margin-right="5"
     fit-margin-bottom="5"
     inkscape:zoom="0.63698694"
     inkscape:cx="83.698835"
     inkscape:cy="49.340628"
     inkscape:window-x="0"
     inkscape:window-y="115"
     inkscape:window-maximized="0"
     inkscape:current-layer="svg2" /><metadata
     id="metadata8"><rdf:RDF><cc:Work
         rdf:about=""><dc:format>image/svg+xml</dc:format><dc:type
           rdf:resource="http://purl.org/dc/dcmitype/StillImage" /><dc:title></dc:title></cc:Work></rdf:RDF></metadata><defs
     id="defs6"><clipPath
       id="clipPath20"
       clipPathUnits="userSpaceOnUse"><path
         id="path22"
         d="m 0,71.316 459.991,0 L 459.991,0 0,0 0,71.316 Z"
         inkscape:connector-curvature="0" /></clipPath></defs><g
     transform="matrix(1.25,0,0,-1.25,4.99975,93.87425)"
     id="g10"><g
       transform="translate(406.0881,69.9165)"
       id="g12"><path
         id="path14"
         style="fill:#bd3632;fill-opacity:1;fill-rule:nonzero;stroke:none"
         d="m 0,0 0,-7.157 23.029,0 0,-61.438 7.838,0 0,61.438 23.036,0 0,7.157 L 0,0 Z m -22.921,-68.595 7.736,0 0,68.595 -7.736,0 0,-68.595 z M -49.201,0 l 0,-54.964 L -92.414,0 l -7.242,0 0,-68.595 7.545,0 0,56.251 44.283,-56.251 6.17,0 0,68.595 -7.543,0 z m -76.048,-68.595 7.74,0 0,68.595 -7.74,0 0,-68.595 z M -190.439,0 l 0,-68.595 7.733,0 0,29.891 37.148,0 0,7.05 -37.148,0 0,24.497 41.556,0 0,7.157 -49.289,0 z"
         inkscape:connector-curvature="0" /></g><g
       id="g16"><g
         clip-path="url(#clipPath20)"
         id="g18"><g
           transform="translate(193.9722,35.5184)"
           id="g24"><path
             id="path26"
             style="fill:#bd3632;fill-opacity:1;fill-rule:nonzero;stroke:none"
             d="m 0,0 c 0,-15.681 -11.177,-28.21 -26.854,-28.21 -15.68,0 -27.044,12.73 -27.044,28.41 0,15.68 11.176,28.22 26.857,28.22 C -11.369,28.42 0,15.688 0,0 m 8.034,0.2 c 0,19.008 -14.007,35.381 -34.888,35.381 -20.872,0 -35.078,-16.569 -35.078,-35.581 0,-19.004 14.011,-35.364 34.891,-35.364 20.868,0 35.075,16.548 35.075,35.564 m -90.105,13.433 c 0,-8.927 -7.351,-14.212 -17.64,-14.212 l -21.059,0 0,27.825 21.159,0 c 11.07,0 17.54,-5.094 17.54,-13.613 m 10.293,-47.83 -21.072,28.031 c 10.779,1.958 18.625,8.625 18.625,20.084 0,12.345 -9.71,20.493 -24.797,20.493 l -29.498,0 0,-68.608 7.75,0 0,26.653 19.593,0 19.895,-26.653 9.504,0 z m -78.683,46.447 c 0,-9.106 -7.447,-15.182 -18.818,-15.182 l -16.955,0 0,30.178 17.348,0 c 11.075,0 18.425,-5.094 18.425,-14.996 m 7.838,0.294 c 0,13.617 -10.195,21.867 -25.684,21.867 l -25.665,0 0,-68.608 7.738,0 0,24.197 16.659,0 c 14.608,0 26.952,7.655 26.952,22.544"
             inkscape:connector-curvature="0" /></g></g></g></g></svg>