<?xml version="1.0" encoding="UTF-8" standalone="no"?>
<svg
   xmlns:dc="http://purl.org/dc/elements/1.1/"
   xmlns:cc="http://creativecommons.org/ns#"
   xmlns:rdf="http://www.w3.org/1999/02/22-rdf-syntax-ns#"
   xmlns:svg="http://www.w3.org/2000/svg"
   xmlns="http://www.w3.org/2000/svg"
   viewBox="0 0 705.11877 233.8575"
   height="233.8575"
   width="705.11877"
   xml:space="preserve"
   version="1.1"
   id="svg2"><metadata
     id="metadata8"><rdf:RDF><cc:Work
         rdf:about=""><dc:format>image/svg+xml</dc:format><dc:type
           rdf:resource="http://purl.org/dc/dcmitype/StillImage" /><dc:title></dc:title></cc:Work></rdf:RDF></metadata><defs
     id="defs6"><clipPath
       id="clipPath26"
       clipPathUnits="userSpaceOnUse"><path
         id="path28"
         d="m 0,187.086 564.095,0 L 564.095,0 0,0 0,187.086 Z" /></clipPath></defs><g
     transform="matrix(1.25,0,0,-1.25,0,233.8575)"
     id="g10"><path
       id="path12"
       style="fill:#00adef;fill-opacity:1;fill-rule:nonzero;stroke:none"
       d="m 0,0 564.095,0 0,187.087 L 0,187.087 0,0 Z" /><g
       transform="translate(29.624,144.2139)"
       id="g14"><path
         id="path16"
         style="fill:#f79011;fill-opacity:1;fill-rule:nonzero;stroke:none"
         d="M 0,0 29.27,-93.94 99.509,9.329 39.41,-26.619 0,0 Z" /></g><g
       transform="translate(139.6748,61.5537)"
       id="g18"><path
         id="path20"
         style="fill:#ffffff;fill-opacity:1;fill-rule:nonzero;stroke:none"
         d="m 0,0 17.654,0 9.715,63.902 14.524,0 2.039,13.45 -48.153,0 -2.039,-13.45 15.968,0 L 0,0 Z" /></g><g
       id="g22"><g
         clip-path="url(#clipPath26)"
         id="g24"><g
           transform="translate(356.6572,90.876)"
           id="g30"><path
             id="path32"
             style="fill:#ffffff;fill-opacity:1;fill-rule:nonzero;stroke:none"
             d="m 0,0 c -1.648,-10.685 -7.865,-17.076 -16.767,-17.076 -4.741,0 -7.458,1.363 -7.458,1.363 l 4.798,31.841 c 0,0 2.903,1.184 7.245,1.184 C -4.014,17.312 1.93,12.493 0,0 m -10.007,30.91 c -9.183,0 -18.881,-1.577 -24.788,-4.026 l -11.413,-75.478 17.052,0 2.943,19.598 c 0,0 3.864,-1.297 9.901,-1.297 18.621,0 30.441,10.891 33.443,30.772 2.771,18.339 -6.4,30.431 -27.138,30.431" /></g><g
           transform="translate(247.7568,90.876)"
           id="g34"><path
             id="path36"
             style="fill:#ffffff;fill-opacity:1;fill-rule:nonzero;stroke:none"
             d="m 0,0 c -1.65,-10.685 -7.87,-17.076 -16.767,-17.076 -4.74,0 -7.457,1.363 -7.457,1.363 l 4.795,31.841 c 0,0 2.901,1.184 7.243,1.184 C -4.016,17.312 1.929,12.493 0,0 m -10.007,30.91 c -9.185,0 -18.889,-1.577 -24.788,-4.026 l -11.413,-75.478 17.049,0 2.946,19.598 c 0,0 3.865,-1.297 9.901,-1.297 18.62,0 30.438,10.891 33.441,30.772 2.773,18.339 -6.4,30.431 -27.136,30.431" /></g><g
           transform="translate(483.9971,131.9712)"
           id="g38"><path
             id="path40"
             style="fill:#ffffff;fill-opacity:1;fill-rule:nonzero;stroke:none"
             d="m 0,0 -8.128,-53.693 c -1.505,-9.89 2.849,-17.755 15.717,-17.755 4.164,0 9.726,0.715 11.606,1.323 l 2.138,14.197 c -1.444,-0.242 -4.157,-0.368 -5.132,-0.368 -5.414,0 -7.29,2.512 -6.665,6.631 l 3.838,25.38 12.752,0 1.925,12.728 -12.753,0 L 17.99,6.207 0,0 Z" /></g><g
           transform="translate(265.085,62.6563)"
           id="g42"><path
             id="path44"
             style="fill:#ffffff;fill-opacity:1;fill-rule:nonzero;stroke:none"
             d="m 0,0 c 0,0 8.992,-2.475 20.147,-2.475 14.379,0 23.989,5.46 25.611,15.941 1.194,7.705 -1.546,13.595 -14.266,20.723 -6.384,3.581 -9.605,4.931 -9.174,7.855 0.471,3.209 5.58,3.603 8.457,3.603 7.291,0 15.668,-1.809 15.668,-1.809 l 2.251,13.253 c 0,0 -7.521,2.039 -18.541,2.039 C 16.509,59.13 6.896,53.666 5.405,43.655 4.259,36.004 7.067,29.532 19.419,22.708 c 6.173,-3.41 9.674,-5.232 9.143,-8.287 -0.367,-2.126 -3.022,-3.434 -8.744,-3.434 -8.731,0 -17.048,2.081 -17.048,2.081 L 0,0 Z" /></g><g
           transform="translate(176.9492,61.5537)"
           id="g46"><path
             id="path48"
             style="fill:#ffffff;fill-opacity:1;fill-rule:nonzero;stroke:none"
             d="M 0,0 17.051,0 25.902,58.86 8.9,58.86 0,0 Z" /></g><g
           transform="translate(186.6113,125.4556)"
           id="g50"><path
             id="path52"
             style="fill:#ffffff;fill-opacity:1;fill-rule:nonzero;stroke:none"
             d="m 0,0 17.006,0 2.038,13.45 -17.021,0 L 0,0 Z" /></g><g
           transform="translate(478.8213,121.5513)"
           id="g54"><path
             id="path56"
             style="fill:#ffffff;fill-opacity:1;fill-rule:nonzero;stroke:none"
             d="m 0,0 c -7.325,0.663 -19.985,0.235 -31.496,-4.983 l -8.321,-55.015 17.051,0 6.862,45.364 c 0,0 4.959,2.031 13.846,1.004 L 0,0 Z" /></g><g
           transform="translate(419.9629,90.7334)"
           id="g58"><path
             id="path60"
             style="fill:#ffffff;fill-opacity:1;fill-rule:nonzero;stroke:none"
             d="m 0,0 c -2.128,-13.956 -9.116,-16.975 -14.55,-16.975 -6.927,0 -11.437,5.532 -9.62,17.458 2.129,13.958 9.116,16.972 14.55,16.972 C -2.618,17.455 1.815,11.929 0,0 m -7.763,31.053 c -19.496,0 -30.489,-10.451 -33.573,-30.943 -2.158,-14.327 4.14,-30.662 24.808,-30.662 19.494,0 30.488,10.45 33.576,30.943 2.16,14.326 -4.687,30.662 -24.811,30.662" /></g></g></g></g></svg>