<?xml version="1.0" encoding="utf-8"?>
<!-- Generator: Adobe Illustrator 12.0.0, SVG Export Plug-In . SVG Version: 6.00 Build 51448)  -->
<!DOCTYPE svg PUBLIC "-//W3C//DTD SVG 1.1//EN" "http://www.w3.org/Graphics/SVG/1.1/DTD/svg11.dtd" [
	<!ENTITY ns_svg "http://www.w3.org/2000/svg">
	<!ENTITY ns_xlink "http://www.w3.org/1999/xlink">
]>
<svg  version="1.1" id="Layer_1" xmlns="&ns_svg;" xmlns:xlink="&ns_xlink;" width="142.012" height="61.521"
	 viewBox="0 0 142.012 61.521" overflow="visible" enable-background="new 0 0 142.012 61.521" xml:space="preserve">
<g>
	<path fill-rule="evenodd" clip-rule="evenodd" fill="#38738B" d="M138.241,45.198c-11.856-0.883-26.616-1.613-42.744-1.613
		c-24.686,0-52.563,1.686-77.983,6.953c-4.264-5.379-9.449-9.605-17.398-12.945L0,37.825c7.029,7.639,11.522,14.246,14.707,23.695
		C50.344,48.231,95.09,45.772,128.871,45.772c3.23,0,6.311,0.037,9.294,0.078L138.241,45.198L138.241,45.198z"/>
	<path fill-rule="evenodd" clip-rule="evenodd" fill="#99CA3C" d="M36.135,0c-2.455,9.213-5.837,18.432-10.176,27.687h-0.077
		C24.732,20.161,24.154,9.328,24.154,0H11.787c0.384,14.741,2.959,27.762,5.842,39.319h11.903C36.25,27.187,42.548,14.131,47.427,0
		H36.135L36.135,0z M142.012,20.121c0-7.605-4.924-10.677-13.179-10.677c-9.975,0-16.053,4.572-16.053,20.084
		c0,7.604,4.924,10.678,13.181,10.678C135.937,40.206,142.012,35.751,142.012,20.121L142.012,20.121z M59.331,9.676
		c-7.448,0-11.481,1.418-14.747,4.913c-3.109,3.305-4.759,9.142-4.759,15.325c0,5.375,1.342,9.828,7.987,9.828
		c3.032,0,5.684-1.146,8.142-2.57h0.112L55.8,39.319h10.099l3.609-29.452C66.551,9.751,63.133,9.676,59.331,9.676L59.331,9.676z
		 M101.307,32.485c2.141,0,5.025-0.496,7.296-1.15l-1.309,7.145c-2.694,0.686-6.487,1.072-9.872,1.072
		c-10.783,0-13.783-4.688-13.783-10.832c0-15.706,6.758-19.276,16.053-19.276c7.295,0,11.821,3.532,11.821,10.292
		c0,2.955-0.602,5.606-1.024,7.451H94.435C94.435,30.567,95.537,32.485,101.307,32.485L101.307,32.485z M79.601,39.319H68.93
		L73.769,0h10.68L79.601,39.319L79.601,39.319z M130.601,25.188c-0.805,7.448-1.922,8.989-4.063,8.989
		c-1.963,0-2.73-1.426-2.73-4.533c0-1.343,0.152-3.224,0.384-5.182c0.809-7.453,1.924-8.987,4.063-8.987
		c1.963,0,2.729,1.419,2.729,4.531C130.984,21.348,130.831,23.229,130.601,25.188L130.601,25.188z M56.181,31.487
		c-0.69,0.502-1.728,1.076-2.88,1.076c-2.189,0-2.496-1.846-2.496-4.032c0-2.573,0.692-7.145,1.458-8.949
		c1.155-2.765,2.729-3.532,5.264-3.532c0.076,0,0.269,0,0.538,0.038L56.181,31.487L56.181,31.487z M101.151,21.041
		c0.195-0.92,0.348-1.688,0.348-2.762c0-2.075-1.309-2.92-2.692-2.92c-2.269,0-3.449,1.343-3.986,5.682H101.151L101.151,21.041z"/>
</g>
</svg>
