<?xml version="1.0" encoding="utf-8"?>
<!-- Generator: Adobe Illustrator 21.0.0, SVG Export Plug-In . SVG Version: 6.00 Build 0)  -->
<svg version="1.1" id="Capa_1" xmlns="http://www.w3.org/2000/svg" xmlns:xlink="http://www.w3.org/1999/xlink" x="0px" y="0px"
	 viewBox="0 0 438.5 438.5" style="enable-background:new 0 0 438.5 438.5;" xml:space="preserve">
<style type="text/css">
	.st0{fill:#64615C;}
</style>
<g>
	<path class="st0" d="M421.8,285.4c-2.6-9.8-8.2-17.2-17-22.1l-75.9-44l75.9-44c8.8-4.9,14.4-12.3,17-22.1
		c2.6-9.8,1.4-19.1-3.6-27.8L400,93.9c-4.9-8.8-12.3-14.4-22.1-17c-9.8-2.6-19.1-1.4-27.8,3.6l-75.9,43.7V36.5
		c0-9.9-3.6-18.5-10.9-25.7C256,3.6,247.4,0,237.5,0H201c-9.9,0-18.5,3.6-25.7,10.8c-7.2,7.2-10.9,15.8-10.9,25.7v87.6L88.5,80.5
		c-8.8-5-18-6.1-27.8-3.6c-9.8,2.6-17.2,8.2-22.1,17l-18.3,31.4c-5,8.8-6.1,18-3.6,27.8c2.6,9.8,8.2,17.2,17,22.1l75.9,44l-75.9,44
		c-8.8,4.9-14.4,12.3-17,22.1c-2.6,9.8-1.4,19.1,3.6,27.8l18.3,31.4c4.9,8.8,12.3,14.4,22.1,17c9.8,2.6,19.1,1.4,27.8-3.6l75.9-43.7
		V402c0,9.9,3.6,18.5,10.9,25.7c7.2,7.2,15.8,10.8,25.7,10.8h36.5c9.9,0,18.5-3.6,25.7-10.8c7.2-7.2,10.9-15.8,10.9-25.7v-87.6
		L350,358c8.8,4.9,18,6.1,27.8,3.6c9.8-2.6,17.2-8.2,22.1-17l18.3-31.4C423.2,304.4,424.4,295.2,421.8,285.4z"/>
</g>
</svg>
