<?xml version="1.0" encoding="UTF-8" standalone="no"?>
<!-- Created with Inkscape (http://www.inkscape.org/) -->

<svg
   xmlns:dc="http://purl.org/dc/elements/1.1/"
   xmlns:cc="http://creativecommons.org/ns#"
   xmlns:rdf="http://www.w3.org/1999/02/22-rdf-syntax-ns#"
   xmlns:svg="http://www.w3.org/2000/svg"
   xmlns="http://www.w3.org/2000/svg"
   xmlns:sodipodi="http://sodipodi.sourceforge.net/DTD/sodipodi-0.dtd"
   xmlns:inkscape="http://www.inkscape.org/namespaces/inkscape"
   width="160mm"
   height="160mm"
   viewBox="0 0 566.92912 566.92912"
   id="svg2"
   version="1.1"
   inkscape:version="0.91 r13725"
   sodipodi:docname="favicon.svg"
   inkscape:export-filename="C:\Users\Martin\IdeaProjects\ssp-web\cofit\img\touch-icon-ipad-retina.png"
   inkscape:export-xdpi="24.129999"
   inkscape:export-ydpi="24.129999">
  <defs
     id="defs4" />
  <sodipodi:namedview
     id="base"
     pagecolor="#ffffff"
     bordercolor="#666666"
     borderopacity="1.0"
     inkscape:pageopacity="0.0"
     inkscape:pageshadow="2"
     inkscape:zoom="0.98994949"
     inkscape:cx="320.95205"
     inkscape:cy="181.04318"
     inkscape:document-units="px"
     inkscape:current-layer="g5535"
     showgrid="false"
     fit-margin-top="5"
     fit-margin-left="5"
     fit-margin-right="5"
     fit-margin-bottom="5"
     inkscape:window-width="1920"
     inkscape:window-height="1137"
     inkscape:window-x="-30634"
     inkscape:window-y="-32000"
     inkscape:window-maximized="0" />
  <metadata
     id="metadata7">
    <rdf:RDF>
      <cc:Work
         rdf:about="">
        <dc:format>image/svg+xml</dc:format>
        <dc:type
           rdf:resource="http://purl.org/dc/dcmitype/StillImage" />
        <dc:title></dc:title>
      </cc:Work>
    </rdf:RDF>
  </metadata>
  <g
     inkscape:label="Vrstva 1"
     inkscape:groupmode="layer"
     id="layer1"
     transform="translate(10.354195,-153.75129)">
    <g
       id="layer1-3"
       transform="translate(592.14286,-48.571473)">
      <g
         transform="matrix(1.25,0,0,-1.25,-619.03302,1335.4481)"
         id="g5531">
        <g
           id="g5533">
          <g
             clip-path="url(#clipPath5537)"
             id="g5535">
            <g
               transform="translate(805.167,535.1865)"
               id="g5545" />
            <g
               id="g4188"
               transform="translate(1.8309755,5.1220661)">
              <g
                 id="g5553"
                 transform="translate(175.002,508.1455)">
                <path
                   inkscape:connector-curvature="0"
                   d="m 0,0 c -21.646,8.086 -40.272,19.659 -55.883,34.721 -15.616,15.037 -27.757,33.289 -36.402,54.738 -8.662,21.465 -12.98,45.528 -12.98,72.252 0,25.209 4.132,48.631 12.4,70.273 8.279,21.636 20.046,40.352 35.292,56.16 15.237,15.801 33.383,28.224 54.459,37.253 19.991,8.563 42.203,13.016 66.595,13.457 l 0,34.981 C 35.443,373.313 9.002,368.03 -15.814,357.849 -41.962,347.123 -64.83,332.354 -84.393,313.542 c -19.561,-18.811 -34.993,-41.021 -46.276,-66.599 -11.294,-25.601 -16.931,-53.442 -16.931,-83.547 0,-30.481 5.166,-58.612 15.515,-84.363 10.353,-25.8 24.921,-47.907 43.751,-66.336 18.812,-18.443 41.478,-32.836 68.008,-43.177 24.745,-9.653 53.76,-10.452 83.807,-10.517 l 0,34.069 C 40.173,-7.047 19.635,-7.352 0,0"
                   style="fill:#f6b627;fill-opacity:1;fill-rule:nonzero;stroke:none"
                   id="path5555" />
              </g>
              <g
                 id="g5557"
                 transform="translate(248.5669,847.0869)">
                <path
                   inkscape:connector-curvature="0"
                   d="m 0,0 c 23.697,0 45.438,-3.207 65.193,-9.591 19.744,-6.402 36.872,-16.005 51.366,-28.791 14.472,-12.798 25.771,-28.504 33.863,-47.137 8.086,-18.614 12.146,-40.154 12.146,-64.622 0,-14.304 -1.526,-27.656 -4.532,-40.077 -3.007,-12.405 -7.234,-23.135 -12.702,-32.175 -5.453,-9.028 -12.036,-16.172 -19.747,-21.438 -7.715,-5.28 -16.288,-7.907 -25.694,-7.907 -6.01,0 -10.809,0.847 -14.375,2.543 -3.585,1.696 -6.41,3.942 -8.47,6.772 -0.559,0.753 -0.625,1.649 -1.067,2.425 -1.208,2.15 -2.478,4.276 -2.884,6.604 -0.571,3.202 -0.848,6.487 -0.848,9.879 0,2.626 0.179,6.02 0.567,10.162 0.369,4.134 0.935,8.372 1.684,12.707 0.756,4.313 1.419,8.457 1.979,12.398 0.569,3.965 1.222,7.25 1.976,9.889 l 11.125,51.712 11.441,53.275 -34.992,0 -6.486,-25.404 -17.575,-146.656 c 0.454,-8.958 3.673,-16.997 9.641,-24.115 0.687,-0.824 1.249,-1.708 2.019,-2.508 7.895,-8.291 20.316,-12.423 37.247,-12.423 14.676,0 28.594,2.915 41.768,8.755 13.163,5.817 24.735,14.572 34.714,26.241 9.977,11.658 17.961,26.157 23.98,43.455 6.028,17.307 9.033,37.271 9.033,59.839 0,30.481 -5.549,57.015 -16.64,79.583 -11.113,22.592 -25.974,41.391 -44.604,56.453 C 120.51,4.885 99.144,16.184 75.071,23.708 50.977,31.239 26.155,34.996 0.559,34.996 c -1.519,0 -3.016,-0.075 -4.528,-0.102 l 0,-34.981 C -2.643,-0.062 -1.338,0 0,0"
                   style="fill:#b2b3b1;fill-opacity:1;fill-rule:nonzero;stroke:none"
                   id="path5559" />
              </g>
              <g
                 id="g5561"
                 transform="matrix(0.78791075,0,0,1,250.2621,501.2422)">
                <path
                   inkscape:connector-curvature="0"
                   d="m 0,0 c -2.438,0 -4.811,-0.013 -7.188,-0.024 l 0,-34.07 c 2.168,-0.006 4.323,-0.018 6.501,-0.018 l 241.168,0 0,34.112 L 0,0 Z"
                   style="fill:#b2b3b1;fill-opacity:1;fill-rule:nonzero;stroke:none"
                   id="path5563" />
              </g>
              <g
                 id="g5565"
                 transform="translate(281.8608,659.6929)">
                <path
                   inkscape:connector-curvature="0"
                   d="m 0,0 c -2.642,-10.911 -6.796,-21.168 -12.475,-30.758 -5.679,-9.591 -13.058,-17.606 -22.129,-23.996 -9.072,-6.413 -20.037,-9.59 -32.9,-9.59 -9.072,0 -16.531,1.97 -22.398,5.924 -5.862,3.953 -10.49,8.934 -13.891,14.965 -3.403,6.008 -5.765,12.422 -7.097,19.182 -1.32,6.774 -1.974,12.789 -1.974,18.067 0,10.912 1.501,22.019 4.53,33.301 3.024,11.293 7.569,21.451 13.613,30.481 6.058,9.029 13.336,16.445 21.84,22.299 8.504,5.828 18.435,8.743 29.772,8.743 9.071,0 16.641,-1.696 22.696,-5.076 6.048,-3.381 10.858,-7.817 14.465,-13.264 C -2.362,64.814 0.182,58.609 1.708,51.651 3.222,44.682 3.974,37.629 3.974,30.487 3.974,21.076 2.652,10.905 0,0 m 1.356,-58.038 c 0,0 19.86,24.139 27.238,70.741 7.375,46.605 -9.663,75.915 -9.663,75.915 -4.156,9.405 -12.798,17.39 -23.15,23.995 -10.341,6.569 -22.663,9.877 -36.967,9.877 -17.307,0 -32.932,-3.582 -46.847,-10.724 -13.926,-7.155 -25.679,-16.651 -35.267,-28.505 -9.6,-11.855 -17.044,-25.399 -22.302,-40.651 -5.273,-15.235 -7.904,-30.762 -7.904,-46.569 0,-13.54 1.879,-26.035 5.65,-37.525 3.747,-11.479 9.104,-21.272 16.085,-29.347 6.945,-8.097 15.512,-14.488 25.679,-19.193 10.158,-4.707 21.637,-7.059 34.435,-7.059 9.406,0 17.963,1.409 25.682,4.229 0,0 28.375,6.986 47.331,34.816"
                   style="fill:#5b5955;fill-opacity:1;fill-rule:nonzero;stroke:none"
                   id="path5567" />
              </g>
            </g>
          </g>
        </g>
      </g>
    </g>
  </g>
</svg>
