<?xml version="1.0" encoding="UTF-8" standalone="no"?>
<svg
   xmlns:dc="http://purl.org/dc/elements/1.1/"
   xmlns:cc="http://creativecommons.org/ns#"
   xmlns:rdf="http://www.w3.org/1999/02/22-rdf-syntax-ns#"
   xmlns:svg="http://www.w3.org/2000/svg"
   xmlns="http://www.w3.org/2000/svg"
   version="1.1"
   id="svg4284"
   viewBox="0 0 244.64459 91.741727"
   height="91.741737"
   width="244.64459">
  <defs
     id="defs4286" />
  <metadata
     id="metadata4289">
    <rdf:RDF>
      <cc:Work
         rdf:about="">
        <dc:format>image/svg+xml</dc:format>
        <dc:type
           rdf:resource="http://purl.org/dc/dcmitype/StillImage" />
        <dc:title></dc:title>
      </cc:Work>
    </rdf:RDF>
  </metadata>
  <g
     transform="translate(-173.10345,-356.26358)"
     id="layer1">
    <g
       style="display:inline;opacity:0.97000002;fill:#b5b5b5;fill-opacity:1;stroke:none;stroke-width:20;stroke-miterlimit:4;stroke-dasharray:none;stroke-opacity:1"
       transform="matrix(0.13132678,0,0,0.13132678,282.67238,360.39461)"
       id="g5328">
      <path
         d="m -418.70782,574.78344 c 42.33097,-70.00041 86.71199,-91.67111 133.23559,-122.44583 11.02938,-7.29579 12.18495,-5.76584 19.54342,-2.16607 6.30208,3.08299 15.04269,5.48652 24.1125,6.63056 3.96683,0.50036 6.02092,0.87163 5.96676,3.28666 -1.40006,62.42471 2.55766,101.60488 -19.26771,113.36366 -50.39505,25.67875 -117.96073,17.73705 -160.09021,11.34994 -5.50943,-0.83527 -5.36737,-6.93153 -3.50035,-10.01892 z m -53.17565,-3.41965 c -25.48745,-9.72162 -71.42963,-44.35977 -89.59644,-66.13235 -9.01603,-10.80553 -5.97753,-19.6437 0.0584,-35.82583 15.4002,-41.28784 26.96583,-72.60072 40.35784,-112.37175 1.11896,-3.32305 4.60418,-6.79629 9.83295,-5.79525 15.97711,3.0588 34.02921,-1.2925 47.88606,-12.25771 7.37985,-5.83982 8.70531,-1.54312 15.22745,1.8611 53.72539,28.0419 81.20787,39.70981 137.45156,59.77112 8.7945,3.13687 9.94838,3.39578 12.71559,10.42024 3.82295,9.7044 0.78086,9.7354 -6.64882,13.32209 -70.22456,33.90099 -107.6407,81.67181 -148.71335,141.22049 -7.13776,10.3486 -7.49319,10.0133 -18.57124,5.78785 z m 266.401,-38.60328 c 3.62609,-31.9929 4.97883,-51.94888 4.36777,-81.42886 -0.0708,-3.41572 0.33021,-5.50229 4.28611,-9.31016 5.89158,-5.67112 16.14218,-15.9872 21.25673,-25.97523 5.60862,-10.95287 3.09483,-9.92395 23.9546,-12.33682 13.97115,-1.61605 25.95556,-4.32198 41.27166,-7.25392 3.59785,-0.68873 3.41307,3.90283 1.2024,10.5279 -19.60317,58.74797 -45.6359,90.22301 -88.55409,124.23505 -5.40235,3.42607 -8.0493,3.87237 -7.78518,1.54204 z m -399.2861,-83.95898 c -45.2971,-88.2703 -47.93033,-171.08138 -8.08263,-245.88238 4.56677,-8.37037 6.47957,-8.35692 11.48394,-2.86858 4.12583,4.52484 40.72455,53.61633 42.93004,55.92153 3.76676,3.93704 0.65604,7.62923 -0.78493,11.77623 -6.08312,17.50675 -4.45653,34.80893 3.34537,51.6365 3.11124,6.71049 3.10607,7.79282 0.77154,14.65238 -13.91685,40.89186 -27.20187,75.96241 -43.08991,113.31602 -1.78832,4.20444 -4.74484,4.45142 -6.57342,1.4483 z m 431.59831,-79.08212 c -5.18092,0.61367 -8.80785,-1.64951 -10.11581,-4.07313 -9.0407,-16.75228 -22.59419,-27.66194 -40.57451,-31.37854 -6.61899,-1.36817 -6.42615,-6.96048 -12.91638,-23.28556 -15.8078,-39.7619 -37.10316,-79.31077 -56.03572,-108.00229 -6.12602,-9.28373 -8.74254,-14.24828 -4.31521,-19 8.00997,-8.59686 9.50693,-26.53745 5.59808,-39.71004 -0.85502,-2.88136 1.41049,-7.07868 4.29327,-7.9289 30.10696,-8.87942 52.62501,-14.95396 88.3005,-23.63197 5.33548,-1.29785 11.09901,-1.23274 15.03553,1.93565 64.92602,52.25692 95.332241,142.75194 84.189037,235.43104 -0.320767,3.38987 -10.992657,6.9507 -18.265647,8.72237 -18.82934,4.58675 -35.46805,7.96454 -55.19314,10.92137 z m -134.97008,-5.72711 c -45.65781,-16.52412 -82.93146,-31.29824 -122.49536,-49.74384 -14.13974,-6.59227 -12.56606,-5.8248 -9.43338,-18.84514 3.18384,-13.233 -4.04249,-30.34576 -8.56529,-37.2842 -4.19489,-6.43539 -3.11709,-7.80694 0.84331,-12.05885 14.77423,-15.86172 27.62988,-27.39495 43.12603,-43.75412 5.55517,-5.86455 5.76999,-4.06913 11.44297,0.62852 19.06762,15.78941 44.75161,20.17586 65.69653,9.92181 6.22448,-3.04733 7.0293,-1.96201 10.36897,3.46187 20.25707,32.89905 36.00118,64.17728 52.33304,103.13119 4.80159,11.45249 8.9099,14.96721 -1.39991,20.09437 -9.34523,4.64747 -18.2796,12.45601 -23.85828,21.17138 -5.58666,8.72783 -7.03121,6.68317 -18.05863,3.27701 z M -584.08163,165.05056 c -4.97705,-6.49206 -5.18243,-7.72555 -10e-4,-15.23041 18.87947,-27.34738 38.98132,-48.17972 64.57353,-59.022032 17.37006,-7.35894 21.09864,-6.697084 37.94267,2.442566 23.58588,12.797806 33.34615,20.762016 55.91681,35.160646 7.84646,5.00554 10.5224,6.998 10.53279,15.36852 0.004,3.3 -1.373,11.40737 -2.10903,17.1048 -1.36494,10.56565 -1.03364,10.71933 -10.52957,18.84479 -20.82452,17.8191 -33.66167,30.88259 -48.99356,45.04361 -6.71348,6.23284 -5.85456,6.39868 -13.86139,3.53039 -9.10305,-3.26099 -20.27167,-2.94888 -32.34003,1.17146 -7.07922,2.41697 -9.25641,3.97579 -14.13957,-2.25075 -19.25779,-24.71412 -25.43503,-34.04561 -46.99126,-62.16359 z m 178.97152,-63.17776 c -20.03397,-11.482731 -37.59858,-21.122465 -56.48065,-31.534509 -9.7799,-5.392884 -10.52387,-5.475122 5.17135,-11.50507 64.83859,-24.910348 152.61696,-24.824119 214.98915,16.278632 12.55936,8.276511 11.97574,8.686495 -4.3616,13.051102 -18.32379,4.895299 -35.70665,9.714495 -54.45162,16.604675 -7.46299,2.74321 -10.91999,4.18589 -16.06904,1.16687 -18.55634,-13.359366 -46.32022,-13.217086 -69.37933,-1.8108 -9.06744,4.48525 -7.62794,4.50687 -19.41826,-2.2509 z"
         id="path3776"
         style="fill:#b5b5b5;fill-opacity:1;stroke:none" />
      <path
         d=""
         id="path3774"
         style="fill:#b5b5b5;fill-opacity:1" />
      <path
         d=""
         id="path3770"
         style="fill:#b5b5b5;fill-opacity:1" />
      <path
         d="m 513.28043,576.1053 c 42.33097,-70.00041 86.71199,-91.67111 133.23559,-122.44583 11.02938,-7.29579 12.18495,-5.76584 19.54342,-2.16607 6.30208,3.08299 15.04269,5.48652 24.1125,6.63056 3.96683,0.50036 6.02092,0.87163 5.96676,3.28666 -1.40006,62.42471 2.55766,101.60488 -19.26771,113.36366 -50.39505,25.67875 -117.96073,17.73705 -160.09021,11.34994 -5.50943,-0.83527 -5.36737,-6.93153 -3.50035,-10.01892 z m -53.17565,-3.41965 c -25.48745,-9.72162 -71.42963,-44.35977 -89.59644,-66.13235 -9.01603,-10.80553 -5.97753,-19.6437 0.0584,-35.82583 15.4002,-41.28784 26.96583,-72.60072 40.35784,-112.37175 1.11896,-3.32305 4.60418,-6.79629 9.83295,-5.79525 15.97711,3.0588 34.02921,-1.2925 47.88606,-12.25771 7.37985,-5.83982 8.70531,-1.54312 15.22745,1.8611 53.72539,28.0419 81.20787,39.70981 137.45156,59.77112 8.7945,3.13687 9.94838,3.39578 12.71559,10.42024 3.82295,9.7044 0.78086,9.7354 -6.64882,13.32209 -70.22456,33.90099 -107.6407,81.67181 -148.71335,141.22049 -7.13776,10.3486 -7.49319,10.0133 -18.57124,5.78785 z m 266.401,-38.60328 c 3.62609,-31.9929 4.97883,-51.94888 4.36777,-81.42886 -0.0708,-3.41572 0.33025,-5.50229 4.28611,-9.31016 5.89158,-5.67112 16.14218,-15.9872 21.25673,-25.97523 5.60862,-10.95287 3.09483,-9.92395 23.9546,-12.33682 13.97115,-1.61605 25.95556,-4.32198 41.27166,-7.25392 3.59785,-0.68874 3.41307,3.90283 1.2024,10.5279 -19.60317,58.74797 -45.6359,90.22301 -88.55409,124.23505 -5.40235,3.42607 -8.0493,3.87237 -7.78518,1.54204 z m -399.2861,-83.95898 c -45.2971,-88.2703 -47.93033,-171.08138 -8.08263,-245.88238 4.56677,-8.37037 6.47957,-8.35692 11.48394,-2.86858 4.12583,4.52484 40.72455,53.61633 42.93004,55.92153 3.76676,3.93704 0.65607,7.62923 -0.78493,11.77623 -6.08312,17.50675 -4.45653,34.80893 3.34537,51.6365 3.11124,6.71049 3.10607,7.79282 0.77154,14.65238 -13.91685,40.89186 -27.20187,75.96241 -43.08991,113.31602 -1.78832,4.20444 -4.74484,4.45142 -6.57342,1.4483 z m 431.59831,-79.08212 c -5.18092,0.61366 -8.80785,-1.64951 -10.11581,-4.07313 -9.0407,-16.75228 -22.59419,-27.66194 -40.57451,-31.37854 -6.61899,-1.36817 -6.42615,-6.96048 -12.91638,-23.28556 -15.8078,-39.7619 -37.10316,-79.31077 -56.03572,-108.00229 -6.12602,-9.28373 -8.74254,-14.24828 -4.31521,-19 8.00997,-8.59686 9.50693,-26.53745 5.59808,-39.71004 -0.85502,-2.88136 1.41049,-7.07869 4.29327,-7.9289 30.10696,-8.87942 52.62501,-14.95397 88.3005,-23.63197 5.33548,-1.29785 11.09901,-1.23274 15.03553,1.93565 64.92602,52.25692 95.33224,142.75194 84.18904,235.43104 -0.32073,3.38987 -10.99266,6.9507 -18.26565,8.72237 -18.82934,4.58675 -35.46805,7.96454 -55.19314,10.92137 z m -134.97008,-5.72711 c -45.65781,-16.52412 -82.93146,-31.29824 -122.49536,-49.74384 -14.13974,-6.59227 -12.56606,-5.8248 -9.43338,-18.84514 3.18384,-13.233 -4.04249,-30.34576 -8.56529,-37.2842 -4.19489,-6.43539 -3.11709,-7.80694 0.84331,-12.05885 14.77423,-15.86172 27.62988,-27.39495 43.12603,-43.75412 5.55517,-5.86455 5.76999,-4.06913 11.44297,0.62851 19.06762,15.78941 44.75161,20.17585 65.69653,9.92181 6.22448,-3.04733 7.0293,-1.96201 10.36897,3.46186 20.25707,32.89906 36.00118,64.17729 52.33304,103.13119 4.80159,11.4525 8.9099,14.96722 -1.39991,20.09437 -9.34523,4.64747 -18.2796,12.45602 -23.85828,21.17138 -5.58666,8.72783 -7.03121,6.68318 -18.05863,3.27702 z M 347.90662,166.37241 c -4.97705,-6.49205 -5.18243,-7.72554 -10e-4,-15.2304 18.87947,-27.34739 38.98132,-48.17972 64.57353,-59.022034 17.37006,-7.35894 21.09864,-6.69709 37.94267,2.44256 23.58588,12.797814 33.34615,20.762024 55.91681,35.160654 7.84646,5.00554 10.5224,6.998 10.53279,15.36852 0.004,3.3 -1.373,11.40736 -2.10903,17.1048 -1.36494,10.56564 -1.03364,10.71933 -10.52957,18.84479 -20.82452,17.8191 -33.66167,30.88259 -48.99356,45.04361 -6.71348,6.23284 -5.85456,6.39868 -13.86139,3.53039 -9.10305,-3.26099 -20.27167,-2.94888 -32.34003,1.17146 -7.07922,2.41697 -9.25641,3.97579 -14.13957,-2.25075 -19.25779,-24.71412 -25.43503,-34.04561 -46.99126,-62.1636 z M 526.87814,103.19466 C 506.84417,91.711926 489.27956,82.072186 470.39749,71.660146 c -9.7799,-5.39289 -10.52387,-5.47512 5.17135,-11.505071 64.83859,-24.910348 152.61697,-24.824119 214.98915,16.278631 12.55936,8.27651 11.97574,8.6865 -4.36159,13.0511 -18.3238,4.8953 -35.70666,9.7145 -54.45163,16.604684 -7.46299,2.74321 -10.91999,4.18589 -16.06904,1.16687 -18.55634,-13.359374 -46.32022,-13.217094 -69.37933,-1.8108 -9.06744,4.48525 -7.62793,4.50687 -19.41826,-2.2509 z"
         id="path3776-6"
         style="display:inline;opacity:0.97000002;fill:#f9bc3d;fill-opacity:1;stroke:none;stroke-width:20;stroke-miterlimit:4;stroke-dasharray:none;stroke-opacity:1" />
    </g>
  </g>
</svg>
