<?xml version="1.0" encoding="UTF-8" standalone="no"?>
<svg
   xmlns:dc="http://purl.org/dc/elements/1.1/"
   xmlns:cc="http://creativecommons.org/ns#"
   xmlns:rdf="http://www.w3.org/1999/02/22-rdf-syntax-ns#"
   xmlns:svg="http://www.w3.org/2000/svg"
   xmlns="http://www.w3.org/2000/svg"
   version="1.1"
   id="svg4284"
   viewBox="0 0 78.789047 64.405236"
   height="64.405243"
   width="78.789047">
  <defs
     id="defs4286">
    <clipPath
       id="clipPath20"
       clipPathUnits="userSpaceOnUse">
      <path
         id="path18"
         d="m 0,10.012 h 1366.9 v 1110.9 H 0 Z" />
    </clipPath>
    <clipPath
       id="clipPath20-5"
       clipPathUnits="userSpaceOnUse">
      <path
         id="path18-2"
         d="m 0,10.012 h 1366.9 v 1110.9 H 0 Z" />
    </clipPath>
  </defs>
  <metadata
     id="metadata4289">
    <rdf:RDF>
      <cc:Work
         rdf:about="">
        <dc:format>image/svg+xml</dc:format>
        <dc:type
           rdf:resource="http://purl.org/dc/dcmitype/StillImage" />
        <dc:title></dc:title>
      </cc:Work>
    </rdf:RDF>
  </metadata>
  <g
     transform="translate(-196.87007,-369.93181)"
     id="layer1">
    <g
       style="display:inline;opacity:0.97000002;fill:#b5b5b5;fill-opacity:1;stroke:none;stroke-width:20;stroke-miterlimit:4;stroke-dasharray:none;stroke-opacity:1"
       transform="matrix(0.13132678,0,0,0.13132678,282.67238,360.39461)"
       id="g5328">
      <path
         d=""
         id="path3774"
         style="fill:#b5b5b5;fill-opacity:1" />
      <path
         d=""
         id="path3770"
         style="fill:#b5b5b5;fill-opacity:1" />
    </g>
    <g
       transform="translate(506.87867,358.93067)"
       id="g4769" />
  </g>
  <g
     id="g10"
     transform="matrix(0.56177514,0,0,-0.56177514,1,63.96769)"
     style="fill:#f4f4f4;fill-opacity:1">
    <g
       id="g12"
       transform="scale(0.1)"
       style="fill:#f4f4f4;fill-opacity:1">
      <g
         id="g14"
         style="fill:#f4f4f4;fill-opacity:1">
        <g
           id="g16"
           clip-path="url(#clipPath20)"
           style="fill:#f4f4f4;fill-opacity:1">
          <path
             style="fill:#f4f4f4;fill-opacity:1"
             id="path22"
             d="m 1366.9,989.39 c -50.27,-22.309 -104.33,-37.387 -161.05,-44.18 57.89,34.723 102.34,89.679 123.28,155.15 -54.18,-32.15 -114.18,-55.47 -178.09,-68.04 -51.13,54.49 -124.02,88.55 -204.68,88.55 -154.89,0 -280.43,-125.55 -280.43,-280.43 0,-21.988 2.457,-43.398 7.258,-63.91 -233.08,11.68 -439.72,123.36 -578.04,293.01 -24.141,-41.4 -37.969,-89.567 -37.969,-140.97 0,-97.308 49.489,-183.13 124.76,-233.44 -45.969,1.437 -89.218,14.058 -127.03,35.078 -0.043,-1.18 -0.043,-2.348 -0.043,-3.52 0,-135.9 96.68,-249.22 224.96,-275 -23.512,-6.41 -48.281,-9.8 -73.86,-9.8 -18.089,0 -35.628,1.711 -52.781,5 35.711,-111.41 139.26,-192.5 262,-194.77 -96.058,-75.23 -216.96,-120.04 -348.36,-120.04 -22.621,0 -44.961,1.332 -66.918,3.91 124.16,-79.568 271.55,-125.98 429.94,-125.98 515.82,0 797.86,427.31 797.86,797.93 0,12.153 -0.28,24.223 -0.79,36.25 54.77,39.571 102.31,88.95 139.93,145.2" />
        </g>
      </g>
    </g>
  </g>
</svg>
