<?xml version="1.0" encoding="UTF-8" standalone="no"?>
<!-- Created with Inkscape (http://www.inkscape.org/) -->

<svg
   xmlns:dc="http://purl.org/dc/elements/1.1/"
   xmlns:cc="http://creativecommons.org/ns#"
   xmlns:rdf="http://www.w3.org/1999/02/22-rdf-syntax-ns#"
   xmlns:svg="http://www.w3.org/2000/svg"
   xmlns="http://www.w3.org/2000/svg"
   xmlns:sodipodi="http://sodipodi.sourceforge.net/DTD/sodipodi-0.dtd"
   xmlns:inkscape="http://www.inkscape.org/namespaces/inkscape"
   width="323.48608mm"
   height="100.49892mm"
   viewBox="0 0 323.48608 100.49892"
   version="1.1"
   id="svg8"
   inkscape:version="0.92.3 (2405546, 2018-03-11)"
   sodipodi:docname="logo.svg">
  <defs
     id="defs2" />
  <sodipodi:namedview
     id="base"
     pagecolor="#ffffff"
     bordercolor="#666666"
     borderopacity="1.0"
     inkscape:pageopacity="0.0"
     inkscape:pageshadow="2"
     inkscape:zoom="0.24748737"
     inkscape:cx="731.08074"
     inkscape:cy="146.11069"
     inkscape:document-units="mm"
     inkscape:current-layer="g4613"
     showgrid="false"
     showguides="false"
     fit-margin-top="10"
     fit-margin-left="10"
     fit-margin-right="10"
     fit-margin-bottom="10"
     inkscape:window-width="1920"
     inkscape:window-height="1017"
     inkscape:window-x="-8"
     inkscape:window-y="-8"
     inkscape:window-maximized="1" />
  <metadata
     id="metadata5">
    <rdf:RDF>
      <cc:Work
         rdf:about="">
        <dc:format>image/svg+xml</dc:format>
        <dc:type
           rdf:resource="http://purl.org/dc/dcmitype/StillImage" />
        <dc:title></dc:title>
      </cc:Work>
    </rdf:RDF>
  </metadata>
  <g
     inkscape:label="Vrstva 1"
     inkscape:groupmode="layer"
     id="layer1"
     transform="translate(52.775539,-122.50284)">
    <g
       aria-label="COFIT"
       style="font-style:normal;font-variant:normal;font-weight:normal;font-stretch:normal;font-size:105.00751495px;line-height:1.25;font-family:Adventure;-inkscape-font-specification:Adventure;letter-spacing:0px;word-spacing:0px;fill:#000000;fill-opacity:1;stroke:none;stroke-width:2.62518787"
       id="text12">
      <g
         id="g4613">
        <g
           id="g4542">
          <path
             d="m 12.753337,199.10673 q -10.7160986,11.94665 -27.431162,11.94665 -13.536125,0 -21.124559,-9.84445 -6.973155,-9.12663 -6.973155,-23.68822 0,-3.12767 0.358912,-6.66552 1.743289,-15.58705 12.920847,-26.86715 11.433924,-11.4852 26.1493324,-11.4852 22.2525686,0 31.4817456,15.94596 l -19.3812703,9.84446 q -3.9480364,-8.51135 -13.3310322,-8.51135 -9.5880885,0 -15.9972385,6.51169 -6.050238,6.20406 -7.485887,16.4587 -0.358913,2.35857 -0.358913,3.99931 0,7.69098 4.306949,13.17721 4.512042,5.79387 11.639017,5.79387 7.7422529,0 13.5873978,-6.25533 z"
             style="stroke-width:2.62518787"
             id="path14"
             inkscape:connector-curvature="0" />
          <path
             d="m 98.841039,148.4488 -4.409495,2.92258 c 1.43565,4.13603 2.153475,7.67388 2.153475,10.61355 0,2.11929 -0.32473,5.07605 -0.974191,8.87026 -2.050928,11.96375 -6.494605,21.48347 -13.331032,28.55918 -7.485887,7.75934 -17.039794,11.63901 -28.66172,11.63901 -9.502633,0 -16.920156,-3.28148 -22.252569,-9.84445 -4.922227,-6.08442 -7.383341,-13.98049 -7.383341,-23.68822 0,-2.08511 0.119638,-4.30695 0.358913,-6.66552 1.230557,-10.39137 5.77678,-19.34708 13.638671,-26.86715 8.066984,-7.6568 17.279069,-11.4852 27.636255,-11.4852 15.655417,0 26.730429,5.31532 33.225034,15.94596 z"
             style="fill:#f9b93d;fill-opacity:1;stroke-width:2.62518787"
             id="path16"
             inkscape:connector-curvature="0"
             sodipodi:nodetypes="ccsccscsccsc" />
          <path
             d="m 106.94221,208.64354 q -8.460078,0.87165 -19.22745,2.71748 v -0.15382 q 0,-0.71782 2.717479,-10.35719 3.178939,-11.12628 5.691326,-18.20198 4.204405,-11.74156 9.588085,-23.73949 2.05093,-4.51204 4.61459,-9.383 -5.43496,0.61528 -10.15209,1.17928 l 4.51204,-15.38196 q 10.66482,-0.82037 25.48278,-1.69201 8.81899,-0.51273 28.55917,-1.12801 l -4.71713,14.9205 h -5.94769 q -16.56125,0 -25.94424,0.7691 l 3.23021,1.84583 q -0.7691,1.69202 -3.79422,8.87027 -0.82037,1.84583 -1.84583,4.35822 l 22.09875,-0.82037 -4.66586,13.3823 -21.79112,0.7691 q -1.17928,3.74294 -1.8971,5.89642 -4.66586,13.33103 -6.5117,26.14933 z"
             style="stroke-width:2.62518787"
             id="path18"
             inkscape:connector-curvature="0" />
          <path
             d="m 154.26737,196.64561 1.74329,-5.84514 q 0.61527,-1.99966 2.61493,-8.15244 3.07639,-9.22918 9.69063,-23.73949 1.64075,-3.79422 5.1786,-10.7161 -5.58878,0.92292 -16.97143,2.51238 l 4.51204,-15.38196 q 8.04989,-0.71782 20.25291,-1.69201 12.76703,-0.97419 22.40639,-1.12801 l -4.71713,14.9205 q -9.84446,0 -15.58706,0.20509 l 4.46077,2.40984 q -1.53819,2.97385 -3.89676,8.87027 -2.92257,7.22952 -8.10117,23.73949 -1.84583,6.10151 -3.53785,12.66448 1.64075,-0.10255 5.69133,-0.30764 l 7.94734,-0.30764 -4.71713,14.97178 q -11.99793,0 -15.63833,0.20509 -5.89641,0.41018 -26.81588,3.12766 l 4.51204,-15.43323 5.12732,-0.51273 q 2.20475,-0.15382 5.84515,-0.41019 z"
             style="stroke-width:2.62518787"
             id="path20"
             inkscape:connector-curvature="0" />
          <path
             d="m 260.71053,132.50284 -4.71713,14.9205 h -6.15279 q -9.02408,0 -15.63832,0.20509 l 4.51204,2.40984 q -4.9735,9.43427 -12.0492,32.60976 -2.61494,8.81899 -6.40915,23.94458 l -0.56401,0.15382 q -6.87061,1.28183 -18.86854,4.61459 3.74295,-14.3565 8.6139,-28.71299 2.97385,-8.92154 9.74191,-23.73949 1.58947,-3.69167 5.12732,-10.7161 -9.69063,0.92292 -22.15002,2.51238 l 4.56331,-15.38196 q 11.12629,-0.82037 25.43151,-1.69201 8.76772,-0.51273 28.55917,-1.12801 z"
             style="stroke-width:2.62518787"
             id="path22"
             inkscape:connector-curvature="0" />
        </g>
      </g>
      <text
         xml:space="preserve"
         style="font-style:normal;font-variant:normal;font-weight:normal;font-stretch:normal;font-size:10.58333302px;line-height:1.25;font-family:Adventure;-inkscape-font-specification:Adventure;letter-spacing:0px;word-spacing:0px;fill:#000000;fill-opacity:1;stroke:none;stroke-width:0.69458097"
         x="146.60753"
         y="281.80106"
         id="text4589"><tspan
           sodipodi:role="line"
           id="tspan4587"
           x="146.60753"
           y="291.86917"
           style="stroke-width:0.69458097" /></text>
    </g>
  </g>
</svg>
