<?xml version="1.0" encoding="UTF-8" standalone="no"?>
<svg
   xmlns:dc="http://purl.org/dc/elements/1.1/"
   xmlns:cc="http://creativecommons.org/ns#"
   xmlns:rdf="http://www.w3.org/1999/02/22-rdf-syntax-ns#"
   xmlns:svg="http://www.w3.org/2000/svg"
   xmlns="http://www.w3.org/2000/svg"
   viewBox="0 0 966.74778 351.43011"
   height="351.43011"
   width="966.74774"
   id="svg2"
   version="1.1">
  <metadata
     id="metadata8">
    <rdf:RDF>
      <cc:Work
         rdf:about="">
        <dc:format>image/svg+xml</dc:format>
        <dc:type
           rdf:resource="http://purl.org/dc/dcmitype/StillImage" />
        <dc:title></dc:title>
      </cc:Work>
    </rdf:RDF>
  </metadata>
  <defs
     id="defs6" />
  <g
     transform="translate(-78.168931,-488.79618)"
     id="g8437">
    <path
       style="opacity:1;fill:#f9b93d;fill-opacity:1;stroke:none;stroke-width:11.03649426;stroke-linecap:round;stroke-linejoin:round;stroke-miterlimit:4;stroke-dasharray:none;stroke-opacity:1"
       d="m 481.21336,737.80637 c -16.75383,-2.60538 -32.48249,-8.97569 -46.56399,-18.85901 -8.80204,-6.17786 -22.05234,-19.60851 -28.34651,-28.73238 -15.43668,-22.37655 -21.93833,-50.24868 -18.489,-79.26097 3.1298,-26.32475 13.2796,-47.0476 32.49442,-66.34395 14.74959,-14.81215 29.31429,-23.28777 49.22213,-28.64378 8.12053,-2.18474 10.30662,-2.37102 28.11894,-2.39602 17.03973,-0.024 20.28849,0.21713 27.59123,2.04716 43.1624,10.81629 77.20238,47.79072 83.7031,90.9188 4.9063,32.55015 -2.18816,63.8975 -19.82946,87.6178 -6.34395,8.52999 -18.86534,20.47489 -27.43547,26.17229 -23.06982,15.33679 -52.76509,21.78769 -80.46539,17.48006 z"
       id="path8429" />
    <path
       style="opacity:1;fill:#050505;fill-opacity:1;stroke:none;stroke-width:10.09016991;stroke-linecap:round;stroke-linejoin:round;stroke-miterlimit:4;stroke-dasharray:none;stroke-opacity:1"
       d="M 196.71487,756.8623 C 141.53403,749.58395 97.839891,709.78658 86.23821,656.23828 85.276283,651.79845 84.084122,642.78168 83.588963,636.20102 78.415954,567.4518 121.44561,510.47425 189.42163,496.06313 c 9.70871,-2.05827 12.30211,-2.25991 29.15527,-2.26686 15.59538,-0.006 20.05352,0.28531 28.40582,1.85888 31.87718,6.00566 58.58136,21.15969 77.64085,44.05946 3.41356,4.10136 6.20647,7.60043 6.20647,7.77573 0,0.1753 -4.88113,4.12154 -10.84695,8.76944 l -10.84695,8.45072 -7.86191,-8.04253 c -17.98934,-18.40265 -38.08317,-29.43937 -61.17986,-33.6036 -10.17566,-1.83463 -30.25366,-1.78966 -40.43654,0.0906 -21.33849,3.94008 -39.31035,13.58651 -55.52927,29.80543 -15.95891,15.95891 -25.34017,33.27021 -28.93335,53.3909 -5.13997,28.78224 0.42587,56.97847 15.64808,79.2723 5.65589,8.2834 17.73928,20.35387 26.16796,26.13997 26.39182,18.11744 65.0723,24.05947 96.78848,14.86847 16.17557,-4.68749 31.8574,-14.26267 46.15934,-28.18445 l 9.21802,-8.97298 10.78332,8.06647 c 5.93083,4.43656 10.80274,8.57729 10.82648,9.20162 0.0237,0.62433 -4.97041,6.1309 -11.09808,12.23682 -19.20802,19.13985 -37.49821,29.36888 -63.27377,35.38668 -16.3873,3.82594 -41.61977,4.88092 -59.70017,2.49612 z"
       id="path8419" />
    <path
       style="opacity:1;fill:#050505;fill-opacity:1;stroke:none;stroke-width:10.09016991;stroke-linecap:round;stroke-linejoin:round;stroke-miterlimit:4;stroke-dasharray:none;stroke-opacity:1"
       d="m 478.2306,756.97642 c -63.41948,-9.84616 -109.37915,-60.7528 -112.37761,-124.47365 -1.655,-35.17064 9.91983,-68.29339 33.28948,-95.26176 15.40328,-17.77526 38.03353,-31.96364 62.14684,-38.96391 12.70052,-3.68705 19.34629,-4.49458 36.7012,-4.45956 14.86876,0.03 18.04447,0.29148 27.41294,2.2571 13.61362,2.85631 23.18406,6.24076 35.2302,12.45867 37.37658,19.29282 62.0211,53.02075 69.48373,95.09387 1.88499,10.62732 1.87695,33.61682 -0.0155,44.2894 -9.73628,54.90847 -48.96185,95.91029 -103.10215,107.77089 -10.28142,2.25237 -37.86762,2.98146 -48.76915,1.28895 z m 32.65553,-27.41996 c 24.1682,-2.54575 44.56681,-12.47466 61.97865,-30.16775 8.7277,-8.86869 13.10837,-14.97637 18.45696,-25.73338 13.5171,-27.18539 14.03814,-64.45157 1.28331,-91.78515 -14.26319,-30.56598 -42.2708,-52.49548 -74.96681,-58.69781 -8.91715,-1.69156 -29.07762,-1.69431 -38.7333,-0.005 -41.60707,7.27813 -74.35653,40.89754 -81.78861,83.96122 -1.65097,9.56616 -1.66832,28.39431 -0.0348,37.76159 3.63918,20.8686 12.86265,38.7731 27.86124,54.08391 23.2403,23.72414 52.43344,34.11241 85.94336,30.58265 z"
       id="path8421" />
    <path
       style="opacity:1;fill:#050505;fill-opacity:1;stroke:none;stroke-width:10.09016991;stroke-linecap:round;stroke-linejoin:round;stroke-miterlimit:4;stroke-dasharray:none;stroke-opacity:1"
       d="M 677.51145,625.72702 V 499.17948 h 64.32483 64.32483 v 14.29441 14.2944 h -50.03042 -50.03043 v 36.99729 36.99729 h 50.03043 50.03042 v 14.29441 14.2944 h -50.03042 -50.03043 v 60.96145 60.96144 h -14.2944 -14.29441 z"
       id="path8423" />
    <path
       style="opacity:1;fill:#050505;fill-opacity:1;stroke:none;stroke-width:10.09016991;stroke-linecap:round;stroke-linejoin:round;stroke-miterlimit:4;stroke-dasharray:none;stroke-opacity:1"
       d="M 842.31755,625.72702 V 499.17948 h 14.29441 14.29441 v 126.54754 126.54755 h -14.29441 -14.29441 z"
       id="path8425" />
    <path
       style="opacity:1;fill:#050505;fill-opacity:1;stroke:none;stroke-width:10.09016991;stroke-linecap:round;stroke-linejoin:round;stroke-miterlimit:4;stroke-dasharray:none;stroke-opacity:1"
       d="M 954.99111,640.02143 V 527.76829 h -27.74796 -27.74797 v -14.2944 -14.29441 h 70.21076 70.21076 v 14.29441 14.2944 h -27.748 -27.74792 v 112.25314 112.25314 h -14.71484 -14.71483 z"
       id="path8427" />
  </g>
  <g
     id="text8441"
     style="font-style:normal;font-variant:normal;font-weight:bold;font-stretch:normal;font-size:40px;line-height:125%;font-family:'Basis Grotesque Pro';-inkscape-font-specification:'Basis Grotesque Pro Bold';text-align:start;letter-spacing:0px;word-spacing:0px;writing-mode:lr-tb;text-anchor:start;fill:#000000;fill-opacity:1;stroke:none;stroke-width:1px;stroke-linecap:butt;stroke-linejoin:miter;stroke-opacity:1"
     aria-label="Pomáháme získat praxi při studiu.">
    <path
       id="path8443"
       style=""
       d="m 383.16917,338.27011 v -28 h 11.24 q 4.36,0 6.92,2.32 2.6,2.32 2.6,6.28 0,3.96 -2.6,6.28 -2.56,2.32 -6.92,2.32 h -8.84 v 10.8 z m 2.4,-25.92 v 13.04 h 8.76 q 3.56,0 5.36,-1.68 1.84,-1.72 1.84,-4.84 0,-3.12 -1.84,-4.8 -1.8,-1.72 -5.36,-1.72 z" />
    <path
       id="path8445"
       style=""
       d="m 422.82979,320.71011 q 2.96,2.84 2.96,7.64 0,4.8 -2.96,7.64 -2.96,2.84 -7.2,2.84 -4.24,0 -7.2,-2.84 -2.96,-2.84 -2.96,-7.64 0,-4.8 2.96,-7.64 2.96,-2.84 7.2,-2.84 4.24,0 7.2,2.84 z m -12.8,13.72 q 2.24,2.4 5.6,2.4 3.36,0 5.6,-2.4 2.24,-2.4 2.24,-6.08 0,-3.68 -2.24,-6.08 -2.24,-2.4 -5.6,-2.4 -3.36,0 -5.6,2.4 -2.24,2.4 -2.24,6.08 0,3.68 2.24,6.08 z" />
    <path
       id="path8447"
       style=""
       d="m 456.54167,323.51011 v 14.76 h -2.32 v -14.2 q 0,-4.2 -4.2,-4.2 -2.2,0 -3.8,2.08 -1.6,2.04 -1.6,5.88 v 10.44 h -2.32 v -14.04 q 0,-1.96 -1.04,-3.16 -1.04,-1.2 -2.96,-1.2 -2.28,0 -3.88,2.12 -1.6,2.08 -1.6,5.64 v 10.64 h -2.32 v -19.84 h 2.32 v 3.32 q 0.76,-1.64 2.4,-2.76 1.64,-1.12 3.64,-1.12 1.88,0 3.36,1.08 1.48,1.04 2.08,2.92 0.92,-1.76 2.6,-2.88 1.68,-1.12 3.68,-1.12 2.68,0 4.32,1.52 1.64,1.48 1.64,4.12 z" />
    <path
       id="path8449"
       style=""
       d="m 478.38229,338.27011 h -2.32 q -1.28,-1.52 -1.28,-4.28 -0.68,2.04 -2.72,3.44 -2,1.4 -4.28,1.4 -3,0 -4.8,-1.68 -1.8,-1.72 -1.8,-4.36 0,-2.68 1.84,-4.28 1.88,-1.6 4.76,-2.04 l 7.08,-1.16 v -0.96 q 0,-2.16 -1.36,-3.28 -1.36,-1.12 -3.8,-1.12 -2.52,0 -3.92,1.12 -1.4,1.08 -1.4,2.6 0,0.28 0.08,0.6 l -1.88,0.64 q -0.28,-0.68 -0.28,-1.52 0,-2.32 2.08,-3.92 2.12,-1.6 5.32,-1.6 3.56,0 5.52,1.68 1.96,1.68 1.96,4.56 v 9.2 q 0,1.72 0.24,2.76 0.24,1 0.96,2.2 z m -10.4,-1.6 q 3.16,0 5,-2.56 1.88,-2.6 1.88,-5.8 v -1 l -6.68,1.12 q -2.24,0.4 -3.48,1.52 -1.2,1.12 -1.2,2.8 0,1.72 1.24,2.84 1.24,1.08 3.24,1.08 z m -0.16,-20.88 2.64,-5.52 h 3.36 l -4,5.52 z" />
    <path
       id="path8451"
       style=""
       d="m 499.20917,324.79011 v 13.48 h -2.32 v -13.24 q 0,-2.48 -1.44,-3.8 -1.44,-1.36 -3.8,-1.36 -2.56,0 -4.6,2.16 -2.04,2.12 -2.04,5.24 v 11 h -2.32 v -28 h 2.32 v 12.04 q 1.08,-2.04 3,-3.24 1.96,-1.2 4.28,-1.2 3.24,0 5.08,1.84 1.84,1.8 1.84,5.08 z" />
    <path
       id="path8453"
       style=""
       d="m 521.11667,338.27011 h -2.32 q -1.28,-1.52 -1.28,-4.28 -0.68,2.04 -2.72,3.44 -2,1.4 -4.28,1.4 -3,0 -4.8,-1.68 -1.8,-1.72 -1.8,-4.36 0,-2.68 1.84,-4.28 1.88,-1.6 4.76,-2.04 l 7.08,-1.16 v -0.96 q 0,-2.16 -1.36,-3.28 -1.36,-1.12 -3.8,-1.12 -2.52,0 -3.92,1.12 -1.4,1.08 -1.4,2.6 0,0.28 0.08,0.6 l -1.88,0.64 q -0.28,-0.68 -0.28,-1.52 0,-2.32 2.08,-3.92 2.12,-1.6 5.32,-1.6 3.56,0 5.52,1.68 1.96,1.68 1.96,4.56 v 9.2 q 0,1.72 0.24,2.76 0.24,1 0.96,2.2 z m -10.4,-1.6 q 3.16,0 5,-2.56 1.88,-2.6 1.88,-5.8 v -1 l -6.68,1.12 q -2.24,0.4 -3.48,1.52 -1.2,1.12 -1.2,2.8 0,1.72 1.24,2.84 1.24,1.08 3.24,1.08 z m -0.16,-20.88 2.64,-5.52 h 3.36 l -4,5.52 z" />
    <path
       id="path8455"
       style=""
       d="m 551.61979,323.51011 v 14.76 h -2.32 v -14.2 q 0,-4.2 -4.2,-4.2 -2.2,0 -3.8,2.08 -1.6,2.04 -1.6,5.88 v 10.44 h -2.32 v -14.04 q 0,-1.96 -1.04,-3.16 -1.04,-1.2 -2.96,-1.2 -2.28,0 -3.88,2.12 -1.6,2.08 -1.6,5.64 v 10.64 h -2.32 v -19.84 h 2.32 v 3.32 q 0.76,-1.64 2.4,-2.76 1.64,-1.12 3.64,-1.12 1.88,0 3.36,1.08 1.48,1.04 2.08,2.92 0.92,-1.76 2.6,-2.88 1.68,-1.12 3.68,-1.12 2.68,0 4.32,1.52 1.64,1.48 1.64,4.12 z" />
    <path
       id="path8457"
       style=""
       d="m 575.25667,328.55011 h -16.92 q 0.12,3.52 2.16,5.92 2.04,2.36 5.32,2.36 4.96,0 7.2,-4.8 l 1.68,1 q -2.8,5.8 -9,5.8 -4.08,0 -6.88,-2.96 -2.8,-2.96 -2.8,-7.52 0,-4.52 2.8,-7.48 2.84,-3 7,-3 4.36,0 6.88,2.76 2.56,2.72 2.56,7.16 z m -9.44,-8.68 q -2.84,0 -4.96,1.92 -2.08,1.88 -2.52,4.76 h 14.4 q -0.04,-3.16 -2.08,-4.92 -2.04,-1.76 -4.84,-1.76 z" />
    <path
       id="path8459"
       style=""
       d="m 592.24854,336.27011 h 13 v 2 h -15.52 v -2 l 12.44,-15.84 h -12.12 v -2 h 14.64 v 2 z" />
    <path
       id="path8461"
       style=""
       d="m 610.03292,338.27011 v -19.84 h 2.32 v 19.84 z m -0.04,-22.48 2.64,-5.52 h 3.36 l -4,5.52 z" />
    <path
       id="path8463"
       style=""
       d="m 620.08354,323.03011 q 0,2.84 5.6,3.88 6.56,1.2 6.56,5.76 0,2.48 -1.92,4.32 -1.92,1.84 -5.32,1.84 -3,0 -5.12,-1.56 -2.12,-1.6 -3.08,-4.12 l 2,-1.2 q 1.56,4.88 6.2,4.88 2.28,0 3.6,-1.12 1.32,-1.12 1.32,-2.92 0,-1.72 -1.28,-2.64 -1.28,-0.96 -4.08,-1.44 -6.64,-1.16 -6.64,-5.76 0,-2.28 1.88,-3.68 1.92,-1.4 4.72,-1.4 5.52,0 7.52,4.76 l -1.88,1.08 q -1.48,-3.84 -5.6,-3.84 -1.92,0 -3.2,0.84 -1.28,0.84 -1.28,2.32 z" />
    <path
       id="path8465"
       style=""
       d="m 637.06417,338.27011 v -28 h 2.32 v 16.4 l 8.6,-8.24 h 3 l -7.04,6.8 8.36,13.04 h -2.6 l -7.4,-11.44 -2.92,2.84 v 8.6 z" />
    <path
       id="path8467"
       style=""
       d="m 671.58542,338.27011 h -2.32 q -1.28,-1.52 -1.28,-4.28 -0.68,2.04 -2.72,3.44 -2,1.4 -4.28,1.4 -3,0 -4.8,-1.68 -1.8,-1.72 -1.8,-4.36 0,-2.68 1.84,-4.28 1.88,-1.6 4.76,-2.04 l 7.08,-1.16 v -0.96 q 0,-2.16 -1.36,-3.28 -1.36,-1.12 -3.8,-1.12 -2.52,0 -3.92,1.12 -1.4,1.08 -1.4,2.6 0,0.28 0.08,0.6 l -1.88,0.64 q -0.28,-0.68 -0.28,-1.52 0,-2.32 2.08,-3.92 2.12,-1.6 5.32,-1.6 3.56,0 5.52,1.68 1.96,1.68 1.96,4.56 v 9.2 q 0,1.72 0.24,2.76 0.24,1 0.96,2.2 z m -10.4,-1.6 q 3.16,0 5,-2.56 1.88,-2.6 1.88,-5.8 v -1 l -6.68,1.12 q -2.24,0.4 -3.48,1.52 -1.2,1.12 -1.2,2.8 0,1.72 1.24,2.84 1.24,1.08 3.24,1.08 z" />
    <path
       id="path8469"
       style=""
       d="m 673.77792,320.19011 v -1.76 h 3.48 v -5.36 h 2.32 v 5.36 h 4.96 v 1.76 h -4.96 v 13.44 q 0,3.2 2.84,3.2 0.68,0 1.48,-0.24 l 0.2,1.92 q -0.96,0.32 -2.16,0.32 -2.04,0 -3.36,-1.32 -1.32,-1.36 -1.32,-4 v -13.32 z" />
    <path
       id="path8471"
       style=""
       d="m 700.03292,346.43011 v -28 h 2.32 v 4 q 0.92,-1.96 2.88,-3.24 2,-1.32 4.48,-1.32 4.04,0 6.68,3 2.68,3 2.68,7.48 0,4.48 -2.64,7.48 -2.64,3 -6.76,3 -2.44,0 -4.4,-1.08 -1.92,-1.08 -2.92,-3.04 v 11.72 z m 9.36,-26.56 q -3.2,0 -5.24,2.4 -2.04,2.4 -2.04,6.08 0,3.68 2.04,6.08 2.04,2.4 5.24,2.4 3.24,0 5.24,-2.36 2.04,-2.36 2.04,-6.12 0,-3.76 -2.04,-6.12 -2,-2.36 -5.24,-2.36 z" />
    <path
       id="path8473"
       style=""
       d="m 733.54104,318.07011 -0.4,2 q -0.68,-0.2 -1.48,-0.2 -2.2,0 -3.84,2.24 -1.64,2.24 -1.64,5.32 v 10.84 h -2.32 v -19.84 h 2.32 v 3.76 q 0.68,-1.84 2.24,-3.08 1.56,-1.24 3.48,-1.24 0.92,0 1.64,0.2 z" />
    <path
       id="path8475"
       style=""
       d="m 752.60104,338.27011 h -2.32 q -1.28,-1.52 -1.28,-4.28 -0.68,2.04 -2.72,3.44 -2,1.4 -4.28,1.4 -3,0 -4.8,-1.68 -1.8,-1.72 -1.8,-4.36 0,-2.68 1.84,-4.28 1.88,-1.6 4.76,-2.04 l 7.08,-1.16 v -0.96 q 0,-2.16 -1.36,-3.28 -1.36,-1.12 -3.8,-1.12 -2.52,0 -3.92,1.12 -1.4,1.08 -1.4,2.6 0,0.28 0.08,0.6 l -1.88,0.64 q -0.28,-0.68 -0.28,-1.52 0,-2.32 2.08,-3.92 2.12,-1.6 5.32,-1.6 3.56,0 5.52,1.68 1.96,1.68 1.96,4.56 v 9.2 q 0,1.72 0.24,2.76 0.24,1 0.96,2.2 z m -10.4,-1.6 q 3.16,0 5,-2.56 1.88,-2.6 1.88,-5.8 v -1 l -6.68,1.12 q -2.24,0.4 -3.48,1.52 -1.2,1.12 -1.2,2.8 0,1.72 1.24,2.84 1.24,1.08 3.24,1.08 z" />
    <path
       id="path8477"
       style=""
       d="m 758.33292,318.43011 4.68,7.44 4.72,-7.44 h 2.52 l -5.92,9.08 7,10.76 h -2.48 l -5.84,-8.92 -5.8,8.92 h -2.76 l 7.24,-10.6 -5.96,-9.24 z" />
    <path
       id="path8479"
       style=""
       d="m 774.40792,338.27011 v -19.84 h 2.32 v 19.84 z m -0.32,-23.6 v -3.2 h 2.96 v 3.2 z" />
    <path
       id="path8481"
       style=""
       d="m 793.86104,346.43011 v -28 h 2.32 v 4 q 0.92,-1.96 2.88,-3.24 2,-1.32 4.48,-1.32 4.04,0 6.68,3 2.68,3 2.68,7.48 0,4.48 -2.64,7.48 -2.64,3 -6.76,3 -2.44,0 -4.4,-1.08 -1.92,-1.08 -2.92,-3.04 v 11.72 z m 9.36,-26.56 q -3.2,0 -5.24,2.4 -2.04,2.4 -2.04,6.08 0,3.68 2.04,6.08 2.04,2.4 5.24,2.4 3.24,0 5.24,-2.36 2.04,-2.36 2.04,-6.12 0,-3.76 -2.04,-6.12 -2,-2.36 -5.24,-2.36 z" />
    <path
       id="path8483"
       style=""
       d="m 827.36917,318.07011 -0.4,2 q -0.68,-0.2 -1.48,-0.2 -2.2,0 -3.84,2.24 -1.64,2.24 -1.64,5.32 v 10.84 h -2.32 v -19.84 h 2.32 v 3.76 q 0.68,-1.84 2.24,-3.08 1.56,-1.24 3.48,-1.24 0.92,0 1.64,0.2 z m -6.08,-2.28 -3.88,-5.52 h 2 l 2.88,3.12 2.88,-3.12 h 2 l -3.88,5.52 z" />
    <path
       id="path8485"
       style=""
       d="m 831.04854,338.27011 v -19.84 h 2.32 v 19.84 z m -0.32,-23.6 v -3.2 h 2.96 v 3.2 z" />
    <path
       id="path8487"
       style=""
       d="m 852.66167,323.03011 q 0,2.84 5.6,3.88 6.56,1.2 6.56,5.76 0,2.48 -1.92,4.32 -1.92,1.84 -5.32,1.84 -3,0 -5.12,-1.56 -2.12,-1.6 -3.08,-4.12 l 2,-1.2 q 1.56,4.88 6.2,4.88 2.28,0 3.6,-1.12 1.32,-1.12 1.32,-2.92 0,-1.72 -1.28,-2.64 -1.28,-0.96 -4.08,-1.44 -6.64,-1.16 -6.64,-5.76 0,-2.28 1.88,-3.68 1.92,-1.4 4.72,-1.4 5.52,0 7.52,4.76 l -1.88,1.08 q -1.48,-3.84 -5.6,-3.84 -1.92,0 -3.2,0.84 -1.28,0.84 -1.28,2.32 z" />
    <path
       id="path8489"
       style=""
       d="m 867.37167,320.19011 v -1.76 h 3.48 v -5.36 h 2.32 v 5.36 h 4.96 v 1.76 h -4.96 v 13.44 q 0,3.2 2.84,3.2 0.68,0 1.48,-0.24 l 0.2,1.92 q -0.96,0.32 -2.16,0.32 -2.04,0 -3.36,-1.32 -1.32,-1.36 -1.32,-4 v -13.32 z" />
    <path
       id="path8491"
       style=""
       d="m 882.14229,331.71011 v -13.28 h 2.32 v 13.24 q 0,2.48 1.4,3.84 1.44,1.32 3.72,1.32 2.64,0 4.52,-2.16 1.88,-2.16 1.88,-5.52 v -10.72 h 2.32 v 19.84 h -2.32 v -3.64 q -0.96,1.88 -2.84,3.04 -1.84,1.16 -3.96,1.16 -3.04,0 -5.04,-1.72 -2,-1.76 -2,-5.4 z" />
    <path
       id="path8493"
       style=""
       d="m 922.08792,310.27011 v 28 h -2.32 v -3.88 q -0.92,1.92 -2.84,3.2 -1.92,1.24 -4.36,1.24 -4.12,0 -6.84,-3 -2.68,-3 -2.68,-7.48 0,-4.44 2.68,-7.44 2.68,-3.04 6.68,-3.04 2.44,0 4.36,1.16 1.96,1.12 3,3.2 v -11.96 z m -9.36,26.56 q 3.2,0 5.24,-2.4 2.04,-2.4 2.04,-6.08 0,-3.68 -2.04,-6.08 -2.04,-2.4 -5.24,-2.4 -3.24,0 -5.28,2.36 -2,2.36 -2,6.12 0,3.76 2,6.12 2.04,2.36 5.28,2.36 z" />
    <path
       id="path8495"
       style=""
       d="m 928.15792,338.27011 v -19.84 h 2.32 v 19.84 z m -0.32,-23.6 v -3.2 h 2.96 v 3.2 z" />
    <path
       id="path8497"
       style=""
       d="m 936.59542,331.71011 v -13.28 h 2.32 v 13.24 q 0,2.48 1.4,3.84 1.44,1.32 3.72,1.32 2.64,0 4.52,-2.16 1.88,-2.16 1.88,-5.52 v -10.72 h 2.32 v 19.84 h -2.32 v -3.64 q -0.96,1.88 -2.84,3.04 -1.84,1.16 -3.96,1.16 -3.04,0 -5.04,-1.72 -2,-1.76 -2,-5.4 z" />
    <path
       id="path8499"
       style=""
       d="m 957.03792,338.27011 v -3.28 h 3.2 v 3.28 z" />
  </g>
</svg>
