<?xml version="1.0" encoding="UTF-8" standalone="no"?>
<!-- Created with Inkscape (http://www.inkscape.org/) -->

<svg
   xmlns:dc="http://purl.org/dc/elements/1.1/"
   xmlns:cc="http://creativecommons.org/ns#"
   xmlns:rdf="http://www.w3.org/1999/02/22-rdf-syntax-ns#"
   xmlns:svg="http://www.w3.org/2000/svg"
   xmlns="http://www.w3.org/2000/svg"
   xmlns:sodipodi="http://sodipodi.sourceforge.net/DTD/sodipodi-0.dtd"
   xmlns:inkscape="http://www.inkscape.org/namespaces/inkscape"
   width="550.39545mm"
   height="427.79425mm"
   viewBox="0 0 550.39544 427.79427"
   version="1.1"
   id="svg8"
   inkscape:version="0.92.3 (2405546, 2018-03-11)"
   sodipodi:docname="logo-adventure.svg">
  <defs
     id="defs2" />
  <sodipodi:namedview
     id="base"
     pagecolor="#ffffff"
     bordercolor="#666666"
     borderopacity="1.0"
     inkscape:pageopacity="0.0"
     inkscape:pageshadow="2"
     inkscape:zoom="0.24748737"
     inkscape:cx="1176.7717"
     inkscape:cy="727.65742"
     inkscape:document-units="mm"
     inkscape:current-layer="text12"
     showgrid="false"
     showguides="false"
     fit-margin-top="10"
     fit-margin-left="10"
     fit-margin-right="10"
     fit-margin-bottom="10"
     inkscape:window-width="1920"
     inkscape:window-height="1017"
     inkscape:window-x="-8"
     inkscape:window-y="-8"
     inkscape:window-maximized="1" />
  <metadata
     id="metadata5">
    <rdf:RDF>
      <cc:Work
         rdf:about="">
        <dc:format>image/svg+xml</dc:format>
        <dc:type
           rdf:resource="http://purl.org/dc/dcmitype/StillImage" />
        <dc:title></dc:title>
      </cc:Work>
    </rdf:RDF>
  </metadata>
  <g
     inkscape:label="Vrstva 1"
     inkscape:groupmode="layer"
     id="layer1"
     transform="translate(170.69795,50.924917)">
    <g
       aria-label="COFIT"
       style="font-style:normal;font-variant:normal;font-weight:normal;font-stretch:normal;font-size:105.00751495px;line-height:1.25;font-family:Adventure;-inkscape-font-specification:Adventure;letter-spacing:0px;word-spacing:0px;fill:#000000;fill-opacity:1;stroke:none;stroke-width:2.62518787"
       id="text12">
      <g
         id="g4585"
         transform="matrix(2.3482081,-0.21420406,0.21420406,2.3482081,-515.48707,-428.78328)">
        <path
           inkscape:connector-curvature="0"
           id="path9670"
           style="fill:#100f0d;fill-opacity:1;fill-rule:nonzero;stroke:none;stroke-width:0.08624531"
           d="m 339.74903,274.75015 -1.74648,0.41052 -1.71973,0.50195 -1.68781,0.59682 -1.64644,0.70032 c -1.07461,0.51401 -2.13196,1.06598 -3.13069,1.71281 -0.49851,0.3243 -1.00044,0.64427 -1.46617,1.0134 -0.48384,0.34584 -0.93922,0.72531 -1.38424,1.1186 -0.89866,0.77447 -1.71629,1.63693 -2.46316,2.55285 -0.74,0.92282 -1.3946,1.91035 -1.94655,2.95218 -0.52697,1.05046 -1.00736,2.13459 -1.28076,3.27819 -0.30444,1.13241 -0.47951,2.29929 -0.49159,3.46792 -0.044,1.16776 0.0941,2.33552 0.34324,3.47052 0.22345,1.1462 0.67101,2.23203 1.14534,3.29198 0.53905,1.03149 1.11603,2.04919 1.85774,2.95563 0.70204,0.9323 1.52912,1.76716 2.3795,2.56838 0.4502,0.36998 0.86676,0.75119 1.34112,1.11255 0.47951,0.34757 0.98665,0.73311 1.45064,1.041 l 2.99961,2.02589 5.99924,4.05095 c 0.41397,0.27943 0.52264,0.84175 0.24325,1.25572 -0.20707,0.30618 -0.56838,0.44504 -0.90991,0.3838 l -0.0345,-0.005 -8.7401,-1.58346 c -1.44546,-0.24494 -2.94181,-0.54768 -4.34676,-0.74431 -1.4127,-0.23103 -2.84263,-0.31997 -4.26567,-0.37084 -1.42566,-0.0122 -2.85043,0.0259 -4.2614,0.19485 -1.41443,0.1303 -2.80468,0.42174 -4.18118,0.7331 -1.36179,0.37085 -2.71929,0.76069 -4.01212,1.31178 -1.29799,0.52782 -2.56063,1.13845 -3.74651,1.86376 -1.19707,0.70462 -2.3217,1.51706 -3.35233,2.41746 -1.04186,0.88747 -1.98365,1.87583 -2.78746,2.947 -0.80295,1.06772 -1.51618,2.19753 -2.00951,3.40324 -0.50454,1.19966 -0.84263,2.44677 -0.99354,3.70682 -0.16551,1.26005 -0.0829,2.53389 0.15182,3.77582 0.10096,0.6572 0.28288,1.15223 0.45364,1.76371 l 0.39588,1.03753 0.0491,0.12933 0.0249,0.0648 0.0122,0.0328 c 0.01,0.0259 -0.0621,-0.16477 -0.0284,-0.0768 l 0.007,0.0171 0.1105,0.25443 0.22003,0.5097 3.49897,8.16485 c 0.53298,1.2445 -0.0433,2.68654 -1.2885,3.22039 -0.82107,0.35188 -1.72751,0.22077 -2.4028,-0.2665 l -0.0768,-0.056 -7.30324,-5.29459 -1.81547,-1.30922 c -0.56577,-0.36998 -1.10655,-0.77276 -1.70336,-1.09529 -1.15135,-0.70981 -2.39847,-1.26264 -3.65248,-1.78271 -1.27124,-0.48729 -2.57011,-0.91593 -3.9069,-1.22037 -1.33422,-0.30963 -2.69172,-0.54335 -4.06388,-0.66062 -1.36872,-0.14913 -2.7521,-0.15524 -4.12857,-0.12591 -1.37647,0.0638 -2.75208,0.18556 -4.10701,0.41742 -2.70895,0.45538 -5.35495,1.25486 -7.78794,2.4002 -1.229,0.55543 -2.37089,1.24798 -3.46018,1.98798 -1.09444,0.73826 -2.06297,1.60847 -2.95648,2.52095 -0.90297,0.91074 -1.62916,1.94396 -2.26049,3.00909 -0.14228,0.26822 -0.31823,0.54765 -0.43727,0.80293 l -0.34065,0.74259 c -0.0577,0.0983 -0.12248,0.3079 -0.18458,0.47781 l -0.18629,0.53212 -0.0941,0.26562 -0.0464,0.13373 -0.0245,0.0665 -0.005,0.0171 c 0.0171,-0.0518 -0.0467,0.13959 0.0372,-0.11221 l -0.01,0.0337 -0.1638,0.53905 -2.61581,8.63228 c -0.5054,1.66798 -2.26741,2.61065 -3.93624,2.10525 -0.98321,-0.29755 -1.71455,-1.03323 -2.04574,-1.92759 l -0.0147,-0.0447 -3.07809,-8.48479 -0.1924,-0.53041 c -0.0638,-0.17505 -0.12077,-0.29152 -0.18018,-0.43986 -0.12248,-0.28029 -0.22345,-0.56921 -0.35705,-0.8452 -0.28203,-0.54506 -0.55457,-1.09532 -0.90299,-1.60848 -0.67532,-1.03322 -1.45064,-2.02417 -2.37605,-2.90301 -0.91681,-0.88317 -1.91466,-1.71284 -3.02636,-2.41314 -1.09962,-0.71411 -2.26567,-1.35578 -3.49983,-1.87928 -1.22125,-0.54594 -2.50283,-0.98665 -3.81119,-1.34285 -1.30229,-0.37947 -2.6503,-0.61234 -3.99834,-0.81848 -1.35405,-0.16722 -2.71929,-0.28374 -4.0863,-0.28288 -1.36524,-0.002 -2.7331,0.0621 -4.08197,0.24325 -1.35493,0.15011 -2.68223,0.44069 -3.99144,0.77188 -1.30059,0.36224 -2.57787,0.79262 -3.80083,1.33249 -0.61148,0.26738 -1.20829,0.5632 -1.79909,0.8659 -0.57611,0.32516 -1.17984,0.64427 -1.66712,0.98062 l -0.38896,0.24665 c -0.1242,0.0733 -0.26218,0.16551 -0.42001,0.28806 l -0.90558,0.67272 -0.22688,0.1682 c -0.022,0.0171 0.14742,-0.11466 0.0689,-0.0535 l -0.0147,0.0122 -0.0276,0.022 -0.0553,0.044 -0.1105,0.088 -0.44157,0.35101 -0.88229,0.70292 -7.06263,5.6206 -0.0284,0.022 c -1.34112,1.06772 -3.29371,0.8452 -4.36143,-0.49592 -0.69514,-0.8728 -0.8409,-2.00951 -0.49074,-2.98838 l 3.02117,-8.36063 c 0.28462,-0.74775 0.42607,-1.27557 0.61838,-1.85686 0.1215,-0.58388 0.27772,-1.16431 0.32344,-1.75249 0.13104,-1.17209 0.12248,-2.35452 -0.10953,-3.5145 -0.22687,-1.15827 -0.62355,-2.29586 -1.17035,-3.386 -0.53559,-1.09532 -1.26694,-2.11992 -2.08715,-3.08153 -0.81931,-0.96509 -1.76198,-1.85515 -2.7978,-2.6486 -1.02371,-0.80554 -2.13456,-1.52569 -3.31094,-2.14407 -1.16258,-0.63993 -2.39935,-1.16516 -3.66197,-1.61881 -1.26005,-0.46661 -2.57356,-0.79261 -3.8914,-1.08757 -1.32904,-0.2458 -2.67016,-0.46399 -4.0268,-0.53557 -1.35405,-0.10953 -2.71673,-0.0819 -4.07508,-0.0196 -0.66839,0.0707 -1.3782,0.0966 -2.01383,0.19754 -0.64339,0.0897 -1.27039,0.16135 -2.03108,0.326 l -1.0177,0.19998 -1.08495,0.24228 -2.16908,0.48384 -8.678,1.93018 -0.0389,0.01 c -1.44979,0.32254 -2.88664,-0.59165 -3.20832,-2.04143 -0.23812,-1.06858 0.19827,-2.13112 1.02374,-2.74433 l 7.06002,-5.22991 1.76545,-1.30835 c 0.52611,-0.42517 1.05305,-0.79863 1.53259,-1.24193 0.99266,-0.84691 1.83788,-1.81288 2.60976,-2.81418 0.75724,-1.01337 1.35061,-2.11473 1.81892,-3.25232 0.47262,-1.13928 0.75983,-2.33897 0.86332,-3.55589 0.10952,-1.21692 0.0413,-2.45108 -0.19754,-3.66541 -0.23029,-1.21692 -0.67962,-2.40109 -1.24452,-3.53176 -0.57611,-1.12808 -1.27384,-2.21562 -2.12852,-3.19538 -0.84953,-0.98062 -1.77839,-1.91466 -2.83058,-2.72277 -1.0453,-0.81244 -2.15268,-1.56879 -3.34804,-2.19321 -1.17639,-0.65375 -2.4304,-1.18416 -3.71115,-1.65333 -0.64598,-0.21221 -1.29885,-0.45624 -1.93534,-0.61407 l -0.96076,-0.26907 -1.0729,-0.23372 -0.53645,-0.11637 -0.21563,-0.0474 -0.26995,-0.0509 -1.07891,-0.20536 -2.15786,-0.41052 -8.63229,-1.64211 -0.0553,-0.01 c -0.99614,-0.18971 -1.64989,-1.15053 -1.46015,-2.14666 0.14497,-0.76328 0.7469,-1.32559 1.46705,-1.46186 l 8.63372,-1.61031 c 1.42048,-0.27425 2.92114,-0.52178 4.27518,-0.81933 1.37131,-0.26651 2.70209,-0.67703 4.0156,-1.12552 2.60373,-0.94264 5.08329,-2.24582 7.20925,-3.9733 1.07891,-0.84608 2.03711,-1.82669 2.89954,-2.87456 0.86679,-1.04616 1.60158,-2.1958 2.16735,-3.41791 0.57182,-1.21863 0.99009,-2.50542 1.2221,-3.82669 0.22419,-1.32214 0.24228,-2.67448 0.0768,-4.00525 -0.17334,-1.3299 -0.51489,-2.6486 -1.06772,-3.88965 -0.55283,-1.24108 -1.26091,-2.42006 -2.10007,-3.51364 -0.86935,-1.06254 -1.84996,-2.08454 -2.88663,-2.95045 -0.51489,-0.43812 -1.17206,-0.91766 -1.69214,-1.31006 l -1.78699,-1.27558 -7.14714,-5.10399 -0.01,-0.007 c -0.44505,-0.31823 -0.54853,-0.93663 -0.2303,-1.38165 0.2347,-0.3286 0.6339,-0.47003 1.00474,-0.395 l 8.69957,1.78787 c 1.44115,0.28203 2.92113,0.61923 4.33038,0.85554 1.41615,0.2691 2.85471,0.39674 4.29156,0.48558 1.43857,0.0518 2.88146,0.0501 4.31572,-0.0829 1.43771,-0.0958 2.8573,-0.35275 4.2674,-0.63304 1.39632,-0.33982 2.78834,-0.7167 4.12168,-1.25056 1.33938,-0.51316 2.646,-1.11256 3.88104,-1.83271 1.24711,-0.69947 2.42607,-1.51362 3.5145,-2.42522 1.10047,-0.89869 2.10524,-1.90861 2.97459,-3.01513 0.8685,-1.1048 1.64901,-2.28379 2.20617,-3.56107 0.56836,-1.26953 0.96851,-2.6072 1.14964,-3.97418 0.19925,-1.36613 0.13446,-2.75726 -0.0993,-4.11134 -0.0966,-0.6977 -0.2967,-1.30574 -0.47781,-1.97068 l -0.38292,-1.04186 c -0.0887,-0.26132 -0.26995,-0.6615 -0.40018,-0.98491 l -3.41617,-8.19761 c -0.25012,-0.60114 0.0345,-1.2911 0.63476,-1.54122 0.39328,-0.1638 0.82451,-0.0983 1.14534,0.13373 l 0.0249,0.0196 7.29291,5.31015 1.82148,1.31437 c 0.59511,0.3924 1.16776,0.81674 1.79565,1.15912 1.21347,0.74776 2.52181,1.33508 3.83962,1.87757 1.33682,0.50452 2.69949,0.94438 4.09667,1.25487 1.39544,0.31481 2.81158,0.54938 4.23895,0.66409 1.42563,0.14571 2.86162,0.14497 4.2907,0.10439 1.42908,-0.0733 2.85471,-0.20878 4.26052,-0.45795 2.80816,-0.48988 5.55593,-1.32992 8.07945,-2.56149 1.27386,-0.5951 2.46318,-1.33251 3.59559,-2.12336 1.13842,-0.78916 2.15182,-1.71802 3.08498,-2.69604 0.94267,-0.97629 1.70594,-2.08454 2.364,-3.22903 0.14913,-0.28977 0.3286,-0.58473 0.45709,-0.86761 l 0.3674,-0.83486 c 0.1259,-0.2777 0.24227,-0.69084 0.36483,-1.0289 l 0.14913,-0.44416 0.15695,-0.54163 2.5201,-8.66163 c 0.35791,-1.2333 1.64815,-1.94223 2.88145,-1.58346 0.72705,0.21123 1.27213,0.74689 1.52308,1.40321 l 0.031,0.0819 3.17296,8.45118 c 0.26995,0.75724 0.50025,1.26005 0.76501,1.87326 0.29756,0.57181 0.58648,1.14706 0.95387,1.68265 0.70893,1.08151 1.52914,2.10781 2.50025,3.00822 0.96078,0.90558 2.00176,1.75078 3.15226,2.46059 1.13844,0.72186 2.3407,1.36612 3.60852,1.88964 1.25401,0.54679 2.56752,0.97714 3.90086,1.3342 1.32819,0.38294 2.70035,0.6158 4.07163,0.82192 1.37821,0.16649 2.7659,0.28117 4.15532,0.27685 1.38769,-8.4e-4 2.77797,-0.0716 4.14925,-0.25873 1.37649,-0.15696 2.72709,-0.45539 4.0587,-0.79692 1.32302,-0.37172 2.62273,-0.81329 3.86725,-1.36698 0.6227,-0.27513 1.23071,-0.57784 1.83444,-0.88661 0.58818,-0.33117 1.20052,-0.65546 1.70937,-1.00562 0.27772,-0.18898 0.5123,-0.301 0.82882,-0.54851 l 0.90558,-0.67272 0.2259,-0.1682 -0.056,0.043 0.0147,-0.01 0.0276,-0.022 0.0553,-0.044 0.1105,-0.088 0.44157,-0.35102 0.88317,-0.70203 7.06261,-5.6206 0.0276,-0.022 c 1.12896,-0.89781 2.77193,-0.71067 3.66974,0.41741 0.58562,0.73568 0.70807,1.69387 0.41138,2.51836 l -3.03582,8.35545 c -0.28635,0.73741 -0.44504,1.29368 -0.64771,1.89482 -0.13275,0.6063 -0.30012,1.21001 -0.35446,1.82493 -0.1484,1.22385 -0.14913,2.46578 0.0819,3.68441 0.22687,1.21778 0.63218,2.41314 1.19277,3.55589 0.55024,1.14879 1.30058,2.22083 2.14321,3.22558 0.84432,1.00562 1.80596,1.9388 2.85901,2.77796 1.04357,0.84953 2.17771,1.61107 3.37823,2.26912 1.18846,0.67962 2.45196,1.24105 3.74565,1.73008 1.29109,0.50107 2.63651,0.85986 3.99141,1.18502 1.36442,0.27684 2.74433,0.52349 4.14239,0.62008 1.39458,0.13544 2.80124,0.13104 4.20616,0.0888 0.69429,-0.0614 1.41788,-0.0758 2.09232,-0.17089 0.67961,-0.0836 1.35233,-0.15255 2.10094,-0.30357 1.37561,-0.22858 2.88145,-0.58043 4.31572,-0.86505 l 8.70819,-1.79906 0.0594,-0.0122 c 0.74169,-0.15255 1.46787,0.32428 1.6214,1.06684 0.11295,0.5468 -0.11734,1.08498 -0.54249,1.39202 l -7.13507,5.13072 -1.78354,1.28247 c -0.55716,0.43641 -1.13155,0.83226 -1.65074,1.29972 -1.07547,0.89436 -2.01814,1.925 -2.87197,3.01685 -0.84004,1.1048 -1.51878,2.31913 -2.04919,3.59212 -0.53472,1.27298 -0.8685,2.6279 -0.99355,4.00437 -0.13104,1.37647 -0.0604,2.77452 0.20267,4.14324 0.25443,1.37302 0.74775,2.70035 1.37043,3.96037 0.62874,1.25919 1.40925,2.45541 2.34244,3.52657 0.93145,1.07032 1.94396,2.08542 3.08241,2.95218 1.13153,0.8728 2.32603,1.67747 3.60332,2.33811 1.2609,0.69084 2.59338,1.24883 3.95002,1.73785 0.68566,0.22248 1.36701,0.47348 2.06301,0.64339 l 1.04097,0.28288 1.07376,0.2303 c 1.4101,0.31048 2.8737,0.53214 4.30882,0.79865 l 8.6504,1.53945 c 0.18702,0.032 0.31219,0.20952 0.28029,0.39588 -0.0245,0.14326 -0.13715,0.25098 -0.27166,0.27944 z m -0.11979,-0.59166 12.10622,-2.49161 0.01,0.67443 -8.66074,-1.47995 c -1.44634,-0.25443 -2.87886,-0.4778 -4.33899,-0.7512 l -1.07894,-0.20536 -1.08583,-0.26648 c -0.73135,-0.16208 -1.43253,-0.40106 -2.14405,-0.61407 -1.40839,-0.47176 -2.79867,-1.01596 -4.12338,-1.70162 -1.34112,-0.65546 -2.60635,-1.46272 -3.81291,-2.35018 -1.21347,-0.88143 -2.30794,-1.92414 -3.32131,-3.03755 -1.0177,-1.1143 -1.87583,-2.37434 -2.61151,-3.70253 -0.72188,-1.33422 -1.31266,-2.75985 -1.649,-4.25965 -0.34672,-1.49463 -0.48384,-3.04533 -0.39415,-4.58826 0.0836,-1.54293 0.40275,-3.07982 0.94783,-4.52873 0.54076,-1.44893 1.25487,-2.83661 2.14234,-4.09925 0.90299,-1.24624 1.89135,-2.43901 3.02635,-3.47049 0.54679,-0.53646 1.15998,-1.00563 1.73526,-1.49636 l 1.72404,-1.36182 6.89876,-5.44554 1.13844,2.44678 -8.62282,2.17338 c -1.45927,0.35361 -2.8254,0.74086 -4.36055,1.06772 -0.69859,0.17334 -1.4955,0.30014 -2.28205,0.4295 -0.78914,0.14228 -1.54983,0.19142 -2.32777,0.29065 -6.20018,0.53127 -12.61681,-0.4821 -18.32368,-3.35581 -1.42908,-0.70807 -2.80469,-1.54552 -4.10183,-2.51146 -1.30919,-0.94783 -2.53129,-2.04401 -3.62143,-3.28249 -1.09358,-1.23159 -2.09317,-2.58131 -2.87197,-4.08459 -0.78743,-1.49462 -1.39199,-3.11085 -1.75164,-4.79868 -0.36483,-1.68783 -0.42604,-3.4455 -0.26305,-5.16179 0.0621,-0.86588 0.25269,-1.70418 0.42605,-2.54682 0.23469,-0.81329 0.48384,-1.68264 0.71929,-2.33378 l 2.91165,-8.39945 4.10786,2.91339 -6.99709,5.70252 -0.87451,0.7124 -0.43727,0.35618 -0.28892,0.23274 -0.22516,0.17088 -0.89784,0.68395 c -0.27251,0.22076 -0.69599,0.47951 -1.03923,0.71496 -1.44979,0.97629 -2.86163,1.72059 -4.38385,2.39762 -1.50758,0.66409 -3.0643,1.18846 -4.64002,1.62314 -1.58087,0.40277 -3.179,0.74342 -4.79263,0.92455 -1.61107,0.21221 -3.23421,0.29152 -4.85302,0.2846 -1.62055,-0.002 -3.23595,-0.13789 -4.84354,-0.3398 -1.60158,-0.24325 -3.20057,-0.52696 -4.76592,-0.97976 -1.56793,-0.43123 -3.10913,-0.98058 -4.60377,-1.65675 -1.5024,-0.65461 -2.95045,-1.45668 -4.33469,-2.3709 -1.39373,-0.89866 -2.69086,-1.97501 -3.89397,-3.15485 -1.21177,-1.1712 -2.27171,-2.52525 -3.1816,-3.97332 -0.46746,-0.71927 -0.8495,-1.49118 -1.22641,-2.26394 -0.32774,-0.76843 -0.68651,-1.65245 -0.90299,-2.31826 l -2.90216,-8.54865 4.43475,-0.0983 -2.79349,8.57797 -0.17431,0.53557 -0.2259,0.61925 c -0.14399,0.36395 -0.23714,0.67703 -0.4226,1.08325 l -0.57094,1.21518 c -0.19754,0.39329 -0.4183,0.73827 -0.62786,1.10826 -0.8797,1.43081 -1.89309,2.77882 -3.0755,3.93538 -1.17382,1.15999 -2.43213,2.22597 -3.79395,3.11085 -1.3575,0.88747 -2.76416,1.69127 -4.23636,2.32432 -2.92458,1.31437 -6.02078,2.14147 -9.14718,2.58219 -1.56449,0.22345 -3.14106,0.32256 -4.71589,0.35016 -1.57569,-0.005 -3.15226,-0.0604 -4.71416,-0.26995 -1.56449,-0.17944 -3.11346,-0.48729 -4.63742,-0.88575 -1.52741,-0.39241 -3.01685,-0.92542 -4.47267,-1.53345 -1.43944,-0.64597 -2.86077,-1.34627 -4.18292,-2.21822 -0.68047,-0.40363 -1.30488,-0.8935 -1.94826,-1.35233 l -1.79132,-1.38422 -7.13163,-5.52315 1.80425,-1.38855 3.25233,8.26487 c 0.13788,0.36568 0.26391,0.64081 0.41311,1.08065 l 0.36136,1.04963 c 0.20364,0.76154 0.43898,1.57569 0.52955,2.34845 0.23886,1.56104 0.27599,3.16778 0.0196,4.73056 -0.24667,1.5619 -0.70807,3.08239 -1.35923,4.5089 -0.64082,1.43512 -1.51706,2.74088 -2.48301,3.95177 -0.96853,1.21345 -2.07334,2.30618 -3.27041,3.27212 -1.18761,0.97976 -2.4623,1.84566 -3.80083,2.58564 -5.35153,2.99702 -11.5241,4.27173 -17.58975,4.03457 -1.51704,-0.0853 -3.0341,-0.21392 -4.5296,-0.48902 -1.511,-0.24753 -2.9194,-0.56491 -4.38471,-0.84349 l -8.71421,-1.7111 0.76499,-1.78269 7.22304,4.99619 1.80598,1.2497 c 0.65546,0.4778 1.19106,0.85297 1.79995,1.34887 1.229,0.99269 2.29584,2.07764 3.29716,3.26525 0.96249,1.21519 1.81891,2.52785 2.49075,3.94832 0.67529,1.41786 1.12378,2.9513 1.36872,4.51406 0.23812,1.56452 0.25787,3.1704 0.0337,4.74352 -0.23103,1.57053 -0.6848,3.10309 -1.31784,4.54943 -0.62701,1.45152 -1.44891,2.81161 -2.41485,4.04662 -0.96164,1.23678 -2.03626,2.38901 -3.23507,3.38427 -2.3683,2.03022 -5.11177,3.56107 -7.97596,4.68399 -1.4403,0.53731 -2.9039,1.02719 -4.39938,1.36094 -1.49721,0.36743 -2.87886,0.63994 -4.32434,0.96424 l -8.58141,1.87238 -0.0484,-3.61798 8.678,1.37732 2.16994,0.34412 1.08498,0.1726 0.59422,0.1017 0.5399,0.10097 1.07979,0.20096 1.16603,0.28115 c 0.79087,0.17431 1.52051,0.42003 2.27256,0.64338 1.48428,0.49162 2.95304,1.06342 4.36143,1.78616 1.42304,0.69255 2.77623,1.54723 4.06819,2.4942 1.30058,0.94008 2.47868,2.06386 3.57314,3.26785 1.09704,1.2057 2.03712,2.57442 2.82626,4.03369 0.77879,1.46357 1.41355,3.03325 1.77493,4.68741 0.37085,1.64989 0.51056,3.36444 0.3993,5.06692 -0.1061,1.7025 -0.47088,3.39375 -1.07806,4.97721 -0.6037,1.58435 -1.40233,3.08501 -2.37346,4.4382 -0.98406,1.33767 -2.06989,2.59512 -3.28767,3.67404 -0.58821,0.55975 -1.24712,1.05305 -1.85341,1.55415 l -1.74301,1.33594 -6.97294,5.34634 -2.2234,-4.77713 8.65211,-2.04315 2.1639,-0.50885 1.08153,-0.2544 1.15998,-0.24399 c 0.68651,-0.15866 1.52827,-0.28374 2.35193,-0.40708 0.82793,-0.13543 1.60155,-0.17431 2.40624,-0.26305 6.38559,-0.45191 12.94541,0.68737 18.75318,3.71805 1.45409,0.74601 2.85212,1.62571 4.16908,2.63563 1.32647,0.99443 2.5684,2.13285 3.68355,3.41187 1.11515,1.27386 2.1337,2.67189 2.92717,4.22861 0.80207,1.54725 1.41527,3.22127 1.77406,4.96858 0.36568,1.74734 0.41656,3.56281 0.23543,5.33171 -0.0707,0.89177 -0.27166,1.75337 -0.45624,2.61839 -0.2458,0.83401 -0.5123,1.73267 -0.74947,2.37175 l -2.92546,8.39512 -4.88059,-3.46188 6.99792,-5.70081 0.87453,-0.71326 0.43813,-0.3562 0.30099,-0.24227 0.22517,-0.17089 0.89781,-0.68392 c 0.26909,-0.21832 0.7098,-0.489 1.05911,-0.72878 1.48599,-1.00215 2.91421,-1.74905 4.46059,-2.44333 1.53085,-0.67703 3.10913,-1.21345 4.70727,-1.65764 1.60331,-0.41311 3.22386,-0.76154 4.85991,-0.94954 1.63351,-0.21905 3.27819,-0.30273 4.91945,-0.30014 1.64297,-0.002 3.28249,0.13275 4.91252,0.33376 1.62574,0.24227 3.24888,0.52782 4.83924,0.9832 1.5938,0.43294 3.16693,0.97113 4.69433,1.64815 1.53516,0.65375 3.02029,1.45927 4.44336,2.38209 1.43252,0.9073 2.77278,1.99832 4.01902,3.20143 1.25745,1.19276 2.36312,2.58219 3.30579,4.07855 0.48555,0.74171 0.88573,1.5386 1.27816,2.3381 0.18971,0.40363 0.34324,0.82452 0.51315,1.23675 l 0.23714,0.60804 0.188,0.53215 2.9979,8.51325 -5.9975,0.13275 2.69687,-8.60642 0.1682,-0.53817 0.23372,-0.65979 0.19142,-0.52953 c 0.0682,-0.18189 0.11295,-0.33464 0.22418,-0.5718 l 0.59682,-1.30836 c 0.20707,-0.42172 0.43123,-0.78051 0.64856,-1.17294 0.90644,-1.51014 1.9569,-2.93406 3.17815,-4.15529 1.21433,-1.22467 2.51663,-2.35018 3.92243,-3.28594 1.40148,-0.93834 2.85557,-1.78701 4.37263,-2.46059 3.01513,-1.39976 6.21225,-2.26824 9.43783,-2.74345 1.61451,-0.24056 3.24281,-0.35275 4.87026,-0.39069 1.62744,-0.005 3.25748,0.0433 4.87546,0.25012 1.62055,0.17602 3.22815,0.48382 4.81335,0.88833 1.58691,0.39844 3.14018,0.94264 4.66154,1.56706 1.50414,0.66927 2.98668,1.40321 4.37092,2.31397 0.71067,0.4226 1.36786,0.93402 2.04056,1.41527 l 1.79735,1.39028 7.12041,5.53782 -3.76719,2.89869 -3.16864,-8.29765 -0.19655,-0.51919 -0.0983,-0.25961 -0.0577,-0.15866 -0.022,-0.0655 -0.0433,-0.13202 -0.34845,-1.05391 c -0.21392,-0.81503 -0.46744,-1.74215 -0.55369,-2.55544 -0.23812,-1.67316 -0.25787,-3.3972 0.0337,-5.06606 0.27598,-1.66883 0.80036,-3.2799 1.51532,-4.77711 0.70463,-1.50584 1.64816,-2.86163 2.67965,-4.10874 1.03407,-1.24969 2.20183,-2.36312 3.45672,-3.34029 1.24624,-0.99095 2.57528,-1.85771 3.96297,-2.59339 1.3782,-0.75723 2.82021,-1.37475 4.28725,-1.89566 1.46187,-0.54334 2.97546,-0.90817 4.48563,-1.24366 1.52308,-0.27514 3.05134,-0.51834 4.59256,-0.59163 1.53689,-0.11222 3.07808,-0.0853 4.61067,0 1.52912,0.12321 3.05567,0.29148 4.55374,0.60544 1.5162,0.28633 2.90905,0.6382 4.3692,0.95387 l 8.67368,1.91463 -0.70118,1.6335 -5.84312,-4.27261 -2.92199,-2.1363 c -0.52609,-0.38118 -0.96335,-0.74687 -1.45323,-1.116 -0.47607,-0.38121 -0.94524,-0.82278 -1.41529,-1.23245 -0.884,-0.8728 -1.73697,-1.78097 -2.46401,-2.79434 -0.76414,-0.98492 -1.36097,-2.09058 -1.90688,-3.2092 -0.48299,-1.14879 -0.92974,-2.32344 -1.1419,-3.5576 -0.23714,-1.22296 -0.35187,-2.47438 -0.27513,-3.71805 0.0447,-1.24366 0.26132,-2.47697 0.61148,-3.6637 0.32774,-1.19621 0.82968,-2.3338 1.39632,-3.42824 0.58733,-1.08584 1.28073,-2.1087 2.05953,-3.06085 0.78569,-0.94612 1.64211,-1.83185 2.57874,-2.62358 0.46314,-0.4019 0.93749,-0.79 1.43942,-1.14102 0.48472,-0.37605 1.00391,-0.70032 1.5188,-1.02978 1.03408,-0.6546 2.12422,-1.21173 3.22988,-1.72662 l 1.6904,-0.70033 1.72922,-0.59336 1.75856,-0.49504 1.78095,-0.40106" />
        <path
           transform="matrix(0.26458333,0,0,0.26458333,-52.775539,73.5467)"
           inkscape:connector-curvature="0"
           id="path4581"
           d="m 1108.4252,1024.994 c -9.019,-18.7312 -33.6801,-38.06674 -59.2529,-46.45733 -38.2866,-12.56203 -85.78107,-6.86453 -115.96382,13.91119 l -6.17907,4.25324 0.49517,-13.39996 c 0.3881,-10.50252 -0.14185,-15.49702 -2.45065,-23.09845 -11.26655,-37.0926 -55.04192,-64.56487 -103.7588,-65.11627 -8.64286,-0.0979 -19.19701,0.34071 -23.45366,0.97452 l -7.73937,1.15239 5.35369,-5.9259 c 13.17061,-14.57829 19.41077,-30.14203 19.41077,-48.41291 0,-20.85266 -6.67284,-35.76996 -23.39277,-52.29515 -8.98436,-8.87971 -14.35114,-12.8188 -23.75009,-17.43198 -11.97803,-5.87903 -30.43773,-11.81026 -36.757,-11.81026 -6.35674,0 -3.0828,-2.26559 7.04357,-4.8742 26.67061,-6.87051 51.79203,-25.75423 61.66334,-46.3522 9.72305,-20.28859 9.81887,-38.8441 0.29982,-58.05931 -5.98038,-12.07203 -14.80848,-21.56786 -30.48716,-32.79312 -6.46168,-4.62628 -11.59096,-8.54354 -11.3984,-8.70501 0.19256,-0.16149 8.70726,1.28751 18.92154,3.21998 33.8683,6.40763 63.26493,2.66906 89.70139,-11.40798 21.00478,-11.18474 35.26931,-27.5102 41.25441,-47.21483 4.0814,-13.43713 3.13412,-27.512 -2.89701,-43.04409 -2.42022,-6.23282 -4.20176,-11.53103 -3.95899,-11.77381 0.24279,-0.24277 5.90887,3.68261 12.59132,8.72307 32.89753,24.81412 68.03863,32.668 108.71007,24.29622 35.5444,-7.31645 63.3369,-29.03849 73.3104,-57.29795 l 2.6208,-7.42608 6.2997,13.14037 c 11.518,24.02537 33.0145,41.02959 63.7965,50.46443 11.8814,3.64173 14.7543,3.94699 37.8571,4.02265 22.013,0.0721 26.3655,-0.31217 36.4286,-3.21601 13.9832,-4.03505 29.7301,-11.45608 38.4781,-18.13355 6.508,-4.96764 8.8314,-6.14975 7.338,-3.73335 -0.4296,0.69509 -1.3893,5.55869 -2.1327,10.80799 -5.2575,37.12504 22.6585,71.77637 69.2442,85.95084 11.4957,3.49775 15.0223,3.89741 34.9295,3.95851 18.523,0.0569 24.3189,-0.473 35.4536,-3.24111 7.3209,-1.81999 13.5746,-3.0452 13.8971,-2.72268 0.3225,0.32251 -2.6406,3.04734 -6.5847,6.05516 -23.254,17.73376 -34.3909,43.46562 -29.3258,67.75779 4.6288,22.19973 20.2884,41.22584 43.5891,52.95987 12.4269,6.25806 20.5187,8.60394 44.9661,13.03594 12.4903,2.26435 22.9209,4.32826 23.1792,4.58649 0.2582,0.25823 -8.354,2.25776 -19.1383,4.44337 -24.8121,5.02864 -38.5786,9.55843 -50.322,16.55821 -29.8709,17.80495 -43.933,47.39562 -36.3543,76.49996 4.2317,16.25084 15.4237,30.41542 35.2759,44.64526 6.0854,4.36197 10.8494,8.1458 10.5867,8.4085 -0.2627,0.26271 -7.8131,-1.26699 -16.7787,-3.39933 -14.1699,-3.37011 -19.1959,-3.86983 -38.4439,-3.82223 -19.8409,0.0491 -23.4492,0.45259 -34.7094,3.88153 -35.0265,10.66626 -59.4241,32.42316 -66.713,59.49231 -2.1432,7.95926 -2.1488,24.92268 -0.01,32.86266 0.8915,3.31092 1.4178,6.22296 1.1696,6.4712 -0.2482,0.24824 -5.0652,-2.64583 -10.7043,-6.43126 -23.1227,-15.5219 -57.3479,-22.7721 -88.3179,-18.7091 -15.2809,2.00473 -37.35,9.21876 -48.864,15.97282 -13.0231,7.63937 -29.4402,24.71834 -35.0874,36.50214 l -4.7702,9.9537 -4.1682,-8.6569 z"
           style="fill:#ffffff;fill-opacity:0.98431373;stroke-width:3.75026846" />
      </g>
      <g
         id="g4613">
        <g
           id="g4542">
          <path
             d="m 12.753337,199.10673 q -10.7160986,11.94665 -27.431162,11.94665 -13.536125,0 -21.124559,-9.84445 -6.973155,-9.12663 -6.973155,-23.68822 0,-3.12767 0.358912,-6.66552 1.743289,-15.58705 12.920847,-26.86715 11.433924,-11.4852 26.1493324,-11.4852 22.2525686,0 31.4817456,15.94596 l -19.3812703,9.84446 q -3.9480364,-8.51135 -13.3310322,-8.51135 -9.5880885,0 -15.9972385,6.51169 -6.050238,6.20406 -7.485887,16.4587 -0.358913,2.35857 -0.358913,3.99931 0,7.69098 4.306949,13.17721 4.512042,5.79387 11.639017,5.79387 7.7422529,0 13.5873978,-6.25533 z"
             style="stroke-width:2.62518787"
             id="path14"
             inkscape:connector-curvature="0" />
          <path
             d="m 98.841039,148.4488 -4.409495,2.92258 c 1.43565,4.13603 2.153475,7.67388 2.153475,10.61355 0,2.11929 -0.32473,5.07605 -0.974191,8.87026 -2.050928,11.96375 -6.494605,21.48347 -13.331032,28.55918 -7.485887,7.75934 -17.039794,11.63901 -28.66172,11.63901 -9.502633,0 -16.920156,-3.28148 -22.252569,-9.84445 -4.922227,-6.08442 -7.383341,-13.98049 -7.383341,-23.68822 0,-2.08511 0.119638,-4.30695 0.358913,-6.66552 1.230557,-10.39137 5.77678,-19.34708 13.638671,-26.86715 8.066984,-7.6568 17.279069,-11.4852 27.636255,-11.4852 15.655417,0 26.730429,5.31532 33.225034,15.94596 z"
             style="fill:#f9b93d;fill-opacity:1;stroke-width:2.62518787"
             id="path16"
             inkscape:connector-curvature="0"
             sodipodi:nodetypes="ccsccscsccsc" />
          <path
             d="m 106.94221,208.64354 q -8.460078,0.87165 -19.22745,2.71748 v -0.15382 q 0,-0.71782 2.717479,-10.35719 3.178939,-11.12628 5.691326,-18.20198 4.204405,-11.74156 9.588085,-23.73949 2.05093,-4.51204 4.61459,-9.383 -5.43496,0.61528 -10.15209,1.17928 l 4.51204,-15.38196 q 10.66482,-0.82037 25.48278,-1.69201 8.81899,-0.51273 28.55917,-1.12801 l -4.71713,14.9205 h -5.94769 q -16.56125,0 -25.94424,0.7691 l 3.23021,1.84583 q -0.7691,1.69202 -3.79422,8.87027 -0.82037,1.84583 -1.84583,4.35822 l 22.09875,-0.82037 -4.66586,13.3823 -21.79112,0.7691 q -1.17928,3.74294 -1.8971,5.89642 -4.66586,13.33103 -6.5117,26.14933 z"
             style="stroke-width:2.62518787"
             id="path18"
             inkscape:connector-curvature="0" />
          <path
             d="m 154.26737,196.64561 1.74329,-5.84514 q 0.61527,-1.99966 2.61493,-8.15244 3.07639,-9.22918 9.69063,-23.73949 1.64075,-3.79422 5.1786,-10.7161 -5.58878,0.92292 -16.97143,2.51238 l 4.51204,-15.38196 q 8.04989,-0.71782 20.25291,-1.69201 12.76703,-0.97419 22.40639,-1.12801 l -4.71713,14.9205 q -9.84446,0 -15.58706,0.20509 l 4.46077,2.40984 q -1.53819,2.97385 -3.89676,8.87027 -2.92257,7.22952 -8.10117,23.73949 -1.84583,6.10151 -3.53785,12.66448 1.64075,-0.10255 5.69133,-0.30764 l 7.94734,-0.30764 -4.71713,14.97178 q -11.99793,0 -15.63833,0.20509 -5.89641,0.41018 -26.81588,3.12766 l 4.51204,-15.43323 5.12732,-0.51273 q 2.20475,-0.15382 5.84515,-0.41019 z"
             style="stroke-width:2.62518787"
             id="path20"
             inkscape:connector-curvature="0" />
          <path
             d="m 260.71053,132.50284 -4.71713,14.9205 h -6.15279 q -9.02408,0 -15.63832,0.20509 l 4.51204,2.40984 q -4.9735,9.43427 -12.0492,32.60976 -2.61494,8.81899 -6.40915,23.94458 l -0.56401,0.15382 q -6.87061,1.28183 -18.86854,4.61459 3.74295,-14.3565 8.6139,-28.71299 2.97385,-8.92154 9.74191,-23.73949 1.58947,-3.69167 5.12732,-10.7161 -9.69063,0.92292 -22.15002,2.51238 l 4.56331,-15.38196 q 11.12629,-0.82037 25.43151,-1.69201 8.76772,-0.51273 28.55917,-1.12801 z"
             style="stroke-width:2.62518787"
             id="path22"
             inkscape:connector-curvature="0" />
        </g>
        <g
           id="text4535"
           style="font-style:normal;font-variant:normal;font-weight:normal;font-stretch:normal;font-size:29.23433495px;line-height:1.25;font-family:Adventure;-inkscape-font-specification:Adventure;letter-spacing:0px;word-spacing:0px;fill:#000000;fill-opacity:1;stroke:none;stroke-width:1.91864061"
           aria-label="Kariérní veletrh">
          <path
             id="path4544"
             style="stroke-width:1.91864061"
             d="m 23.869606,110.05459 -5.410065,1.31326 q 0.199844,-0.92785 0.199844,-1.88424 0,-1.78432 -0.670905,-3.38308 -0.799377,-1.95561 -2.241109,-2.51232 l -0.371139,1.21334 q -0.442512,1.48455 -1.541654,5.75265 l -5.4100652,1.32754 q 0.9278476,-3.4259 2.1269122,-7.08019 0.927847,-2.76927 2.697895,-6.609133 1.356085,-2.940563 4.125353,-7.893841 l 0.542434,-0.0571 q 1.627302,-0.185569 3.739939,-0.31404 -1.49883,2.726444 -4.025431,8.26498 -0.0571,0.128471 -0.471061,1.170515 3.982607,-1.670125 7.636899,-5.595634 1.613028,-1.741498 2.597973,-3.468722 l 0.585258,-0.0571 q 1.613027,-0.185569 3.71139,-0.31404 -2.055539,4.682061 -7.023092,8.778865 -2.5266,2.09836 -5.352966,3.12613 1.827145,0.92785 3.240329,2.96912 1.484556,2.15546 1.484556,4.12535 0,0.52816 -0.171295,1.12769 z"
             inkscape:connector-curvature="0" />
          <path
             id="path4546"
             style="stroke-width:1.91864061"
             d="m 36.474058,93.596003 q -0.585257,0.827926 -2.455227,3.968333 l -1.02777,1.741498 2.326757,-0.04282 0.528159,0.413963 q 0.656631,-1.441732 0.656631,-5.295868 0,-0.585258 -0.02855,-0.785102 z m -1.170515,8.236427 -3.468722,0.1713 q -1.070594,1.69867 -1.955617,4.42512 l -4.325197,1.07059 q 0.185569,-0.71373 1.6844,-3.75421 l 1.042044,-2.11264 q 1.470281,-2.983386 4.624963,-7.365682 1.727224,-2.412403 3.411624,-4.282373 0.999221,-0.02855 2.954838,-0.128471 l 0.09992,1.456007 q 0.09992,1.655851 0.09992,3.18323 0,3.011936 -0.442512,5.595639 -0.157021,0.44251 -0.68518,3.72566 -0.214119,1.35609 -0.442512,2.21256 l -4.325197,1.05632 q 0.456787,-1.47028 1.727224,-5.25305 z"
             inkscape:connector-curvature="0" />
          <path
             id="path4548"
             style="stroke-width:1.91864061"
             d="m 55.102382,95.066285 q -0.713729,3.811312 -4.881906,4.781983 2.669346,2.912012 4.439394,5.852572 l -3.939783,1.42746 q -1.698675,-3.45445 -4.539316,-6.76615 L 45.595513,99.876817 45.2101,101.06161 q -0.399689,1.28471 -1.427458,5.35296 l -0.128471,0.0143 q -1.827146,0.35686 -4.211001,0.99922 0.799377,-3.08331 1.912794,-6.36646 0.685179,-2.069817 2.155461,-5.281597 0.299766,-0.642356 0.856474,-1.741498 -0.471061,0.15702 -0.827925,0.242668 l -0.8422,-3.911234 q 2.940563,-0.442512 5.08175,-0.442512 0.485335,0 1.099142,0.0571 1.698675,0.128471 1.941343,0.171295 0.899298,0.142746 1.984166,0.613807 2.398129,0.99922 2.398129,3.425898 0,0.34259 -0.09992,0.87075 z m -3.482997,-0.371139 q 0,-0.913573 -1.213339,-1.356085 -0.356865,-0.142746 -1.156241,-0.142746 h -0.299766 q -0.713729,0.02855 -1.912794,0.371139 l 0.813651,0.413963 q -0.413962,0.728003 -0.856474,1.798596 -0.02855,0.07137 -0.456787,1.227614 l 0.984946,-0.02855 q 1.52738,-0.04282 2.583699,-0.442512 1.513105,-0.599532 1.513105,-1.841419 z"
             inkscape:connector-curvature="0" />
          <path
             id="path4550"
             style="stroke-width:1.91864061"
             d="m 56.50129,104.21629 0.399689,-1.29899 q 0.128471,-0.44251 0.570983,-1.81287 0.685179,-2.055538 2.169736,-5.295867 0.356864,-0.8422 1.141966,-2.383855 -1.241889,0.199844 -3.768489,0.556709 l 0.999221,-3.425899 q 1.798596,-0.15702 4.510766,-0.371139 2.840641,-0.214119 4.996102,-0.256942 l -1.056318,3.325976 q -2.198285,0 -3.468723,0.04282 l 0.984946,0.542434 q -0.34259,0.65663 -0.856475,1.969892 -0.65663,1.613027 -1.812871,5.295871 -0.413963,1.35609 -0.785102,2.81209 0.371139,-0.0143 1.270438,-0.0714 l 1.770047,-0.0571 -1.056318,3.32598 q -2.669346,0 -3.482997,0.0428 -1.313261,0.0999 -5.966774,0.69946 l 0.999221,-3.44018 1.141966,-0.11419 q 0.49961,-0.0285 1.298986,-0.0857 z"
             inkscape:connector-curvature="0" />
          <path
             id="path4552"
             style="stroke-width:1.91864061"
             d="m 79.012298,89.927437 -1.056319,3.325976 h -1.313261 q -3.697116,0 -5.781204,0.171295 l 0.713729,0.413963 q -0.171295,0.371139 -0.8422,1.969892 -0.18557,0.413962 -0.413963,0.970671 l 4.924729,-0.18557 -1.042044,2.983387 -4.853356,0.171295 q -0.52816,1.555934 -1.156241,3.954054 1.984166,-0.11419 5.938224,-0.29976 l -1.084868,3.29743 h -2.455227 q -2.512326,0 -7.394231,0.79937 v -0.0428 q 0,-0.15702 0.599532,-2.29821 0.713729,-2.48378 1.270437,-4.05398 0.942122,-2.626521 2.141187,-5.295867 0.456786,-0.999221 1.02777,-2.084089 -1.213339,0.128471 -2.269658,0.256943 l 1.013495,-3.425899 q 2.36958,-0.185569 5.667007,-0.371139 1.969892,-0.114197 6.366462,-0.256942 z M 70.13351,86.358792 q 4.824808,-1.898519 8.536198,-2.812092 l 0.285491,0.34259 q -0.685179,2.426679 -1.199064,3.89696 -3.825587,0.442512 -8.222157,1.313261 l -0.513885,0.04282 q 0.499611,-1.398909 1.113417,-2.783543 z"
             inkscape:connector-curvature="0" />
          <path
             id="path4554"
             style="stroke-width:1.91864061"
             d="m 89.304267,95.066285 q -0.713729,3.811312 -4.881905,4.781983 2.669346,2.912012 4.439393,5.852572 l -3.939783,1.42746 q -1.698675,-3.45445 -4.539316,-6.76615 l -0.585258,-0.485333 -0.385413,1.184793 q -0.399688,1.28471 -1.427458,5.35296 l -0.128471,0.0143 q -1.827146,0.35686 -4.211001,0.99922 0.799377,-3.08331 1.912794,-6.36646 0.68518,-2.069817 2.155461,-5.281597 0.299766,-0.642356 0.856475,-1.741498 -0.471061,0.15702 -0.827926,0.242668 l -0.8422,-3.911234 q 2.940563,-0.442512 5.08175,-0.442512 0.485335,0 1.099142,0.0571 1.698675,0.128471 1.941343,0.171295 0.899298,0.142746 1.984166,0.613807 2.398129,0.99922 2.398129,3.425898 0,0.34259 -0.09992,0.87075 z M 85.82127,94.695146 q 0,-0.913573 -1.213339,-1.356085 -0.356864,-0.142746 -1.156241,-0.142746 h -0.299766 q -0.713729,0.02855 -1.912793,0.371139 l 0.813651,0.413963 q -0.413963,0.728003 -0.856475,1.798596 -0.02855,0.07137 -0.456787,1.227614 l 0.984946,-0.02855 q 1.52738,-0.04282 2.583699,-0.442512 1.513105,-0.599532 1.513105,-1.841419 z"
             inkscape:connector-curvature="0" />
          <path
             id="path4556"
             style="stroke-width:1.91864061"
             d="m 92.273383,90.31285 4.196726,-0.942122 q 1.241888,4.953279 1.784322,9.278476 0.07137,0 0.513885,-1.056319 l 0.456786,-1.113417 q 0.742278,-1.741499 3.268878,-6.309364 l 0.47106,-0.04282 q 1.28471,-0.157021 2.96911,-0.256943 -1.52738,2.783543 -3.22605,6.60913 -0.59953,1.384634 -1.78432,5.295869 -0.32832,1.04204 -1.241891,4.19672 l -4.339472,1.05632 q 0.0571,-0.24267 0.0571,-0.74228 0,-2.45522 -0.613807,-6.509202 -0.228394,-1.598752 -0.399688,-1.598752 l -1.498831,3.597194 q -1.02777,2.44095 -1.241888,4.59641 l -4.325197,1.07059 q 0.756552,-2.79781 1.698674,-5.667 0.728004,-2.184011 2.155462,-5.295869 0.628081,-1.37036 1.741498,-3.425899 0.07137,-0.214119 0.07137,-0.34259 0,-0.371139 -0.299766,-1.18479 -0.371139,-1.042044 -0.413963,-1.213339 z"
             inkscape:connector-curvature="0" />
          <path
             id="path4558"
             style="stroke-width:1.91864061"
             d="m 103.20771,104.21629 0.39969,-1.29899 q 0.12847,-0.44251 0.57098,-1.81287 0.68518,-2.055538 2.16974,-5.295867 0.35686,-0.8422 1.14196,-2.383855 -1.24188,0.199844 -3.76848,0.556709 l 0.99922,-3.425899 q 1.79859,-0.15702 4.51076,-0.371139 2.84064,-0.214119 4.99611,-0.256942 l -1.05632,3.325976 q -2.19829,0 -3.46873,0.04282 l 0.98495,0.542434 q -0.34259,0.65663 -0.85647,1.969892 -0.65664,1.613027 -1.81288,5.295871 -0.41396,1.35609 -0.7851,2.81209 0.37114,-0.0143 1.27044,-0.0714 l 1.77005,-0.0571 -1.05632,3.32598 q -2.66935,0 -3.483,0.0428 -1.31326,0.0999 -5.966772,0.69946 l 0.999222,-3.44018 1.14196,-0.11419 q 0.49962,-0.0285 1.29899,-0.0857 z M 106.862,86.358792 q 4.82481,-1.898519 8.5362,-2.812092 l 0.28549,0.34259 q -0.68518,2.426679 -1.19906,3.89696 -3.82559,0.442512 -8.22216,1.313261 l -0.51388,0.04282 q 0.49961,-1.398909 1.11341,-2.783543 z"
             inkscape:connector-curvature="0" />
          <path
             id="path4560"
             style="stroke-width:1.91864061"
             d="m 127.30319,106.47167 -4.32519,1.05632 q 0.17129,-0.39969 0.34259,-5.88113 0.11419,-4.796253 0.11419,-8.935881 0,-1.456007 -0.0428,-1.770047 l 4.18245,-0.942122 q 0.0714,0.228393 0.0714,1.027769 0,2.626522 -0.75655,10.006481 1.41318,-2.583701 3.16896,-5.352969 2.28393,-3.582919 3.55437,-4.881905 l 0.47106,-0.04282 q 1.28471,-0.15702 2.96911,-0.256942 -1.08487,1.298986 -2.36958,3.611468 -0.68518,1.270437 -2.05554,3.797038 l -2.51232,4.42511 q -1.6844,2.86919 -2.8121,4.13963 z"
             inkscape:connector-curvature="0" />
          <path
             id="path4562"
             style="stroke-width:1.91864061"
             d="m 148.32965,89.927437 -1.05632,3.325976 h -1.31326 q -3.69712,0 -5.7812,0.171295 l 0.71373,0.413963 q -0.1713,0.371139 -0.84221,1.969892 -0.18556,0.413962 -0.41396,0.970671 l 4.92473,-0.18557 -1.04204,2.983387 -4.85336,0.171295 q -0.52816,1.555934 -1.15624,3.954054 1.98417,-0.11419 5.93822,-0.29976 l -1.08486,3.29743 h -2.45523 q -2.51233,0 -7.39423,0.79937 v -0.0428 q 0,-0.15702 0.59953,-2.29821 0.71373,-2.48378 1.27044,-4.05398 0.94212,-2.626521 2.14118,-5.295867 0.45679,-0.999221 1.02777,-2.084089 -1.21334,0.128471 -2.26965,0.256943 l 1.01349,-3.425899 q 2.36958,-0.185569 5.66701,-0.371139 1.96989,-0.114197 6.36646,-0.256942 z"
             inkscape:connector-curvature="0" />
          <path
             id="path4564"
             style="stroke-width:1.91864061"
             d="m 149.97123,96.779234 q -0.1142,0.413963 -0.58526,1.955617 l -0.9564,2.983389 q -0.37114,1.22761 -0.58526,1.98416 1.98417,-0.11419 5.93823,-0.29976 l -1.08487,3.29743 h -2.45523 q -2.51232,0 -7.39423,0.79937 v -0.0428 q 0,-0.15702 0.59953,-2.29821 0.71373,-2.51232 1.27044,-4.05398 0.94212,-2.626521 2.14119,-5.295867 0.18557,-0.456787 0.71373,-1.655851 l 1.01349,-2.355306 q 0.39969,-0.970671 0.67091,-1.427457 l 0.71373,-0.0571 h 0.34259 q 0.49961,0 1.24188,-0.09992 l 1.08487,-0.171295 q -0.14274,0.256943 -0.74228,1.755773 l -1.59875,4.08253 q -0.0571,0.199844 -0.32831,0.899298 z"
             inkscape:connector-curvature="0" />
          <path
             id="path4566"
             style="stroke-width:1.91864061"
             d="m 170.1983,89.927437 -1.05632,3.325976 h -1.31326 q -3.69711,0 -5.7812,0.171295 l 0.71373,0.413963 q -0.1713,0.371139 -0.8422,1.969892 -0.18557,0.413962 -0.41397,0.970671 l 4.92473,-0.18557 -1.04204,2.983387 -4.85336,0.171295 q -0.52816,1.555934 -1.15624,3.954054 1.98417,-0.11419 5.93823,-0.29976 l -1.08487,3.29743 h -2.45523 q -2.51232,0 -7.39423,0.79937 v -0.0428 q 0,-0.15702 0.59953,-2.29821 0.71373,-2.48378 1.27044,-4.05398 0.94212,-2.626521 2.14119,-5.295867 0.45678,-0.999221 1.02777,-2.084089 -1.21334,0.128471 -2.26966,0.256943 l 1.01349,-3.425899 q 2.36958,-0.185569 5.66701,-0.371139 1.96989,-0.114197 6.36646,-0.256942 z"
             inkscape:connector-curvature="0" />
          <path
             id="path4568"
             style="stroke-width:1.91864061"
             d="m 181.54659,89.927437 -1.05632,3.325976 h -1.37036 q -2.01271,0 -3.48299,0.04282 l 0.99922,0.542434 q -1.09915,2.098363 -2.68362,7.265763 -0.57099,1.95562 -1.42746,5.32442 l -0.1142,0.0428 q -1.54165,0.28549 -4.211,1.02777 0.8422,-3.1975 1.92707,-6.39501 0.65663,-1.998444 2.16973,-5.295871 0.34259,-0.813651 1.14197,-2.383855 -2.16974,0.199844 -4.939,0.556709 l 1.01349,-3.425899 q 2.48378,-0.185569 5.66701,-0.371139 1.95562,-0.114197 6.36646,-0.256942 z"
             inkscape:connector-curvature="0" />
          <path
             id="path4570"
             style="stroke-width:1.91864061"
             d="m 192.88061,95.066285 q -0.71373,3.811312 -4.88191,4.781983 2.66935,2.912012 4.43939,5.852572 l -3.93978,1.42746 q -1.69867,-3.45445 -4.53931,-6.76615 l -0.58526,-0.485333 -0.38542,1.184793 q -0.39968,1.28471 -1.42745,5.35296 l -0.12847,0.0143 q -1.82715,0.35686 -4.211,0.99922 0.79937,-3.08331 1.91279,-6.36646 0.68518,-2.069817 2.15546,-5.281597 0.29977,-0.642356 0.85647,-1.741498 -0.47106,0.15702 -0.82792,0.242668 l -0.8422,-3.911234 q 2.94056,-0.442512 5.08175,-0.442512 0.48533,0 1.09914,0.0571 1.69868,0.128471 1.94134,0.171295 0.8993,0.142746 1.98417,0.613807 2.39813,0.99922 2.39813,3.425898 0,0.34259 -0.0999,0.87075 z m -3.483,-0.371139 q 0,-0.913573 -1.21334,-1.356085 -0.35686,-0.142746 -1.15624,-0.142746 h -0.29977 q -0.71373,0.02855 -1.91279,0.371139 l 0.81365,0.413963 q -0.41396,0.728003 -0.85647,1.798596 -0.0285,0.07137 -0.45679,1.227614 l 0.98495,-0.02855 q 1.52738,-0.04282 2.58369,-0.442512 1.51311,-0.599532 1.51311,-1.841419 z"
             inkscape:connector-curvature="0" />
          <path
             id="path4572"
             style="stroke-width:1.91864061"
             d="m 209.51049,89.941711 q -1.52738,2.769268 -3.22605,6.60913 -0.59953,1.384634 -1.78432,5.295869 -0.32832,1.04204 -1.24189,4.19672 l -4.33947,1.05632 q 0.79937,-2.62652 1.72722,-5.25304 0.0856,-0.24267 0.54243,-1.48456 l -4.43939,0.51389 -0.28549,0.97067 q -0.35686,1.18479 -1.24189,4.59641 l -4.3252,1.05632 q 0.74228,-2.74072 1.69868,-5.65273 0.74228,-2.226835 2.15546,-5.295869 1.08487,-2.355306 3.3117,-6.309364 l 0.42824,-0.04282 q 1.29899,-0.157021 2.99766,-0.256943 -1.19906,2.184011 -3.22605,6.60913 -0.0428,0.09992 -0.37114,0.942122 l 3.95406,-0.49961 0.41396,0.785101 q 1.39891,-3.240329 3.81131,-7.536977 l 0.47106,-0.04282 q 1.28471,-0.157021 2.96911,-0.256943 z"
             inkscape:connector-curvature="0" />
        </g>
      </g>
      <text
         xml:space="preserve"
         style="font-style:normal;font-variant:normal;font-weight:normal;font-stretch:normal;font-size:10.58333302px;line-height:1.25;font-family:Adventure;-inkscape-font-specification:Adventure;letter-spacing:0px;word-spacing:0px;fill:#000000;fill-opacity:1;stroke:none;stroke-width:0.69458097"
         x="146.60753"
         y="281.80106"
         id="text4589"><tspan
           sodipodi:role="line"
           id="tspan4587"
           x="146.60753"
           y="291.86917"
           style="stroke-width:0.69458097" /></text>
    </g>
  </g>
</svg>
