<?xml version="1.0" encoding="UTF-8" standalone="no"?>
<!-- Created with Inkscape (http://www.inkscape.org/) -->

<svg
   xmlns:dc="http://purl.org/dc/elements/1.1/"
   xmlns:cc="http://creativecommons.org/ns#"
   xmlns:rdf="http://www.w3.org/1999/02/22-rdf-syntax-ns#"
   xmlns:svg="http://www.w3.org/2000/svg"
   xmlns="http://www.w3.org/2000/svg"
   xmlns:sodipodi="http://sodipodi.sourceforge.net/DTD/sodipodi-0.dtd"
   xmlns:inkscape="http://www.inkscape.org/namespaces/inkscape"
   width="128.64752mm"
   height="97.749603mm"
   viewBox="0 0 455.83768 346.35686"
   id="svg2"
   version="1.1"
   inkscape:version="0.91 r13725"
   sodipodi:docname="logo-grey.svg">
  <defs
     id="defs4" />
  <sodipodi:namedview
     id="base"
     pagecolor="#ffffff"
     bordercolor="#666666"
     borderopacity="1.0"
     inkscape:pageopacity="0.0"
     inkscape:pageshadow="2"
     inkscape:zoom="1.4"
     inkscape:cx="120.40467"
     inkscape:cy="268.10284"
     inkscape:document-units="px"
     inkscape:current-layer="layer1"
     showgrid="false"
     fit-margin-top="0"
     fit-margin-left="0"
     fit-margin-right="0"
     fit-margin-bottom="0"
     inkscape:window-width="1920"
     inkscape:window-height="1137"
     inkscape:window-x="1358"
     inkscape:window-y="-8"
     inkscape:window-maximized="1" />
  <metadata
     id="metadata7">
    <rdf:RDF>
      <cc:Work
         rdf:about="">
        <dc:format>image/svg+xml</dc:format>
        <dc:type
           rdf:resource="http://purl.org/dc/dcmitype/StillImage" />
        <dc:title></dc:title>
      </cc:Work>
    </rdf:RDF>
  </metadata>
  <g
     inkscape:label="Vrstva 1"
     inkscape:groupmode="layer"
     id="layer1"
     transform="translate(-125.6526,-137.75521)">
    <g
       transform="matrix(1.25,0,0,-1.25,125.28151,484.71021)"
       inkscape:label="ink_ext_XXXXXX"
       id="g8076"
       style="fill:#b2b2b2;fill-opacity:1;stroke:none">
      <g
         transform="scale(0.1,0.1)"
         id="g8078"
         style="fill:#b2b2b2;fill-opacity:1;stroke:none">
        <path
           inkscape:connector-curvature="0"
           id="path8080"
           style="fill:#b2b2b2;fill-opacity:1;fill-rule:evenodd;stroke:none"
           d="m 3141.77,1921.45 146.69,124.09 21.65,-18.28 21.64,-18.76 22.13,-19.24 21.64,-19.24 21.64,-19.72 20.68,-20.19 10.11,-10.59 10.1,-10.58 9.61,-10.58 9.14,-11.06 9.14,-11.07 8.66,-11.06 8.18,-11.54 7.69,-11.54 7.21,-12.03 6.74,-12.02 6.25,-12.51 5.29,-12.5 5.29,-12.99 4.33,-12.99 3.85,-13.46 2.89,-13.47 2.4,-13.95 1.44,-14.43 0.48,-14.43 0,-14.91 -0.96,-14.91 -1.44,-13.95 -1.92,-13.46 -2.41,-13.47 -3.37,-12.5 -3.36,-12.03 -4.33,-11.54 -4.81,-11.06 -5.29,-10.59 -5.77,-10.1 -5.77,-9.61 -6.74,-9.14 -7.21,-8.66 -7.22,-8.18 -8.17,-7.69 -8.18,-7.22 -8.66,-6.73 -9.14,-6.26 -9.14,-5.76 -9.61,-5.78 -10.1,-4.81 -10.11,-4.81 -10.57,-3.84 -11.07,-3.85 -11.06,-3.37 -11.06,-2.88 -11.54,-2.89 -12.03,-1.92 -12.03,-1.93 -12.02,-1.44 -12.5,-0.96 -12.51,-0.96 -13.95,0 -13.95,0.48 -13.94,0.96 -13.47,1.44 -12.99,2.41 -12.98,2.4 -12.51,3.37 -12.5,3.85 -12.03,4.33 -11.54,4.8 -11.06,5.29 -11.07,6.26 -10.58,6.25 -10.09,6.73 -9.63,7.22 -9.14,8.18 -9.13,8.17 -8.18,8.66 -7.69,9.14 -7.22,9.62 -7.21,9.62 -6.26,10.58 -5.77,10.58 -4.81,11.06 -4.8,11.55 -3.86,12.02 -3.36,12.02 -2.89,12.51 -2.4,12.98 -1.44,12.99 -0.49,13.47 0,13.46 0.49,16.36 1.92,15.87 2.4,15.39 3.37,15.39 4.33,14.91 5.29,14.91 6.25,14.43 7.22,14.43 8.17,13.95 9.14,13.95 9.62,13.46 11.06,13.47 11.55,13.47 12.98,12.98 13.95,12.99 14.43,12.99 z m -310.71,28.37 15.39,20.2 13.95,19.72 13.47,20.21 12.02,19.71 11.55,20.2 10.1,20.69 9.62,20.68 8.66,20.68 7.69,21.16 7.22,21.64 6.25,22.13 5.29,22.61 4.81,23.08 4.33,23.57 3.36,24.05 2.89,25.01 3.36,-12.51 2.89,-12.98 2.41,-13.47 1.92,-13.95 0.96,-14.91 0.48,-14.91 0,-15.87 -0.48,-15.87 -1.44,-16.36 -1.44,-16.83 -2.41,-16.83 -2.89,-17.32 -2.88,-17.8 -3.85,-17.79 -4.81,-17.8 -4.81,-18.27 -5.29,-17.8 -5.77,-18.27 -6.25,-18.28 -7.22,-18.28 -7.21,-18.27 -7.7,-17.8 -8.17,-18.28 -9.14,-17.8 -9.14,-17.79 -9.62,-17.32 -10.1,-17.31 -10.58,-16.83 -10.58,-16.36 -11.54,-16.35 -12.03,-15.87 -12.02,-15.39 -10.11,-12.03 -10.57,-11.54 -11.07,-11.06 -11.06,-10.58 -11.54,-10.1 -12.03,-10.1 -12.02,-9.14 -12.51,-9.14 -12.5,-9.14 -12.99,-8.18 -12.98,-8.17 -13.47,-8.18 -26.94,-15.39 -27.41,-14.91 -27.9,-13.95 -27.89,-14.43 -27.9,-13.95 -27.9,-14.42 -27.41,-14.43 -27.41,-15.4 -12.99,-7.69 -13.47,-8.18 -12.99,-8.17 -12.5,-8.66 -13.95,-10.1 -12.98,-10.1 -12.03,-10.1 -10.58,-10.58 -10.1,-10.58 -9.14,-10.59 -8.18,-11.06 -7.21,-11.54 -6.26,-11.55 -5.28,-12.02 -4.81,-12.5 -4.33,-12.99 -2.89,-13.47 -2.88,-13.94 -1.93,-14.92 -0.96,-14.91 -3.85,5.3 -3.85,6.73 -3.84,6.73 -3.37,8.18 -2.88,8.18 -2.89,9.13 -2.4,9.63 -2.41,9.61 -1.92,10.59 -1.93,10.58 -0.96,11.06 -0.96,11.54 -0.48,11.55 -0.48,12.02 0.48,11.54 0.96,12.03 0.96,12.02 1.92,12.03 1.93,12.02 2.89,11.54 3.36,11.55 3.85,11.54 4.33,11.06 5.29,10.58 5.29,10.59 6.25,10.1 7.22,9.13 7.69,9.14 8.18,8.18 9.14,8.17 9.62,6.74 10.58,6.73 37.51,19.72 36.07,18.76 34.16,16.83 33.18,15.87 32.23,15.39 30.78,15.4 30.3,14.91 29.34,16.35 14.43,8.18 14.43,8.65 13.95,8.66 14.42,9.62 13.95,9.62 13.95,10.58 13.95,10.58 14.43,11.54 13.94,12.03 13.95,12.5 13.95,13.47 13.95,14.43 13.95,14.91 14.42,15.88 14.44,16.83 14.42,17.79 z m -131.78,62.53 17.31,13.95 16.36,13.94 15.39,13.96 14.43,13.94 13.46,14.43 12.99,13.95 12.02,14.43 11.07,13.94 10.1,14.43 9.61,14.43 8.66,13.95 8.18,14.43 7.21,14.43 6.74,14.43 6.25,14.91 5.29,14.43 4.81,14.42 4.33,14.92 3.37,14.42 3.36,14.91 2.41,14.91 1.92,14.91 1.93,14.91 0.96,15.4 0.96,14.91 0,45.69 -0.96,15.39 -0.96,15.39 -1.44,15.39 -1.45,15.87 6.25,-13.95 5.78,-13.46 5.29,-14.43 4.32,-13.95 4.33,-14.43 3.37,-14.42 2.89,-14.92 2.4,-14.91 1.92,-15.39 0.97,-15.39 0.48,-15.39 0,-15.39 -0.48,-15.87 -0.97,-15.87 -1.92,-15.87 -2.4,-16.36 -3.37,-16.35 -3.37,-16.36 -4.33,-16.35 -4.8,-16.35 -5.78,-16.83 -6.25,-16.84 -6.74,-16.35 -7.69,-16.84 -8.18,-17.31 -8.65,-16.83 -9.62,-16.84 -10.1,-17.31 -10.58,-16.84 -11.55,-17.31 -12.02,-16.84 -12.99,-17.31 -13.47,-16.84 -13.46,-16.35 -13.95,-15.39 -13.95,-14.43 -14.43,-13.95 -14.43,-12.99 -14.43,-12.5 -14.43,-11.54 -14.91,-11.54 -14.91,-10.58 -14.91,-10.11 -14.91,-9.62 -15.39,-9.13 -14.91,-9.14 -15.39,-8.66 -15.39,-8.18 -30.78,-15.87 -30.78,-14.91 -30.79,-14.43 -30.78,-14.43 -30.78,-14.91 -30.3,-15.39 -14.91,-7.69 -14.91,-8.66 -14.91,-8.18 -14.91,-9.13 -10.1,-6.74 -10.1,-7.21 -9.14,-7.22 -9.14,-8.17 -8.17,-8.18 -8.18,-8.66 -7.22,-8.66 -6.73,-9.61 -6.73,-9.14 -5.78,-10.1 -5.28,-10.1 -5.3,-10.11 -4.33,-10.57 -4.32,-11.07 -3.37,-11.06 -2.88,-11.06 -2.89,-11.54 -1.92,-11.55 -1.45,-11.54 -1.44,-12.03 -0.48,-12.02 0,-24.53 0.96,-12.51 0.96,-12.5 1.92,-12.5 1.93,-12.51 2.89,-12.51 2.88,-12.98 3.85,-12.51 3.85,-12.5 4.81,-12.99 -23.09,18.76 -20.68,18.28 -18.76,18.75 -16.83,18.76 -14.91,18.76 -12.99,18.76 -11.54,18.27 -9.14,18.76 -7.7,18.28 -5.77,18.76 -3.85,17.79 -2.4,18.28 -0.48,17.79 0.96,17.8 2.41,17.32 4.33,17.31 5.77,16.35 7.21,16.84 8.66,15.87 10.1,15.87 11.54,15.39 12.99,14.91 14.43,14.43 15.87,14.43 16.83,13.47 18.28,12.99 19.72,12.5 20.68,11.54 21.65,11.54 23.08,10.59 24.05,9.62 25.49,9.61 27.42,9.62 25.49,9.15 24.53,9.61 23.08,9.14 22.13,9.62 21.16,9.62 20.68,10.1 20.2,10.1 19.72,11.06 19.72,11.55 20.2,12.5 20.2,13.47 20.21,14.43 21.64,15.39 22.13,16.35 23.08,18.28 z m 50.02,575.24 16.83,-12.51 15.39,-12.98 13.95,-13.47 12.51,-14.43 11.54,-14.91 10.1,-15.87 8.66,-15.87 7.69,-16.36 6.26,-16.83 4.81,-17.8 3.85,-17.31 2.4,-18.28 1.44,-18.27 0,-18.28 -0.96,-18.76 -2.41,-19.24 -3.36,-18.76 -4.33,-19.24 -5.77,-19.24 -6.74,-18.75 -8.17,-19.24 -9.14,-19.24 -10.1,-18.76 -11.06,-18.76 -12.51,-18.27 -12.98,-18.28 -14.43,-18.27 -15.39,-17.8 -16.36,-17.32 -17.31,-16.83 -18.28,-16.35 -19.23,-16.36 -18.29,-13.46 -19.71,-13.95 -21.16,-13.95 -22.61,-13.46 -23.57,-13.95 -24.05,-13.47 -24.52,-12.99 -24.54,-12.5 -24.53,-11.55 -24.04,-11.54 -22.61,-10.1 -22.12,-9.62 -20.69,-8.18 -18.75,-7.21 -16.84,-5.77 -14.43,-4.81 -25.97,-7.7 -25.01,-9.14 -24.05,-9.62 -23.08,-10.58 -22.13,-11.54 -21.16,-12.5 -19.24,-12.99 -18.76,-13.95 -17.31,-14.43 -15.87,-14.91 -14.91,-15.39 -13.47,-16.35 -12.03,-16.84 -10.58,-17.31 -9.14,-17.31 -7.69,-18.28 -5.77,-18.28 -4.81,-18.76 -2.89,-19.24 -1.44,-19.23 0.48,-19.73 1.92,-19.71 3.85,-20.2 5.77,-20.2 7.7,-19.73 9.14,-20.2 11.06,-20.68 12.99,-20.2 15.39,-19.72 16.83,-20.2 19.24,-20.2 21.16,-19.72 -36.07,19.24 -33.19,20.2 -29.82,21.16 -26.93,22.13 -24.05,23.08 -21.17,23.09 -18.27,24.05 -15.39,24.53 -12.51,25.01 -10.58,25.01 -7.69,25.49 -4.81,25.49 -2.89,25.49 -0.48,25.01 1.93,25.01 3.84,25.02 6.25,24.52 8.18,24.05 10.1,23.09 12.02,22.61 13.95,22.12 15.39,20.68 17.32,20.2 19.24,18.76 20.2,17.79 22.12,16.84 23.57,14.91 24.53,13.95 25.97,12.02 27.42,10.58 28.38,9.14 29.33,6.73 18.76,3.85 21.16,4.81 22.61,5.29 24.53,6.25 25.49,6.74 26.94,7.69 27.89,8.66 28.38,9.14 28.85,10.1 29.34,11.54 29.34,12.03 28.86,12.98 28.86,13.95 27.9,15.39 27.41,15.87 25.97,17.32 25.02,18.28 23.56,19.72 21.64,20.68 19.73,21.64 17.31,23.09 15.39,24.05 12.5,25.97 10.11,26.45 6.73,28.38 3.85,29.82 0,30.78 -3.37,32.23 -7.7,33.66 -11.54,35.59 -15.87,36.56 -20.2,38.48 z m -167.86,-138.04 8.18,2.89 7.69,2.4 7.7,3.37 7.21,2.88 6.74,3.37 6.25,3.36 5.77,3.86 5.29,3.36 5.29,3.85 4.82,4.33 4.32,4.33 4.33,3.84 3.85,4.81 3.85,4.33 2.88,4.81 3.37,4.81 2.4,4.81 2.89,5.29 1.93,4.81 2.4,5.77 3.36,10.58 2.41,11.55 2.4,11.54 1.44,12.02 0.97,12.51 0.96,12.99 13.95,-15.39 12.5,-15.88 11.55,-15.87 9.62,-16.35 8.65,-16.36 6.74,-16.83 6.25,-16.83 4.33,-16.83 3.36,-17.32 1.93,-16.84 0.96,-17.31 -0.48,-16.83 -1.45,-16.84 -2.88,-17.31 -3.37,-16.35 -4.8,-16.84 -6.26,-15.87 -6.73,-16.35 -7.7,-15.4 -9.13,-15.38 -9.63,-15.4 -11.06,-14.43 -11.54,-13.94 -12.5,-13.47 -13.47,-13.47 -14.43,-12.02 -14.91,-12.03 -15.87,-11.06 -16.36,-10.58 -17.31,-10.1 -18.28,-8.66 -18.75,-8.17 -25.98,-11.07 -24.53,-9.62 -22.12,-8.65 -21.17,-8.18 -20.2,-7.21 -18.75,-6.74 -18.76,-6.25 -18.28,-5.77 -18.27,-5.77 -18.28,-5.29 -19.24,-5.3 -20.2,-5.29 -21.16,-5.29 -23.09,-5.29 -24.53,-5.77 -26.94,-6.26 -31.74,-8.17 -30.78,-10.1 -28.86,-11.06 -27.89,-12.5 -26.46,-13.47 -24.52,-14.91 -23.57,-16.36 -21.65,-17.31 -19.72,-17.79 -18.75,-19.25 -16.84,-20.2 -14.91,-20.68 -13.47,-21.64 -11.54,-22.13 -9.62,-23.09 -8.18,-23.56 -6.25,-23.57 -4.32,-24.53 -1.93,-24.53 -0.48,-25.01 1.44,-25.01 3.85,-25.49 5.77,-25.49 7.7,-25.49 10.1,-25.01 12.02,-25.49 14.43,-25.01 16.35,-25.01 18.76,-24.53 21.17,-24.05 23.08,-23.57 25.97,-23.57 -37.03,10.1 -34.63,12.03 -31.75,14.43 -29.34,15.87 -26.45,18.28 -24.53,19.23 -21.64,21.16 -19.24,22.61 -17.32,23.57 -14.42,24.53 -12.51,25.49 -10.1,26.46 -7.7,27.41 -5.28,27.41 -3.37,27.9 -0.96,28.38 0.96,28.37 3.37,28.38 4.8,28.38 7.7,27.9 9.14,27.41 11.54,26.93 13.47,26.46 14.91,25.49 17.31,24.05 19.24,23.57 20.69,22.12 23.08,20.2 24.53,19.24 26.45,17.31 27.9,15.4 29.82,13.94 24.05,9.62 25.97,9.14 26.93,9.14 27.9,8.66 29.34,8.66 29.82,8.17 30.78,7.7 31.27,7.69 31.26,7.22 31.74,6.73 32.23,6.25 31.74,5.77 31.74,5.29 31.27,4.81 30.78,4.81 30.3,3.85 9.62,1.44 9.62,2.41 9.62,2.89 9.14,3.36 9.14,4.33 9.13,4.81 8.66,5.29 8.18,5.77 8.17,6.26 7.7,6.73 7.21,7.21 7.22,8.18 6.25,7.7 6.25,8.65 5.78,9.14 4.8,9.14 4.82,9.14 3.84,10.1 3.37,9.62 2.88,10.58 1.93,10.1 1.44,10.58 0.96,10.58 0,11.06 -0.96,10.58 -1.44,11.07 -2.89,11.06 -2.88,10.58 -4.33,11.06 -5.29,11.07 -6.25,10.58 -6.74,10.58 z m -125.53,165.45 -11.06,-15.39 -10.58,-14.43 -10.59,-13.47 -11.06,-12.98 -5.77,-6.25 -5.77,-6.26 -6.74,-5.77 -6.25,-5.77 -7.21,-5.29 -7.22,-5.29 -8.18,-4.81 -8.17,-4.81 -8.17,-3.85 -7.7,-2.88 -7.7,-2.41 -7.69,-2.41 -8.18,-1.44 -8.17,-0.96 -8.66,-0.48 -9.14,0.48 -6.26,0.96 -5.76,1.44 -5.3,1.93 -5.29,1.93 -4.33,2.4 -4.33,2.4 -3.84,2.89 -3.37,3.36 -3.37,3.37 -2.88,3.85 -2.41,4.33 -1.92,4.33 -1.92,4.81 -0.97,5.29 -1.44,5.29 -0.48,6.25 0.48,7.21 1.44,7.22 1.44,6.73 2.41,6.26 2.41,5.77 2.88,6.25 3.37,6.25 4.33,6.25 -23.57,-0.96 -24.05,-0.96 -23.56,-0.96 -23.57,-0.96 -23.57,-0.96 -23.57,-0.96 -23.56,-0.97 -23.57,-0.48 3.36,-16.35 2.89,-16.35 2.88,-16.36 3.37,-16.35 2.89,-16.35 2.88,-16.36 2.89,-16.35 3.37,-16.35 9.62,6.25 9.62,5.77 9.62,5.3 9.61,4.8 9.62,3.85 9.62,3.85 9.62,2.88 9.62,2.41 9.62,1.92 10.1,1.45 9.62,0.48 9.62,0 9.62,-0.48 9.62,-1.45 9.62,-1.92 10.1,-2.41 11.06,-3.84 10.58,-4.33 9.62,-4.81 8.66,-4.81 8.18,-5.77 7.21,-5.77 6.73,-6.26 5.77,-6.73 5.3,-6.74 4.33,-7.69 3.84,-7.22 3.37,-8.17 2.88,-8.18 1.93,-8.66 1.92,-9.13 0.97,-9.14 0.48,-6.74 -0.48,-6.73 -0.49,-6.25 -0.96,-6.25 -1.44,-6.26 -1.93,-5.77 -2.4,-5.77 -2.41,-5.29 -2.88,-5.29 -3.37,-5.29 -3.85,-4.81 -4.33,-4.81 -4.32,-4.33 -4.33,-4.33 -5.29,-4.33 -4.81,-3.84 -7.21,-4.33 -6.74,-4.33 -6.73,-3.85 -6.26,-3.37 -6.73,-3.36 -6.25,-2.89 -6.25,-2.41 -6.26,-2.4 -12.5,-3.37 -12.03,-2.4 -11.54,-1.92 -11.54,-0.48 -11.06,0 -11.07,0.48 -11.06,1.44 -10.58,1.44 -20.69,4.33 -20.67,5.29 0.96,-15.87 0.96,-15.88 0.96,-15.87 0.96,-15.87 5.3,2.89 5.28,2.4 6.25,2.41 6.26,2.4 7.21,2.41 7.22,1.92 7.69,1.44 8.66,1.45 9.14,1.44 9.62,0.48 10.1,0.48 22.6,0 12.51,-0.96 12.99,-1.44 13.95,-1.45 21.16,-3.84 21.16,-3.85 20.68,-4.33 20.2,-3.85 10.1,-1.92 10.1,-1.45 10.1,-1.44 9.62,-0.96 9.62,-0.48 9.62,0 9.14,0.48 9.14,0.96 11.06,1.93 10.58,1.92 10.58,2.88 10.1,2.89 10.1,2.89 9.62,3.84 9.62,4.33 9.14,4.33 8.18,4.81 8.17,5.29 7.7,5.78 7.21,6.25 6.74,6.73 5.77,7.22 5.77,7.69 4.81,7.7 4.33,8.65 3.85,8.18 3.36,8.18 2.89,7.69 1.92,7.7 1.45,7.21 0.96,7.22 0.48,6.73 0,6.25 -0.48,6.74 -0.96,5.77 -1.45,6.25 -1.92,5.29 -2.4,5.77 -2.89,5.3 -2.89,4.8 -3.36,5.29 -3.85,4.34 -4.33,4.8 -4.33,4.33 -4.33,4.33 -4.81,4.33 -5.29,3.85 -5.29,3.84 -11.06,7.22 -12.03,7.21 -12.5,6.26 -12.5,6.25 22.6,2.89 22.61,2.88 11.54,1.45 11.06,1.92 11.06,1.92 10.59,2.41 10.09,2.4 10.11,3.37 9.13,3.36 8.66,4.33 4.33,2.41 3.84,2.4 3.86,2.89 3.36,2.88 3.37,3.37 2.88,3.37 2.89,3.36 2.89,3.85 4.32,7.22 3.85,7.69 3.37,7.22 2.41,7.69 1.44,7.22 0.48,6.73 0.48,3.37 -0.48,3.37 -0.48,3.36 -0.49,3.37 -0.95,2.88 -1.45,3.37 -1.44,2.89 -1.93,2.88 -1.92,2.41 -2.4,2.88 -2.41,2.41 -2.88,2.4 -3.37,2.41 -3.37,1.92 -3.85,1.93 -4.32,1.92 -4.33,1.44 -4.81,1.92 -5.29,0.97 -5.3,1.44 -17.31,2.89 -18.76,2.4 -19.24,1.93 -19.23,0.96 -18.76,0.48 -17.8,0 -8.65,-0.48 -8.18,-0.96 -7.22,-0.49 -7.21,-0.96 z m -188.06,-53.39 1.44,6.74 2.41,6.25 2.88,5.77 3.37,5.77 3.85,5.77 4.33,5.78 4.81,5.29 4.81,5.29 14.43,1.44 16.83,1.44 17.31,1.45 17.32,0.96 17.31,0.96 15.88,0.48 13.94,0.48 11.07,0 -8.18,-11.06 -7.7,-10.58 -7.69,-10.1 -8.18,-9.62 -4.33,-4.33 -4.33,-4.81 -4.8,-4.33 -5.29,-4.33 -5.78,-3.84 -5.77,-4.33 -6.73,-3.85 -6.74,-3.85 -7.69,-3.36 -7.22,-2.89 -7.21,-1.92 -7.22,-1.93 -6.73,-0.96 -12.98,0 -5.77,0.96 -5.78,1.93 -4.33,1.92 -2.4,1.44 -1.92,1.45 -1.45,1.92 -1.92,1.92 -0.97,1.93 -1.44,2.4 -0.96,1.93 -0.48,2.88 -0.48,2.41 0,5.77 0.48,3.36 z m -16.35,169.78 3.36,-12.02 2.89,-11.54 2.88,-11.54 2.89,-11.07 3.37,-11.06 2.88,-11.54 2.89,-11.55 3.37,-12.02 21.64,2.41 22.12,1.92 22.61,1.44 23.08,1.45 23.57,0.96 24.53,0.48 24.53,0.48 25.01,0 25.49,-0.48 25.98,-0.48 26.45,-0.96 27.41,-0.97 27.9,-0.96 27.9,-1.92 28.86,-1.45 29.82,-1.92 3.84,9.62 3.85,10.1 3.85,9.62 3.85,9.62 3.84,10.1 4.33,9.62 3.85,10.1 3.85,9.62 -12.03,0.48 -11.54,0.96 -12.02,0.48 -11.55,0.48 -4.81,-6.25 -4.81,-6.25 -4.8,-5.29 -5.29,-5.29 -4.82,-4.81 -4.81,-3.85 -4.8,-3.85 -4.82,-3.37 -5.29,-2.88 -4.8,-2.4 -4.82,-1.93 -5.29,-1.93 -4.8,-0.96 -5.29,-0.96 -10.11,0 -4.8,0.48 -5.3,0.97 -4.81,1.44 -5.29,1.92 -4.81,1.93 -5.29,2.4 -5.29,3.37 -5.29,3.36 -4.81,3.37 -5.29,4.33 -5.29,4.81 -5.29,4.81 -5.29,5.29 -5.29,5.77 -4.81,6.26 -5.29,6.25 -10.1,0 -10.58,0.48 -20.2,0 -3.85,-6.73 -4.33,-6.74 -4.81,-5.77 -4.81,-5.77 -4.81,-5.29 -5.29,-4.81 -5.77,-3.85 -5.29,-3.85 -5.77,-3.37 -6.26,-3.36 -5.77,-2.41 -6.25,-1.92 -6.26,-1.45 -6.25,-0.96 -6.25,-0.96 -6.73,0 -6.25,0.48 -6.26,0.48 -6.25,1.45 -6.25,1.92 -5.77,1.93 -6.26,2.88 -5.77,3.37 -5.77,3.85 -5.77,3.84 -5.29,4.81 -5.29,5.29 -4.82,5.77 -4.8,6.26 -4.33,6.73 -4.33,7.22 -3.85,7.69 -9.13,-0.48 -9.63,-0.48 -9.13,-0.96 -9.62,-0.49 z M 564.738,2125.38 65.9766,138.012 l 91.3824,84.172 226.055,943.656 149.582,80.33 161.606,711.83 -25.973,123.13 -13.949,3.85 -13.465,4.32 -13.469,4.81 -12.988,4.81 -12.985,5.78 -12.503,6.25 -12.504,6.73 -12.028,7.7 z m 673.352,-1531.888 7.7,8.656 8.18,8.657 8.66,8.656 8.66,8.18 9.61,8.175 9.62,7.696 10.1,7.215 10.1,6.73 10.58,6.254 11.07,5.773 11.06,4.809 11.06,4.328 11.55,3.852 11.54,2.882 12.02,2.407 11.54,1.441 10.59,0.481 10.09,0 10.11,-0.961 9.62,-0.961 9.14,-1.926 9.13,-2.402 8.66,-2.407 8.18,-3.367 8.18,-3.367 7.69,-4.328 7.69,-4.328 7.22,-4.813 7.21,-5.289 6.26,-5.769 6.73,-5.774 6.25,-6.25 5.77,-6.738 5.78,-6.731 5.29,-6.734 5.29,-7.695 5.29,-7.215 4.81,-7.695 4.33,-7.696 4.32,-8.179 8.18,-16.352 7.21,-16.832 6.74,-16.836 5.77,-17.312 3.85,-12.024 4.33,-12.508 5.29,-12.984 5.77,-13.469 5.77,-12.984 7.21,-12.985 7.22,-12.507 8.18,-12.024 4.33,-6.254 4.33,-5.289 4.8,-5.289 4.81,-5.293 4.81,-4.808 5.29,-4.809 5.29,-4.332 5.78,-3.848 5.77,-3.363 5.77,-3.371 6.25,-2.883 6.25,-2.406 6.26,-1.922 7.21,-1.445 6.73,-0.961 7.22,-0.481 9.14,0 9.13,0.481 8.18,0.961 7.7,1.445 7.7,1.922 6.73,2.406 6.73,2.883 6.25,3.371 5.78,3.844 5.29,4.328 5.29,4.332 4.33,4.809 4.33,5.289 3.84,5.293 3.85,5.769 3.36,6.254 2.89,6.254 2.41,6.25 2.4,6.734 1.93,7.215 1.92,6.735 1.44,7.695 0.96,7.215 0.96,7.695 0.97,14.91 0.48,15.871 -0.96,15.391 -1.45,15.39 -1.92,15.391 -1.92,14.91 -2.89,13.949 -2.89,13.95 -3.36,13.465 -3.85,12.988 -3.85,12.988 -4.81,12.5 -4.33,12.508 -5.29,12.504 -5.29,12.508 -5.77,12.984 -12.5,25.973 -13.95,27.414 -17.32,32.707 -18.28,34.629 -9.13,17.316 -8.66,17.797 -8.66,17.793 -8.17,18.277 -7.7,18.758 -6.73,18.277 -6.26,18.758 -5.29,19.239 -1.92,9.136 -1.92,9.621 -1.93,9.618 -0.96,9.621 -0.96,9.617 -0.48,10.104 -0.48,9.62 0,9.62 0.48,8.66 0.96,8.65 1.44,8.18 1.93,8.18 1.92,8.17 2.41,7.7 2.88,7.69 3.37,7.22 3.36,7.21 3.85,7.21 3.85,6.74 4.33,6.25 4.81,6.74 4.81,6.25 5.29,5.77 5.29,5.77 5.77,5.77 5.77,5.29 6.25,5.3 6.26,5.28 12.98,9.15 13.95,9.13 13.95,8.18 14.91,7.21 14.91,6.74 15.39,5.77 18.28,6.73 18.76,6.25 18.27,5.77 18.76,5.78 37.99,11.06 38,10.1 38,10.1 38.48,9.62 37.99,9.62 38,9.62 -25.97,5.29 -25.97,5.29 -25.98,5.77 -25.49,6.25 -25.97,7.22 -25.97,7.69 -25.97,8.18 -25.5,9.14 -8.65,-11.07 -9.14,-9.61 -10.1,-9.62 -10.1,-9.14 -10.59,-8.18 -11.05,-7.69 -11.55,-7.22 -12.5,-6.73 -12.51,-6.25 -12.99,-5.77 -13.46,-5.3 -13.95,-4.8 -13.95,-4.33 -14.91,-3.85 -14.91,-3.37 -15.39,-2.89 1.92,17.32 -0.48,15.39 -2.4,13.95 -3.85,12.02 -5.77,10.11 -7.7,8.17 -8.65,7.22 -10.1,5.29 -11.55,3.84 -12.5,2.41 -13.47,1.44 -14.43,0 -14.91,-1.44 -15.39,-2.41 -16.35,-3.36 -16.36,-4.33 -16.35,-5.29 -16.35,-5.77 -16.36,-7.22 -16.35,-7.21 -15.87,-8.66 -15.39,-8.66 -14.91,-9.13 -13.95,-10.11 -13.47,-10.1 -12.5,-10.1 -11.07,-10.58 -9.61,-11.06 -8.66,-11.06 -7.21,-10.58 -5.3,-11.07 -3.84,-10.58 -4.81,-18.28 -5.3,-16.83 -2.88,-7.69 -2.89,-7.22 -2.88,-7.21 -3.37,-6.74 -3.36,-6.25 -3.37,-5.77 -3.85,-5.77 -3.85,-5.29 -4.33,-5.3 -4.81,-4.32 -4.8,-4.33 -4.81,-4.33 -5.78,-3.85 -5.77,-3.36 -6.25,-2.89 -6.73,-2.88 -6.74,-2.89 -7.21,-2.41 -8.18,-1.92 -8.18,-1.92 -8.65,-1.45 -9.62,-0.96 -9.62,-1.44 -10.58,-0.48 -22.13,-0.96 -25.01,0 11.54,10.1 9.63,10.1 8.65,9.14 6.74,9.61 2.88,4.33 2.89,4.33 1.92,4.33 1.93,3.85 1.44,4.33 0.96,3.84 0.48,3.85 0.48,3.37 -0.48,3.85 -0.48,3.36 -0.96,2.89 -1.44,3.36 -1.93,2.89 -2.4,2.89 -2.41,2.88 -3.36,2.41 -3.85,2.4 -3.85,2.41 -4.81,1.92 -4.81,1.92 -5.29,1.93 -6.25,1.44 -6.26,1.45 -7.21,1.44 -8.18,0.96 -16.83,0 -8.66,-0.48 -16.83,-1.44 -17.31,-0.97 7.69,-35.59 7.22,-36.07 7.69,-35.59 7.22,-35.59 7.69,-35.116 7.69,-35.59 7.22,-35.113 7.69,-35.109 7.7,-35.59 7.7,-35.109 7.21,-35.114 7.7,-35.594 7.69,-35.589 7.69,-35.11 7.22,-36.074 7.69,-35.59 z m 29.34,-370.828 -5.29,-3.363 -5.76,-3.852 -6.26,-3.367 -5.77,-3.848 36.55,153.43 -7.21,0.481 -7.22,0.48 -6.73,0 -6.25,-0.48 -6.26,-0.481 -5.77,-0.961 -5.77,-1.445 -5.29,-1.442 -10.1,-2.886 -9.62,-3.848 -8.66,-3.848 -7.69,-4.328 5.29,13.949 6.25,14.43 7.7,15.871 8.65,16.352 8.66,16.351 9.14,16.356 9.14,15.39 8.18,14.43 -8.66,2.403 -9.62,1.925 -11.06,2.403 -12.03,1.445 -12.02,1.441 -12.99,0.965 -12.98,0 -12.99,-0.48 4.81,10.097 4.33,9.621 5.29,9.618 4.81,9.621 5.29,9.617 5.29,9.141 5.29,8.656 5.29,9.14 -122.65,611.792 -9.61,0 -9.15,0.48 -9.13,1.44 -8.66,1.93 -8.66,2.4 -8.17,2.88 -8.18,3.38 -7.7,4.32 -7.69,4.81 -6.735,5.29 -6.735,5.77 -6.73,6.74 -6.254,6.73 -5.289,8.18 -5.774,8.17 -4.808,9.14 -13.469,25.49 -12.508,24.53 -12.984,22.61 -12.504,20.2 -6.254,9.62 -6.25,8.66 -6.254,8.17 -6.254,7.22 -6.25,6.73 -6.734,5.77 -6.254,4.81 -6.734,3.85 30.304,-140.44 114.95,-80.32 12.02,-58.68 12.03,-59.16 12.02,-59.16 12.02,-58.68 12.03,-59.156 12.02,-58.68 12.03,-59.16 12.02,-59.16 12.03,-58.676 12.02,-59.16 12.03,-59.16 12.02,-58.676 12.02,-59.16 12.03,-58.68 12.02,-59.16 12.03,-59.156 85.61,-75.512 -16.84,79.84 z M 2337.59,1225 l 3.85,5.77 3.36,5.29 3.37,5.3 3.37,5.77 8.17,-3.85 8.18,-3.85 8.18,-4.33 7.69,-4.33 8.18,-4.81 7.69,-4.8 7.7,-5.3 7.21,-5.29 7.7,-6.25 7.21,-5.77 7.7,-6.73 6.73,-6.74 7.22,-7.21 7.21,-7.22 6.74,-7.69 6.73,-8.18 6.74,-8.66 6.73,-8.66 6.25,-9.13 6.25,-9.62 6.26,-9.62 6.25,-10.58 6.25,-10.58 5.78,-11.07 5.76,-11.54 5.29,-11.54 5.78,-12.51 5.29,-12.5 5.29,-12.99 5.29,-13.47 4.81,-13.943 4.81,-14.429 -9.14,1.445 -9.14,0.957 -9.14,1.445 -9.14,1.442 -9.13,1.445 -9.14,1.441 -9.14,1.442 -9.14,1.925 -4.81,1.442 -4.33,1.445 -3.84,1.442 -3.85,1.925 -3.85,2.403 -3.37,2.406 -2.88,2.406 -2.41,3.361 -2.4,3.37 -1.93,3.37 -1.92,4.33 -0.96,4.32 -0.97,4.82 -0.48,5.28 0,5.78 0.48,6.25 0.97,9.14 0.48,9.14 0,17.31 -0.48,8.66 -0.97,7.69 -0.96,8.18 -1.44,7.69 -1.92,7.22 -1.93,7.22 -2.4,6.73 -2.41,6.73 -2.88,6.25 -3.37,6.26 -3.37,6.25 -3.85,5.77 -3.84,5.77 -4.33,5.29 -4.33,4.82 -4.81,5.28 -4.81,4.81 -5.29,4.33 -5.29,4.33 -5.77,4.33 -5.77,3.85 -6.26,3.85 -6.25,3.36 -6.73,3.37 -6.74,3.36 -6.73,2.89 -7.21,2.89 -7.7,2.4 z m 1248.6,1248.6 -7.22,10.58 -7.22,9.14 -7.21,8.65 -8.17,7.22 -7.7,6.73 -8.18,5.78 -8.65,4.8 -8.66,4.33 -8.66,3.85 -8.66,3.37 -9.14,2.88 -8.65,2.41 -17.8,3.85 -17.31,3.84 10.1,-12.5 9.14,-12.03 7.69,-12.5 6.74,-12.03 6.25,-12.02 4.8,-12.02 3.86,-11.55 3.36,-12.02 1.92,-11.54 1.45,-11.55 0.48,-11.54 0,-11.06 -0.96,-11.06 -1.93,-11.07 -2.4,-11.06 -2.89,-11.06 -3.85,-10.58 -4.33,-10.59 -5.28,-10.57 -5.3,-10.11 -5.77,-10.1 -6.73,-10.1 -6.74,-10.1 -7.69,-9.62 -7.69,-9.61 -8.18,-9.63 -8.66,-9.13 -8.65,-9.14 -9.15,-9.14 -9.13,-8.66 -9.62,-8.66 -9.62,-8.66 -36.07,-30.29 -36.56,-30.31 -37.03,-29.81 -37.04,-29.82 -36.07,-29.34 -34.15,-28.38 -16.35,-13.95 -15.87,-13.95 -14.91,-12.99 -14.43,-12.98 -19.72,-19.24 -18.76,-18.28 -16.83,-17.31 -15.39,-17.32 -14.43,-17.31 -12.51,-16.35 -5.77,-8.18 -5.77,-8.66 -5.29,-8.17 -4.81,-8.18 -4.33,-8.18 -4.33,-8.66 -3.85,-8.17 -3.85,-8.66 -3.36,-8.65 -2.89,-8.67 -2.4,-8.65 -2.89,-8.66 -1.92,-9.14 -1.93,-9.13 -1.44,-9.62 -1.44,-9.62 -0.97,-9.62 -0.96,-10.1 -0.48,-10.1 -0.48,-10.11 0,-19.23 0.48,-18.28 1.44,-17.79 1.93,-17.32 2.89,-16.83 3.36,-15.87 3.85,-15.88 4.81,-14.91 5.29,-14.43 6.25,-13.94 6.73,-13.47 7.22,-12.51 8.18,-12.5 9.13,-11.55 9.63,-10.57 10.09,-10.59 11.07,-9.62 11.54,-8.65 12.51,-8.66 12.98,-7.7 13.95,-7.21 14.43,-6.25 15.39,-5.78 15.87,-5.29 16.83,-4.33 17.32,-3.84 18.28,-2.89 19.24,-2.41 19.72,-1.92 20.2,-0.96 43.28,0 -16.35,-9.14 -15.87,-9.14 -16.35,-8.66 -16.36,-8.17 -16.35,-7.7 -15.87,-7.69 -16.35,-6.74 -16.36,-6.73 -16.35,-6.25 -15.87,-5.77 -16.36,-5.77 -16.35,-4.82 -15.87,-4.81 -16.35,-4.32 -15.87,-3.37 -16.36,-3.37 -15.87,-2.88 -16.35,-2.41 -15.87,-1.92 -15.88,-1.44 -15.87,-1.45 -15.87,-0.48 -15.88,0 -15.87,0.48 -15.87,0.97 -15.87,1.44 -15.39,1.44 -15.87,2.41 -15.39,2.88 -15.88,3.37 -15.39,3.85 -15.39,4.32 -11.54,3.85 -11.06,4.81 -10.58,4.81 -10.59,5.29 -9.61,5.77 -9.14,6.74 -8.66,6.73 -7.7,7.22 -7.69,7.69 -7.22,8.18 -6.25,8.66 -6.25,9.13 -5.29,9.14 -4.81,9.62 -4.33,10.1 -3.85,10.1 -3.36,10.58 -2.41,11.07 -1.92,11.06 -1.44,11.54 -0.96,11.54 -0.49,12.03 0.49,12.02 0.96,12.03 1.44,12.5 2.4,12.51 2.89,12.98 3.36,12.99 4.33,12.99 4.33,12.98 5.77,12.99 5.78,13.46 -29.82,-14.42 -32.71,-15.87 -34.15,-16.36 -35.11,-16.83 -34.15,-17.32 -33.18,-17.79 -15.4,-9.14 -14.91,-9.14 -14.43,-8.66 -12.98,-9.14 -8.66,-6.73 -8.66,-6.25 -8.18,-6.73 -7.69,-7.22 -7.22,-6.73 -7.21,-7.22 -6.73,-7.69 -6.25,-7.22 -5.77,-7.69 -5.78,-7.7 -4.81,-7.69 -4.81,-8.18 -3.84,-7.7 -3.37,-8.17 -2.89,-8.18 -2.4,-8.18 -1.92,-8.18 -0.97,-8.17 0.48,-6.74 0.97,-6.25 1.92,-6.25 2.4,-5.29 3.85,-4.81 3.85,-4.33 4.81,-3.85 5.29,-3.84 5.77,-3.85 6.73,-3.37 13.95,-6.25 14.91,-6.25 9.62,-4.33 9.62,-4.33 9.14,-4.81 9.62,-5.29 8.66,-5.29 9.13,-5.77 8.66,-6.26 8.18,-6.25 8.18,-6.73 8.17,-7.22 8.18,-7.21 7.7,-8.18 7.21,-8.17 7.21,-8.18 7.22,-8.66 7.22,-9.14 6.25,-9.62 6.73,-10.09 6.25,-10.11 5.77,-10.58 5.78,-10.58 5.77,-11.54 5.29,-11.54 4.81,-12.03 4.81,-12.02 4.81,-12.51 4.33,-13.47 4.32,-12.98 3.85,-13.95 3.37,-13.95 3.37,-14.428 2.88,-14.91 148.62,-268.379 5.29,-9.617 5.77,-9.141 5.77,-8.18 5.78,-7.691 5.77,-6.734 6.25,-6.735 6.25,-5.769 6.25,-5.774 6.26,-4.808 6.25,-4.329 6.73,-4.328 6.74,-3.367 6.73,-2.887 7.22,-2.402 7.21,-2.41 7.22,-1.922 7.69,-1.445 7.21,-0.961 8.18,-0.481 7.7,-0.48 8.17,0 8.18,0.48 8.17,0.481 8.66,0.961 17.32,2.406 18.27,3.371 19.24,4.328 19.72,4.805 11.54,2.887 12.03,1.925 11.06,1.926 11.55,1.442 10.58,0.961 10.58,0.48 10.1,0 10.1,-0.48 9.62,-0.961 9.14,-1.926 9.13,-1.922 8.66,-2.406 8.18,-2.887 8.18,-3.844 7.21,-3.851 7.22,-4.328 6.73,-5.29 6.73,-5.292 5.77,-6.254 5.77,-6.731 4.82,-6.734 4.8,-7.696 4.33,-8.175 3.85,-8.657 3.37,-9.14 2.88,-9.617 2.41,-10.102 1.92,-10.582 1.44,-11.543 0.97,-11.543 0.48,-12.504 0,-12.988 -0.48,-11.063 -0.97,-11.058 -1.92,-11.067 -1.92,-10.097 -2.89,-10.102 -2.88,-9.621 -3.85,-9.137 -4.33,-9.136 -4.33,-8.18 -5.29,-8.176 -5.29,-7.695 -6.25,-7.215 -6.26,-6.734 -6.73,-6.254 -7.22,-6.25 -7.69,-5.289 -7.69,-4.813 -8.18,-4.808 -8.66,-3.848 -9.14,-3.848 -9.14,-2.886 -9.61,-2.403 -10.1,-2.406 -10.1,-1.441 -10.58,-0.961 -10.59,-0.485 -11.06,0 -11.54,0.485 -11.06,0.961 -12.03,1.441 -11.54,2.406 -12.51,2.887 -15.39,4.328 -15.39,4.328 -14.91,5.289 -14.43,5.293 -13.95,6.25 -13.46,6.254 -13.47,7.215 -13.47,7.695 -12.99,8.176 -12.98,8.66 -12.99,9.133 -12.5,10.105 -12.99,10.583 -12.99,11.542 -12.98,12.024 -12.99,12.504 -10.1,9.621 -10.1,8.176 -10.1,6.734 -9.62,5.289 -10.1,4.328 -9.62,2.887 -9.62,1.922 -9.14,0.48 -9.13,0 -9.14,-1.441 -9.14,-1.922 -8.66,-3.367 -8.66,-3.848 -8.17,-4.812 -8.18,-5.289 -8.17,-6.254 -7.7,-6.735 -7.21,-7.214 -7.22,-8.172 -6.73,-8.18 -6.74,-9.137 -6.25,-9.136 -6.25,-9.622 -5.78,-10.101 -5.28,-10.098 -4.81,-10.582 -4.82,-10.582 -4.32,-11.066 -4.33,-10.578 -3.36,-11.063 -3.37,-10.582 -2.89,-10.582 34.63,-5.769 3.37,16.351 3.84,14.91 4.81,13.469 5.3,12.984 2.88,5.77 3.37,5.773 2.88,5.293 3.37,4.809 3.37,4.808 3.36,4.809 3.85,4.332 3.85,3.848 3.85,3.847 3.84,3.368 3.85,3.363 4.33,2.891 4.33,2.882 4.33,2.407 4.33,2.402 4.81,1.926 4.33,1.441 4.8,1.926 4.81,0.961 4.82,0.961 10.09,1.441 10.11,0.965 9.13,-0.48 9.14,-0.485 8.18,-1.441 8.17,-1.922 7.7,-2.406 7.69,-2.887 6.74,-3.848 6.73,-3.843 6.74,-4.333 6.25,-5.289 6.25,-5.289 5.78,-6.254 5.76,-6.734 5.29,-6.734 5.78,-7.696 5.29,-7.695 -10.58,8.656 -11.07,8.66 -5.77,3.848 -5.77,3.367 -5.77,3.364 -6.25,2.89 -5.77,2.883 -5.78,2.406 -6.25,2.403 -5.77,1.925 -6.25,1.442 -5.77,0.961 -6.26,0.965 -5.77,0.476 -5.77,0 -5.77,-0.476 -5.77,-0.965 -5.78,-1.442 -5.29,-1.922 -5.29,-2.406 -5.77,-2.406 -4.81,-3.367 -5.29,-3.848 -4.81,-4.808 -4.81,-4.809 -4.33,-5.773 -4.33,-6.254 -4.33,-6.731 -3.84,-7.215 -3.85,-8.179 -3.85,-9.618 -3.84,-9.621 -3.37,-9.617 -2.89,-9.621 -5.29,-19.238 -4.33,-19.719 -3.85,-19.719 -2.88,-20.199 -2.41,-20.684 -1.92,-20.679 60.6,4.328 0,21.641 0.48,10.582 1.45,9.617 1.44,9.621 1.92,9.14 2.89,9.137 2.88,8.176 3.86,8.18 3.84,7.691 4.33,7.215 4.81,6.734 5.29,6.254 5.29,5.774 6.26,5.769 6.25,4.813 6.73,4.328 6.73,3.844 7.7,3.367 7.21,2.886 8.18,2.407 8.18,1.441 8.17,0.965 8.66,0.961 9.14,-0.485 9.14,-0.476 9.13,-1.445 9.62,-1.922 9.62,-2.407 10.1,-3.367 10.1,-3.847 10.1,-4.328 16.84,-9.622 15.87,-10.097 15.39,-10.582 15.39,-11.063 14.91,-11.543 14.91,-12.027 14.43,-12.504 15.39,-12.988 -12.02,7.218 -13.95,7.692 -15.39,8.66 -16.84,8.66 -17.31,8.656 -18.28,8.657 -18.75,7.695 -18.76,7.215 -9.14,3.848 -9.14,2.882 -8.66,2.41 -8.65,1.442 -8.18,0.961 -8.18,0 -7.21,-0.481 -7.22,-1.445 -7.21,-1.441 -6.73,-2.407 -6.26,-2.882 -5.77,-3.848 -5.77,-3.848 -5.29,-4.332 -4.81,-4.808 -4.81,-5.774 -4.33,-5.769 -3.85,-6.254 -3.84,-6.25 -3.37,-7.215 -2.89,-7.215 -2.4,-7.695 -1.92,-7.696 -1.93,-8.179 -1.44,-8.656 -0.97,-8.176 -0.96,-9.137 -0.48,-8.656 0.48,-9.141 0.48,-9.137 0.48,-9.621 1.45,-9.136 9.14,7.214 9.13,6.25 8.66,5.293 8.18,4.329 7.69,3.843 7.7,2.41 7.7,1.922 7.21,0.961 7.21,0 7.22,-0.961 7.21,-1.445 7.7,-2.402 7.21,-3.848 7.7,-4.328 7.7,-5.293 7.69,-5.77 20.2,-15.871 21.64,-15.394 11.07,-7.696 11.54,-7.691 12.03,-7.215 12.02,-6.7342 12.02,-6.7344 12.03,-6.2539 12.5,-6.2539 12.51,-5.289 12.98,-4.8086 12.51,-4.3282 12.51,-3.3671 12.98,-2.8868 12.5,-2.4023 12.99,-0.9648 12.51,-0.4805 12.02,0 12.51,1.4453 12.02,2.4023 12.02,3.8477 12.03,4.332 11.06,5.7696 11.54,7.2148 10.58,8.1758 11.07,9.6211 10.1,11.0581 9.62,12.024 9.62,13.949 9.13,15.391 5.3,9.621 5.77,8.176 6.25,7.695 6.73,7.215 6.74,6.254 6.73,5.289 7.21,4.808 7.7,3.852 7.21,3.363 7.7,2.406 7.7,1.922 7.69,1.446 15.39,0 7.7,-0.961 7.21,-1.926 7.22,-2.406 6.73,-2.883 6.73,-3.852 6.74,-4.328 5.77,-4.808 5.77,-5.77 5.29,-6.734 4.81,-6.735 4.33,-7.695 3.85,-8.656 3.37,-9.141 2.4,-9.621 2.41,-10.098 0.96,-11.062 0.96,-11.063 -0.48,-12.5036 11.54,6.7344 10.58,7.2112 9.62,7.699 8.66,8.656 7.69,9.137 7.22,10.102 6.25,10.097 5.29,11.067 4.81,11.543 3.85,11.543 3.85,12.503 2.4,12.504 2.41,12.989 1.44,12.984 1.44,13.469 0.49,13.468 0.47,13.946 -0.47,13.949 -0.49,13.945 -0.96,13.95 -0.96,13.949 -1.45,13.465 -1.92,13.949 -1.44,13.469 -4.33,26.453 -4.81,25.492 -4.81,24.047 -4.33,22.125 -3.36,18.758 -2.89,18.277 -2.89,18.758 -2.4,18.273 -1.93,18.762 -1.92,18.758 -1.44,18.277 -1.44,18.754 -0.96,18.281 -0.49,18.754 -0.48,18.277 0.48,18.758 0.49,18.758 0.96,18.277 1.44,18.758 1.44,18.278 7.21,5.289 7.22,4.812 7.22,5.289 6.73,5.289 6.25,5.774 6.73,5.769 5.78,6.254 6.25,6.735 5.77,6.734 5.29,6.73 5.29,7.7 5.29,7.695 5.29,8.656 4.81,8.656 4.33,9.141 4.81,9.621 -23.56,-3.367 -24.05,-2.887 -24.54,-3.367 -24.52,-2.887 -25.5,-2.402 -25.49,-2.887 -25.49,-2.406 -25.97,-1.922 -25.97,-1.926 -25.49,-1.441 -25.97,-0.965 -25.02,-0.961 -25.49,-0.961 -48.58,0 -23.56,0.961 -15.88,0.481 -15.38,1.445 -15.4,1.441 -14.42,2.403 -13.95,2.406 -12.99,3.367 -12.98,4.328 -12.03,4.328 -5.77,2.887 -5.29,2.887 -5.29,2.887 -5.3,2.886 -4.8,3.364 -4.81,3.847 -4.81,3.848 -4.33,3.851 -3.85,4.329 -3.85,4.808 -3.84,4.328 -3.37,5.289 -3.37,5.293 -2.88,5.289 -2.41,5.774 -2.4,5.769 -6.26,17.797 -5.77,17.797 -2.4,9.137 -1.92,8.66 -1.93,9.136 -1.44,9.14 -1.45,8.66 -0.96,9.13 -0.48,9.14 -0.48,8.66 0.48,9.14 0.48,9.14 0.96,8.65 1.45,9.14 -0.49,10.58 -0.96,10.59 -1.44,10.58 -2.4,10.1 -2.41,10.1 -3.37,10.1 -3.84,9.62 -4.81,9.62 -4.81,9.13 -5.29,9.14 -6.26,9.14 -6.25,9.14 -7.21,8.66 -7.22,8.17 -8.18,8.66 -8.17,8.18 23.08,-0.48 22.61,-0.49 23.09,0.49 23.08,0.48 23.09,1.44 23.09,1.45 23.08,2.4 23.09,2.4 23.09,2.89 22.6,3.36 22.61,4.33 22.6,4.33 22.61,4.81 22.6,5.3 22.13,6.25 22.12,6.25 22.13,6.73 21.64,7.22 21.65,8.17 21.16,8.18 21.16,8.66 21.16,9.61 20.68,9.63 20.2,10.1 20.21,11.06 19.72,11.06 19.71,12.03 18.76,12.02 19.24,12.99 18.28,13.46 18.28,13.47 17.79,14.43 12.51,10.58 11.54,11.07 10.58,11.54 10.58,12.02 9.62,12.02 8.66,12.99 8.18,12.99 7.21,13.95 6.25,13.94 5.77,14.43 4.81,14.91 4.33,14.91 2.89,15.87 2.4,15.88 1.45,16.35 0.48,16.83 0,16.35 -1.45,16.36 -1.44,16.35 -2.4,15.87 -3.37,15.4 -3.85,15.39 -4.33,15.39 -4.8,15.39 -5.3,14.91 -6.25,14.43 -6.73,14.42 -7.22,14.44 -7.21,14.42 -8.18,13.47 -8.66,13.95 -8.65,13.47 -9.62,12.98 -9.62,12.99 -10.1,12.99 -10.1,12.5 -10.58,12.5 -11.07,12.03 -11.06,11.54 -11.54,11.54 -11.55,11.55 -11.54,11.06 -12.02,11.06 -12.03,10.1 -12.02,10.59 -12.51,10.1 -12.5,9.61 -12.51,9.63 -8.18,-7.22 -8.65,-7.21 -8.18,-7.22 -8.65,-6.73 22.12,-16.36 22.61,-17.31 22.6,-18.76 22.13,-19.24 11.06,-10.1 10.58,-10.1 10.58,-10.58 10.58,-11.06 10.1,-11.06 10.1,-11.07 9.62,-11.54 9.62,-12.02 8.66,-12.03 9.14,-12.02 8.17,-12.51 7.7,-12.98 7.7,-12.99 6.73,-12.99 6.25,-13.46 6.25,-13.95 5.29,-13.95 4.82,-13.95 4.32,-14.42 3.37,-14.44 2.89,-14.91 2.4,-15.38 1.44,-15.4 0.49,-15.39 0,-9.14 -0.49,-8.65 -0.48,-8.66 -0.96,-9.14 -1.44,-8.66 -1.45,-8.65 -1.92,-8.66 -2.41,-8.66 -2.88,-8.66 -2.88,-8.65 -3.37,-8.66 -3.85,-8.66 -3.85,-8.66 -4.33,-8.17 -4.81,-8.66 -4.81,-8.18 -4.8,-7.21 -4.82,-6.73 -4.81,-7.22 -5.29,-6.25 -5.29,-6.74 -5.29,-5.77 -5.77,-6.25 -5.77,-5.77 -6.25,-5.77 -6.25,-5.29 -6.74,-5.29 -6.73,-5.29 -6.74,-4.82 -7.21,-4.81 -7.7,-4.32 -7.21,-4.33 -8.18,-3.85 -7.69,-3.85 -8.66,-3.36 -8.18,-3.37 -9.14,-3.37 -8.65,-2.88 -9.14,-2.41 -9.62,-2.4 -9.62,-2.41 -10.1,-1.92 -10.1,-1.45 -10.1,-1.44 -11.06,-1.44 -10.58,-0.96 -11.55,-0.49 -11.06,-0.48 -12.99,0 -13.46,0.48 -13.47,1.45 -13.47,1.44 -13.46,2.41 -13.47,2.88 -13.47,3.37 -13.47,3.85 -12.98,4.33 -12.99,5.29 -12.98,5.29 -12.51,6.25 -12.51,6.73 -12.02,7.22 -11.54,8.17 -11.55,8.18 -10.58,9.14 -10.58,9.62 -9.62,9.62 -9.62,11.06 -8.66,11.06 -7.69,11.54 -7.7,12.51 -6.25,12.99 -5.77,12.98 -5.29,13.95 -4.33,14.91 -2.88,14.91 -2.41,15.39 -1.44,16.36 -0.49,16.83 0.49,17.31 0.96,10.59 0.96,11.05 1.45,10.11 1.92,10.1 1.92,10.1 2.41,9.62 2.4,9.62 2.89,9.14 2.88,9.13 2.89,8.66 3.85,8.66 3.36,8.17 3.85,8.18 4.33,8.18 3.85,7.69 4.81,7.7 9.14,14.43 10.1,14.42 11.06,13.47 11.06,12.99 12.03,12.51 12.5,12.02 12.51,12.03 13.46,11.06 281.37,238.08 13.95,12.02 12.5,11.54 11.06,11.55 10.59,11.06 9.62,11.55 8.65,11.53 8.18,11.07 7.7,12.02 7.21,12.03 6.73,12.02 6.73,12.99 6.26,12.98 12.98,28.38 13.47,31.26 6.74,1.45 6.73,1.92 6.73,2.4 6.74,3.37 6.25,3.37 5.77,4.33 5.29,4.33 4.81,5.29 1.92,2.88 1.93,3.37 1.44,2.88 1.44,3.37 0.97,3.37 0.96,3.85 0.48,3.84 0,7.7 -0.96,4.33 -0.48,4.33 -1.45,4.8 -1.92,4.82 -1.92,4.81 -2.41,5.28 -2.88,5.3 z m -356.88,-346.78 54.83,42.32 -12.99,13.47 -12.51,13.47 -11.54,12.98 -10.58,13.47 -10.1,12.99 -9.14,12.98 -8.65,12.99 -7.7,12.99 -6.73,12.98 -6.74,12.51 -5.29,12.98 -5.29,12.51 -4.33,12.5 -3.37,12.03 -3.36,12.5 -2.41,12.03 -1.44,12.02 -1.44,12.03 -0.48,12.02 0.48,12.02 0.48,11.55 1.44,11.54 1.44,11.54 2.41,11.55 2.88,11.54 3.86,11.06 3.84,11.07 4.33,11.06 5.29,11.06 5.29,10.58 6.25,11.06 6.26,10.58 -20.21,-7.21 -19.71,-7.7 -19.24,-8.65 -18.28,-9.14 -8.66,-4.33 -8.65,-4.81 -8.18,-5.29 -7.22,-5.29 -7.21,-5.29 -6.73,-5.29 -6.26,-5.77 -5.29,-5.78 -4.8,-4.8 -3.86,-4.81 -2.88,-4.82 -2.89,-4.8 -2.4,-4.33 -1.44,-4.33 -1.44,-4.33 -0.97,-3.85 -0.48,-3.85 0.48,-3.85 0,-3.36 0.97,-3.37 1.44,-3.36 1.44,-3.37 1.92,-3.37 1.93,-2.88 2.4,-2.89 2.89,-2.89 2.89,-2.4 3.36,-2.89 7.21,-4.81 7.7,-4.32 8.66,-4.33 8.66,-3.85 9.13,-3.85 9.62,-3.37 2.89,-19.24 3.84,-18.75 3.86,-17.8 4.8,-17.79 5.29,-17.32 5.78,-16.83 6.25,-16.83 6.73,-15.88 7.22,-15.87 7.69,-15.39 8.66,-14.91 8.66,-14.43 9.13,-14.43 9.63,-13.95 10.1,-13.46 10.58,-13.47 z m -949.43,-913.36 7.69,12.02 7.7,12.03 7.69,12.02 7.7,12.02 -11.55,4.33 -11.54,3.85 -11.54,2.89 -12.03,1.92 -11.54,0.96 -11.54,0.49 -11.55,0 -11.54,-0.49 -11.54,-0.96 -11.55,-1.92 -12.02,-1.92 -11.54,-2.41 -23.09,-5.29 -23.57,-5.77 -34.15,-8.66 -34.15,-8.18 -34.63,-8.66 -34.14,-8.65 -35.11,-9.14 -34.64,-10.58 -17.31,-5.29 -17.8,-5.77 -17.31,-6.26 -17.32,-6.25 -12.98,-5.29 -12.51,-5.29 -11.54,-5.77 -11.06,-5.78 -9.62,-6.25 -9.62,-6.25 -8.66,-6.25 -8.18,-6.25 -7.21,-6.74 -6.74,-7.21 -5.77,-6.74 -5.77,-7.21 -4.81,-7.7 -4.33,-7.21 -3.84,-7.7 -3.37,-8.17 -2.4,-7.7 -2.41,-8.17 -1.92,-8.18 -0.97,-8.66 -0.96,-8.66 -0.48,-8.65 0,-17.32 0.48,-9.136 1.44,-9.137 0.97,-9.14 1.92,-9.618 3.85,-19.238 4.81,-19.238 12.99,-28.379 12.02,-26.934 12.02,-25.011 11.55,-24.047 11.06,-22.125 10.58,-21.164 10.1,-19.719 9.62,-18.758 8.18,-16.832 8.17,-15.875 7.22,-15.391 6.25,-14.91 6.25,-14.425 5.3,-13.95 4.8,-13.468 4.81,-12.504 3.85,-12.508 3.37,-11.543 2.88,-11.539 2.41,-11.067 2.4,-10.582 1.93,-10.097 0.96,-9.617 1.44,-9.141 0.96,-13.469 0.97,-12.504 0.48,-12.027 0,-11.543 -0.48,-11.059 -0.49,-11.062 -0.48,-10.102 -1.44,-9.617 -1.44,-9.621 -1.45,-8.656 -2.4,-8.657 -1.92,-8.179 -2.89,-7.696 -2.89,-7.695 -2.88,-6.734 -3.37,-6.731 -3.84,-6.254 -3.37,-5.773 -4.33,-5.77 -4.33,-5.293 -4.33,-4.808 -4.81,-4.809 -4.81,-4.328 -5.29,-3.851 -5.29,-3.844 -5.29,-3.367 -5.77,-2.887 -5.77,-2.887 -6.26,-2.886 -6.25,-2.403 -6.25,-1.926 -6.25,-2.402 -9.62,-1.926 -8.66,-1.441 -9.14,-0.961 -17.31,0 -8.18,0.476 -8.18,0.965 -7.69,1.446 -7.7,1.922 -7.21,2.406 -7.22,2.402 -7.21,3.367 -6.73,3.848 -6.74,3.848 -6.73,4.328 -6.25,4.808 -6.26,5.293 -6.25,5.77 -5.77,5.773 -5.77,6.254 -5.29,6.731 -5.77,7.214 -5.3,7.219 -4.8,7.692 -5.3,7.695 -4.81,8.18 -4.8,8.656 -4.82,8.656 -8.65,18.758 -8.66,19.238 -6.73,24.051 -7.7,23.082 -4.33,11.547 -4.81,11.062 -4.81,11.063 -5.29,10.578 -5.77,10.582 -6.73,10.102 -6.74,9.621 -7.21,9.617 -8.18,8.66 -8.65,8.656 -9.62,8.176 -10.11,7.215 -9.61,5.289 -10.1,4.328 -9.62,3.371 -9.62,2.883 -9.62,1.922 -9.62,0.965 -9.62,0.48 -9.14,-0.48 -9.62,-0.965 -9.14,-1.922 -9.14,-2.406 -8.65,-2.887 -9.14,-3.363 -8.66,-3.848 -8.66,-4.332 -8.17,-4.808 -8.18,-5.29 -8.18,-5.773 -8.17,-6.25 -7.7,-6.254 -7.69,-6.734 -7.22,-6.735 -7.21,-7.214 -7.21,-7.215 -13.47,-15.391 -12.51,-15.391 -11.54,-15.871 -10.59,-15.871 13.95,-3.367 14.43,-3.367 14.91,-3.367 13.47,-3.368 5.29,9.141 5.29,8.656 5.77,8.661 6.26,8.656 6.73,8.656 6.25,7.695 7.22,8.176 7.21,7.215 7.22,6.734 7.69,6.25 7.7,6.254 7.69,5.293 7.7,4.809 8.17,3.847 8.18,3.368 8.18,2.886 8.17,1.442 8.18,1.445 8.18,0 8.18,-0.965 7.69,-1.922 8.18,-2.886 7.69,-3.848 8.18,-4.813 7.21,-6.25 7.7,-7.214 7.21,-8.661 7.22,-10.097 6.73,-11.063 6.73,-12.504 6.26,-14.429 5.77,-15.391 -7.7,10.582 -7.69,10.098 -8.18,9.621 -8.66,8.656 -9.14,8.176 -9.13,7.219 -4.33,2.882 -4.81,2.887 -4.81,2.403 -4.81,2.406 -4.81,1.922 -5.29,1.445 -4.81,0.961 -4.81,0.965 -5.29,0.476 -5.29,0 -4.81,-0.476 -5.29,-0.965 -5.29,-1.445 -5.29,-1.918 -5.3,-2.411 -5.28,-3.363 -5.3,-3.367 -5.29,-3.852 -5.29,-4.804 -5.29,-5.293 -7.69,-8.176 -7.22,-8.656 -7.21,-9.141 -6.74,-9.137 -6.25,-9.617 -6.25,-9.621 -5.77,-10.101 -6.26,-9.622 -11.06,-20.679 -11.06,-20.684 -11.06,-20.679 -11.55,-20.2 10.59,-0.484 10.09,-0.477 10.59,-0.484 10.1,0 3.36,8.656 3.37,8.66 3.37,8.176 3.85,7.695 3.84,7.696 4.33,7.695 4.33,6.734 4.81,7.215 4.81,6.25 5.29,6.254 5.29,6.254 6.25,5.289 6.25,5.774 6.26,5.289 7.21,4.812 7.7,4.805 4.33,2.406 4.81,2.406 5.29,1.926 5.29,1.442 5.77,1.441 6.25,0.484 6.25,0.477 6.26,0 6.73,-0.477 6.74,-1.445 7.21,-1.441 7.21,-2.407 7.22,-2.886 7.69,-3.368 7.7,-4.328 7.7,-4.808 5.29,-4.328 5.77,-5.293 5.77,-6.731 6.25,-8.179 6.74,-8.657 6.73,-9.617 6.73,-10.582 6.74,-11.062 6.73,-12.028 7.22,-12.023 6.73,-12.504 6.25,-12.504 6.25,-12.988 6.25,-12.985 5.3,-12.508 5.29,-12.503 -11.07,15.39 -11.06,16.352 -12.02,16.836 -12.51,17.316 -12.98,16.832 -13.95,15.871 -6.73,7.215 -7.22,7.215 -7.21,6.734 -7.22,6.254 -7.21,5.289 -7.7,4.813 -7.69,4.328 -7.7,3.367 -8.18,2.883 -7.69,1.922 -8.18,0.965 -8.18,0 -8.17,-1.442 -8.66,-1.926 -8.17,-3.847 -8.66,-4.328 -8.66,-5.774 -9.14,-7.691 -8.66,-8.66 -9.13,-10.102 -5.78,-7.695 -5.77,-8.656 -4.81,-8.657 -4.81,-8.66 -3.85,-9.137 -3.36,-9.617 -3.37,-9.621 -2.88,-9.621 -5.3,-19.719 -4.8,-20.199 -4.33,-20.203 -4.33,-20.199 10.58,6.73 10.1,5.293 9.62,4.813 9.14,3.843 8.66,2.887 8.17,2.406 7.7,1.442 7.21,0.965 13.95,0 6.25,-1.446 5.78,-1.441 5.77,-1.926 5.28,-2.887 5.3,-2.882 5.29,-3.368 4.81,-3.847 4.33,-4.328 4.81,-4.329 4.32,-5.292 8.66,-10.102 9.14,-11.543 8.66,-11.543 9.14,-12.504 9.61,-12.027 10.59,-12.024 6.73,-6.73 7.22,-7.215 7.69,-6.734 8.18,-6.735 8.65,-6.734 9.14,-6.731 9.62,-6.734 9.62,-6.254 10.1,-5.769 10.59,-5.774 10.57,-5.773 10.59,-5.289 10.58,-4.809 11.06,-4.328 10.58,-4.332 11.06,-3.367 11.07,-3.364 10.58,-2.886 11.06,-1.926 10.58,-1.441 10.1,-1.442 20.2,0 9.62,0.961 9.14,1.441 9.14,2.407 8.17,3.367 8.18,3.848 7.7,4.808 6.73,5.774 6.25,6.25 5.77,7.695 5.29,6.734 4.82,6.254 5.76,6.25 5.78,5.293 5.77,5.289 5.77,4.813 6.25,4.328 6.74,4.328 6.25,3.367 6.73,3.363 6.73,2.887 6.74,2.406 7.21,1.922 6.74,1.446 7.21,0.961 6.74,0.484 8.17,0 8.66,-0.484 8.66,-1.442 8.18,-2.406 8.17,-2.887 8.18,-3.363 7.21,-4.328 7.22,-4.813 2.88,-2.883 2.89,-2.886 2.88,-2.887 2.89,-3.367 1.92,-2.887 2.41,-3.848 1.92,-3.367 1.44,-3.847 0.97,-3.848 0.96,-3.848 0.48,-4.328 0.48,-3.847 0,-4.813 -0.48,-4.328 -0.96,-4.805 -1.45,-4.812 6.26,0.961 5.77,0.964 5.77,0.961 5.77,1.442 5.77,1.926 5.29,1.921 5.29,2.407 5.78,2.886 4.8,2.887 5.3,2.883 5.29,3.848 4.81,3.847 4.81,4.332 4.81,4.805 4.32,4.813 4.33,5.292 4.33,5.77 4.33,6.25 3.85,6.254 4.33,7.215 3.84,7.215 3.37,8.175 3.85,8.176 3.36,8.66 2.89,9.137 3.37,9.621 2.89,10.098 2.88,10.582 2.41,11.062 2.4,11.543 2.41,12.028 1.92,12.504 0.96,24.046 1.44,24.528 0.97,24.051 0.96,24.05 0.96,24.528 0.96,24.047 1.44,24.05 0.96,24.528 0.97,24.05 0.96,24.047 0.96,24.047 1.44,24.531 0.97,24.051 0.96,24.047 0.96,24.527 0.96,24.051 9.14,2.887 8.18,2.887 8.66,3.363 8.65,3.848 8.18,3.847 7.69,4.328 8.18,4.813 7.7,5.769 7.21,5.774 7.7,6.25 6.73,7.215 6.73,7.695 6.74,8.176 6.25,8.656 5.77,10.106 5.77,10.097 -12.98,-1.441 -12.51,-0.965 -12.5,-0.961 -35.59,0 -11.55,0.961 -11.06,1.445 -11.06,1.446 -10.1,1.921 -10.59,2.883 -9.61,2.887 -9.62,3.852 -9.14,4.328 -8.66,4.808 -8.18,5.289 -4.32,2.887 -3.85,3.367 -3.37,3.363 -3.37,3.372 -2.88,3.367 -2.89,3.844 -2.4,3.367 -2.41,3.847 -1.92,3.852 -1.44,3.367 -1.44,3.844 -1.45,3.848 -1.44,8.179 -0.97,7.696 0,7.691 0.49,7.699 1.92,7.695 1.92,7.215 2.89,7.211 3.37,6.739 3.84,6.25 4.33,5.773 3.85,4.328 3.85,4.328 3.85,3.848 4.33,3.848 4.33,3.847 4.8,3.367 4.81,2.887 4.81,2.887 4.81,2.883 5.29,2.406 4.82,1.922 5.77,1.926 11.06,3.363 11.54,2.887 12.02,1.445 12.51,0.961 12.51,0 13.46,-0.481 13.95,-1.441 13.95,-1.926 14.43,-2.887 14.42,-3.363 21.17,-5.293 21.16,-4.812 21.16,-5.289 21.17,-4.809 21.64,-4.328 21.65,-4.328 21.16,-4.328 21.64,-3.848 21.64,-3.367 21.65,-3.367 21.64,-2.887 21.64,-2.402 21.17,-2.407 21.64,-1.445 21.64,-1.441 21.65,-0.961 -2.41,5.769 -1.44,5.774 -0.96,2.882 -1.44,2.411 -0.97,0.96 -0.96,0.481 -0.96,0.961 -1.44,0 -22.13,2.887 -21.16,2.882 -19.72,2.407 -18.28,3.367 -8.17,1.441 -8.18,1.926 -7.21,1.926 -7.22,2.402 -6.25,2.403 -5.77,2.886 -5.29,2.887 -4.33,3.367 -4.81,4.328 -3.85,4.328 -3.37,3.852 -3.36,4.328 -2.89,4.328 -2.4,4.328 -1.93,4.809 -1.44,4.326 -1.44,4.33 -0.49,4.81 -0.96,4.81 0,13.95 1.45,9.62 0.96,9.62 0.96,9.14 0.96,8.66 0,8.65 -0.48,8.18 -0.48,7.69 -1.44,7.7 -1.44,7.21 -1.93,7.22 -2.4,6.73 -2.41,6.73 -3.37,6.26 -3.36,6.25 -3.37,5.77 -4.33,5.29 -4.33,5.29 -4.81,5.29 -4.81,4.81 -5.29,4.81 -5.77,4.33 -5.77,4.33 -6.25,3.85 -6.26,3.85 -6.73,3.85 -7.21,3.36 -7.22,3.37 -7.69,2.88 -7.7,2.89 -15.87,5.29 -17.31,4.81 z m -1465.997,443.93 -20.203,10.59 13.949,13.46 12.984,11.54 12.508,9.63 11.543,8.17 6.254,3.85 5.77,3.37 5.773,3.36 6.25,2.89 12.988,5.77 13.465,4.81 6.254,1.92 6.25,1.45 5.777,1.44 6.25,0.96 5.77,0.96 5.773,0.49 5.774,0 5.769,0.47 11.063,-0.96 10.582,-1.44 10.097,-2.41 10.102,-2.88 9.137,-4.33 8.658,-4.81 8.18,-5.29 7.21,-6.26 3.37,-3.36 3.37,-3.37 2.88,-3.84 2.89,-3.85 2.88,-3.85 2.41,-3.85 1.92,-4.32 1.92,-4.34 5.3,-12.98 3.84,-13.47 3.37,-13.46 2.4,-13.95 1.93,-13.95 1.44,-13.95 0.97,-13.95 0.48,-13.95 1.44,-28.85 0.96,-28.38 0.96,-13.95 1.44,-14.43 1.45,-13.95 2.4,-13.94 2.41,-9.62 2.4,-9.62 2.89,-8.66 2.88,-8.66 3.37,-7.69 3.85,-7.22 3.85,-6.25 4.32,-6.25 4.81,-5.29 4.82,-5.3 4.8,-4.32 5.78,-3.85 5.29,-3.37 5.77,-2.89 6.25,-1.92 6.25,-1.92 6.74,-0.96 6.73,-0.48 6.73,0 7.22,0.48 7.21,0.96 7.7,1.44 7.69,1.93 7.7,2.89 8.18,2.88 8.17,3.85 8.66,4.32 8.18,4.82 8.65,5.29 8.66,5.76 9.14,6.74 8.66,6.73 30.78,24.53 30.3,24.53 29.34,24.05 28.38,23.57 28.38,23.09 27.41,22.6 26.93,22.13 25.98,21.64 25.97,20.68 25.49,20.2 24.53,19.24 24.53,18.28 24.05,17.31 23.56,16.36 23.09,15.38 23.09,13.95 -0.96,-15.39 -0.97,-15.39 0,-29.82 0.97,-14.91 1.44,-14.43 1.92,-14.43 1.93,-13.94 2.88,-13.95 3.37,-13.95 3.84,-13.47 4.33,-13.47 4.81,-12.98 5.29,-12.99 5.78,-12.5 6.73,-12.51 6.73,-12.02 7.22,-12.03 7.69,-11.54 8.18,-11.06 8.66,-11.07 9.62,-10.57 9.62,-10.11 10.1,-10.1 10.58,-9.61 11.54,-9.14 11.54,-8.66 12.03,-8.66 12.5,-8.18 13.47,-7.69 13.47,-7.7 13.95,-6.73 -12.03,-10.58 -12.99,-10.1 -13.46,-9.14 -14.43,-9.14 -7.21,-3.85 -7.7,-4.32 -7.7,-3.86 -8.17,-3.36 -8.18,-3.37 -8.66,-3.36 -9.13,-2.89 -8.66,-2.89 -1.93,15.4 -4.32,13.94 -5.78,12.51 -7.69,10.58 -9.62,8.66 -10.58,7.69 -12.51,5.77 -13.46,4.82 -14.91,2.88 -15.4,1.93 -16.83,0.48 -17.31,-0.48 -17.8,-1.93 -18.27,-2.88 -18.77,-3.86 -18.75,-5.28 -18.76,-5.77 -19.24,-6.74 -18.76,-7.69 -18.27,-8.66 -17.8,-9.14 -17.31,-9.62 -16.36,-10.58 -15.87,-11.06 -14.91,-11.55 -13.47,-12.02 -12.5,-12.51 -11.07,-12.5 -9.13,-12.99 -8.18,-13.46 -5.77,-13.47 -4.33,-13.47 -2.88,-13.47 -3.85,-12.02 -3.37,-10.58 -3.85,-10.1 -3.84,-8.66 -4.33,-7.21 -4.33,-6.74 -4.33,-5.77 -4.81,-4.81 -4.33,-3.84 -4.81,-3.37 -4.81,-2.41 -4.81,-1.92 -4.81,-0.96 -5.29,-0.48 -4.81,0 2.41,4.32 1.44,4.33 1.44,4.33 1.45,4.33 0.96,4.33 0.48,4.33 0.48,3.85 0,8.17 -0.48,3.85 -0.96,3.85 -0.97,3.84 -0.96,3.37 -1.44,3.37 -1.44,3.37 -1.93,3.36 -4.33,6.25 -5.28,5.78 -6.26,5.29 -6.73,4.8 -7.22,3.86 -8.17,3.84 -8.66,2.89 -9.14,1.92 -10.58,1.93 -10.58,1.44 -10.59,0.48 -10.57,0.48 -10.59,-0.48 -10.58,-0.96 -10.58,-0.96 -11.06,-1.93 -10.1,-1.44 -10.1,-0.96 -10.58,-0.48 -10.59,0 -10.57,0.48 -10.59,1.44 -10.58,1.92 -10.58,2.41 -10.1,3.85 -9.62,4.33 -4.33,2.4 -4.81,2.88 -4.33,2.89 -4.33,3.37 -4.32,3.37 -3.85,3.84 -3.85,3.85 -3.85,4.33 -3.365,4.81 -3.367,4.81 -2.883,5.29 -2.887,5.29 -10.101,21.16 -10.578,19.72 -10.106,19.72 -10.097,18.28 -10.102,17.31 -10.582,15.88 -5.289,7.69 -5.293,7.21 -5.77,6.74 -5.289,6.73 -5.773,6.26 -5.77,5.77 -5.773,5.29 -5.773,5.29 -5.77,4.33 -6.25,4.33 -6.254,3.36 -6.254,3.37 -6.734,2.89 -6.735,2.4 -6.73,1.44 -6.734,1.45 -7.215,0.96 -7.696,0 -7.214,-0.48 -7.696,-0.97 1.922,12.03 2.406,11.55 2.883,12.01 3.367,11.55 2.411,5.77 1.921,5.77 2.883,5.29 2.887,5.3 3.367,5.29 3.367,5.29 3.848,4.33 4.809,4.81 5.293,5.28 5.769,3.85 6.254,3.85 5.77,2.89 5.773,1.92 6.254,1.44 6.25,0.48 6.254,-0.48 6.734,-0.96 6.254,-1.92 6.731,-2.41 6.734,-3.37 6.734,-3.84 6.735,-4.81 6.73,-5.77 7.215,-6.26 5.293,-5.29 5.289,-5.77 5.293,-5.77 4.809,-6.25 10.582,-13.47 10.097,-14.91 10.102,-15.39 10.58,-16.35 10.1,-16.84 10.58,-17.31 -9.14,26.93 -7.69,23.09 -7.215,19.24 -6.735,16.83 -3.363,7.7 -3.852,7.69 -3.847,7.22 -3.848,7.21 -9.137,14.43 -11.062,15.39 -4.328,4.81 -3.848,4.81 -4.808,4.33 -4.329,4.33 -4.812,3.36 -4.809,3.37 -4.812,2.89 -5.289,2.88 -4.809,2.41 -5.293,1.92 -5.289,1.44 -5.289,0.97 -5.293,0.96 -5.289,0.48 -5.289,0.48 -5.773,-0.48 -5.293,0 -5.289,-0.96 -5.293,-0.96 -5.289,-1.45 -5.29,-1.44 -5.293,-2.41 -5.289,-1.92 -4.808,-2.88 -4.813,-2.89 -4.808,-2.88 -4.809,-3.37 -4.808,-3.85 -4.329,-3.85 -4.332,-4.33 -4.328,-4.33 -3.847,-4.8 -36.071,14.91 12.985,12.98 13.945,13.95 14.434,14.43 15.386,13.95 7.7,6.73 8.175,6.73 8.176,5.78 8.176,5.77 8.176,5.28 8.175,4.82 8.661,4.33 8.175,3.84 8.657,2.41 8.179,2.4 8.172,0.97 8.66,0.47 8.176,-0.96 8.176,-1.44 8.18,-2.89 7.695,-3.84 8.176,-5.29 7.695,-6.74 7.215,-7.69 7.695,-9.14 7.215,-11.07 6.73,-12.01 6.732,-13.95 6.74,-15.88 -0.48,10.59 -1.44,10.57 -2.41,10.59 -2.89,10.58 -3.845,10.58 -4.328,10.1 -5.293,9.62 -5.289,9.14 -6.254,8.66 -7.211,7.69 -3.371,3.37 -3.844,3.36 -3.852,3.37 -3.843,2.41 -3.848,2.88 -4.328,1.92 -4.332,2.41 -4.328,1.44 -4.329,1.45 -4.808,0.96 -4.813,0.48 -4.328,0.48 -6.734,0 -6.254,-0.48 -5.77,-0.48 -6.25,-0.96 -5.773,-0.97 -6.25,-1.44 -5.773,-1.92 -6.254,-2.41 -6.254,-2.4 -6.731,-3.37 -6.734,-3.37 -6.734,-3.84 -7.215,-4.81 -7.696,-4.81 -8.175,-5.29 -8.176,-6.26 z m 395.837,146.22 -13.47,-2.89 -13.46,-2.88 -13.47,-2.41 -12.99,-1.92 -13.46,-0.97 -12.99,-0.96 -12.99,0 -12.5,0.96 -6.25,0.97 -6.26,0.96 -6.25,0.96 -5.77,1.93 -6.25,1.44 -5.78,2.4 -5.77,2.41 -5.77,2.4 -5.77,3.37 -5.77,3.37 -5.3,3.36 -5.29,4.33 -5.28,4.33 -5.3,4.81 -4.81,5.29 -5.29,5.29 -20.195,27.89 8.655,-0.96 7.22,-0.96 7.21,0 6.25,0.48 5.77,0.97 4.81,0.96 4.81,1.92 3.85,1.93 3.37,1.92 2.88,2.89 2.41,2.88 1.92,2.88 1.45,3.38 1.44,3.36 0.48,3.85 0.48,3.85 0,7.69 -0.96,3.85 -0.48,3.37 -1.45,3.85 -1.44,3.36 -1.92,3.85 -2.41,3.37 -4.81,6.73 -5.77,6.25 -7.21,6.26 -7.22,5.77 -8.17,5.77 -8.66,5.29 -9.142,5.29 -9.617,5.29 -19.238,9.62 -19.238,9.14 42.804,-223.65 9.621,-4.33 9.62,-5.29 8.65,-5.77 8.66,-6.73 8.18,-7.22 7.7,-7.7 7.69,-9.14 6.73,-9.62 2.89,-5.29 3.37,-5.77 2.88,-5.77 2.41,-6.25 2.88,-6.26 2.41,-6.73 2.4,-6.73 1.93,-7.22 3.85,-15.87 3.36,-16.83 2.41,-18.28 1.44,-20.2 0.96,-14.91 0.96,-14.91 1.44,-15.39 0.97,-14.91 1.92,-14.91 1.92,-14.91 2.41,-14.91 2.89,-14.43 1.92,-8.66 1.92,-7.69 2.41,-6.73 2.4,-6.74 2.41,-5.77 2.88,-5.29 2.89,-4.81 3.37,-4.33 3.36,-3.85 3.37,-2.89 3.85,-2.88 3.85,-2.4 3.84,-1.45 3.85,-1.44 4.33,-0.96 4.33,-0.48 4.33,0 4.33,0.48 4.81,0.48 4.8,0.96 4.82,1.44 4.81,1.93 4.8,1.92 5.3,2.4 10.09,5.78 10.59,6.73 10.58,7.7 11.06,8.17 34.63,28.38 34.63,27.9 34.63,27.89 34.63,27.9 34.63,28.38 34.63,27.89 35.11,27.9 34.63,28.37 0.96,12.99 0,25.49 -0.96,12.03 -0.96,5.77 -0.97,5.77 -1.44,5.77 -1.92,5.29 -1.92,5.29 -2.41,5.29 -2.4,5.29 -2.89,4.82 -3.37,4.8 -3.84,4.33 -3.85,4.33 -4.33,4.33 -4.81,4.33 -5.29,3.84 -5.78,3.86 -6.25,3.36 -6.73,3.37 -7.21,3.36 -7.7,2.89 -8.18,2.89 -9.14,2.4 -9.13,2.41 -10.1,2.4 -10.11,1.92 -13.46,1.93 -12.5,1.44 -11.55,1.45 -11.06,0.47 -10.58,0 -10.1,-0.47 -10.1,-0.49 -9.62,-0.96 -20.2,-2.88 -21.65,-4.33 -23.56,-4.33 -27.9,-5.29 z m -2.41,40.4 23.09,4.81 22.6,3.85 21.17,2.88 20.68,2.41 19.72,1.44 19.24,0.48 18.28,0 17.31,-0.96 16.35,-1.44 15.88,-2.41 14.91,-2.89 13.94,-3.36 13.47,-3.85 12.51,-4.81 11.54,-5.29 11.06,-5.29 10.1,-6.25 9.14,-6.74 8.66,-7.21 7.69,-7.22 6.74,-7.69 6.25,-8.18 5.29,-8.65 4.33,-8.66 3.85,-9.14 3.36,-9.14 1.93,-9.62 1.44,-9.62 0.96,-9.62 -0.48,-10.1 -0.48,-10.1 -1.93,-10.1 18.77,12.51 19.71,13.95 20.2,14.43 20.21,14.42 19.72,14.91 19.23,13.95 17.32,12.99 16.35,11.54 3.85,15.87 4.81,15.39 5.29,14.91 5.77,13.95 6.25,13.95 6.74,13.47 7.21,12.98 8.18,12.99 8.66,12.99 9.13,12.5 9.62,12.51 10.59,12.98 10.58,12.51 11.54,12.5 12.02,12.99 12.99,12.98 -22.61,4.81 -22.12,3.85 -22.13,3.37 -22.12,3.37 -21.64,2.4 -21.65,1.92 -22.12,1.93 -21.64,0.96 -22.13,0.96 -22.12,0.96 -67.82,0 -23.09,-0.48 -23.08,-0.96 -24.05,-0.48 -18.28,-0.48 -17.8,-0.48 -17.79,0 -16.83,0.48 -16.84,0.48 -16.35,0.96 -15.87,0.96 -15.39,1.45 -15.39,1.44 -14.43,1.92 -14.43,2.41 -13.47,2.88 -13.47,2.89 -12.99,2.89 -12.5,3.84 -12.02,3.37 -12.03,4.33 -11.06,4.33 -10.58,4.81 -10.58,5.29 -9.62,5.29 -9.14,5.77 -9.14,6.25 -8.17,6.74 -8.18,6.73 -7.69,7.22 -6.74,7.21 -6.73,8.18 -5.77,8.17 -5.78,8.18 -4.81,9.14 -4.81,9.14 -3.36,8.17 -3.37,8.66 -2.88,8.17 -2.89,8.18 -2.41,8.18 -1.92,8.66 -1.93,8.17 -1.92,8.66 -2.4,17.32 -1.93,17.79 -0.96,17.8 0,18.76 0.96,19.23 0.97,19.72 2.4,20.69 2.4,21.16 3.37,22.12 3.37,23.09 4.33,23.57 4.81,25.01 1.92,14.42 1.44,13.95 0.49,12.99 -0.97,12.51 -1.44,12.02 -2.41,11.06 -3.36,10.58 -4.33,9.62 -4.81,9.14 -5.77,8.18 -6.25,7.69 -7.22,6.74 -7.69,5.77 -8.66,5.29 -8.66,4.81 -10.1,3.37 -10.1,2.88 -10.58,2.4 -11.544,0.97 -11.543,0.48 -12.023,-0.48 -12.508,-0.97 -12.984,-1.92 -13.469,-2.88 -13.469,-3.85 -13.945,-4.81 -13.95,-5.77 -14.429,-6.26 -14.91,-7.21 -14.426,-8.66 -14.91,-9.14 -15.395,-10.1 19.238,-19.24 11.067,7.7 10.582,6.73 10.578,5.77 10.582,4.81 10.582,4.33 10.582,3.85 10.098,2.4 9.621,2.41 10.101,0.97 9.137,0.95 9.141,0 9.136,-0.95 8.657,-1.45 8.176,-1.93 7.695,-2.88 7.699,-3.37 6.731,-3.84 6.732,-4.33 6.25,-5.29 5.78,-5.78 5.29,-6.25 4.33,-6.73 4.32,-7.7 3.37,-7.69 2.89,-8.18 2.4,-9.14 1.93,-9.14 0.96,-10.1 0,-21.16 -1.45,-11.06 -1.92,-11.54 -0.96,15.87 -2.41,13.95 -3.36,12.98 -4.81,11.06 -5.29,9.63 -6.74,8.17 -7.21,7.22 -8.177,5.77 -8.656,4.33 -9.141,3.36 -10.097,1.93 -10.106,1.44 -11.058,0 -11.067,-0.48 -11.543,-1.92 -11.539,-2.41 -12.027,-2.89 -11.543,-3.84 -12.023,-4.33 -12.024,-5.3 -11.543,-5.77 -11.543,-5.77 -11.062,-6.25 -10.582,-7.21 -10.582,-6.74 -10.102,-7.21 -9.137,-7.7 -8.66,-7.69 -8.172,-7.22 -7.215,-7.69 -6.253,-7.7 -5.774,-7.21 7.215,-6.73 7.215,-6.26 6.734,-6.25 7.215,-6.26 6.734,8.66 7.211,8.18 6.739,7.7 7.691,7.69 7.219,7.22 7.691,6.25 7.695,6.25 7.7,5.77 8.175,4.81 8.657,4.81 8.175,3.85 8.657,2.88 8.66,2.89 9.137,1.44 9.14,1.44 9.621,0 8.172,-0.47 8.18,-0.97 7.691,-1.44 7.215,-2.41 6.254,-2.88 6.254,-3.85 5.769,-3.85 5.293,-4.33 4.809,-4.8 4.328,-5.29 3.848,-5.78 3.367,-6.25 3.367,-6.25 2.887,-6.73 2.406,-6.74 1.922,-7.21 1.441,-7.22 1.446,-7.69 0.961,-7.7 0.48,-8.18 0,-15.39 -0.48,-8.17 -0.481,-8.18 -0.961,-7.69 -1.445,-8.18 -1.441,-7.7 -1.926,-7.69 -1.922,-7.21 -2.406,-7.22 -2.883,-7.22 -2.887,-6.73 0,21.17 -0.484,20.2 -0.481,10.09 -0.961,9.62 -0.961,9.14 -1.441,9.14 -1.926,8.66 -2.402,8.17 -2.406,8.18 -2.887,7.69 -3.367,7.22 -3.848,6.73 -4.328,5.78 -4.813,5.77 -6.25,5.77 -6.25,4.81 -6.738,3.37 -6.73,2.4 -6.735,1.93 -7.215,0.47 -6.734,0 -7.211,-0.96 -7.215,-1.92 -7.218,-2.4 -7.215,-2.89 -6.731,-3.85 -7.215,-4.33 -7.214,-4.81 -7.215,-5.29 -6.735,-5.77 -6.73,-5.77 -6.734,-6.26 -6.254,-6.73 -6.25,-6.73 -12.028,-13.95 -10.582,-14.43 -10.097,-13.94 -8.18,-13.95 -6.731,-12.51 -5.293,-11.06 12.508,2.88 11.543,1.93 10.578,0.96 10.102,-0.48 9.621,-1.44 9.137,-1.93 8.176,-3.37 7.699,-3.84 7.211,-4.81 6.734,-5.77 5.77,-6.26 5.773,-6.73 5.293,-7.7 4.809,-7.69 3.847,-8.66 4.328,-9.14 3.368,-9.13 3.367,-9.63 2.402,-10.09 2.887,-10.1 4.328,-20.69 3.367,-21.16 4.813,-41.36 3.847,-38 0.961,-8.17 1.442,-8.18 1.925,-7.7 2.403,-6.73 2.406,-6.73 3.363,-6.26 3.371,-5.77 3.368,-5.29 3.843,-4.81 4.332,-4.33 4.328,-4.33 4.809,-3.36 4.813,-3.37 4.808,-2.89 5.289,-2.4 5.293,-1.92 16.352,-5.78 17.798,-7.69 9.14,-3.85 9.13,-4.81 9.14,-4.81 9.14,-5.77 8.66,-5.77 8.18,-5.77 7.69,-6.74 7.22,-7.21 6.73,-7.22 5.77,-8.17 2.41,-3.85 2.4,-4.33 1.92,-4.33 1.93,-4.81 2.4,-8.66 1.93,-8.17 1.44,-7.7 0.48,-7.69 0,-7.22 -0.96,-6.73 -1.45,-6.25 -2.4,-6.26 -2.41,-5.28 -3.36,-5.3 -3.37,-4.81 -4.33,-3.84 -4.33,-3.85 -5.28,-2.89 -5.3,-2.88 -5.77,-2.41 8.66,-4.33 8.17,-3.84 8.18,-2.89 7.7,-2.41 7.69,-1.44 7.7,-0.96 7.69,-0.48 7.7,0 8.18,0.96 8.65,0.96 9.14,1.44 9.62,1.93 21.65,4.33 24.52,5.77 z m -474.712,707.02 9.617,-0.48 10.101,0 9.141,-0.96 9.137,-0.96 9.14,-1.44 8.657,-2.41 8.656,-2.89 8.656,-3.84 -12.504,-10.59 -12.504,-10.58 -11.543,-11.06 -11.543,-11.54 -11.543,-12.51 -11.546,-13.47 -12.02,-14.42 -12.508,-15.88 6.735,-3.84 6.734,-4.33 6.73,-4.33 7.219,-4.81 12.985,-10.1 12.023,-10.58 -6.254,-12.03 -6.734,-12.02 -6.25,-11.54 -6.735,-13.47 -7.215,-15.39 -7.695,-17.79 -7.695,-22.13 -9.137,-26.93 8.176,4.33 8.656,4.8 10.102,4.33 10.578,4.33 11.066,3.85 11.059,3.36 11.547,2.41 11.543,1.92 15.871,0 5.289,-0.48 4.808,-0.96 4.813,-1.44 4.328,-1.93 3.848,-2.4 3.847,-2.41 3.848,-3.36 2.887,-3.37 2.883,-4.33 2.41,-4.81 1.441,-5.29 1.442,-6.25 0.96,-6.26 -5.769,-4.8 -5.773,-4.81 -6.25,-4.33 -6.735,-3.85 -6.254,-3.85 -7.215,-3.84 -6.734,-2.89 -7.215,-2.89 -7.211,-2.88 -7.215,-2.41 -7.695,-1.92 -7.699,-1.44 -7.692,-1.45 -8.179,-0.48 -7.696,-0.96 -17.312,0 -8.656,0.96 -8.66,0.97 -8.176,1.44 -8.176,1.92 -8.18,2.4 -8.172,2.41 -7.699,3.37 -7.695,3.37 -7.215,3.84 -7.211,3.85 -7.215,4.33 -6.734,4.81 -6.254,5.29 -6.25,5.29 -6.254,5.29 -5.773,6.25 -5.293,5.78 -5.289,6.73 -4.809,6.73 -4.328,6.73 -3.848,7.22 -3.847,7.21 -3.848,7.22 -2.887,7.69 -2.887,8.18 -1.921,7.7 -1.922,8.17 -1.926,8.66 -0.965,8.17 -0.476,8.66 -0.485,8.66 0.485,8.66 0.476,8.66 0.965,8.65 1.926,8.18 1.922,8.17 1.921,8.18 2.887,7.7 2.887,7.69 3.848,7.7 3.847,7.21 3.848,7.22 4.328,6.73 4.809,6.73 5.289,6.26 5.293,6.25 5.773,5.77 6.254,5.78 6.25,5.28 6.254,5.3 6.734,4.33 7.215,4.8 7.211,3.85 7.215,3.85 7.695,3.37 7.699,2.88 8.172,2.89 8.18,2.4 8.176,1.45 8.176,1.92 8.66,0.96 8.656,0.48 9.137,0.48 z m -16.832,-673.35 5.769,-24.53 5.293,-25.01 5.289,-24.53 5.293,-24.53 5.289,-25.01 5.289,-24.53 5.293,-24.53 5.77,-25.01 -4.809,-6.25 -5.773,-7.22 -6.254,-7.69 -6.731,-7.7 13.946,-3.85 12.988,-4.33 6.25,-2.88 6.254,-2.41 5.773,-3.37 5.293,-2.88 -8.66,-8.17 -10.101,-10.11 -11.063,-12.02 -11.539,-12.51 -12.027,-13.46 -11.543,-13.47 -11.063,-13.47 -10.097,-12.5 12.5,0 12.027,-0.96 11.062,-1.45 10.102,-2.4 10.098,-2.4 9.14,-3.37 8.656,-3.37 8.657,-3.37 -3.364,-8.18 -2.886,-8.65 -2.887,-9.62 -2.887,-10.58 -2.406,-11.06 -2.402,-11.55 -2.407,-11.54 -1.921,-12.02 -1.926,-12.03 -1.442,-11.54 -1.445,-11.54 -0.961,-10.58 -0.48,-10.59 0,-18.75 0.48,-7.7 5.774,10.58 5.769,10.1 3.367,4.81 2.887,4.33 3.848,4.33 3.367,3.85 3.848,3.36 3.847,2.89 4.328,2.88 4.809,2.41 4.812,1.92 4.809,1.45 5.773,0.48 5.289,0.48 38.477,-189.02 121.203,-83.21 11.547,-58.68 11.543,-58.2 11.54,-58.673 11.54,-58.199 12.03,-58.676 11.54,-58.68 11.55,-58.195 11.54,-58.68 11.54,-58.679 12.02,-58.196 11.55,-58.679 11.54,-58.676 11.54,-58.199 11.55,-58.676 11.54,-58.68 12.03,-58.195 23.56,-24.051 23.57,-24.527 24.05,-24.051 23.57,-24.047 23.57,-24.0508 24.04,-24.5274 23.57,-24.0508 23.57,-24.04684 -5.78,30.78514 -5.77,30.7813 -5.77,30.7812 -5.77,31.2622 -5.77,30.781 -5.77,30.781 -6.26,30.785 -5.77,30.781 8.18,4.809 8.18,4.328 7.21,3.367 7.22,2.887 6.73,1.922 6.73,1.445 6.25,0.961 11.55,0 5.29,-0.961 5.29,-1.445 4.81,-1.441 4.81,-1.926 4.81,-2.887 4.33,-2.883 4.33,-2.886 4.32,-3.848 3.86,-3.848 4.32,-3.847 3.85,-4.329 7.7,-9.621 7.69,-9.617 7.7,-10.101 8.17,-10.582 8.18,-10.098 8.65,-10.102 8.18,-8.175 8.66,-8.657 9.14,-8.179 9.14,-7.696 10.1,-8.175 10.1,-7.696 10.58,-7.215 10.58,-7.214 11.06,-6.731 11.55,-6.254 11.54,-6.2538 12.02,-5.7734 11.55,-5.2891 12.02,-4.8086 12.51,-4.3281 12.02,-3.8516 12.02,-2.8828 12.51,-2.8867 12.03,-1.9219 12.02,-0.9648 12.02,-0.9609 12.03,0.4843 11.54,0.961 11.54,1.4414 11.54,2.8867 11.07,3.3672 11.06,4.3281 10.58,5.2891 10.1,6.2539 9.62,7.2148 9.62,8.1762 8.66,9.136 7.69,8.18 7.22,7.695 7.21,6.731 8.18,6.254 4.33,2.886 4.33,2.403 4.81,1.926 4.81,1.925 5.29,1.442 5.29,0.961 6.25,0.961 13.95,0 3.36,-0.961 3.37,-0.481 3.37,-0.961 3.37,-1.445 2.88,-1.441 2.89,-1.926 2.4,-1.922 2.4,-1.926 2.41,-2.402 1.93,-2.887 1.44,-2.406 1.44,-2.887 0.96,-3.367 0.96,-2.883 0.97,-3.848 0,-11.062 -0.97,-3.848 -0.48,-4.328 -1.44,-3.851 -1.92,-4.3286 -1.92,-4.8046 -2.41,-4.3321 -2.41,-4.8086 -3.36,-4.8125 -3.37,-4.8086 -3.85,-4.8086 -4.81,-4.8086 -4.81,-4.8125 20.2,1.4454 18.76,2.4023 17.8,3.3672 16.83,3.3672 15.39,4.3281 14.91,4.8125 13.95,4.8086 12.51,5.7734 12.02,6.25 11.06,6.254 10.1,7.215 9.62,7.211 8.66,7.699 7.69,8.176 7.22,8.176 6.73,9.136 6.26,8.66 5.29,9.137 4.8,9.617 4.34,9.621 3.36,10.102 3.37,9.621 2.88,10.098 2.41,10.582 2.4,10.101 1.93,10.582 1.44,10.582 0.96,10.578 1.93,21.165 0.96,20.679 13.95,347.742 23.08,17.313 23.09,17.797 11.06,9.137 11.06,10.101 10.59,9.621 10.09,10.582 10.11,11.059 9.62,11.543 8.65,12.508 8.66,12.984 7.69,13.469 7.7,14.91 3.37,7.215 3.36,8.175 2.89,8.176 2.89,8.18 -12.99,-2.887 -12.99,-2.406 -12.98,-1.922 -12.51,-1.445 -12.5,-0.961 -12.99,-0.961 -12.5,-0.484 -24.53,0 -12.51,0.484 -12.02,0.476 -12.03,1.446 -12.02,0.965 -12.03,1.922 -12.02,1.921 -12.02,1.926 -6.74,2.887 -5.77,3.367 -5.77,3.844 -4.81,3.851 -4.33,4.329 -3.85,4.328 -3.36,4.808 -2.41,4.809 -1.92,5.293 -0.96,4.808 0,5.293 0.47,5.289 1.45,5.293 1.92,5.289 3.37,4.809 3.85,5.289 5.77,5.293 5.29,4.809 5.77,4.328 5.78,3.847 5.77,3.372 6.25,2.882 6.25,2.407 6.25,2.402 6.26,1.926 6.73,0.961 6.25,1.441 6.74,0.481 6.73,0.484 7.21,0.48 6.74,-0.48 7.21,0 14.43,-1.445 14.43,-2.407 14.91,-2.402 14.91,-3.367 30.78,-7.215 30.78,-7.215 36.56,-7.695 37.51,-8.176 38.48,-7.215 38.96,-6.734 19.72,-2.887 19.72,-2.883 19.24,-2.406 19.23,-2.406 19.25,-1.922 19.23,-1.922 18.76,-1.445 18.76,-0.961 110.62,-191.426 6.25,-12.023 6.26,-11.543 6.25,-10.102 6.73,-9.621 6.25,-9.137 7.22,-8.176 6.73,-7.214 7.22,-6.735 7.69,-5.773 7.22,-5.77 7.69,-4.808 8.18,-3.848 8.18,-3.848 8.17,-2.886 8.18,-2.407 8.66,-1.925 8.65,-1.918 9.14,-0.965 8.66,-0.481 9.62,-0.48 9.14,0 9.62,0.48 9.62,0.481 10.1,0.965 20.2,2.882 20.68,3.848 21.64,3.848 22.13,4.808 10.58,1.926 10.1,1.926 9.62,1.441 9.14,0.961 9.13,0.481 8.66,0 8.18,-0.481 7.7,-0.48 7.69,-0.961 7.22,-1.445 6.73,-1.922 6.25,-1.922 6.25,-2.41 5.78,-2.883 5.29,-3.367 5.29,-3.368 4.8,-4.328 4.33,-4.328 4.33,-4.328 3.85,-5.293 3.37,-5.289 2.89,-5.769 2.88,-5.778 2.4,-6.73 1.93,-6.254 1.92,-7.215 1.45,-7.695 1.44,-7.692 0.96,-7.699 0.48,-8.656 0,-17.317 -0.48,-8.656 -0.48,-8.656 -0.96,-7.699 -1.45,-8.172 -1.92,-7.215 -2.41,-7.219 -2.4,-7.211 -2.88,-6.734 -3.37,-6.254 -3.85,-6.254 -3.85,-5.769 -4.32,-5.29 -4.33,-5.293 -5.3,-4.808 -5.28,-4.809 -5.3,-3.851 -6.25,-3.844 -6.25,-3.848 -6.74,-2.886 -6.73,-2.887 -7.21,-2.406 -7.7,-1.922 -8.17,-1.922 -8.18,-1.445 -8.18,-0.965 -9.13,-0.477 -9.15,0 -9.13,0.477 -10.1,0.484 -10.11,0.961 -10.09,1.926 -10.58,1.922 -13.47,2.886 -12.99,3.368 -12.51,4.328 -12.98,4.808 -12.51,5.293 -12.5,5.77 -12.51,6.254 -12.5,7.215 -12.51,7.695 -12.5,8.176 -12.51,8.656 -12.5,9.621 -12.51,9.617 -12.5,10.582 -12.51,11.063 -12.98,11.543 -14.91,12.988 -14.43,11.062 -14.43,8.657 -14.43,7.215 -13.95,5.289 -13.95,3.851 -13.47,1.922 -13.46,0.481 -12.98,-0.961 -12.51,-2.407 -12.51,-3.847 -12.02,-4.809 -12.03,-6.254 -11.06,-7.215 -11.06,-8.175 -10.58,-9.137 -10.1,-10.102 -9.62,-11.062 -9.14,-11.543 -9.14,-12.024 -8.18,-12.988 -7.69,-12.984 -7.22,-13.949 -7.21,-13.946 -6.26,-14.433 -5.28,-14.426 -5.29,-14.43 -4.34,-14.91 -4.32,-14.43 -2.89,-14.91 -2.88,-14.426 -1.93,-13.949 73.11,-7.215 -2.41,-12.508 -1.92,-14.429 -1.92,-15.871 -1.44,-17.317 -1.45,-17.793 -1.44,-18.277 -0.96,-18.758 -0.96,-18.758 19.23,4.328 16.36,3.368 14.91,2.402 13.46,2.41 12.51,1.442 11.54,1.441 11.55,1.445 12.02,1.442 1.44,-9.141 1.93,-11.059 2.4,-12.023 1.92,-13.4687 2.41,-14.4297 1.93,-14.4297 1.92,-14.4297 1.44,-14.4258 4.81,11.0586 5.29,10.5821 5.77,11.0625 6.73,10.582 6.74,10.1016 7.21,9.6168 3.37,4.328 3.85,4.329 4.33,3.851 3.84,3.844 4.34,3.371 4.32,3.367 4.33,2.883 4.33,2.406 4.81,1.922 4.81,1.922 4.81,0.965 4.81,0.961 5.29,0.484 4.81,-0.484 5.29,-0.481 5.29,-0.961 5.29,-1.925 5.78,-2.403 5.28,-2.886 5.77,-3.848 22.61,-15.391 24.53,-15.3943 12.5,-8.1719 12.51,-7.6992 12.99,-7.2109 13.46,-7.2149 13.47,-7.2148 13.47,-6.7344 13.95,-6.2539 13.94,-5.7695 13.95,-5.293 13.95,-4.8086 13.95,-4.3281 13.95,-3.3672 13.95,-2.4062 13.95,-1.9219 13.94,-0.9609 13.47,0 13.46,0.9609 13.47,2.4062 12.99,2.8829 12.99,4.8085 12.5,5.293 12.02,7.2149 12.03,8.1757 11.54,9.6211 11.07,11.543 10.57,12.5039 10.59,14.4297 9.62,15.8709 6.25,10.098 5.77,8.66 6.25,7.695 6.25,6.254 6.26,5.77 6.73,4.328 6.25,3.367 5.78,2.887 6.25,1.441 5.77,0.965 5.77,0 5.77,-0.965 5.3,-1.922 5.28,-1.922 4.81,-3.367 4.33,-3.371 3.85,-4.328 3.85,-4.809 3.37,-5.773 2.88,-5.77 2.41,-6.25 1.44,-7.218 1.44,-7.211 0.48,-7.215 0,-8.1758 -0.48,-8.1797 -0.96,-8.6563 -2.41,-8.6562 -2.4,-8.6563 -3.85,-9.1406 -4.33,-9.1367 -4.8,-9.1406 8.65,0 8.66,0.4804 8.18,0.961 8.65,1.4453 8.18,1.9258 8.66,2.4023 8.18,2.4062 8.17,3.3633 8.66,3.3672 8.17,3.8516 8.18,4.8086 8.17,4.8086 8.67,5.7734 8.17,5.7695 8.18,6.7344 8.65,7.2149 5.78,5.7695 5.77,5.7734 5.29,6.2538 5.29,6.731 4.81,6.734 4.33,7.215 4.33,7.695 3.84,8.176 3.37,8.18 3.37,8.656 2.88,9.14 2.41,9.618 2.4,9.621 1.93,10.097 1.92,10.582 1.44,10.579 0.96,11.066 0.48,11.543 0.49,12.023 0,25.008 -0.49,12.988 -0.96,13.465 -1.44,13.95 -1.44,13.949 -1.44,14.429 -2.41,14.911 -2.4,15.39 -5.78,31.746 -7.21,33.184 -3.85,17.797 -3.36,17.793 -3.37,17.797 -2.89,18.277 -2.4,18.277 -1.92,18.758 -1.93,18.758 -0.96,18.758 -0.97,19.242 -0.96,19.238 0,38.957 0.49,19.719 0.96,20.199 1.44,20.203 1.93,20.68 10.09,7.215 9.62,8.176 9.62,8.656 9.14,8.66 8.66,9.617 8.17,9.621 7.7,10.582 7.21,11.543 6.74,11.543 6.25,12.985 5.29,13.468 4.81,13.95 4.33,15.39 3.37,16.352 2.88,17.316 1.45,18.278 -26.94,-6.254 -26.93,-5.289 -27.42,-5.293 -27.41,-4.809 -27.9,-4.328 -27.89,-3.848 -28.38,-3.367 -28.38,-3.367 -28.86,-2.406 -28.86,-1.922 -29.33,-1.442 -29.34,-0.964 -29.82,-0.481 -29.82,0 -30.31,0.961 -30.3,1.445 -15.39,0.961 -15.39,1.922 -7.21,1.445 -7.22,0.961 -6.73,1.926 -7.22,1.922 -6.73,1.922 -6.25,2.406 -6.25,2.406 -6.26,3.368 -5.77,2.886 -5.77,3.844 -5.29,3.852 -4.81,4.328 -5.29,4.808 -4.33,4.809 -4.33,5.773 -3.85,5.774 -3.85,6.73 -3.36,6.735 -2.89,7.215 -2.88,8.175 -2.41,8.18 -1.92,8.656 -1.45,9.621 -1.44,10.09 -0.96,10.59 -0.48,11.06 0,11.55 0.48,12.5 0.48,7.69 -0.48,8.18 0,8.18 -0.96,7.69 -0.96,8.18 -1.45,7.69 -1.92,8.18 -1.92,7.7 -1.93,8.17 -2.88,7.7 -2.41,8.17 -3.37,7.7 -6.73,15.87 -7.69,15.88 26.45,1.92 26.93,2.88 28.38,3.37 28.86,4.33 29.34,4.81 30.3,5.77 30.3,6.74 30.78,7.69 30.78,8.18 30.79,9.14 30.78,9.62 30.78,10.58 30.3,11.54 29.82,12.5 29.34,13.47 28.86,13.95 27.9,14.91 26.93,15.87 25.97,16.84 24.53,17.31 23.57,18.76 22.12,19.24 20.68,20.2 19.24,21.16 17.32,22.13 15.39,22.6 13.46,24.05 11.07,24.53 9.14,25.97 6.73,26.45 4.33,27.42 1.92,28.86 -0.48,18.76 -0.96,18.75 -1.93,18.28 -2.4,18.28 -3.36,17.31 -3.85,16.83 -4.81,16.84 -5.77,16.35 -5.77,15.87 -6.74,15.87 -7.21,15.4 -7.7,14.91 -8.17,14.42 -8.66,14.43 -9.14,13.95 -9.62,13.95 -10.1,13.47 -10.1,12.99 -10.58,12.98 -11.07,12.5 -11.06,12.51 -11.54,12.02 -11.54,12.03 -11.55,11.54 -23.57,22.61 -24.04,22.13 -24.05,21.16 -24.05,20.68 15.87,12.98 15.87,12.99 14.91,13.47 14.43,13.47 13.95,13.94 12.99,13.95 12.98,14.43 12.03,14.91 11.06,14.91 11.06,15.87 9.62,15.87 9.62,16.84 8.18,17.31 7.69,17.32 3.37,9.13 3.36,9.62 3.37,9.14 2.89,9.62 6.73,0.96 6.25,1.45 6.26,1.44 5.77,1.92 5.29,1.93 4.81,2.88 4.81,2.89 4.33,2.88 3.85,3.85 3.84,3.37 3.37,3.85 2.89,4.32 2.88,4.33 2.41,4.82 1.92,4.8 1.92,4.81 1.45,4.82 1.44,5.28 0.48,5.29 0.48,5.3 0.48,5.29 0,5.77 -0.48,5.29 -0.48,5.77 -0.96,5.29 -1.45,5.77 -1.44,5.29 -1.92,5.77 -2.4,5.3 -2.41,5.28 -2.41,5.3 -3.36,5.29 -4.33,6.73 -4.81,6.74 -5.29,6.25 -5.77,6.25 -5.77,5.77 -6.26,5.77 -6.73,5.29 -6.74,5.29 -7.21,4.81 -7.21,4.81 -7.7,4.33 -7.69,4.33 -7.7,3.85 -8.18,3.85 -8.17,3.36 -8.66,3.37 -16.84,5.77 -17.31,4.81 -17.79,3.85 -17.32,2.88 -17.31,2.41 -16.84,0.96 -16.35,0.48 -15.39,-0.48 13.47,-14.43 12.5,-14.43 11.06,-13.95 10.1,-13.94 9.14,-13.95 8.18,-13.47 6.73,-13.47 5.77,-12.98 4.81,-13.47 3.85,-12.5 2.88,-12.99 2.41,-12.51 0.96,-12.02 0.49,-12.02 -0.49,-12.03 -1.44,-11.54 -1.93,-11.55 -2.4,-11.06 -3.37,-11.06 -3.84,-10.58 -4.81,-10.58 -5.29,-10.1 -5.78,-10.1 -6.25,-9.62 -6.73,-9.62 -7.22,-9.14 -7.69,-9.14 -8.18,-8.66 -8.17,-8.17 -8.66,-8.18 -9.14,-8.17 -9.14,-7.7 -54.83,-43.29 -11.06,10.58 -10.58,11.06 -10.59,10.59 -9.61,11.06 -9.14,11.06 -8.66,11.55 -8.18,11.06 -7.69,11.54 -7.22,11.54 -6.25,12.03 -5.77,12.02 -5.29,12.03 -4.33,12.02 -3.84,12.03 -3.37,12.5 -2.41,12.99 -1.92,12.5 -0.96,12.99 0,12.99 0.48,13.46 0.96,13.47 2.4,13.46 2.89,13.95 3.85,13.95 4.33,14.43 5.28,14.43 6.74,14.43 7.21,14.91 8.18,14.91 9.14,15.39 9.62,15.39 11.06,15.39 -16.35,-1.44 -16.35,-1.44 -16.36,-2.41 -15.39,-2.89 -15.39,-3.36 -15.39,-3.85 -14.43,-4.81 -14.43,-5.29 -13.46,-5.77 -13.47,-6.26 -12.99,-7.21 -12.51,-7.7 -12.02,-8.65 -11.54,-9.62 -11.06,-9.62 -10.58,-11.06 -5.78,-6.25 -5.29,-6.74 -5.29,-6.25 -4.33,-6.74 -3.84,-6.25 -3.37,-5.77 -2.89,-6.25 -2.4,-5.77 -1.45,-6.25 -1.44,-5.78 -0.96,-5.29 -0.48,-5.77 0,-5.29 0.48,-5.29 0.96,-5.29 1.44,-5.29 1.93,-4.81 2.4,-4.81 2.41,-4.81 3.37,-4.81 3.84,-4.33 4.33,-4.81 4.33,-3.85 5.29,-4.33 5.77,-3.84 5.77,-4.33 6.26,-3.37 7.21,-3.85 7.22,-3.36 7.69,-3.37 8.18,-3.37 8.66,-2.88 4.81,-19.24 4.8,-18.28 5.3,-17.31 5.29,-17.32 5.29,-15.87 6.25,-15.87 6.25,-14.91 6.25,-14.43 6.74,-14.43 7.69,-13.47 7.7,-13.47 8.17,-13.46 8.66,-12.99 9.14,-12.5 9.62,-12.99 10.1,-12.5 -123.61,-107.26 -11.54,-10.1 -11.06,-10.1 -10.58,-10.1 -10.11,-10.1 -9.62,-10.1 -9.61,-10.1 -8.66,-9.62 -8.18,-10.1 -8.18,-10.1 -7.21,-9.62 -7.21,-10.1 -6.74,-9.62 -6.25,-9.62 -5.77,-9.62 -5.29,-10.1 -5.29,-9.62 -4.81,-9.62 -4.33,-9.62 -3.85,-9.62 -3.85,-9.62 -3.36,-9.62 -2.89,-9.14 -2.88,-9.61 -2.41,-9.62 -1.92,-9.62 -1.93,-9.14 -1.44,-9.62 -1.44,-9.14 -0.97,-9.62 -0.48,-9.62 -0.48,-9.13 -0.48,-9.63 0,-17.79 0.96,-17.8 0.97,-16.83 1.92,-16.35 1.92,-15.39 2.89,-15.4 2.89,-14.42 3.84,-14.43 4.33,-13.47 4.33,-12.99 5.29,-12.5 5.29,-12.51 6.25,-11.54 6.26,-11.06 6.73,-10.59 7.22,-10.58 7.69,-9.62 7.7,-9.62 8.65,-8.65 8.66,-8.66 8.66,-8.18 9.62,-8.17 9.62,-7.22 10.1,-7.21 10.1,-6.73 10.58,-6.26 11.06,-6.25 11.06,-5.77 11.07,-5.77 12.02,-4.81 11.54,-5.3 12.51,-4.33 -10.1,-5.76 -9.62,-5.29 -10.58,-5.3 -10.59,-4.81 -11.06,-4.32 -11.54,-3.85 -12.02,-3.85 -12.03,-3.37 -12.5,-2.88 -12.51,-2.41 -12.99,-2.4 -13.46,-1.93 -13.95,-1.44 -13.47,-1.44 -14.43,-0.96 -14.42,-0.49 -13.47,0 -13.47,0.49 -13.47,0.48 -12.98,0.48 -12.51,1.44 -12.5,1.44 -12.51,1.44 -11.54,2.41 -11.55,2.41 -11.54,2.88 -10.58,3.37 -10.58,3.84 -10.1,3.86 -9.62,4.8 -9.14,4.81 -8.66,5.3 -8.17,6.25 -7.7,6.25 -7.69,6.73 -6.74,7.22 -6.25,8.18 -5.29,8.17 -5.29,8.66 -4.33,9.62 -4.33,10.1 -2.88,10.58 -2.89,11.06 -1.92,11.54 -1.45,12.51 -0.48,12.99 0,13.46 0.97,14.43 0.47,6.25 0.97,6.74 1.44,6.25 1.44,6.26 3.37,12.98 4.81,12.5 5.77,12.51 6.25,12.99 7.7,12.5 8.18,12.99 9.13,13.46 10.11,13.47 10.58,13.95 11.54,14.43 25.01,30.3 27.41,32.71 21.17,25.97 20.2,27.41 19.24,27.9 18.27,29.34 16.83,30.3 15.88,30.78 14.91,31.26 13.47,31.75 12.02,32.71 10.58,32.7 9.14,32.71 7.22,33.18 5.77,33.19 4.32,33.19 2.41,33.18 0.48,32.71 -1.44,32.22 -2.89,31.75 -5.29,31.74 -7.7,30.78 -9.61,29.82 -11.55,29.34 -13.95,28.38 -16.35,26.94 -18.75,26.45 -21.65,25.01 -23.57,23.57 -26.45,22.12 -29.34,20.68 -31.74,19.24 -34.63,17.32 -37.52,15.39 5.77,15.39 5.3,15.39 5.29,15.39 5.29,15.39 5.29,15.87 5.29,15.39 5.77,15.4 5.29,15.39 -17.31,0 -16.84,0.48 -16.83,0 -17.32,0.48 -16.83,0 -16.84,0.48 -17.31,0 -16.83,0.48 -0.48,-8.66 -0.49,-7.69 -0.96,-6.74 -1.44,-6.25 -1.93,-5.77 -2.4,-4.81 -2.41,-4.33 -2.88,-3.85 -3.37,-3.36 -3.37,-2.41 -3.36,-1.92 -3.85,-1.93 -3.37,-0.96 -3.84,-0.48 -4.33,0 -3.85,0.48 -3.85,0.96 -3.84,1.44 -3.85,1.93 -3.85,2.4 -3.85,2.41 -3.36,2.89 -3.37,3.36 -2.89,3.85 -2.88,4.33 -2.41,4.33 -2.4,4.81 -1.93,4.81 -1.44,5.29 -0.96,5.77 -0.96,5.77 0,5.77 -14.44,0.96 -14.42,0.96 -14.91,0.97 -14.43,0.96 -14.43,0.96 -14.43,0.49 -14.91,0.95 -14.43,0.97 -0.48,-8.66 -0.96,-8.18 -1.92,-7.69 -1.93,-6.73 -2.89,-6.26 -2.88,-5.29 -3.37,-4.81 -3.84,-4.33 -4.33,-3.36 -4.33,-2.89 -4.33,-2.41 -4.81,-1.92 -4.81,-0.96 -4.81,-0.48 -5.29,0 -4.81,0.48 -4.81,0.96 -4.81,1.45 -4.81,1.92 -4.33,2.88 -4.33,2.89 -3.85,3.36 -3.84,4.33 -3.37,4.33 -3.37,4.81 -2.4,5.3 -2.4,5.77 -1.45,6.25 -0.96,6.25 -0.48,7.21 0,7.22 0.96,7.69 -17.32,-0.48 -16.83,0 -16.83,-0.48 -17.32,0 -16.83,-0.48 -16.83,0 -17.32,-0.48 -16.83,0 3.84,-16.83 3.85,-16.84 3.85,-16.83 3.84,-16.83 3.37,-16.36 3.85,-16.83 3.85,-16.83 3.84,-16.84 -19.71,-0.96 -25.01,-0.96 -29.34,-1.45 -30.79,-0.96 -31.26,-0.96 -28.85,-0.48 -24.54,-0.48 -19.23,0.48 6.73,-26.94 6.73,-29.34 6.74,-31.26 6.73,-31.74 6.73,-32.23 6.25,-31.26 5.78,-29.34 5.77,-27.41 7.22,12.02 7.69,10.58 7.69,10.11 8.18,9.13 8.66,8.18 8.65,7.21 9.15,6.74 9.13,5.29 9.14,4.8 9.62,4.34 9.14,2.88 9.62,2.41 9.14,1.92 9.14,0.96 9.14,0.48 9.13,0 8.66,-0.96 8.66,-1.92 8.17,-1.93 7.7,-2.4 7.7,-3.37 7.21,-3.85 6.73,-4.32 6.25,-4.81 5.3,-5.29 5.29,-5.3 4.32,-6.25 4.33,-6.25 2.89,-7.21 2.41,-7.22 1.92,-7.22 0.96,-8.17 -12.51,1.92 -12.5,1.93 -12.51,0.96 -12.5,0.96 -12.99,0.48 -12.5,0.48 -12.51,-0.48 -12.5,-0.48 -12.51,-0.96 -12.5,-1.44 -12.51,-1.93 -12.5,-1.92 -12.51,-2.89 -12.5,-2.88 -12.51,-3.85 -12.5,-3.85 -15.88,-5.77 -15.87,-4.81 -16.35,-4.33 -15.87,-4.33 -15.87,-3.36 -15.87,-2.89 -15.4,-2.89 -15.87,-2.4 -15.87,-1.45 -15.87,-1.44 -15.87,-0.48 -15.88,-0.48 -15.87,0.48 -15.87,0.48 -15.87,1.44 -15.87,1.45 -11.07,1.92 -10.58,1.45 -10.1,2.4 -9.14,1.93 -8.65,2.88 -8.18,2.4 -7.7,3.37 -7.21,2.89 -6.73,3.37 -6.26,3.84 -5.77,3.85 -5.29,3.85 -4.81,4.33 -4.33,4.32 -4.33,4.33 -3.36,4.33 -3.37,4.81 -3.37,5.29 -2.4,4.81 -2.4,5.29 -2.41,5.29 -1.93,5.29 -1.44,5.78 -1.44,5.77 -2.41,11.54 -1.44,11.54 -0.96,12.51 -0.96,12.02 -5.78,-7.69 -5.28,-8.18 -4.81,-8.17 -3.85,-8.18 -3.37,-8.18 -2.4,-8.18 -2.41,-7.69 -1.44,-8.18 -1.44,-8.17 -0.49,-8.18 0,-8.17 0.49,-7.7 0.96,-8.18 0.96,-8.18 1.92,-7.69 1.93,-8.18 1.44,-4.8 1.92,-4.33 2.41,-4.82 2.41,-4.32 2.4,-4.33 3.37,-4.33 2.88,-3.85 3.37,-3.85 3.85,-3.36 4.32,-3.85 4.33,-2.89 4.33,-3.36 4.81,-2.89 4.81,-2.88 5.29,-2.89 5.77,-2.4 5.77,-1.93 5.77,-2.4 6.26,-1.93 6.73,-1.92 13.47,-2.89 14.91,-1.92 15.39,-1.45 16.35,-0.96 16.84,0.49 18.27,0.96 14.44,1.44 14.42,1.44 14.43,2.41 14.43,2.4 14.91,2.89 14.43,3.37 14.91,3.36 14.91,3.85 29.82,8.66 30.3,9.62 31.26,10.58 31.27,11.06 21.64,7.7 20.68,5.77 19.24,4.8 18.28,3.86 16.83,2.88 15.87,1.44 13.95,0.48 12.99,0 12.02,-0.96 10.1,-1.92 4.33,-0.96 4.33,-1.45 3.85,-1.44 3.37,-1.93 3.36,-1.44 2.41,-1.92 2.4,-1.93 1.92,-2.4 1.45,-2.4 0.96,-2.41 0.96,-2.41 0,-5.29 -0.96,-3.36 -1.44,-2.89 -1.93,-3.37 -2.88,-2.88 -3.37,-3.37 -3.85,-2.88 -4.33,-3.37 -4.81,-2.88 -5.29,-2.89 -5.77,-2.41 -6.25,-2.88 -6.73,-1.92 -6.74,-2.41 -7.7,-1.92 -7.21,-1.44 -8.17,-1.45 -8.18,-1.44 -8.66,-0.48 -8.65,-0.49 -9.15,-0.47 -9.13,0.47 -9.14,0.49 -9.62,1.44 -9.62,1.44 -9.62,1.93 -9.62,2.88 -9.62,2.89 -10.1,3.36 -9.62,4.34 -9.62,4.8 -10.1,5.29 0,-182.77 10.1,6.26 9.62,6.25 9.14,5.29 9.14,5.29 8.65,4.33 8.66,4.33 8.18,3.36 8.18,3.37 8.18,2.89 7.69,2.4 7.69,1.93 7.7,1.44 7.21,1.44 7.22,0.97 7.22,0.47 6.73,0.49 13.95,0 12.98,-0.49 12.99,-1.44 12.5,-2.4 24.53,-5.29 24.53,-5.29 -30.78,-4.33 -31.27,-5.77 -31.26,-5.77 -31.26,-7.22 -31.26,-7.69 -30.79,-8.18 -30.3,-9.14 -29.82,-9.14 -28.85,-10.1 -27.42,-10.1 -26.45,-11.06 -24.53,-11.06 -11.54,-5.29 -11.55,-5.77 -11.06,-5.78 -10.1,-5.77 -10.1,-5.77 -9.14,-5.77 -8.66,-6.25 -8.17,-5.78 -23.09,6.26 -23.57,5.77 -23.08,4.81 -23.57,4.32 -23.57,3.37 -24.05,3.37 -24.05,2.4 -24.52,1.93 -24.54,1.44 -25,0.96 -25.5,0.49 -25.97,0 -26.45,-0.49 -26.46,-0.96 -27.41,-0.96 -27.9,-1.44 -31.26,-1.45 -29.82,-0.48 -28.86,0 -13.95,0.48 -13.46,0.96 -13.47,0.97 -12.51,0.96 -12.98,1.44 -12.02,1.93 -12.03,1.92 -11.54,2.41 -11.07,2.4 -10.57,2.88 -10.59,3.37 -10.1,3.37 -10.1,3.85 -9.14,3.84 -9.13,4.33 -8.66,4.82 -8.18,5.28 -8.17,5.3 -7.7,5.77 -7.21,5.77 -6.74,6.73 -6.73,6.73 -5.77,6.74 -5.77,7.69 -5.3,7.7 -5.28,8.18 -2.89,6.25 -3.37,6.25 -2.4,6.73 -2.89,6.74 -1.92,7.21 -1.93,7.7 -1.92,7.69 -1.45,7.7 -2.88,16.84 -1.44,17.31 -0.97,18.27 0,19.24 0.48,19.24 0.97,20.2 1.92,20.68 2.41,21.17 2.88,21.16 3.37,21.64 3.85,21.65 4.32,22.12 1.45,8.66 0.96,8.17 0.96,8.18 0.96,7.7 0.49,7.69 0,7.7 -0.49,7.21 -0.47,7.22 -0.49,7.21 -0.96,6.74 -1.44,6.25 -1.44,6.25 -1.93,6.25 -1.92,5.77 -1.93,5.78 -2.4,5.77 -2.89,5.29 -2.88,4.81 -2.89,5.29 -3.37,4.81 -3.36,4.33 -3.37,4.32 -3.85,4.34 -3.85,3.84 -4.32,3.85 -4.33,3.37 -4.33,3.36 -4.33,3.37 -9.62,5.77 -9.62,4.81 -10.58,4.33 -10.58,3.37 -10.58,2.88 -11.07,1.93 -11.06,1.44 -11.06,0.96 -11.063,0 -11.058,-0.48 -11.547,-0.96 -11.063,-1.44 -11.062,-1.93 -11.063,-2.4 -11.062,-2.89 -11.059,-3.36 -11.066,-3.37 -10.582,-3.85 -8.656,4.81 -8.657,4.33 -8.656,4.33 -8.656,3.84 -8.66,3.37 -8.657,2.89 -9.136,2.4 -9.141,2.41 -9.137,2.4 -9.14,1.45 -9.617,1.44 -9.622,0.96 -10.101,0.96 -10.098,0.48 -10.101,0.48 -10.582,0 -15.871,-0.48 -15.391,-0.96 -15.391,-1.92 -15.39,-2.89 -14.434,-3.36 -14.906,-3.85 -13.949,-4.81 -13.95,-5.77 -13.468,-5.78 -13.461,-6.73 -12.989,-7.69 -12.503,-7.7 -12.028,-8.66 -11.543,-9.14 -11.062,-9.14 -10.582,-10.1 -10.098,-10.58 -9.621,-11.06 -9.137,-11.54 -8.656,-12.02 -8.18,-12.51 -7.215,-12.51 -6.73,-13.46 -6.254,-13.47 -5.769,-13.47 -4.813,-14.42 -3.848,-14.44 -3.367,-14.42 -2.883,-15.39 -1.925,-14.91 -0.961,-15.39 -0.485,-15.88 0.485,-16.83 1.441,-16.84 2.406,-16.83 2.883,-16.35 4.328,-15.87 4.813,-15.88 5.769,-15.39 6.735,-14.91 7.215,-14.42 8.175,-13.96 8.657,-13.46 9.621,-12.99 10.101,-12.5 10.582,-12.03 11.543,-11.54 12.024,-10.58 L 2.96875,32.6836 189.105,203.426 l 225.094,938.854 149.578,80.32 151.989,655.08 z m 194.793,122.16 42.324,-222.68 -23.567,0 -11.543,-0.96 -11.066,-1.45 -10.582,-2.41 -10.578,-2.88 -10.102,-3.37 -9.617,-4.33 -10.101,-4.33 -9.137,-5.29 -9.621,-5.76 -8.656,-6.26 -9.141,-6.73 -8.656,-7.22 -8.657,-7.69 -8.66,-8.18 -90.422,403.53 -12.984,1.44 -12.508,2.41 -12.023,2.89 -12.024,3.36 -12.023,3.85 -11.543,4.33 -11.063,4.81 -11.062,5.29 -10.582,6.25 -10.578,6.25 -10.106,6.74 -9.617,7.21 -9.621,7.7 -9.137,7.69 -8.66,8.66 -8.656,8.66 -7.695,9.14 -7.692,9.62 -7.215,9.62 -6.254,10.09 -6.254,10.59 -5.769,10.58 -5.293,11.06 -4.809,11.06 -4.328,11.55 -3.851,12.02 -3.364,12.03 -2.406,12.02 -1.926,12.5 -1.921,12.51 -0.481,12.99 -0.48,12.5 0.48,13.95 0.961,13.47 1.441,13.46 2.407,13.47 3.367,12.99 3.367,12.5 4.328,12.51 4.809,12.5 5.773,12.03 5.77,11.54 6.738,11.06 7.211,11.06 7.215,10.59 8.176,10.1 8.66,9.62 9.136,9.61 9.137,8.66 10.102,8.66 10.101,8.18 10.578,7.21 11.067,7.22 11.543,6.25 11.539,6.25 12.027,5.29 12.504,4.81 12.504,4.33 12.988,3.37 12.989,3.36 13.464,2.41 13.469,1.44 13.945,0.96 13.95,0.48 13.949,-0.48 13.949,-0.96 13.465,-1.44 13.469,-2.41 12.984,-3.36 12.984,-3.37 12.508,-4.33 12.504,-4.81 -17.797,-11.54 -17.312,-11.55 -17.797,-11.54 -17.313,-11.54 -9.14,0.96 -8.656,0.96 -9.141,0.48 -8.656,0.48 -10.582,-0.48 -10.582,-0.48 -10.582,-1.44 -10.098,-1.93 -10.102,-2.4 -9.617,-2.41 -9.621,-3.36 -9.621,-3.85 -9.133,-3.85 -8.66,-4.81 -8.66,-4.81 -8.656,-5.29 -8.176,-5.77 -7.695,-5.77 -7.696,-6.74 -7.215,-6.73 -6.734,-7.21 -6.25,-7.22 -6.254,-7.69 -5.769,-8.18 -5.293,-8.17 -5.289,-8.66 -4.329,-8.66 -4.332,-9.14 -3.847,-9.62 -3.364,-9.14 -2.406,-10.1 -2.406,-9.62 -1.926,-10.09 -1.441,-10.11 -0.481,-10.58 -0.48,-10.58 0.48,-10.58 0.481,-10.1 1.441,-10.1 1.926,-10.1 2.406,-10.1 2.406,-9.62 3.364,-9.62 3.847,-9.14 4.332,-9.14 4.329,-8.66 5.289,-8.65 5.293,-8.18 5.769,-8.17 6.254,-7.7 6.25,-7.69 6.734,-6.74 7.215,-6.73 7.696,-6.74 7.695,-6.25 8.176,-5.29 8.656,-5.29 8.66,-5.29 8.66,-4.33 9.133,-4.33 9.621,-3.37 9.621,-3.36 9.617,-2.89 10.102,-2.4 10.098,-1.45 10.582,-1.44 10.582,-0.96 18.277,0 8.176,0.48 7.695,0.96 8.176,0.96 7.699,1.45 7.695,1.44 7.215,1.92 7.696,1.93 7.214,2.4 7.211,2.89 6.739,2.88 7.211,3.37 6.734,3.37 6.254,3.36 6.73,3.85 6.254,4.33 3.848,-6.25 3.367,-5.77 2.887,-6.26 2.406,-6.25 2.402,-6.25 1.926,-6.74 1.922,-6.25 1.441,-6.25 1.926,-13.46 1.926,-12.99 1.441,-13.47 1.442,-13.47 1.445,-13.47 1.922,-13.94 1.922,-13.47 3.367,-13.94 1.926,-6.74 2.406,-7.22 2.406,-6.73 3.364,-6.73 3.367,-6.74 3.367,-6.73 4.328,-6.73 4.813,-6.74" />
      </g>
    </g>
  </g>
</svg>
