<?xml version="1.0" encoding="UTF-8" standalone="no"?>
<!-- Created with Inkscape (http://www.inkscape.org/) -->

<svg
   xmlns:dc="http://purl.org/dc/elements/1.1/"
   xmlns:cc="http://creativecommons.org/ns#"
   xmlns:rdf="http://www.w3.org/1999/02/22-rdf-syntax-ns#"
   xmlns:svg="http://www.w3.org/2000/svg"
   xmlns="http://www.w3.org/2000/svg"
   xmlns:sodipodi="http://sodipodi.sourceforge.net/DTD/sodipodi-0.dtd"
   xmlns:inkscape="http://www.inkscape.org/namespaces/inkscape"
   id="svg2"
   version="1.1"
   inkscape:version="0.91 r13725"
   xml:space="preserve"
   width="434.81845"
   height="328.6395"
   viewBox="0 0 434.81845 328.6395"
   sodipodi:docname="logo-filled-white.svg"><metadata
     id="metadata8"><rdf:RDF><cc:Work
         rdf:about=""><dc:format>image/svg+xml</dc:format><dc:type
           rdf:resource="http://purl.org/dc/dcmitype/StillImage" /><dc:title></dc:title></cc:Work></rdf:RDF></metadata><defs
     id="defs6" /><sodipodi:namedview
     pagecolor="#ffffff"
     bordercolor="#666666"
     borderopacity="1"
     objecttolerance="10"
     gridtolerance="10"
     guidetolerance="10"
     inkscape:pageopacity="0"
     inkscape:pageshadow="2"
     inkscape:window-width="1920"
     inkscape:window-height="1137"
     id="namedview4"
     showgrid="false"
     fit-margin-top="1"
     fit-margin-left="1"
     fit-margin-right="1"
     fit-margin-bottom="1"
     inkscape:zoom="0.89691211"
     inkscape:cx="160.12468"
     inkscape:cy="134.51594"
     inkscape:window-x="1358"
     inkscape:window-y="-8"
     inkscape:window-maximized="1"
     inkscape:current-layer="g10" /><g
     id="g10"
     inkscape:groupmode="layer"
     inkscape:label="20151006-graficky-manual-identity-cvut-v-praze"
     transform="matrix(1.25,0,0,-1.25,-260.85537,958.13725)"><path
       d="m 209.4843,506.1076 17.6451,14.4031 21.5852,90.0635 11.5827,6.0704 14.921,61.3649 -4.3543,22.3821 c -3.3429,0.6401 -7.3786,2.3344 -10.9074,4.2852"
       style="fill:#ffffff;fill-opacity:1;fill-rule:evenodd;stroke:none"
       id="path316"
       inkscape:connector-curvature="0" /><path
       d="m 284.6432,659.5963 c -0.576,0.4529 -1.1537,0.9062 -1.7297,1.3586 3.1742,4.5887 17.3707,13.7786 23.5965,1.4825 3.2425,-6.4063 1.3572,-14.3206 2.7178,-21.3718 2.0208,-10.4743 9.5942,-11.8604 18.7776,-4.4476 13.4135,13.6078 28.0992,23.8936 41.5544,29.8778 -0.2296,-17.5045 5.9987,-28.8043 19.721,-35.396 -2.5453,-3.0305 -8.7656,-7.6096 -14.624,-8.2681 6.8043,16.6102 -15.2294,8.2817 -21.8211,5.5503 -3.1141,-1.2898 -7.4092,-3.4115 -10.4148,-4.9357 -2.9707,-1.5812 -5.415,-3.6196 -6.1769,-6.7946 -1.6798,-6.9911 -2.8942,-10.6869 -10.1846,-11.2394 7.34,7.831 -2.4693,12.1892 -9.9136,10.6979 -6.2232,-1.2466 -12.6479,0.0618 -15.6892,6.5484 -4.5941,9.7945 -8.6579,18.1751 -16.6782,16.9245 0.523,2.9681 1.1007,6.2433 3.4591,8.524 6.7062,6.4857 13.4614,-5.2534 16.6317,-10.0434 -3.2185,9.015 -9.2211,23.0236 -20.5849,11.0319 -1.0709,0.6177 -2.1419,1.2353 -3.212,1.853 5.5823,7.2235 16.6686,17.0297 23.5962,1.3595 -1.2793,14.3929 -10.2719,13.8299 -19.0253,7.2882"
       style="fill:#ffffff;fill-opacity:1;fill-rule:evenodd;stroke:none"
       id="path318"
       inkscape:connector-curvature="0" /><path
       d="m 324.038,677.8942 c 20.2615,3.5969 30.0716,-2.2848 32.9034,-14.065 4.3382,2.3431 8.6749,4.688 13.013,7.0322 1.1104,8.4855 6.967,18.5159 13.3475,24.3559 -11.387,2.4227 -22.7764,3.2995 -34.162,2.9673 -18.9156,-0.5534 -32.597,1.2756 -37.0491,10.97 -2.7539,6.9517 -2.7867,17.0482 -0.3555,30.0093 2.8455,15.1668 -14.8427,20.5183 -27.4356,8.3129 l 2.2005,-2.8236 c 10.2455,8.2465 19.4771,1.7487 17.7443,-7.795 -2.6223,14.8584 -18.4816,8.3101 -24.9208,-1.0324 0.9091,-0.8127 1.8179,-1.6259 2.7267,-2.4386 3.4319,4.4705 7.503,7.7148 12.3434,7.6771 7.5606,-0.057 9.7121,-11.5475 6.6733,-18.3703 0.057,5.4389 -0.2897,10.4454 -2.9423,13.2041 -2.45,2.5469 -5.2007,2.202 -8.0374,0.3586 -6.6668,-4.3342 -8.5464,-7.941 -10.118,-11.7683 12.9731,3.723 13.4913,-10.7138 14.3513,-19.5653 0.5462,-5.6291 2.8854,-8.6981 5.6066,-9.6296 3.9147,-1.3396 7.4716,-4.176 9.1199,-8.8081 1.603,-4.5051 -1.0692,-6.6549 -5.2543,-8.6899 6.2828,-2.5582 13.3246,-1.1304 20.2451,0.0987"
       style="fill:#ffffff;fill-opacity:1;fill-rule:evenodd;stroke:none"
       id="path320"
       inkscape:connector-curvature="0" /><path
       d="m 490.5108,722.1895 c 5.758,-20.4174 -1.3091,-36.4958 -13.9791,-52.0438 -5.9964,-7.3593 -14.6616,-14.2461 -27.6001,-19.2532 -13.257,-5.1302 -21.9656,-12.0595 -22.6675,-24.1903 -16.0829,27.6517 12.5847,30.9591 36.2044,45.794 14.4467,9.0737 30.5019,25.9115 28.0423,49.6933"
       style="fill:#ffffff;fill-opacity:1;fill-rule:evenodd;stroke:none"
       id="path322"
       inkscape:connector-curvature="0" /><path
       d="m 469.9732,629.7602 c -5.5449,7.5776 -10.6571,12.4685 -6.3527,25.0333 -6.8185,-6.5194 -18.7197,-8.4858 -25.1822,-13.1014 -4.5085,-3.2199 -7.4395,-7.0586 -8.5266,-11.2468 -1.1727,-4.5266 1.9783,-5.7974 5.978,-7.4355 9.9952,-4.0952 17.3472,-13.4054 20.3539,-28.7978 3.5552,-6.2572 6.8082,-12.5141 10.3635,-18.7713 2.1506,-3.6411 3.6725,-6.6886 5.1372,-9.2387 4.4626,-7.7669 12.5841,-10.106 21.9183,-7.73 7.6873,1.9559 13.5794,1.3983 15.7847,-1.8553 4.8283,-5.6563 3.3506,-14.2719 -1.0542,-18.7577 -7.1674,-7.2967 -14.6857,-6.5886 -25.897,0.2767 -3.4381,2.1058 -8.2834,6.3141 -11.5194,8.7182 -6.4384,4.7852 -13.699,3.5039 -18.0902,-1.7022 -3.0676,-4.0833 -5.2103,-10.1316 -6.6382,-14.2141 0.9074,0.2183 4.83,-0.6071 5.7374,-1.6228 0.6536,3.4895 2.2229,6.9798 5.129,10.4695 3.812,3.5609 7.7068,4.3872 12.5166,1.3532 2.4965,-1.574 4.254,-2.8581 8.525,-7.2164 -3.2449,2.2516 -6.0373,4.083 -9.3456,5.5879 -12.0064,5.4613 -14.4371,-13.1374 -16.7207,-20.7671 2.5123,1.5088 5.0247,1.0462 7.5373,-0.3144 -1.3436,21.0455 17.8118,16.2972 27.6154,6.6487 -6.607,3.8888 -17.3137,9.6077 -21.8574,2.9823 -2.7884,-4.0638 -2.8998,-8.6837 -2.1988,-13.2945 4.8917,3.901 9.445,4.5428 13.5048,0.4187 2.8962,-2.2686 5.2994,-5.3756 8.6888,-6.8052 20.6121,-8.0441 20.7901,7.3826 33.4992,10.1552 5.8859,1.2826 11.9648,-1.9086 10.1552,-8.2707 3.8134,1.9069 6.9372,4.6103 7.0134,12.8767 0.1661,18.0476 -7.8477,32.565 -3.5594,54.2979 5.5287,2.2822 7.2816,5.5664 9.5269,10.6778 -10.6129,-1.544 -51.1316,-7.3326 -56.0072,5.654 -1.6911,4.5026 -2.2558,6.2915 -1.8845,10.9202 0.3507,4.3543 -1.4496,8.2295 -4.352,11.7193 10.334,0.2284 24.0628,1.8867 33.7275,4.898 18.7823,5.8529 42.4471,18.6046 42.2385,41.4059 -0.1443,15.8224 -10.1325,28.2178 -23.9471,39.0427 l -7.437,-6.1656 c 9.4691,-6.9384 22.8192,-19.9562 22.0232,-32.366 -1.1021,-17.1893 -17.1363,-27.2273 -33.2804,-23.5043 -12.4645,2.8783 -17.3104,13.0935 -17.6256,22.9291 -0.2968,9.2611 5.2206,16.85 12.0359,22.4862 9.6248,7.9602 18.2299,14.9006 27.1968,22.9674 6.5667,5.9091 9.9414,10.9035 13.1366,19.061 5.8495,1.6172 7.3295,6.2617 4.6454,11.7207 -3.8104,7.7485 -11.3604,9.5893 -19.3504,8.975 22.3506,-21.5773 -6.7992,-36.1403 -26.413,-51.6234 -10.8575,-8.57 -20.4403,-19.1443 -20.2711,-33.8902 -0.1902,-13.2746 7.0656,-26.992 25.8624,-30.9597 -13.9957,-8.2032 -36.5076,-9.5958 -42.3402,-1.6245"
       style="fill:#ffffff;fill-opacity:1;fill-rule:evenodd;stroke:none"
       id="path324"
       inkscape:connector-curvature="0" /><path
       d="m 521.1689,710.2111 c -15.2912,15.5183 -15.0355,26.4835 -2.7635,39.0603 -6.3011,-0.1108 -16.7916,-4.1579 -20.6589,-9.6199 -4.3197,-6.1022 -0.2149,-9.8941 5.3226,-12.0833 1.5579,-8.7375 5.3691,-15.658 11.2034,-22.2721"
       style="fill:#ffffff;fill-opacity:1;fill-rule:evenodd;stroke:none"
       id="path326"
       inkscape:connector-curvature="0" /><path
       d="m 428.5168,731.664 c -4.2863,0.0604 -8.574,-0.5542 -12.7783,-2.0143 -8.3361,-2.8933 -16.4069,-3.9909 -24.6969,-2.9568 -11.8596,1.48 -13.0926,7.2918 -13.3917,13.7401 -3.2434,-4.174 -3.6244,-8.432 -2.4347,-12.5224 1.4848,-5.1074 7.7026,-7.855 17.2182,-7.1305 7.5028,0.5712 15.0611,2.9832 23.3051,5.9579 5.3643,1.9346 9.7427,2.6648 12.8962,2.6231 -0.4966,-4.6511 -5.3901,-8.3205 -11.3182,-8.3205 -3.2255,0 -6.1424,1.0871 -8.2128,2.8261 0.1772,-3.24 0.5616,-10.7436 0.7518,-13.9861 9.5283,6.7912 21.0566,2.7057 29.1033,3.8673 5.6917,0.8206 10.6356,3.1286 12.9761,7.3378 4.9816,8.958 -0.9088,13.1944 -7.4273,16.2867 5.6962,0.8127 12.259,0.9096 14.855,4.9232 2.4627,3.8078 1.6579,8.6026 -5.9066,10.0216 -4.2403,0.7966 -7.6955,0.061 -11.0942,-0.5383 -2.052,-2.7306 -3.9348,-5.616 -6.594,-7.81 -2.5415,-1.8964 -5.042,-3.0549 -8.2499,-3.2057 -3.4782,0.1758 -5.7195,1.6421 -6.0838,5.3042 0.171,2.0143 0.6931,3.3267 1.7947,5 -6.0463,-0.2511 -12.0722,-0.4844 -18.0976,-0.7185 1.2153,-6.5365 2.3313,-12.3869 2.7718,-18.8836 4.6213,7.4489 18.3483,10.8864 20.6138,0.1987"
       style="fill:#ffffff;fill-opacity:1;fill-rule:evenodd;stroke:none"
       id="path328"
       inkscape:connector-curvature="0" /><path
       d="m 482.2121,740.4514 c 16.0582,-29.4718 -5.5253,-55.872 -22.8711,-65.7533 -23.98,-13.6596 -50.5485,-17.7749 -38.4987,-47.6558 -24.8913,19.2952 -13.7801,39.8713 11.103,48.7316 25.0957,8.9356 51.1115,23.4802 52.1841,49.0989 0.1846,4.4178 -0.572,10.1253 -1.9173,15.5786"
       style="fill:#ffffff;fill-opacity:1;fill-rule:evenodd;stroke:none"
       id="path330"
       inkscape:connector-curvature="0" /><path
       d="m 468.8572,712.662 c 9.5893,11.6829 10.9701,24.08 1.6157,36.5091 8.3659,-5.7413 11.0149,-14.5044 10.3666,-23.8714 -1.1055,-15.9823 -15.4927,-30.5507 -31.3135,-38.1541 -20.9982,-10.0905 -45.8739,-13.3203 -46.8399,-36.282 -0.4249,-10.1109 5.6154,-16.7539 11.6784,-22.8946 -13.8251,3.8466 -23.5613,15.1021 -23.8787,32.2801 -0.22,11.8973 7.5628,24.1412 30.1782,30.7176 20.7005,6.0188 39.2473,10.7958 48.1932,21.6953"
       style="fill:#ffffff;fill-opacity:1;fill-rule:evenodd;stroke:none"
       id="path332"
       inkscape:connector-curvature="0" /><path
       d="m 454.3625,735.9389 c 8.7903,2.6209 10.1325,7.9875 10.4309,14.6033 16.6743,-15.4928 5.2013,-39.026 -12.9826,-45.2982 -14.5293,-5.0114 -24.9081,-8.1352 -39.2681,-12.6338 -14.2018,-4.4481 -26.4572,-15.4726 -26.4257,-32.0692 0.0281,-14.6897 7.2116,-23.1287 15.4318,-29.62 -15.7768,3.4359 -28.7266,11.5461 -28.8059,34.0738 -0.0627,17.7316 12.1867,31.1981 27.0827,35.5057 13.9686,4.0391 28.4891,7.2263 43.5107,10.3218 12.081,2.4902 18.7946,14.2767 11.0262,25.1166"
       style="fill:#ffffff;fill-opacity:1;fill-rule:evenodd;stroke:none"
       id="path334"
       inkscape:connector-curvature="0" /><path
       d="m 424.3107,746.6828 c 0.3314,2.0069 1.2274,3.1374 2.7749,4.7047 3.8409,0.2392 8.2145,0.5799 11.9463,0.5632 -2.1603,-2.8511 -3.6765,-5.3892 -7.4083,-7.2918 -3.7319,-1.9029 -7.8639,-1.3181 -7.3129,2.0239"
       style="fill:#ffffff;fill-opacity:1;fill-rule:evenodd;stroke:none"
       id="path336"
       inkscape:connector-curvature="0" /><path
       d="m 328.3682,522.3742 c -0.6973,-0.4507 -1.4593,-0.9136 -2.2229,-1.3765 l 3.4718,14.6905 c 9e-4,0.003 0.002,0.006 0.002,0.009 -3.6266,-0.0601 -4.9462,-0.3297 -8.2721,-1.7807 1.9469,4.987 4.0686,8.0586 6.1087,12.0416 -3.0427,0.4212 -4.0887,0.5309 -8.7205,-1.0679 0.8541,2.6561 2.5421,7.0376 3.6933,9.0103 l -11.7956,58.6675 c -4.9133,-0.0459 -8.9764,2.1081 -11.4273,6.878 -3.4421,6.6991 -8.621,16.1144 -12.5597,15.0097 l 3.8369,-18.8152 10.5174,-5.4037 c 6.1376,-30.1663 13.6381,-66.9436 19.7748,-97.1099 l 11.4392,-8.7287"
       style="fill:#ffffff;fill-opacity:1;fill-rule:evenodd;stroke:none"
       id="path338"
       inkscape:connector-curvature="0" /><path
       d="m 431.0172,618.5134 c 0.4419,0.694 0.883,1.387 1.3244,2.081 8.4078,-3.589 15.5463,-11.2556 20.4236,-26.1922 -2.3318,0.3785 -4.6928,0.6095 -6.9965,1.135 -2.4667,0.5624 -3.9237,1.9301 -3.5932,5.1999 0.9732,9.6525 -3.5385,15.1614 -11.1583,17.7763"
       style="fill:#ffffff;fill-opacity:1;fill-rule:evenodd;stroke:none"
       id="path340"
       inkscape:connector-curvature="0" /><path
       d="m 425.482,617.3904 c 0.9794,1.5372 1.959,3.0741 2.9384,4.6102 -5.957,2.5495 -12.6088,2.7051 -18.5794,0.9987 -8.8234,-2.5212 -17.905,-4.2364 -26.5102,-7.4225 -19.8887,-7.3659 -14.7458,-27.9043 -7.1739,-42.5971 5.7084,-11.0784 15.9035,-33.3343 1.785,-37.6299 -14.0465,-2.4812 -16.651,20.762 -27.6421,28.3716 -10.1043,5.796 -21.0478,-5.2766 -26.1705,-13.2448 l 5.0048,-1.3252 c 3.3908,4.716 7.2238,10.0828 12.8296,10.1525 4.9269,0.061 9.1032,-4.8194 9.8348,-9.2684 -3.7774,5.4726 -9.1267,9.7699 -14.5703,4.1207 -4.0422,-4.1955 -6.8298,-9.5091 -9.4201,-15.0123 l 3.975,-0.1474 c 2.5092,7.1056 9.9405,13.7424 17.5768,8.5176 2.5798,-1.764 6.5866,-6.4599 10.5344,-14.9936 -5.9091,7.259 -14.2013,21.2899 -23.4017,10.1557 -3.2993,-3.9943 -3.9116,-9.523 -5.1517,-14.5712 4.6808,2.9112 9.4572,4.0031 13.8356,-0.5888 0.9706,-1.0179 1.8176,-2.1787 2.4625,-3.4276 4.9665,-9.6191 21.6824,-17.7307 30.2227,-9.9369 2.4443,2.2309 8.3948,6.675 12.8165,6.838 4.1193,0.1525 6.213,-5.0788 5.2753,-8.3381 6.1399,0.5865 11.0132,5.0987 13.0989,18.25 0.5383,12.377 1.078,24.753 1.6172,37.1294 4.4884,1.3597 9.4626,3.3522 11.3244,10.8992 -6.2595,-2.6102 -12.4611,-2.2332 -16.5155,0.8166 -3.244,2.4404 -4.407,5.8343 -2.9424,8.7353 1.9004,3.763 8.9765,4.0847 17.1845,1.5049 11.1915,-3.5178 22.5272,-3.0325 34.9651,-1.0086 -0.328,0.6171 -0.2911,1.7538 -0.9825,1.8491 -5.8819,0.8152 -10.6515,1.0669 -12.8407,2.9576 -2.4386,2.1042 -2.8752,4.409 -2.4579,6.9007 1.6413,9.809 -4.0255,14.4408 -12.9226,16.7046"
       style="fill:#ffffff;fill-opacity:1;fill-rule:evenodd;stroke:none"
       id="path342"
       inkscape:connector-curvature="0" /><path
       d="m 290.6853,703.5384 c 0.3577,-4.1111 1.8938,-5.8037 4.0334,-8.7285 l 4.5915,-22.7605 c -8.5456,0.8824 -14.0624,-4.0408 -18.4172,-8.265 l -6.9993,36.36 c 5.4028,-0.3608 11.9905,0.8881 16.7916,3.394"
       style="fill:#ffffff;fill-opacity:1;fill-rule:evenodd;stroke:none"
       id="path344"
       inkscape:connector-curvature="0" /><path
       d="m 274.2466,698.2047 -1.3187,6.9573 16.9381,3.2505 0.9131,-6.2467"
       style="fill:#ffffff;fill-opacity:1;fill-rule:evenodd;stroke:none"
       id="path346"
       inkscape:connector-curvature="0" /><path
       d="m 421.151,759.541 1.5026,-5.7237 c 13.8617,1.6413 28.5843,1.5562 43.9784,0.1333 1.3187,3.3074 2.6399,6.6075 3.9645,9.9133 -3.0475,0.155 -6.0998,0.3072 -9.1434,0.4711 -1.525,-1.963 -3.0716,-4.7347 -5.7356,-4.8541 -3.4889,-0.1573 -5.3796,2.8693 -7.4999,5.4139 -2.1232,0.0312 -4.2409,0.0635 -6.359,0.0978 -1.8964,-3.0642 -3.2777,-5.5743 -7.1169,-5.5199 -3.8191,0.0547 -5.3017,3.0396 -7.003,6.2371 l -8.0379,-0.5221"
       style="fill:#ffffff;fill-opacity:1;fill-rule:evenodd;stroke:none"
       id="path348"
       inkscape:connector-curvature="0" /><path
       d="m 276.874,746.1765 c 1.8868,9e-4 3.3282,-0.2117 4.5043,-0.5519 l -1.7031,2.3545 6.6413,5.7484 c -2.9129,1.1279 -6.0744,1.7504 -9.3784,1.7504 -14.3705,0 -26.0873,-11.7176 -26.0873,-26.0873 0,-14.3745 11.7168,-26.092 26.0873,-26.092 4.7089,0 9.129,1.2594 12.9489,3.456 -0.1941,4.1808 0.005,8.649 -2.2518,9.7287 -2.9143,-2.3462 -6.846,-3.8848 -10.6963,-3.8848 -9.2486,0 -16.7882,7.5404 -16.7882,16.7913 0,9.2262 7.5045,16.7513 16.7233,16.7867"
       style="fill:#ffffff;fill-opacity:1;fill-rule:evenodd;stroke:none"
       id="path350"
       inkscape:connector-curvature="0" /></g></svg>