<?xml version="1.0" encoding="UTF-8" standalone="no"?>
<svg
   xmlns:dc="http://purl.org/dc/elements/1.1/"
   xmlns:cc="http://creativecommons.org/ns#"
   xmlns:rdf="http://www.w3.org/1999/02/22-rdf-syntax-ns#"
   xmlns:svg="http://www.w3.org/2000/svg"
   xmlns="http://www.w3.org/2000/svg"
   xmlns:sodipodi="http://sodipodi.sourceforge.net/DTD/sodipodi-0.dtd"
   xmlns:inkscape="http://www.inkscape.org/namespaces/inkscape"
   version="1.1"
   id="svg9071"
   viewBox="0 0 754.06831 477.48215"
   height="134.75607mm"
   width="212.81483mm"
   inkscape:version="0.91 r13725"
   sodipodi:docname="logo.svg">
  <sodipodi:namedview
     pagecolor="#ffffff"
     bordercolor="#666666"
     borderopacity="1"
     objecttolerance="10"
     gridtolerance="10"
     guidetolerance="10"
     inkscape:pageopacity="0"
     inkscape:pageshadow="2"
     inkscape:window-width="1920"
     inkscape:window-height="1137"
     id="namedview24"
     showgrid="false"
     inkscape:zoom="1.3979765"
     inkscape:cx="374.30331"
     inkscape:cy="263.07366"
     inkscape:window-x="-8"
     inkscape:window-y="-8"
     inkscape:window-maximized="1"
     inkscape:current-layer="g9026" />
  <defs
     id="defs9073" />
  <metadata
     id="metadata9076">
    <rdf:RDF>
      <cc:Work
         rdf:about="">
        <dc:format>image/svg+xml</dc:format>
        <dc:type
           rdf:resource="http://purl.org/dc/dcmitype/StillImage" />
        <dc:title />
      </cc:Work>
    </rdf:RDF>
  </metadata>
  <g
     transform="translate(-228.68014,-753.62118)"
     id="layer1">
    <g
       id="g9026"
       transform="matrix(0.92241827,0,0,-0.92241827,221.12057,1584.9871)">
      <g
         transform="translate(523.2139,821.4082)"
         id="g5541">
        <path
           id="path5543"
           style="fill:#5b5955;fill-opacity:1;fill-rule:nonzero;stroke:none"
           d="m 0,0 c -19.218,-18.681 -28.826,-41.864 -28.826,-69.012 l 0,-6.791 184.451,0 c 9.619,0 14.685,-5.099 14.685,-14.721 0,-10.164 -5.066,-15.276 -14.685,-15.276 l -184.451,0 0,-179.3 c 0,-9.625 -5.123,-14.701 -14.738,-14.701 -10.16,0 -15.264,5.076 -15.264,14.701 l 0,216.088 c 0,35.622 12.444,65.619 37.33,90.516 25.44,25.447 55.437,37.868 91.064,37.868 10.191,0 15.279,-5.1 15.279,-15.264 0,-10.189 -5.088,-15.276 -15.279,-15.276 C 42.414,28.832 19.206,19.205 0,0" />
      </g>
      <g
         transform="translate(805.167,535.1865)"
         id="g5545">
        <path
           id="path5547"
           style="fill:#5b5955;fill-opacity:1;fill-rule:nonzero;stroke:none"
           d="m 0,0 c 0,-9.614 -5.081,-14.715 -14.707,-14.715 -33.372,0 -61.106,13.02 -83.141,39.595 -20.945,25.453 -31.116,54.869 -31.116,88.805 l 0,216.645 c 0,10.164 5.07,15.264 14.716,15.264 10.164,0 15.252,-5.1 15.252,-15.264 l 0,-120.288 85.43,0 c 9.614,0 14.696,-5.076 14.696,-14.708 0,-10.2 -5.082,-15.271 -14.696,-15.271 l -85.43,0 0,-66.378 c 0,-25.455 7.351,-48.066 22.634,-67.331 C -59.976,25.453 -39.623,15.289 -14.707,15.289 -5.081,15.289 0,10.165 0,0" />
      </g>
      <g
         transform="translate(498.4258,501.2422)"
         id="g5549">
        <path
           id="path5551"
           style="fill:#f6b627;fill-opacity:1;fill-rule:nonzero;stroke:none"
           d="m 0,0 c 26.658,0 48.468,8.886 66.001,31.281 16.369,20.615 24.241,44.837 24.241,72.07 l 0,86.416 c 0,10.887 5.44,16.34 16.339,16.34 10.313,0 15.742,-5.453 15.742,-16.34 l 0,-86.416 C 122.323,67.04 111.436,35.533 89.005,8.289 65.41,-20.173 35.729,-34.112 0,-34.112 L 0,0 Z" />
      </g>
      <g
         transform="translate(175.002,508.1455)"
         id="g5553">
        <path
           id="path5555"
           style="fill:#f6b627;fill-opacity:1;fill-rule:nonzero;stroke:none"
           d="m 0,0 c -21.646,8.086 -40.272,19.659 -55.883,34.721 -15.616,15.037 -27.757,33.289 -36.402,54.738 -8.662,21.465 -12.98,45.528 -12.98,72.252 0,25.209 4.132,48.631 12.4,70.273 8.279,21.636 20.046,40.352 35.292,56.16 15.237,15.801 33.383,28.224 54.459,37.253 19.991,8.563 42.203,13.016 66.595,13.457 l 0,34.981 C 35.443,373.313 9.002,368.03 -15.814,357.849 -41.962,347.123 -64.83,332.354 -84.393,313.542 c -19.561,-18.811 -34.993,-41.021 -46.276,-66.599 -11.294,-25.601 -16.931,-53.442 -16.931,-83.547 0,-30.481 5.166,-58.612 15.515,-84.363 10.353,-25.8 24.921,-47.907 43.751,-66.336 18.812,-18.443 41.478,-32.836 68.008,-43.177 24.745,-9.653 53.76,-10.452 83.807,-10.517 l 0,34.069 C 40.173,-7.047 19.635,-7.352 0,0" />
      </g>
      <path
         transform="translate(248.56689,847.0869)"
         id="path5559"
         style="fill:#5b5955;fill-opacity:1;fill-rule:nonzero;stroke:none"
         d="m 0,0 c 23.697,0 45.438,-3.207 65.193,-9.591 19.744,-6.402 36.872,-16.005 51.366,-28.791 14.472,-12.798 25.771,-28.504 33.863,-47.137 8.086,-18.614 12.146,-40.154 12.146,-64.622 0,-14.304 -1.526,-27.656 -4.532,-40.077 -3.007,-12.405 -7.234,-23.135 -12.702,-32.175 -5.453,-9.028 -12.036,-16.172 -19.747,-21.438 -7.715,-5.28 -16.288,-7.907 -25.694,-7.907 -6.01,0 -10.809,0.847 -14.375,2.543 -3.585,1.696 -6.516567,3.86742 -8.47,6.772 -1.862916,2.76999 -3.456621,6.27638 -3.951,9.029 -0.574962,3.20129 -0.848,6.487 -0.848,9.879 0,2.626 0.179,6.02 0.567,10.162 0.369,4.134 0.935,8.372 1.684,12.707 0.756,4.313 1.419,8.457 1.979,12.398 0.569,3.965 1.222,7.25 1.976,9.889 l 11.125,51.712 11.441,53.275 -34.992,0 c 0,0 -3.3329,-18.264815 -4.937276,-26.85593 C 52.053405,-148.62633 41.968,-245.432 41.968,-245.432 c 0.454,-8.958 3.673,-16.997 9.641,-24.115 0.687,-0.824 1.249,-1.708 2.019,-2.508 7.895,-8.291 20.316,-12.423 37.247,-12.423 14.676,0 28.594,2.915 41.768,8.755 13.163,5.817 24.735,14.572 34.714,26.241 9.977,11.658 17.961,26.157 23.98,43.455 6.028,17.307 9.033,37.271 9.033,59.839 0,30.481 -5.549,57.015 -16.64,79.583 -11.113,22.592 -25.974,41.391 -44.604,56.453 C 120.51,4.885 99.144,16.184 75.071,23.708 50.977,31.239 26.155,34.996 0.559,34.996 c -1.519,0 -3.016,-0.075 -4.528,-0.102 l 0,-34.981 C -2.643,-0.062 -1.338,0 0,0" />
      <g
         transform="translate(251.78659,501.2422)"
         id="g5561"
         style="fill:#5b5955;fill-opacity:1">
        <path
           id="path5563"
           style="fill:#5b5955;fill-opacity:1;fill-rule:nonzero;stroke:none"
           d="m 0,0 c -2.438,0 -4.811,-0.013 -7.188,-0.024 l 0,-34.07 c 2.168,-0.006 4.323,-0.018 6.501,-0.018 l 241.168,0 0,34.112 L 0,0 Z" />
      </g>
      <g
         transform="translate(281.8608,659.6929)"
         id="g5565">
        <ellipse
           style="opacity:1;fill:none;fill-opacity:1;stroke:#5b5955;stroke-width:31.9568367;stroke-linecap:round;stroke-linejoin:round;stroke-miterlimit:4;stroke-dasharray:none;stroke-opacity:1"
           id="path9009"
           cx="-62.671124"
           cy="7.0749974"
           transform="matrix(0.94947491,-0.31384296,-0.31384296,-0.94947491,0,0)"
           rx="71.430916"
           ry="95.507843" />
      </g>
      <g
         transform="translate(604.5527,792.6792)"
         id="g5569">
        <path
           id="path5571"
           style="fill:#f6b627;fill-opacity:1;fill-rule:nonzero;stroke:none"
           d="m 0,0 c 11.591,0 17.385,-5.796 17.385,-17.919 l 0,-0.525 c 0,-12.118 -5.794,-17.913 -17.385,-17.913 -11.592,0 -17.392,5.795 -17.392,17.913 l 0,0.525 C -17.392,-5.796 -11.592,0 0,0" />
      </g>
      <text
         id="text5573"
         style="font-variant:normal;font-weight:normal;font-stretch:normal;font-size:45.29949951px;font-family:Arial;-inkscape-font-specification:ArialMT;writing-mode:lr-tb;fill:#5b5955;fill-opacity:1;fill-rule:nonzero;stroke:none"
         transform="matrix(1,0,0,-1,464.3857,412.3877)">
        <tspan
           id="tspan5575"
           y="0"
           x="0 32.706238 57.892761 95.627243 120.81377 146.00029 171.18681 181.2433 206.42982 229.07957 275.05856 302.73657 315.32983">Companies@FIT</tspan>
      </text>
    </g>
  </g>
</svg>
